G04 #@! TF.FileFunction,Copper,L1,Top,Signal*
%FSLAX46Y46*%
G04 Gerber Fmt 4.6, Leading zero omitted, Abs format (unit mm)*
G04 Created by KiCad (PCBNEW 4.0.6-e0-6349~52~ubuntu16.10.1) date Fri Apr 28 23:24:08 2017*
%MOMM*%
%LPD*%
G01*
G04 APERTURE LIST*
%ADD10C,0.100000*%
%ADD11O,2.500000X0.900000*%
%ADD12O,0.900000X2.500000*%
%ADD13R,6.000000X6.000000*%
%ADD14R,0.750000X0.800000*%
%ADD15R,0.800000X0.750000*%
%ADD16R,0.900000X0.800000*%
%ADD17R,0.500000X0.900000*%
%ADD18R,0.900000X0.500000*%
%ADD19R,1.050000X0.650000*%
%ADD20R,0.800000X0.900000*%
%ADD21R,1.000000X1.600000*%
%ADD22O,0.850000X0.300000*%
%ADD23O,0.300000X0.850000*%
%ADD24R,1.675000X1.675000*%
%ADD25R,2.000000X3.800000*%
%ADD26R,2.000000X1.500000*%
%ADD27R,1.700000X1.700000*%
%ADD28O,1.700000X1.700000*%
%ADD29R,0.800000X0.800000*%
%ADD30R,0.400000X1.350000*%
%ADD31R,2.100000X2.000000*%
%ADD32R,1.600000X1.900000*%
%ADD33R,1.200000X1.900000*%
%ADD34C,0.600000*%
%ADD35C,0.250000*%
%ADD36C,0.200000*%
G04 APERTURE END LIST*
D10*
D11*
X180627800Y-71204000D03*
X180627800Y-72474000D03*
X180627800Y-73744000D03*
X180627800Y-75014000D03*
X180627800Y-76284000D03*
X180627800Y-77554000D03*
X180627800Y-78824000D03*
X180627800Y-80094000D03*
X180627800Y-81364000D03*
X180627800Y-82634000D03*
X180627800Y-83904000D03*
X180627800Y-85174000D03*
X180627800Y-86444000D03*
X180627800Y-87714000D03*
D12*
X177342800Y-89204000D03*
X176072800Y-89204000D03*
X174802800Y-89204000D03*
X173532800Y-89204000D03*
X172262800Y-89204000D03*
X170992800Y-89204000D03*
X169722800Y-89204000D03*
X168452800Y-89204000D03*
X167182800Y-89204000D03*
X165912800Y-89204000D03*
D11*
X162627800Y-87714000D03*
X162627800Y-86444000D03*
X162627800Y-85174000D03*
X162627800Y-83904000D03*
X162627800Y-82634000D03*
X162627800Y-81364000D03*
X162627800Y-80094000D03*
X162627800Y-78824000D03*
X162627800Y-77554000D03*
X162627800Y-76284000D03*
X162627800Y-75014000D03*
X162627800Y-73744000D03*
X162627800Y-72474000D03*
X162627800Y-71204000D03*
D13*
X171327800Y-78904000D03*
D14*
X171767500Y-93865000D03*
X171767500Y-95365000D03*
D15*
X166180200Y-103733600D03*
X164680200Y-103733600D03*
X162700400Y-103733600D03*
X161200400Y-103733600D03*
X162700400Y-106273600D03*
X161200400Y-106273600D03*
X178701000Y-106222800D03*
X180201000Y-106222800D03*
D16*
X175472600Y-102702400D03*
X175472600Y-100802400D03*
X173472600Y-101752400D03*
X175472600Y-95488800D03*
X175472600Y-93588800D03*
X173472600Y-94538800D03*
D17*
X183312500Y-106235500D03*
X181812500Y-106235500D03*
D18*
X180784500Y-94627000D03*
X180784500Y-96127000D03*
X178879500Y-94627000D03*
X178879500Y-96127000D03*
D19*
X182329000Y-115574500D03*
X186479000Y-115574500D03*
X182329000Y-117724500D03*
X186479000Y-117724500D03*
D20*
X166945600Y-101422200D03*
X169045600Y-101422200D03*
D19*
X157310000Y-115638000D03*
X161460000Y-115638000D03*
X157310000Y-117788000D03*
X161460000Y-117788000D03*
D14*
X171780200Y-102553200D03*
X171780200Y-101053200D03*
D15*
X166167500Y-106172000D03*
X164667500Y-106172000D03*
D21*
X168299000Y-106273600D03*
X171299000Y-106273600D03*
D18*
X175488600Y-97344800D03*
X175488600Y-98844800D03*
X171831000Y-98844800D03*
X171831000Y-97344800D03*
D22*
X178271000Y-98931600D03*
X178271000Y-99431600D03*
X178271000Y-99931600D03*
X178271000Y-100431600D03*
X178271000Y-100931600D03*
X178271000Y-101431600D03*
X178271000Y-101931600D03*
D23*
X179221000Y-102881600D03*
X179721000Y-102881600D03*
X180221000Y-102881600D03*
X180721000Y-102881600D03*
X181221000Y-102881600D03*
X181721000Y-102881600D03*
X182221000Y-102881600D03*
D22*
X183171000Y-101931600D03*
X183171000Y-101431600D03*
X183171000Y-100931600D03*
X183171000Y-100431600D03*
X183171000Y-99931600D03*
X183171000Y-99431600D03*
X183171000Y-98931600D03*
D23*
X182221000Y-97981600D03*
X181721000Y-97981600D03*
X181221000Y-97981600D03*
X180721000Y-97981600D03*
X180221000Y-97981600D03*
X179721000Y-97981600D03*
X179221000Y-97981600D03*
D24*
X181558500Y-101269100D03*
X181558500Y-99594100D03*
X179883500Y-101269100D03*
X179883500Y-99594100D03*
D25*
X167259400Y-98196400D03*
D26*
X160959400Y-98196400D03*
X160959400Y-100496400D03*
X160959400Y-95896400D03*
D27*
X149860000Y-71120000D03*
D28*
X149860000Y-73660000D03*
X149860000Y-76200000D03*
X149860000Y-78740000D03*
X149860000Y-81280000D03*
X149860000Y-83820000D03*
X149860000Y-86360000D03*
X149860000Y-88900000D03*
X149860000Y-91440000D03*
X149860000Y-93980000D03*
X149860000Y-96520000D03*
X149860000Y-99060000D03*
X149860000Y-101600000D03*
X149860000Y-104140000D03*
X149860000Y-106680000D03*
X149860000Y-109220000D03*
X149860000Y-111760000D03*
X193040000Y-73660000D03*
X193040000Y-76200000D03*
X193040000Y-78740000D03*
X193040000Y-81280000D03*
X193040000Y-83820000D03*
X193040000Y-86360000D03*
X193040000Y-88900000D03*
X193040000Y-91440000D03*
X193040000Y-93980000D03*
X193040000Y-96520000D03*
X193040000Y-99060000D03*
X193040000Y-101600000D03*
X193040000Y-104140000D03*
X193040000Y-106680000D03*
X193040000Y-109220000D03*
X193040000Y-111760000D03*
D18*
X173672500Y-98857500D03*
X173672500Y-97357500D03*
D29*
X167373200Y-117932200D03*
X165773200Y-117932200D03*
D30*
X177220400Y-114264400D03*
X176570400Y-114264400D03*
X175920400Y-114264400D03*
X175270400Y-114264400D03*
X174620400Y-114264400D03*
D31*
X179020400Y-114589400D03*
X172820400Y-114589400D03*
D32*
X171820400Y-116939400D03*
D33*
X175070400Y-116939400D03*
X176770400Y-116939400D03*
D32*
X180020400Y-116939400D03*
D20*
X169071000Y-95046800D03*
X166971000Y-95046800D03*
D34*
X166624000Y-74549000D03*
X169087800Y-93700600D03*
X169799000Y-106476800D03*
X179451000Y-107899200D03*
X167182800Y-105308400D03*
X167106600Y-107264200D03*
X161036000Y-81991200D03*
X161036000Y-80721200D03*
X161036000Y-79451200D03*
X161036000Y-78181200D03*
X161061400Y-75641200D03*
X161061400Y-76911200D03*
X161061400Y-73101200D03*
X161061400Y-74371200D03*
X194894200Y-69977000D03*
X189484000Y-69977000D03*
X186309000Y-69977000D03*
X183134000Y-69977000D03*
X179959000Y-69977000D03*
X176784000Y-69977000D03*
X173609000Y-69977000D03*
X170434000Y-69977000D03*
X167259000Y-69977000D03*
X164084000Y-69977000D03*
X160909000Y-69977000D03*
X157734000Y-69977000D03*
X154559000Y-69977000D03*
X151384000Y-69977000D03*
X182473600Y-83261200D03*
X182422800Y-84734400D03*
X182499000Y-81991200D03*
X182499000Y-80721200D03*
X182499000Y-78359000D03*
X182499000Y-75641200D03*
X182727600Y-71170800D03*
X182499000Y-73101200D03*
X182499000Y-74371200D03*
X182499000Y-76911200D03*
X157289500Y-91630500D03*
X178282600Y-103987600D03*
X180822600Y-104394000D03*
X180873400Y-100838000D03*
X171729400Y-99974400D03*
X163855400Y-104749600D03*
X160909000Y-93929200D03*
X177977800Y-105003600D03*
X169418000Y-102743000D03*
X184467500Y-74993500D03*
X180784500Y-92837000D03*
X183769000Y-76263500D03*
X179006500Y-92837000D03*
X163601400Y-115570000D03*
X171780200Y-103759000D03*
X166039800Y-75336400D03*
X170713400Y-99263200D03*
X184607200Y-106349800D03*
X181483000Y-97078800D03*
X175641000Y-99923600D03*
X186563000Y-113919000D03*
X173405800Y-93268800D03*
X178841400Y-87782400D03*
X168529000Y-117602000D03*
X181864000Y-107188000D03*
D35*
X182753000Y-76301600D02*
X182753000Y-76284000D01*
X182753000Y-76284000D02*
X182753000Y-76301600D01*
X182753000Y-76301600D02*
X182753000Y-76284000D01*
X182753000Y-76284000D02*
X182938600Y-76284000D01*
X169071000Y-95046800D02*
X169071000Y-93760000D01*
X164549000Y-72474000D02*
X162627800Y-72474000D01*
X166624000Y-74549000D02*
X164549000Y-72474000D01*
X169087800Y-93743200D02*
X169087800Y-93700600D01*
X169071000Y-93760000D02*
X169087800Y-93743200D01*
X166180200Y-103733600D02*
X166420800Y-103733600D01*
X166420800Y-103733600D02*
X167995600Y-102158800D01*
X169071000Y-99889600D02*
X169071000Y-95046800D01*
X167995600Y-100965000D02*
X169071000Y-99889600D01*
X167995600Y-102158800D02*
X167995600Y-100965000D01*
X169071000Y-95046800D02*
X169533000Y-95046800D01*
X169533000Y-95046800D02*
X171831000Y-97344800D01*
X149860000Y-73660000D02*
X150050500Y-73660000D01*
X150050500Y-73660000D02*
X151236500Y-72474000D01*
X151236500Y-72474000D02*
X162627800Y-72474000D01*
X169595800Y-106273600D02*
X169799000Y-106476800D01*
X168299000Y-106273600D02*
X169595800Y-106273600D01*
X171831000Y-97344800D02*
X171463400Y-97344800D01*
X166180200Y-103733600D02*
X166180200Y-106222800D01*
X166180200Y-106222800D02*
X166231000Y-106273600D01*
X166231000Y-106273600D02*
X168299000Y-106273600D01*
X166293800Y-106412600D02*
X166154800Y-106273600D01*
X179451000Y-107899200D02*
X191655700Y-107899200D01*
X191655700Y-107899200D02*
X192976500Y-109220000D01*
X193040000Y-109220000D02*
X193040000Y-108966000D01*
X179451000Y-107899200D02*
X179501800Y-107899200D01*
X176770400Y-116939400D02*
X180020400Y-116939400D01*
X180020400Y-116939400D02*
X180805500Y-117724500D01*
X180805500Y-117724500D02*
X182329000Y-117724500D01*
X182329000Y-117724500D02*
X186479000Y-117724500D01*
X164667500Y-106172000D02*
X164667500Y-107060300D01*
X164871400Y-107264200D02*
X167106600Y-107264200D01*
X164667500Y-107060300D02*
X164871400Y-107264200D01*
X165824000Y-118961000D02*
X165824000Y-117919500D01*
X166052500Y-119189500D02*
X165824000Y-118961000D01*
X168529000Y-119189500D02*
X166052500Y-119189500D01*
X170741000Y-116977500D02*
X168529000Y-119189500D01*
X179058500Y-114627500D02*
X179058500Y-115977500D01*
X179058500Y-115977500D02*
X180058500Y-116977500D01*
X171858500Y-116977500D02*
X170741000Y-116977500D01*
X175108500Y-116977500D02*
X171858500Y-116977500D01*
X171858500Y-116977500D02*
X172858500Y-115977500D01*
X172858500Y-115977500D02*
X172858500Y-114627500D01*
X172858500Y-114627500D02*
X173183500Y-114302500D01*
X173183500Y-114302500D02*
X174658500Y-114302500D01*
X176808500Y-116977500D02*
X175108500Y-116977500D01*
X161036000Y-81991200D02*
X161010600Y-81965800D01*
X161036000Y-80721200D02*
X161036000Y-80746600D01*
X161036000Y-79451200D02*
X161061400Y-79451200D01*
X161036000Y-78181200D02*
X161036000Y-78155800D01*
X161061400Y-76911200D02*
X161061400Y-76936600D01*
X161061400Y-74371200D02*
X161036000Y-74371200D01*
X149860000Y-71120000D02*
X150241000Y-71120000D01*
X150241000Y-71120000D02*
X151384000Y-69977000D01*
X186309000Y-69977000D02*
X189484000Y-69977000D01*
X179959000Y-69977000D02*
X183134000Y-69977000D01*
X173609000Y-69977000D02*
X176784000Y-69977000D01*
X167259000Y-69977000D02*
X170434000Y-69977000D01*
X160909000Y-69977000D02*
X164084000Y-69977000D01*
X154559000Y-69977000D02*
X157734000Y-69977000D01*
X182422800Y-84734400D02*
X182448200Y-84759800D01*
X182499000Y-81991200D02*
X182499000Y-82016600D01*
X182499000Y-80721200D02*
X182473600Y-80721200D01*
X182499000Y-78359000D02*
X182499000Y-78384400D01*
X182694400Y-71204000D02*
X182727600Y-71170800D01*
X180627800Y-71204000D02*
X182694400Y-71204000D01*
X182499000Y-76911200D02*
X182499000Y-76885800D01*
X192443500Y-111760000D02*
X186479000Y-117724500D01*
X165824000Y-117919500D02*
X161591500Y-117919500D01*
X161591500Y-117919500D02*
X161460000Y-117788000D01*
X161460000Y-117788000D02*
X157310000Y-117788000D01*
X165912800Y-89204000D02*
X159716000Y-89204000D01*
X159716000Y-89204000D02*
X157289500Y-91630500D01*
X149860000Y-109220000D02*
X158317500Y-109220000D01*
X158317500Y-109220000D02*
X161238500Y-106299000D01*
X149860000Y-71120000D02*
X162543800Y-71120000D01*
X162543800Y-71120000D02*
X162627800Y-71204000D01*
X181558500Y-99594100D02*
X179883500Y-99594100D01*
X179883500Y-99594100D02*
X179883500Y-101269100D01*
X179883500Y-101269100D02*
X181558500Y-101269100D01*
X171780200Y-101053200D02*
X171780200Y-101142800D01*
X171780200Y-101142800D02*
X170662600Y-102260400D01*
X170662600Y-105637200D02*
X171299000Y-106273600D01*
X170662600Y-102260400D02*
X170662600Y-105637200D01*
X178271000Y-99931600D02*
X179546000Y-99931600D01*
X179546000Y-99931600D02*
X179883500Y-99594100D01*
X180201000Y-105015600D02*
X180822600Y-104394000D01*
X180201000Y-106222800D02*
X180201000Y-105015600D01*
X180873400Y-100838000D02*
X181304500Y-101269100D01*
X181304500Y-101269100D02*
X181558500Y-101269100D01*
X179546000Y-99931600D02*
X179883500Y-99594100D01*
X171780200Y-100025200D02*
X171780200Y-101053200D01*
X171729400Y-99974400D02*
X171780200Y-100025200D01*
X163855400Y-104749600D02*
X164680200Y-104749600D01*
X164680200Y-104749600D02*
X164668200Y-104749600D01*
X164668200Y-104749600D02*
X164680200Y-104749600D01*
X160959400Y-95896400D02*
X160567400Y-95896400D01*
X160567400Y-95896400D02*
X159334200Y-97129600D01*
X159334200Y-101816600D02*
X161251200Y-103733600D01*
X159334200Y-97129600D02*
X159334200Y-101816600D01*
X160959400Y-93979600D02*
X160959400Y-95896400D01*
X160909000Y-93929200D02*
X160959400Y-93979600D01*
X171327800Y-78904000D02*
X171327800Y-80970400D01*
X171327800Y-80970400D02*
X166243000Y-86055200D01*
X166243000Y-86055200D02*
X166243000Y-88873800D01*
X166243000Y-88873800D02*
X165912800Y-89204000D01*
X171327800Y-78904000D02*
X171327800Y-71292800D01*
X171327800Y-71292800D02*
X171239000Y-71204000D01*
X162543800Y-71120000D02*
X162627800Y-71204000D01*
X162627800Y-71204000D02*
X171239000Y-71204000D01*
X171239000Y-71204000D02*
X180627800Y-71204000D01*
X164680200Y-103733600D02*
X164680200Y-104749600D01*
X164680200Y-104749600D02*
X164680200Y-106222800D01*
X164680200Y-106222800D02*
X164629400Y-106273600D01*
X161251200Y-106273600D02*
X161251200Y-103733600D01*
X161251200Y-103975600D02*
X161251200Y-103733600D01*
X192976500Y-111760000D02*
X192443500Y-111760000D01*
X166945600Y-101422200D02*
X161885200Y-101422200D01*
X161885200Y-101422200D02*
X160959400Y-100496400D01*
X149860000Y-111760000D02*
X157264800Y-111760000D01*
X157264800Y-111760000D02*
X162751200Y-106273600D01*
X162751200Y-106273600D02*
X162751200Y-103733600D01*
X162751200Y-103733600D02*
X160959400Y-101941800D01*
X160959400Y-101941800D02*
X160959400Y-100496400D01*
X169045600Y-102370600D02*
X169045600Y-101422200D01*
X169418000Y-102743000D02*
X169045600Y-102370600D01*
X177258500Y-114302500D02*
X177258500Y-111031500D01*
X178701000Y-109589000D02*
X178701000Y-106222800D01*
X177258500Y-111031500D02*
X178701000Y-109589000D01*
X178401500Y-106522300D02*
X178701000Y-106222800D01*
X177977800Y-105003600D02*
X177927000Y-105054400D01*
X177927000Y-105054400D02*
X177825400Y-105054400D01*
X177977800Y-105003600D02*
X178485800Y-105003600D01*
X178701000Y-105218800D02*
X178485800Y-105003600D01*
X178485800Y-105003600D02*
X178638200Y-105003600D01*
X178638200Y-105003600D02*
X179221000Y-104420800D01*
X179221000Y-104420800D02*
X179221000Y-102881600D01*
X178701000Y-106222800D02*
X178701000Y-105218800D01*
X178271000Y-101931600D02*
X178271000Y-102858400D01*
X178294200Y-102881600D02*
X179221000Y-102881600D01*
X178271000Y-102858400D02*
X178294200Y-102881600D01*
X178668200Y-106255600D02*
X178701000Y-106222800D01*
X179221000Y-102881600D02*
X179221000Y-102947600D01*
X178271000Y-101931600D02*
X178282600Y-101943200D01*
X180784500Y-94627000D02*
X180784500Y-92837000D01*
X184467500Y-74993500D02*
X184467500Y-75014000D01*
X184467500Y-75014000D02*
X184467500Y-75057000D01*
X184467500Y-75057000D02*
X184467500Y-75014000D01*
X183464200Y-75014000D02*
X184467500Y-75014000D01*
X184467500Y-75014000D02*
X189250500Y-75014000D01*
X189250500Y-75014000D02*
X192976500Y-78740000D01*
X180627800Y-75014000D02*
X183464200Y-75014000D01*
X175958500Y-114302500D02*
X175958500Y-110642400D01*
X176860200Y-101041200D02*
X177469800Y-100431600D01*
X176860200Y-107289600D02*
X176860200Y-101041200D01*
X176860200Y-109740700D02*
X176860200Y-107289600D01*
X177469800Y-100431600D02*
X178271000Y-100431600D01*
X175958500Y-110642400D02*
X176860200Y-109740700D01*
X177317400Y-109474000D02*
X177317400Y-110274100D01*
X176608500Y-110983000D02*
X176608500Y-114302500D01*
X177317400Y-110274100D02*
X176608500Y-110983000D01*
X177731800Y-100931600D02*
X178271000Y-100931600D01*
X177317400Y-109561502D02*
X177317400Y-109474000D01*
X177317400Y-109474000D02*
X177317400Y-107035600D01*
X177317400Y-107035600D02*
X177317400Y-101346000D01*
X177317400Y-101346000D02*
X177731800Y-100931600D01*
X178879500Y-94627000D02*
X178879500Y-92964000D01*
X183705500Y-76263500D02*
X183705500Y-76284000D01*
X183726000Y-76284000D02*
X183705500Y-76263500D01*
X183748500Y-76284000D02*
X183726000Y-76284000D01*
X183769000Y-76263500D02*
X183748500Y-76284000D01*
X178879500Y-92964000D02*
X179006500Y-92837000D01*
X180627800Y-76284000D02*
X183705500Y-76284000D01*
X183705500Y-76284000D02*
X187980500Y-76284000D01*
X187980500Y-76284000D02*
X192976500Y-81280000D01*
X163601400Y-115570000D02*
X161528000Y-115570000D01*
X161528000Y-115570000D02*
X161460000Y-115638000D01*
X161460000Y-115638000D02*
X157310000Y-115638000D01*
X171780200Y-102553200D02*
X171780200Y-103759000D01*
X163601400Y-115570000D02*
X163533400Y-115638000D01*
X149860000Y-76200000D02*
X150177500Y-76200000D01*
X150177500Y-76200000D02*
X152633500Y-73744000D01*
X152633500Y-73744000D02*
X162627800Y-73744000D01*
X171831000Y-98844800D02*
X171131800Y-98844800D01*
X164447400Y-73744000D02*
X162627800Y-73744000D01*
X166039800Y-75336400D02*
X164447400Y-73744000D01*
X171131800Y-98844800D02*
X170713400Y-99263200D01*
X171831000Y-98844800D02*
X171831000Y-98856800D01*
X171831000Y-98856800D02*
X173625000Y-100650800D01*
X173625000Y-100650800D02*
X173625000Y-101752400D01*
X173625000Y-101752400D02*
X173625000Y-101990400D01*
X173625000Y-101990400D02*
X173062200Y-102553200D01*
X173062200Y-102553200D02*
X171780200Y-102553200D01*
X173675800Y-101387400D02*
X173675800Y-101752400D01*
X173786800Y-101863400D02*
X173675800Y-101752400D01*
X162627800Y-75014000D02*
X153586000Y-75014000D01*
X153586000Y-75014000D02*
X149860000Y-78740000D01*
X162627800Y-76284000D02*
X154856000Y-76284000D01*
X154856000Y-76284000D02*
X149860000Y-81280000D01*
X162627800Y-77554000D02*
X156126000Y-77554000D01*
X156126000Y-77554000D02*
X149860000Y-83820000D01*
X162627800Y-78824000D02*
X157396000Y-78824000D01*
X157396000Y-78824000D02*
X149860000Y-86360000D01*
X162627800Y-80094000D02*
X158666000Y-80094000D01*
X158666000Y-80094000D02*
X149860000Y-88900000D01*
X162627800Y-81364000D02*
X159936000Y-81364000D01*
X159936000Y-81364000D02*
X149860000Y-91440000D01*
X162627800Y-82634000D02*
X161206000Y-82634000D01*
X161206000Y-82634000D02*
X149860000Y-93980000D01*
X162627800Y-83904000D02*
X161015500Y-83904000D01*
X151701500Y-94678500D02*
X149860000Y-96520000D01*
X151701500Y-93218000D02*
X151701500Y-94678500D01*
X161015500Y-83904000D02*
X151701500Y-93218000D01*
X162627800Y-85174000D02*
X160634500Y-85174000D01*
X152336500Y-96583500D02*
X149860000Y-99060000D01*
X152336500Y-93472000D02*
X152336500Y-96583500D01*
X160634500Y-85174000D02*
X152336500Y-93472000D01*
X162627800Y-86444000D02*
X160253500Y-86444000D01*
X152971500Y-98488500D02*
X149860000Y-101600000D01*
X152971500Y-93726000D02*
X152971500Y-98488500D01*
X160253500Y-86444000D02*
X152971500Y-93726000D01*
X149860000Y-101600000D02*
X150114000Y-101600000D01*
X162627800Y-87714000D02*
X159936000Y-87714000D01*
X153606500Y-100393500D02*
X149860000Y-104140000D01*
X153606500Y-94043500D02*
X153606500Y-100393500D01*
X159936000Y-87714000D02*
X153606500Y-94043500D01*
X149860000Y-104140000D02*
X150241000Y-104140000D01*
X167182800Y-89204000D02*
X167182800Y-91071700D01*
X154178000Y-102362000D02*
X149860000Y-106680000D01*
X154178000Y-94424500D02*
X154178000Y-102362000D01*
X156019500Y-92583000D02*
X154178000Y-94424500D01*
X165671500Y-92583000D02*
X156019500Y-92583000D01*
X167182800Y-91071700D02*
X165671500Y-92583000D01*
X180627800Y-72474000D02*
X191790500Y-72474000D01*
X191790500Y-72474000D02*
X192976500Y-73660000D01*
X180627800Y-73744000D02*
X190520500Y-73744000D01*
X190520500Y-73744000D02*
X192976500Y-76200000D01*
X180627800Y-77554000D02*
X186710500Y-77554000D01*
X186710500Y-77554000D02*
X192976500Y-83820000D01*
X180627800Y-80094000D02*
X186710500Y-80094000D01*
X186710500Y-80094000D02*
X192976500Y-86360000D01*
X180627800Y-80094000D02*
X181668600Y-80094000D01*
X180627800Y-81364000D02*
X185440500Y-81364000D01*
X185440500Y-81364000D02*
X192976500Y-88900000D01*
X184492900Y-106235500D02*
X183312500Y-106235500D01*
X184607200Y-106349800D02*
X184492900Y-106235500D01*
X180627800Y-82634000D02*
X184170500Y-82634000D01*
X184170500Y-82634000D02*
X192976500Y-91440000D01*
X180627800Y-83904000D02*
X182900500Y-83904000D01*
X182900500Y-83904000D02*
X192976500Y-93980000D01*
X180627800Y-85174000D02*
X181630500Y-85174000D01*
X181630500Y-85174000D02*
X192976500Y-96520000D01*
X191389000Y-97472500D02*
X192976500Y-99060000D01*
X191389000Y-95758000D02*
X191389000Y-97472500D01*
X180627800Y-86444000D02*
X182075000Y-86444000D01*
X182075000Y-86444000D02*
X191389000Y-95758000D01*
X190373000Y-101536500D02*
X192976500Y-104140000D01*
X190373000Y-96208002D02*
X190373000Y-101536500D01*
X177342800Y-89204000D02*
X183368998Y-89204000D01*
X183368998Y-89204000D02*
X190373000Y-96208002D01*
X189801500Y-103505000D02*
X192976500Y-106680000D01*
X189801500Y-96456500D02*
X189801500Y-103505000D01*
X185229500Y-91884500D02*
X189801500Y-96456500D01*
X192786000Y-106680000D02*
X193040000Y-106680000D01*
X176072800Y-89204000D02*
X176072800Y-90284300D01*
X176072800Y-90284300D02*
X177673000Y-91884500D01*
X177673000Y-91884500D02*
X185229500Y-91884500D01*
X176072800Y-89204000D02*
X176072800Y-90144600D01*
X176606200Y-96367600D02*
X176606200Y-96418400D01*
X178169400Y-97981600D02*
X179221000Y-97981600D01*
X176606200Y-96418400D02*
X178169400Y-97981600D01*
X175641000Y-97344800D02*
X175641000Y-97332800D01*
X175641000Y-97332800D02*
X176606200Y-96367600D01*
X176606200Y-96367600D02*
X176606200Y-94620800D01*
X176606200Y-94620800D02*
X175574200Y-93588800D01*
X173761400Y-98844800D02*
X173761400Y-98938800D01*
X173761400Y-98938800D02*
X175625000Y-100802400D01*
X175625000Y-100802400D02*
X175625000Y-99939600D01*
X181221000Y-97340800D02*
X181221000Y-97981600D01*
X181483000Y-97078800D02*
X181221000Y-97340800D01*
X175625000Y-99939600D02*
X175641000Y-99923600D01*
X175472600Y-102702400D02*
X175859400Y-102702400D01*
X175859400Y-102702400D02*
X176352200Y-102209600D01*
X176352200Y-102209600D02*
X176352200Y-99708400D01*
X176352200Y-99708400D02*
X175488600Y-98844800D01*
X173761400Y-97344800D02*
X173761400Y-97301600D01*
X173761400Y-97301600D02*
X175574200Y-95488800D01*
X190881000Y-99504500D02*
X192976500Y-101600000D01*
X190881000Y-95954002D02*
X190881000Y-99504500D01*
X182329000Y-115574500D02*
X186479000Y-115574500D01*
X186479000Y-115574500D02*
X186563000Y-115490500D01*
X186563000Y-115490500D02*
X186563000Y-113919000D01*
X180627800Y-87714000D02*
X182640998Y-87714000D01*
X182640998Y-87714000D02*
X190881000Y-95954002D01*
X171780200Y-93890400D02*
X172925800Y-93890400D01*
X172925800Y-93890400D02*
X173574200Y-94538800D01*
X180627800Y-87714000D02*
X178909800Y-87714000D01*
X173574200Y-93437200D02*
X173574200Y-94538800D01*
X173405800Y-93268800D02*
X173574200Y-93437200D01*
X178909800Y-87714000D02*
X178841400Y-87782400D01*
X160959400Y-98196400D02*
X162229800Y-98196400D01*
X165379400Y-95046800D02*
X166971000Y-95046800D01*
X162229800Y-98196400D02*
X165379400Y-95046800D01*
X160959400Y-98196400D02*
X161518600Y-98196400D01*
X180721000Y-97981600D02*
X180721000Y-96152400D01*
X180721000Y-96152400D02*
X180771800Y-96101600D01*
X178892200Y-96101600D02*
X179185000Y-96101600D01*
X179185000Y-96101600D02*
X180221000Y-97137600D01*
X180221000Y-97137600D02*
X180221000Y-97981600D01*
X167424000Y-117919500D02*
X168211500Y-117919500D01*
X168529000Y-117602000D02*
X168211500Y-117919500D01*
X181812500Y-107136500D02*
X181864000Y-107188000D01*
X181812500Y-107136500D02*
X181812500Y-106235500D01*
X181799800Y-106273600D02*
X181799800Y-106566400D01*
X181799800Y-106273600D02*
X181799800Y-106668000D01*
X181799800Y-106273600D02*
X181799800Y-106718800D01*
X181799800Y-106273600D02*
X181799800Y-106515600D01*
D36*
G36*
X148494562Y-69925596D02*
X148402000Y-70149062D01*
X148402000Y-70814000D01*
X148554000Y-70966000D01*
X149706000Y-70966000D01*
X149706000Y-70946000D01*
X150014000Y-70946000D01*
X150014000Y-70966000D01*
X151166000Y-70966000D01*
X151243849Y-70888151D01*
X160818046Y-70888151D01*
X160934984Y-71050000D01*
X162473800Y-71050000D01*
X162473800Y-70146000D01*
X162781800Y-70146000D01*
X162781800Y-71050000D01*
X164320616Y-71050000D01*
X164437554Y-70888151D01*
X178818046Y-70888151D01*
X178934984Y-71050000D01*
X180473800Y-71050000D01*
X180473800Y-70146000D01*
X180781800Y-70146000D01*
X180781800Y-71050000D01*
X182320616Y-71050000D01*
X182437554Y-70888151D01*
X182284814Y-70564776D01*
X181974957Y-70285469D01*
X181581800Y-70146000D01*
X180781800Y-70146000D01*
X180473800Y-70146000D01*
X179673800Y-70146000D01*
X179280643Y-70285469D01*
X178970786Y-70564776D01*
X178818046Y-70888151D01*
X164437554Y-70888151D01*
X164284814Y-70564776D01*
X163974957Y-70285469D01*
X163581800Y-70146000D01*
X162781800Y-70146000D01*
X162473800Y-70146000D01*
X161673800Y-70146000D01*
X161280643Y-70285469D01*
X160970786Y-70564776D01*
X160818046Y-70888151D01*
X151243849Y-70888151D01*
X151318000Y-70814000D01*
X151318000Y-70149062D01*
X151225438Y-69925596D01*
X151186342Y-69886500D01*
X195332400Y-69886500D01*
X195332400Y-118364000D01*
X195341227Y-118408374D01*
X195282485Y-118703689D01*
X195090066Y-118991666D01*
X194802089Y-119184085D01*
X194462326Y-119251669D01*
X194373500Y-119234000D01*
X181422830Y-119234000D01*
X180686230Y-118497400D01*
X180941339Y-118497400D01*
X181164805Y-118404837D01*
X181255517Y-118314125D01*
X181288562Y-118393904D01*
X181459595Y-118564937D01*
X181683061Y-118657500D01*
X182023000Y-118657500D01*
X182175000Y-118505500D01*
X182175000Y-117878500D01*
X182483000Y-117878500D01*
X182483000Y-118505500D01*
X182635000Y-118657500D01*
X182974939Y-118657500D01*
X183198405Y-118564937D01*
X183369438Y-118393904D01*
X183462000Y-118170438D01*
X183462000Y-118030500D01*
X185346000Y-118030500D01*
X185346000Y-118170438D01*
X185438562Y-118393904D01*
X185609595Y-118564937D01*
X185833061Y-118657500D01*
X186173000Y-118657500D01*
X186325000Y-118505500D01*
X186325000Y-117878500D01*
X186633000Y-117878500D01*
X186633000Y-118505500D01*
X186785000Y-118657500D01*
X187124939Y-118657500D01*
X187348405Y-118564937D01*
X187519438Y-118393904D01*
X187612000Y-118170438D01*
X187612000Y-118030500D01*
X187460000Y-117878500D01*
X186633000Y-117878500D01*
X186325000Y-117878500D01*
X185498000Y-117878500D01*
X185346000Y-118030500D01*
X183462000Y-118030500D01*
X183310000Y-117878500D01*
X182483000Y-117878500D01*
X182175000Y-117878500D01*
X182155000Y-117878500D01*
X182155000Y-117570500D01*
X182175000Y-117570500D01*
X182175000Y-116943500D01*
X182483000Y-116943500D01*
X182483000Y-117570500D01*
X183310000Y-117570500D01*
X183462000Y-117418500D01*
X183462000Y-117278562D01*
X185346000Y-117278562D01*
X185346000Y-117418500D01*
X185498000Y-117570500D01*
X186325000Y-117570500D01*
X186325000Y-116943500D01*
X186633000Y-116943500D01*
X186633000Y-117570500D01*
X187460000Y-117570500D01*
X187612000Y-117418500D01*
X187612000Y-117278562D01*
X187519438Y-117055096D01*
X187348405Y-116884063D01*
X187124939Y-116791500D01*
X186785000Y-116791500D01*
X186633000Y-116943500D01*
X186325000Y-116943500D01*
X186173000Y-116791500D01*
X185833061Y-116791500D01*
X185609595Y-116884063D01*
X185438562Y-117055096D01*
X185346000Y-117278562D01*
X183462000Y-117278562D01*
X183369438Y-117055096D01*
X183198405Y-116884063D01*
X182974939Y-116791500D01*
X182635000Y-116791500D01*
X182483000Y-116943500D01*
X182175000Y-116943500D01*
X182023000Y-116791500D01*
X181683061Y-116791500D01*
X181459595Y-116884063D01*
X181428400Y-116915258D01*
X181428400Y-116785398D01*
X181276402Y-116785398D01*
X181428400Y-116633400D01*
X181428400Y-116535200D01*
X190613566Y-116535200D01*
X190767332Y-117308234D01*
X191205220Y-117963580D01*
X191860566Y-118401468D01*
X192633600Y-118555234D01*
X193406634Y-118401468D01*
X194061980Y-117963580D01*
X194499868Y-117308234D01*
X194653634Y-116535200D01*
X194499868Y-115762166D01*
X194061980Y-115106820D01*
X193406634Y-114668932D01*
X192633600Y-114515166D01*
X191860566Y-114668932D01*
X191205220Y-115106820D01*
X190767332Y-115762166D01*
X190613566Y-116535200D01*
X181428400Y-116535200D01*
X181428400Y-115868462D01*
X181335838Y-115644996D01*
X181164805Y-115473963D01*
X180941339Y-115381400D01*
X180678400Y-115381400D01*
X180678400Y-115249500D01*
X181498123Y-115249500D01*
X181498123Y-115899500D01*
X181519042Y-116010673D01*
X181584745Y-116112779D01*
X181684997Y-116181278D01*
X181804000Y-116205377D01*
X182854000Y-116205377D01*
X182965173Y-116184458D01*
X183067279Y-116118755D01*
X183135778Y-116018503D01*
X183139626Y-115999500D01*
X185666940Y-115999500D01*
X185669042Y-116010673D01*
X185734745Y-116112779D01*
X185834997Y-116181278D01*
X185954000Y-116205377D01*
X187004000Y-116205377D01*
X187115173Y-116184458D01*
X187217279Y-116118755D01*
X187285778Y-116018503D01*
X187309877Y-115899500D01*
X187309877Y-115249500D01*
X187288958Y-115138327D01*
X187223255Y-115036221D01*
X187123003Y-114967722D01*
X187004000Y-114943623D01*
X186988000Y-114943623D01*
X186988000Y-114342530D01*
X187071359Y-114259317D01*
X187162896Y-114038871D01*
X187163104Y-113800176D01*
X187071952Y-113579571D01*
X186903317Y-113410641D01*
X186682871Y-113319104D01*
X186444176Y-113318896D01*
X186223571Y-113410048D01*
X186054641Y-113578683D01*
X185963104Y-113799129D01*
X185962896Y-114037824D01*
X186054048Y-114258429D01*
X186138000Y-114342528D01*
X186138000Y-114943623D01*
X185954000Y-114943623D01*
X185842827Y-114964542D01*
X185740721Y-115030245D01*
X185672222Y-115130497D01*
X185668374Y-115149500D01*
X183141060Y-115149500D01*
X183138958Y-115138327D01*
X183073255Y-115036221D01*
X182973003Y-114967722D01*
X182854000Y-114943623D01*
X181804000Y-114943623D01*
X181692827Y-114964542D01*
X181590721Y-115030245D01*
X181522222Y-115130497D01*
X181498123Y-115249500D01*
X180678400Y-115249500D01*
X180678400Y-114895400D01*
X180526400Y-114743400D01*
X179174400Y-114743400D01*
X179174400Y-114763400D01*
X178866400Y-114763400D01*
X178866400Y-114743400D01*
X178846400Y-114743400D01*
X178846400Y-114435400D01*
X178866400Y-114435400D01*
X178866400Y-113133400D01*
X179174400Y-113133400D01*
X179174400Y-114435400D01*
X180526400Y-114435400D01*
X180678400Y-114283400D01*
X180678400Y-113468462D01*
X180585838Y-113244996D01*
X180414805Y-113073963D01*
X180191339Y-112981400D01*
X179326400Y-112981400D01*
X179174400Y-113133400D01*
X178866400Y-113133400D01*
X178714400Y-112981400D01*
X177849461Y-112981400D01*
X177683500Y-113050144D01*
X177683500Y-112138910D01*
X191632097Y-112138910D01*
X191776523Y-112487616D01*
X192151146Y-112915741D01*
X192661089Y-113167915D01*
X192886000Y-113057856D01*
X192886000Y-111914000D01*
X193194000Y-111914000D01*
X193194000Y-113057856D01*
X193418911Y-113167915D01*
X193928854Y-112915741D01*
X194303477Y-112487616D01*
X194447903Y-112138910D01*
X194336889Y-111914000D01*
X193194000Y-111914000D01*
X192886000Y-111914000D01*
X191743111Y-111914000D01*
X191632097Y-112138910D01*
X177683500Y-112138910D01*
X177683500Y-111207540D01*
X179001520Y-109889520D01*
X179093649Y-109751641D01*
X179111860Y-109660086D01*
X179126000Y-109589000D01*
X179126000Y-108413919D01*
X179331129Y-108499096D01*
X179569824Y-108499304D01*
X179790429Y-108408152D01*
X179874528Y-108324200D01*
X191479660Y-108324200D01*
X191951751Y-108796292D01*
X191867470Y-109220000D01*
X191955009Y-109660086D01*
X192204297Y-110033173D01*
X192577384Y-110282461D01*
X192885998Y-110343848D01*
X192885998Y-110462143D01*
X192661089Y-110352085D01*
X192151146Y-110604259D01*
X191776523Y-111032384D01*
X191632097Y-111381090D01*
X191743111Y-111606000D01*
X192886000Y-111606000D01*
X192886000Y-111586000D01*
X193194000Y-111586000D01*
X193194000Y-111606000D01*
X194336889Y-111606000D01*
X194447903Y-111381090D01*
X194303477Y-111032384D01*
X193928854Y-110604259D01*
X193418911Y-110352085D01*
X193194002Y-110462143D01*
X193194002Y-110343848D01*
X193502616Y-110282461D01*
X193875703Y-110033173D01*
X194124991Y-109660086D01*
X194212530Y-109220000D01*
X194124991Y-108779914D01*
X193875703Y-108406827D01*
X193502616Y-108157539D01*
X193062530Y-108070000D01*
X193017470Y-108070000D01*
X192577384Y-108157539D01*
X192540035Y-108182495D01*
X191956220Y-107598680D01*
X191818341Y-107506551D01*
X191791357Y-107501184D01*
X191655700Y-107474200D01*
X182394830Y-107474200D01*
X182463896Y-107307871D01*
X182464104Y-107069176D01*
X182372952Y-106848571D01*
X182338054Y-106813612D01*
X182344278Y-106804503D01*
X182368377Y-106685500D01*
X182368377Y-105785500D01*
X182756623Y-105785500D01*
X182756623Y-106685500D01*
X182777542Y-106796673D01*
X182843245Y-106898779D01*
X182943497Y-106967278D01*
X183062500Y-106991377D01*
X183562500Y-106991377D01*
X183673673Y-106970458D01*
X183775779Y-106904755D01*
X183844278Y-106804503D01*
X183868377Y-106685500D01*
X183868377Y-106660500D01*
X184086377Y-106660500D01*
X184098248Y-106689229D01*
X184266883Y-106858159D01*
X184487329Y-106949696D01*
X184726024Y-106949904D01*
X184946629Y-106858752D01*
X185115559Y-106690117D01*
X185207096Y-106469671D01*
X185207304Y-106230976D01*
X185116152Y-106010371D01*
X184947517Y-105841441D01*
X184727071Y-105749904D01*
X184488376Y-105749696D01*
X184341219Y-105810500D01*
X183868377Y-105810500D01*
X183868377Y-105785500D01*
X183847458Y-105674327D01*
X183781755Y-105572221D01*
X183681503Y-105503722D01*
X183562500Y-105479623D01*
X183062500Y-105479623D01*
X182951327Y-105500542D01*
X182849221Y-105566245D01*
X182780722Y-105666497D01*
X182756623Y-105785500D01*
X182368377Y-105785500D01*
X182347458Y-105674327D01*
X182281755Y-105572221D01*
X182181503Y-105503722D01*
X182062500Y-105479623D01*
X181562500Y-105479623D01*
X181451327Y-105500542D01*
X181349221Y-105566245D01*
X181280722Y-105666497D01*
X181256623Y-105785500D01*
X181256623Y-106685500D01*
X181277542Y-106796673D01*
X181337884Y-106890447D01*
X181264104Y-107068129D01*
X181263896Y-107306824D01*
X181333054Y-107474200D01*
X179874530Y-107474200D01*
X179791317Y-107390841D01*
X179570871Y-107299304D01*
X179332176Y-107299096D01*
X179126000Y-107384286D01*
X179126000Y-106898973D01*
X179212173Y-106882758D01*
X179250676Y-106857982D01*
X179285562Y-106942204D01*
X179456595Y-107113237D01*
X179680061Y-107205800D01*
X179895000Y-107205800D01*
X180047000Y-107053800D01*
X180047000Y-106376800D01*
X180355000Y-106376800D01*
X180355000Y-107053800D01*
X180507000Y-107205800D01*
X180721939Y-107205800D01*
X180945405Y-107113237D01*
X181116438Y-106942204D01*
X181209000Y-106718738D01*
X181209000Y-106528800D01*
X181057000Y-106376800D01*
X180355000Y-106376800D01*
X180047000Y-106376800D01*
X180027000Y-106376800D01*
X180027000Y-106068800D01*
X180047000Y-106068800D01*
X180047000Y-105391800D01*
X180355000Y-105391800D01*
X180355000Y-106068800D01*
X181057000Y-106068800D01*
X181209000Y-105916800D01*
X181209000Y-105726862D01*
X181116438Y-105503396D01*
X180945405Y-105332363D01*
X180721939Y-105239800D01*
X180507000Y-105239800D01*
X180355000Y-105391800D01*
X180047000Y-105391800D01*
X179895000Y-105239800D01*
X179680061Y-105239800D01*
X179456595Y-105332363D01*
X179285562Y-105503396D01*
X179250882Y-105587121D01*
X179220003Y-105566022D01*
X179126000Y-105546986D01*
X179126000Y-105218800D01*
X179109084Y-105133756D01*
X179521521Y-104721320D01*
X179613649Y-104583441D01*
X179646000Y-104420800D01*
X179646000Y-103605886D01*
X179721000Y-103620804D01*
X179893208Y-103586550D01*
X179971000Y-103534571D01*
X180048792Y-103586550D01*
X180221000Y-103620804D01*
X180393208Y-103586550D01*
X180471000Y-103534571D01*
X180548792Y-103586550D01*
X180721000Y-103620804D01*
X180893208Y-103586550D01*
X180971000Y-103534571D01*
X181048792Y-103586550D01*
X181221000Y-103620804D01*
X181393208Y-103586550D01*
X181471000Y-103534571D01*
X181548792Y-103586550D01*
X181721000Y-103620804D01*
X181893208Y-103586550D01*
X181971000Y-103534571D01*
X182048792Y-103586550D01*
X182221000Y-103620804D01*
X182393208Y-103586550D01*
X182539198Y-103489002D01*
X182636746Y-103343012D01*
X182671000Y-103170804D01*
X182671000Y-102650786D01*
X182740405Y-102622037D01*
X182911438Y-102451004D01*
X182940186Y-102381600D01*
X183460204Y-102381600D01*
X183632412Y-102347346D01*
X183778402Y-102249798D01*
X183875950Y-102103808D01*
X183910204Y-101931600D01*
X183875950Y-101759392D01*
X183823971Y-101681600D01*
X183875950Y-101603808D01*
X183910204Y-101431600D01*
X183875950Y-101259392D01*
X183823971Y-101181600D01*
X183875950Y-101103808D01*
X183910204Y-100931600D01*
X183875950Y-100759392D01*
X183823971Y-100681600D01*
X183875950Y-100603808D01*
X183910204Y-100431600D01*
X183875950Y-100259392D01*
X183823971Y-100181600D01*
X183875950Y-100103808D01*
X183910204Y-99931600D01*
X183875950Y-99759392D01*
X183823971Y-99681600D01*
X183875950Y-99603808D01*
X183910204Y-99431600D01*
X183875950Y-99259392D01*
X183823971Y-99181600D01*
X183875950Y-99103808D01*
X183910204Y-98931600D01*
X183875950Y-98759392D01*
X183778402Y-98613402D01*
X183632412Y-98515854D01*
X183460204Y-98481600D01*
X182940186Y-98481600D01*
X182911438Y-98412196D01*
X182740405Y-98241163D01*
X182671000Y-98212414D01*
X182671000Y-97692396D01*
X182636746Y-97520188D01*
X182539198Y-97374198D01*
X182393208Y-97276650D01*
X182221000Y-97242396D01*
X182050672Y-97276276D01*
X182082896Y-97198671D01*
X182083104Y-96959976D01*
X181991952Y-96739371D01*
X181823317Y-96570441D01*
X181602871Y-96478904D01*
X181519755Y-96478832D01*
X181540377Y-96377000D01*
X181540377Y-95877000D01*
X181519458Y-95765827D01*
X181453755Y-95663721D01*
X181353503Y-95595222D01*
X181234500Y-95571123D01*
X180334500Y-95571123D01*
X180223327Y-95592042D01*
X180121221Y-95657745D01*
X180052722Y-95757997D01*
X180028623Y-95877000D01*
X180028623Y-96344182D01*
X179635377Y-95950937D01*
X179635377Y-95877000D01*
X179614458Y-95765827D01*
X179548755Y-95663721D01*
X179448503Y-95595222D01*
X179329500Y-95571123D01*
X178429500Y-95571123D01*
X178318327Y-95592042D01*
X178216221Y-95657745D01*
X178147722Y-95757997D01*
X178123623Y-95877000D01*
X178123623Y-96377000D01*
X178144542Y-96488173D01*
X178210245Y-96590279D01*
X178310497Y-96658778D01*
X178429500Y-96682877D01*
X179165237Y-96682877D01*
X179725688Y-97243328D01*
X179721000Y-97242396D01*
X179548792Y-97276650D01*
X179471000Y-97328629D01*
X179393208Y-97276650D01*
X179221000Y-97242396D01*
X179048792Y-97276650D01*
X178902802Y-97374198D01*
X178805254Y-97520188D01*
X178798011Y-97556600D01*
X178345441Y-97556600D01*
X177031200Y-96242360D01*
X177031200Y-94620800D01*
X176998849Y-94458160D01*
X176945274Y-94377980D01*
X176906720Y-94320279D01*
X176228477Y-93642037D01*
X176228477Y-93188800D01*
X176207558Y-93077627D01*
X176141855Y-92975521D01*
X176041603Y-92907022D01*
X175922600Y-92882923D01*
X175022600Y-92882923D01*
X174911427Y-92903842D01*
X174809321Y-92969545D01*
X174740822Y-93069797D01*
X174716723Y-93188800D01*
X174716723Y-93988800D01*
X174737642Y-94099973D01*
X174803345Y-94202079D01*
X174903597Y-94270578D01*
X175022600Y-94294677D01*
X175679037Y-94294677D01*
X176181200Y-94796841D01*
X176181200Y-94936665D01*
X176141855Y-94875521D01*
X176041603Y-94807022D01*
X175922600Y-94782923D01*
X175022600Y-94782923D01*
X174911427Y-94803842D01*
X174809321Y-94869545D01*
X174740822Y-94969797D01*
X174716723Y-95088800D01*
X174716723Y-95745236D01*
X173660337Y-96801623D01*
X173222500Y-96801623D01*
X173111327Y-96822542D01*
X173009221Y-96888245D01*
X172940722Y-96988497D01*
X172916623Y-97107500D01*
X172916623Y-97607500D01*
X172937542Y-97718673D01*
X173003245Y-97820779D01*
X173103497Y-97889278D01*
X173222500Y-97913377D01*
X174122500Y-97913377D01*
X174233673Y-97892458D01*
X174335779Y-97826755D01*
X174404278Y-97726503D01*
X174428377Y-97607500D01*
X174428377Y-97235663D01*
X175469364Y-96194677D01*
X175922600Y-96194677D01*
X176033773Y-96173758D01*
X176135879Y-96108055D01*
X176181200Y-96041725D01*
X176181200Y-96191560D01*
X175583837Y-96788923D01*
X175038600Y-96788923D01*
X174927427Y-96809842D01*
X174825321Y-96875545D01*
X174756822Y-96975797D01*
X174732723Y-97094800D01*
X174732723Y-97594800D01*
X174753642Y-97705973D01*
X174819345Y-97808079D01*
X174919597Y-97876578D01*
X175038600Y-97900677D01*
X175938600Y-97900677D01*
X176049773Y-97879758D01*
X176151879Y-97814055D01*
X176220378Y-97713803D01*
X176244477Y-97594800D01*
X176244477Y-97330363D01*
X176580800Y-96994040D01*
X177868880Y-98282121D01*
X178006759Y-98374249D01*
X178169400Y-98406600D01*
X178536158Y-98406600D01*
X178530562Y-98412196D01*
X178501814Y-98481600D01*
X177981796Y-98481600D01*
X177809588Y-98515854D01*
X177663598Y-98613402D01*
X177566050Y-98759392D01*
X177531796Y-98931600D01*
X177566050Y-99103808D01*
X177618029Y-99181600D01*
X177566050Y-99259392D01*
X177556899Y-99305395D01*
X177444037Y-99381011D01*
X177275351Y-99634149D01*
X177262739Y-99739528D01*
X177394659Y-99856600D01*
X177856111Y-99856600D01*
X177981796Y-99881600D01*
X178445000Y-99881600D01*
X178445000Y-99893100D01*
X178438000Y-99900100D01*
X178438000Y-99981600D01*
X177981796Y-99981600D01*
X177856111Y-100006600D01*
X177394659Y-100006600D01*
X177372952Y-100025864D01*
X177307159Y-100038951D01*
X177169280Y-100131079D01*
X176777200Y-100523160D01*
X176777200Y-99708400D01*
X176766747Y-99655849D01*
X176744849Y-99545759D01*
X176652721Y-99407880D01*
X176244477Y-98999636D01*
X176244477Y-98594800D01*
X176223558Y-98483627D01*
X176157855Y-98381521D01*
X176057603Y-98313022D01*
X175938600Y-98288923D01*
X175038600Y-98288923D01*
X174927427Y-98309842D01*
X174825321Y-98375545D01*
X174756822Y-98475797D01*
X174732723Y-98594800D01*
X174732723Y-99094800D01*
X174753642Y-99205973D01*
X174819345Y-99308079D01*
X174919597Y-99376578D01*
X175038600Y-99400677D01*
X175335383Y-99400677D01*
X175301571Y-99414648D01*
X175132641Y-99583283D01*
X175095755Y-99672114D01*
X174428377Y-99004737D01*
X174428377Y-98607500D01*
X174407458Y-98496327D01*
X174341755Y-98394221D01*
X174241503Y-98325722D01*
X174122500Y-98301623D01*
X173222500Y-98301623D01*
X173111327Y-98322542D01*
X173009221Y-98388245D01*
X172940722Y-98488497D01*
X172916623Y-98607500D01*
X172916623Y-99107500D01*
X172937542Y-99218673D01*
X173003245Y-99320779D01*
X173103497Y-99389278D01*
X173222500Y-99413377D01*
X173634937Y-99413377D01*
X174716723Y-100495164D01*
X174716723Y-101202400D01*
X174737642Y-101313573D01*
X174803345Y-101415679D01*
X174903597Y-101484178D01*
X175022600Y-101508277D01*
X175922600Y-101508277D01*
X175927200Y-101507411D01*
X175927200Y-101997455D01*
X175922600Y-101996523D01*
X175022600Y-101996523D01*
X174911427Y-102017442D01*
X174809321Y-102083145D01*
X174740822Y-102183397D01*
X174716723Y-102302400D01*
X174716723Y-103102400D01*
X174737642Y-103213573D01*
X174803345Y-103315679D01*
X174903597Y-103384178D01*
X175022600Y-103408277D01*
X175922600Y-103408277D01*
X176033773Y-103387358D01*
X176135879Y-103321655D01*
X176204378Y-103221403D01*
X176228477Y-103102400D01*
X176228477Y-102934363D01*
X176435200Y-102727641D01*
X176435200Y-109564659D01*
X175657980Y-110341880D01*
X175565851Y-110479759D01*
X175565851Y-110479760D01*
X175533500Y-110642400D01*
X175533500Y-113296301D01*
X175470400Y-113283523D01*
X175351796Y-113283523D01*
X175335838Y-113244996D01*
X175164805Y-113073963D01*
X174941339Y-112981400D01*
X174872400Y-112981400D01*
X174720400Y-113133400D01*
X174720400Y-114110400D01*
X174764523Y-114110400D01*
X174764523Y-114418400D01*
X174720400Y-114418400D01*
X174720400Y-114438400D01*
X174520400Y-114438400D01*
X174520400Y-114418400D01*
X174446400Y-114418400D01*
X174446400Y-114315400D01*
X174478400Y-114283400D01*
X174478400Y-114110400D01*
X174520400Y-114110400D01*
X174520400Y-113133400D01*
X174368400Y-112981400D01*
X174299461Y-112981400D01*
X174145400Y-113045214D01*
X173991339Y-112981400D01*
X173126400Y-112981400D01*
X172974400Y-113133400D01*
X172974400Y-114435400D01*
X172994400Y-114435400D01*
X172994400Y-114743400D01*
X172974400Y-114743400D01*
X172974400Y-114763400D01*
X172666400Y-114763400D01*
X172666400Y-114743400D01*
X171314400Y-114743400D01*
X171162400Y-114895400D01*
X171162400Y-115381400D01*
X170899461Y-115381400D01*
X170675995Y-115473963D01*
X170504962Y-115644996D01*
X170412400Y-115868462D01*
X170412400Y-116633400D01*
X170564400Y-116785400D01*
X171666400Y-116785400D01*
X171666400Y-116765400D01*
X171974400Y-116765400D01*
X171974400Y-116785400D01*
X173076400Y-116785400D01*
X173228400Y-116633400D01*
X173228400Y-116197400D01*
X173862400Y-116197400D01*
X173862400Y-116633400D01*
X174014400Y-116785400D01*
X174916400Y-116785400D01*
X174916400Y-116765400D01*
X175224400Y-116765400D01*
X175224400Y-116785400D01*
X176616400Y-116785400D01*
X176616400Y-115533400D01*
X176464400Y-115381400D01*
X176049461Y-115381400D01*
X175920400Y-115434859D01*
X175791339Y-115381400D01*
X175376400Y-115381400D01*
X175224402Y-115533398D01*
X175224402Y-115395240D01*
X175335838Y-115283804D01*
X175351796Y-115245277D01*
X175470400Y-115245277D01*
X175581573Y-115224358D01*
X175594179Y-115216246D01*
X175601397Y-115221178D01*
X175720400Y-115245277D01*
X176120400Y-115245277D01*
X176231573Y-115224358D01*
X176244179Y-115216246D01*
X176251397Y-115221178D01*
X176370400Y-115245277D01*
X176770400Y-115245277D01*
X176881573Y-115224358D01*
X176894179Y-115216246D01*
X176901397Y-115221178D01*
X177020400Y-115245277D01*
X177362400Y-115245277D01*
X177362400Y-115381400D01*
X177076400Y-115381400D01*
X176924400Y-115533400D01*
X176924400Y-116785400D01*
X177826400Y-116785400D01*
X177978400Y-116633400D01*
X177978400Y-116197400D01*
X178612400Y-116197400D01*
X178612400Y-116633400D01*
X178764400Y-116785400D01*
X179866400Y-116785400D01*
X179866400Y-116765400D01*
X180174400Y-116765400D01*
X180174400Y-116785400D01*
X180194400Y-116785400D01*
X180194400Y-117093400D01*
X180174400Y-117093400D01*
X180174400Y-117113400D01*
X179866400Y-117113400D01*
X179866400Y-117093400D01*
X178764400Y-117093400D01*
X178612400Y-117245400D01*
X178612400Y-118010338D01*
X178704962Y-118233804D01*
X178714158Y-118243000D01*
X177876642Y-118243000D01*
X177885838Y-118233804D01*
X177978400Y-118010338D01*
X177978400Y-117245400D01*
X177826400Y-117093400D01*
X176924400Y-117093400D01*
X176924400Y-117113400D01*
X176616400Y-117113400D01*
X176616400Y-117093400D01*
X175224400Y-117093400D01*
X175224400Y-117113400D01*
X174916400Y-117113400D01*
X174916400Y-117093400D01*
X174014400Y-117093400D01*
X173862400Y-117245400D01*
X173862400Y-118010338D01*
X173954962Y-118233804D01*
X173964158Y-118243000D01*
X173126642Y-118243000D01*
X173135838Y-118233804D01*
X173228400Y-118010338D01*
X173228400Y-117245400D01*
X173076400Y-117093400D01*
X171974400Y-117093400D01*
X171974400Y-117113400D01*
X171666400Y-117113400D01*
X171666400Y-117093400D01*
X170564400Y-117093400D01*
X170412400Y-117245400D01*
X170412400Y-118010338D01*
X170504962Y-118233804D01*
X170675995Y-118404837D01*
X170899461Y-118497400D01*
X171170014Y-118497400D01*
X170433414Y-119234000D01*
X148488400Y-119234000D01*
X148456726Y-119240300D01*
X148174111Y-119184085D01*
X147886134Y-118991666D01*
X147693715Y-118703689D01*
X147634973Y-118408376D01*
X147643800Y-118364000D01*
X147643800Y-116535200D01*
X148347966Y-116535200D01*
X148501732Y-117308234D01*
X148939620Y-117963580D01*
X149594966Y-118401468D01*
X150368000Y-118555234D01*
X151141034Y-118401468D01*
X151601192Y-118094000D01*
X156177000Y-118094000D01*
X156177000Y-118233938D01*
X156269562Y-118457404D01*
X156440595Y-118628437D01*
X156664061Y-118721000D01*
X157004000Y-118721000D01*
X157156000Y-118569000D01*
X157156000Y-117942000D01*
X157464000Y-117942000D01*
X157464000Y-118569000D01*
X157616000Y-118721000D01*
X157955939Y-118721000D01*
X158179405Y-118628437D01*
X158350438Y-118457404D01*
X158443000Y-118233938D01*
X158443000Y-118094000D01*
X160327000Y-118094000D01*
X160327000Y-118233938D01*
X160419562Y-118457404D01*
X160590595Y-118628437D01*
X160814061Y-118721000D01*
X161154000Y-118721000D01*
X161306000Y-118569000D01*
X161306000Y-117942000D01*
X161614000Y-117942000D01*
X161614000Y-118569000D01*
X161766000Y-118721000D01*
X162105939Y-118721000D01*
X162329405Y-118628437D01*
X162500438Y-118457404D01*
X162591234Y-118238200D01*
X164765200Y-118238200D01*
X164765200Y-118453138D01*
X164857762Y-118676604D01*
X165028795Y-118847637D01*
X165252261Y-118940200D01*
X165467200Y-118940200D01*
X165619200Y-118788200D01*
X165619200Y-118086200D01*
X164917200Y-118086200D01*
X164765200Y-118238200D01*
X162591234Y-118238200D01*
X162593000Y-118233938D01*
X162593000Y-118094000D01*
X162441000Y-117942000D01*
X161614000Y-117942000D01*
X161306000Y-117942000D01*
X160479000Y-117942000D01*
X160327000Y-118094000D01*
X158443000Y-118094000D01*
X158291000Y-117942000D01*
X157464000Y-117942000D01*
X157156000Y-117942000D01*
X156329000Y-117942000D01*
X156177000Y-118094000D01*
X151601192Y-118094000D01*
X151796380Y-117963580D01*
X152211664Y-117342062D01*
X156177000Y-117342062D01*
X156177000Y-117482000D01*
X156329000Y-117634000D01*
X157156000Y-117634000D01*
X157156000Y-117007000D01*
X157464000Y-117007000D01*
X157464000Y-117634000D01*
X158291000Y-117634000D01*
X158443000Y-117482000D01*
X158443000Y-117342062D01*
X160327000Y-117342062D01*
X160327000Y-117482000D01*
X160479000Y-117634000D01*
X161306000Y-117634000D01*
X161306000Y-117007000D01*
X161614000Y-117007000D01*
X161614000Y-117634000D01*
X162441000Y-117634000D01*
X162593000Y-117482000D01*
X162593000Y-117411262D01*
X164765200Y-117411262D01*
X164765200Y-117626200D01*
X164917200Y-117778200D01*
X165619200Y-117778200D01*
X165619200Y-117076200D01*
X165927200Y-117076200D01*
X165927200Y-117778200D01*
X165947200Y-117778200D01*
X165947200Y-118086200D01*
X165927200Y-118086200D01*
X165927200Y-118788200D01*
X166079200Y-118940200D01*
X166294139Y-118940200D01*
X166517605Y-118847637D01*
X166688638Y-118676604D01*
X166747257Y-118535085D01*
X166753945Y-118545479D01*
X166854197Y-118613978D01*
X166973200Y-118638077D01*
X167773200Y-118638077D01*
X167884373Y-118617158D01*
X167986479Y-118551455D01*
X168054978Y-118451203D01*
X168076586Y-118344500D01*
X168211500Y-118344500D01*
X168347157Y-118317516D01*
X168374141Y-118312149D01*
X168512020Y-118220020D01*
X168530039Y-118202001D01*
X168647824Y-118202104D01*
X168868429Y-118110952D01*
X169037359Y-117942317D01*
X169128896Y-117721871D01*
X169129104Y-117483176D01*
X169037952Y-117262571D01*
X168869317Y-117093641D01*
X168648871Y-117002104D01*
X168410176Y-117001896D01*
X168189571Y-117093048D01*
X168020641Y-117261683D01*
X167995141Y-117323095D01*
X167992455Y-117318921D01*
X167892203Y-117250422D01*
X167773200Y-117226323D01*
X166973200Y-117226323D01*
X166862027Y-117247242D01*
X166759921Y-117312945D01*
X166747815Y-117330663D01*
X166688638Y-117187796D01*
X166517605Y-117016763D01*
X166294139Y-116924200D01*
X166079200Y-116924200D01*
X165927200Y-117076200D01*
X165619200Y-117076200D01*
X165467200Y-116924200D01*
X165252261Y-116924200D01*
X165028795Y-117016763D01*
X164857762Y-117187796D01*
X164765200Y-117411262D01*
X162593000Y-117411262D01*
X162593000Y-117342062D01*
X162500438Y-117118596D01*
X162329405Y-116947563D01*
X162105939Y-116855000D01*
X161766000Y-116855000D01*
X161614000Y-117007000D01*
X161306000Y-117007000D01*
X161154000Y-116855000D01*
X160814061Y-116855000D01*
X160590595Y-116947563D01*
X160419562Y-117118596D01*
X160327000Y-117342062D01*
X158443000Y-117342062D01*
X158350438Y-117118596D01*
X158179405Y-116947563D01*
X157955939Y-116855000D01*
X157616000Y-116855000D01*
X157464000Y-117007000D01*
X157156000Y-117007000D01*
X157004000Y-116855000D01*
X156664061Y-116855000D01*
X156440595Y-116947563D01*
X156269562Y-117118596D01*
X156177000Y-117342062D01*
X152211664Y-117342062D01*
X152234268Y-117308234D01*
X152388034Y-116535200D01*
X152234268Y-115762166D01*
X151934146Y-115313000D01*
X156479123Y-115313000D01*
X156479123Y-115963000D01*
X156500042Y-116074173D01*
X156565745Y-116176279D01*
X156665997Y-116244778D01*
X156785000Y-116268877D01*
X157835000Y-116268877D01*
X157946173Y-116247958D01*
X158048279Y-116182255D01*
X158116778Y-116082003D01*
X158120626Y-116063000D01*
X160647940Y-116063000D01*
X160650042Y-116074173D01*
X160715745Y-116176279D01*
X160815997Y-116244778D01*
X160935000Y-116268877D01*
X161985000Y-116268877D01*
X162096173Y-116247958D01*
X162198279Y-116182255D01*
X162266778Y-116082003D01*
X162284397Y-115995000D01*
X163177870Y-115995000D01*
X163261083Y-116078359D01*
X163481529Y-116169896D01*
X163720224Y-116170104D01*
X163940829Y-116078952D01*
X164109759Y-115910317D01*
X164201296Y-115689871D01*
X164201504Y-115451176D01*
X164110352Y-115230571D01*
X163941717Y-115061641D01*
X163721271Y-114970104D01*
X163482576Y-114969896D01*
X163261971Y-115061048D01*
X163177872Y-115145000D01*
X162233391Y-115145000D01*
X162204255Y-115099721D01*
X162104003Y-115031222D01*
X161985000Y-115007123D01*
X160935000Y-115007123D01*
X160823827Y-115028042D01*
X160721721Y-115093745D01*
X160653222Y-115193997D01*
X160649374Y-115213000D01*
X158122060Y-115213000D01*
X158119958Y-115201827D01*
X158054255Y-115099721D01*
X157954003Y-115031222D01*
X157835000Y-115007123D01*
X156785000Y-115007123D01*
X156673827Y-115028042D01*
X156571721Y-115093745D01*
X156503222Y-115193997D01*
X156479123Y-115313000D01*
X151934146Y-115313000D01*
X151796380Y-115106820D01*
X151141034Y-114668932D01*
X150368000Y-114515166D01*
X149594966Y-114668932D01*
X148939620Y-115106820D01*
X148501732Y-115762166D01*
X148347966Y-116535200D01*
X147643800Y-116535200D01*
X147643800Y-113468462D01*
X171162400Y-113468462D01*
X171162400Y-114283400D01*
X171314400Y-114435400D01*
X172666400Y-114435400D01*
X172666400Y-113133400D01*
X172514400Y-112981400D01*
X171649461Y-112981400D01*
X171425995Y-113073963D01*
X171254962Y-113244996D01*
X171162400Y-113468462D01*
X147643800Y-113468462D01*
X147643800Y-109598910D01*
X148452097Y-109598910D01*
X148596523Y-109947616D01*
X148971146Y-110375741D01*
X149481089Y-110627915D01*
X149705998Y-110517857D01*
X149705998Y-110636152D01*
X149397384Y-110697539D01*
X149024297Y-110946827D01*
X148775009Y-111319914D01*
X148687470Y-111760000D01*
X148775009Y-112200086D01*
X149024297Y-112573173D01*
X149397384Y-112822461D01*
X149837470Y-112910000D01*
X149882530Y-112910000D01*
X150322616Y-112822461D01*
X150695703Y-112573173D01*
X150944991Y-112200086D01*
X150947992Y-112185000D01*
X157264800Y-112185000D01*
X157400457Y-112158016D01*
X157427441Y-112152649D01*
X157565320Y-112060520D01*
X162671364Y-106954477D01*
X163100400Y-106954477D01*
X163211573Y-106933558D01*
X163313679Y-106867855D01*
X163382178Y-106767603D01*
X163406277Y-106648600D01*
X163406277Y-106478000D01*
X163659500Y-106478000D01*
X163659500Y-106667938D01*
X163752062Y-106891404D01*
X163923095Y-107062437D01*
X164146561Y-107155000D01*
X164361500Y-107155000D01*
X164513500Y-107003000D01*
X164513500Y-106326000D01*
X163811500Y-106326000D01*
X163659500Y-106478000D01*
X163406277Y-106478000D01*
X163406277Y-105898600D01*
X163385358Y-105787427D01*
X163319655Y-105685321D01*
X163306104Y-105676062D01*
X163659500Y-105676062D01*
X163659500Y-105866000D01*
X163811500Y-106018000D01*
X164513500Y-106018000D01*
X164513500Y-105341000D01*
X164361500Y-105189000D01*
X164146561Y-105189000D01*
X163923095Y-105281563D01*
X163752062Y-105452596D01*
X163659500Y-105676062D01*
X163306104Y-105676062D01*
X163219403Y-105616822D01*
X163176200Y-105608073D01*
X163176200Y-104400214D01*
X163211573Y-104393558D01*
X163313679Y-104327855D01*
X163382178Y-104227603D01*
X163406277Y-104108600D01*
X163406277Y-104039600D01*
X163672200Y-104039600D01*
X163672200Y-104229538D01*
X163764762Y-104453004D01*
X163935795Y-104624037D01*
X164159261Y-104716600D01*
X164374200Y-104716600D01*
X164526200Y-104564600D01*
X164526200Y-103887600D01*
X163824200Y-103887600D01*
X163672200Y-104039600D01*
X163406277Y-104039600D01*
X163406277Y-103358600D01*
X163385358Y-103247427D01*
X163379075Y-103237662D01*
X163672200Y-103237662D01*
X163672200Y-103427600D01*
X163824200Y-103579600D01*
X164526200Y-103579600D01*
X164526200Y-102902600D01*
X164374200Y-102750600D01*
X164159261Y-102750600D01*
X163935795Y-102843163D01*
X163764762Y-103014196D01*
X163672200Y-103237662D01*
X163379075Y-103237662D01*
X163319655Y-103145321D01*
X163219403Y-103076822D01*
X163100400Y-103052723D01*
X162671363Y-103052723D01*
X161384400Y-101765760D01*
X161384400Y-101552277D01*
X161414237Y-101552277D01*
X161584680Y-101722720D01*
X161722559Y-101814849D01*
X161885200Y-101847200D01*
X166239723Y-101847200D01*
X166239723Y-101872200D01*
X166260642Y-101983373D01*
X166326345Y-102085479D01*
X166426597Y-102153978D01*
X166545600Y-102178077D01*
X167345600Y-102178077D01*
X167382162Y-102171197D01*
X166500637Y-103052723D01*
X165780200Y-103052723D01*
X165669027Y-103073642D01*
X165630524Y-103098418D01*
X165595638Y-103014196D01*
X165424605Y-102843163D01*
X165201139Y-102750600D01*
X164986200Y-102750600D01*
X164834200Y-102902600D01*
X164834200Y-103579600D01*
X164854200Y-103579600D01*
X164854200Y-103887600D01*
X164834200Y-103887600D01*
X164834200Y-104564600D01*
X164986200Y-104716600D01*
X165201139Y-104716600D01*
X165424605Y-104624037D01*
X165595638Y-104453004D01*
X165630318Y-104369279D01*
X165661197Y-104390378D01*
X165755200Y-104409414D01*
X165755200Y-105493437D01*
X165656327Y-105512042D01*
X165617824Y-105536818D01*
X165582938Y-105452596D01*
X165411905Y-105281563D01*
X165188439Y-105189000D01*
X164973500Y-105189000D01*
X164821500Y-105341000D01*
X164821500Y-106018000D01*
X164841500Y-106018000D01*
X164841500Y-106326000D01*
X164821500Y-106326000D01*
X164821500Y-107003000D01*
X164973500Y-107155000D01*
X165188439Y-107155000D01*
X165411905Y-107062437D01*
X165582938Y-106891404D01*
X165617618Y-106807679D01*
X165648497Y-106828778D01*
X165767500Y-106852877D01*
X166567500Y-106852877D01*
X166678673Y-106831958D01*
X166780779Y-106766255D01*
X166827006Y-106698600D01*
X167493123Y-106698600D01*
X167493123Y-107073600D01*
X167514042Y-107184773D01*
X167579745Y-107286879D01*
X167679997Y-107355378D01*
X167799000Y-107379477D01*
X168799000Y-107379477D01*
X168910173Y-107358558D01*
X169012279Y-107292855D01*
X169080778Y-107192603D01*
X169104877Y-107073600D01*
X169104877Y-106698600D01*
X169241445Y-106698600D01*
X169290048Y-106816229D01*
X169458683Y-106985159D01*
X169679129Y-107076696D01*
X169917824Y-107076904D01*
X170138429Y-106985752D01*
X170191000Y-106933273D01*
X170191000Y-107194538D01*
X170283562Y-107418004D01*
X170454595Y-107589037D01*
X170678061Y-107681600D01*
X170993000Y-107681600D01*
X171145000Y-107529600D01*
X171145000Y-106427600D01*
X171453000Y-106427600D01*
X171453000Y-107529600D01*
X171605000Y-107681600D01*
X171919939Y-107681600D01*
X172143405Y-107589037D01*
X172314438Y-107418004D01*
X172407000Y-107194538D01*
X172407000Y-106579600D01*
X172255000Y-106427600D01*
X171453000Y-106427600D01*
X171145000Y-106427600D01*
X171125000Y-106427600D01*
X171125000Y-106119600D01*
X171145000Y-106119600D01*
X171145000Y-105017600D01*
X171453000Y-105017600D01*
X171453000Y-106119600D01*
X172255000Y-106119600D01*
X172407000Y-105967600D01*
X172407000Y-105352662D01*
X172314438Y-105129196D01*
X172143405Y-104958163D01*
X171919939Y-104865600D01*
X171605000Y-104865600D01*
X171453000Y-105017600D01*
X171145000Y-105017600D01*
X170993000Y-104865600D01*
X170678061Y-104865600D01*
X170454595Y-104958163D01*
X170283562Y-105129196D01*
X170191000Y-105352662D01*
X170191000Y-105967600D01*
X170342998Y-106119598D01*
X170290210Y-106119598D01*
X170139317Y-105968441D01*
X169918871Y-105876904D01*
X169737299Y-105876746D01*
X169731457Y-105875584D01*
X169595800Y-105848600D01*
X169104877Y-105848600D01*
X169104877Y-105473600D01*
X169083958Y-105362427D01*
X169018255Y-105260321D01*
X168918003Y-105191822D01*
X168799000Y-105167723D01*
X167799000Y-105167723D01*
X167687827Y-105188642D01*
X167585721Y-105254345D01*
X167517222Y-105354597D01*
X167493123Y-105473600D01*
X167493123Y-105848600D01*
X166873377Y-105848600D01*
X166873377Y-105797000D01*
X166852458Y-105685827D01*
X166786755Y-105583721D01*
X166686503Y-105515222D01*
X166605200Y-105498758D01*
X166605200Y-104409773D01*
X166691373Y-104393558D01*
X166793479Y-104327855D01*
X166861978Y-104227603D01*
X166886077Y-104108600D01*
X166886077Y-103869363D01*
X168296121Y-102459320D01*
X168388249Y-102321441D01*
X168420600Y-102158800D01*
X168420600Y-102076551D01*
X168426345Y-102085479D01*
X168526597Y-102153978D01*
X168620600Y-102173014D01*
X168620600Y-102370600D01*
X168647584Y-102506257D01*
X168652951Y-102533241D01*
X168745080Y-102671120D01*
X168817999Y-102744039D01*
X168817896Y-102861824D01*
X168909048Y-103082429D01*
X169077683Y-103251359D01*
X169298129Y-103342896D01*
X169536824Y-103343104D01*
X169757429Y-103251952D01*
X169926359Y-103083317D01*
X170017896Y-102862871D01*
X170018104Y-102624176D01*
X169926952Y-102403571D01*
X169758317Y-102234641D01*
X169562634Y-102153387D01*
X169658879Y-102091455D01*
X169727378Y-101991203D01*
X169751477Y-101872200D01*
X169751477Y-100972200D01*
X169730558Y-100861027D01*
X169664855Y-100758921D01*
X169564603Y-100690422D01*
X169445600Y-100666323D01*
X168895318Y-100666323D01*
X169029380Y-100532261D01*
X170797200Y-100532261D01*
X170797200Y-100747200D01*
X170949200Y-100899200D01*
X171626200Y-100899200D01*
X171626200Y-100197200D01*
X171934200Y-100197200D01*
X171934200Y-100899200D01*
X172611200Y-100899200D01*
X172763200Y-100747200D01*
X172763200Y-100532261D01*
X172670637Y-100308795D01*
X172499604Y-100137762D01*
X172276138Y-100045200D01*
X172086200Y-100045200D01*
X171934200Y-100197200D01*
X171626200Y-100197200D01*
X171474200Y-100045200D01*
X171284262Y-100045200D01*
X171060796Y-100137762D01*
X170889763Y-100308795D01*
X170797200Y-100532261D01*
X169029380Y-100532261D01*
X169371520Y-100190121D01*
X169450846Y-100071401D01*
X169463649Y-100052240D01*
X169496000Y-99889600D01*
X169496000Y-99382024D01*
X170113296Y-99382024D01*
X170204448Y-99602629D01*
X170373083Y-99771559D01*
X170593529Y-99863096D01*
X170832224Y-99863304D01*
X171052829Y-99772152D01*
X171221759Y-99603517D01*
X171311804Y-99386664D01*
X171381000Y-99400677D01*
X171773837Y-99400677D01*
X173200000Y-100826840D01*
X173200000Y-101046523D01*
X173022600Y-101046523D01*
X172911427Y-101067442D01*
X172809321Y-101133145D01*
X172740822Y-101233397D01*
X172723405Y-101319405D01*
X172611200Y-101207200D01*
X171934200Y-101207200D01*
X171934200Y-101227200D01*
X171626200Y-101227200D01*
X171626200Y-101207200D01*
X170949200Y-101207200D01*
X170797200Y-101359200D01*
X170797200Y-101574139D01*
X170889763Y-101797605D01*
X171060796Y-101968638D01*
X171144521Y-102003318D01*
X171123422Y-102034197D01*
X171099323Y-102153200D01*
X171099323Y-102953200D01*
X171120242Y-103064373D01*
X171185945Y-103166479D01*
X171286197Y-103234978D01*
X171355200Y-103248952D01*
X171355200Y-103335470D01*
X171271841Y-103418683D01*
X171180304Y-103639129D01*
X171180096Y-103877824D01*
X171271248Y-104098429D01*
X171439883Y-104267359D01*
X171660329Y-104358896D01*
X171899024Y-104359104D01*
X172119629Y-104267952D01*
X172288559Y-104099317D01*
X172380096Y-103878871D01*
X172380304Y-103640176D01*
X172289152Y-103419571D01*
X172205200Y-103335472D01*
X172205200Y-103249669D01*
X172266373Y-103238158D01*
X172368479Y-103172455D01*
X172436978Y-103072203D01*
X172456014Y-102978200D01*
X173062200Y-102978200D01*
X173197857Y-102951216D01*
X173224841Y-102945849D01*
X173362720Y-102853720D01*
X173758164Y-102458277D01*
X173922600Y-102458277D01*
X174033773Y-102437358D01*
X174135879Y-102371655D01*
X174204378Y-102271403D01*
X174228477Y-102152400D01*
X174228477Y-101352400D01*
X174207558Y-101241227D01*
X174141855Y-101139121D01*
X174050000Y-101076359D01*
X174050000Y-100650800D01*
X174017649Y-100488160D01*
X174017649Y-100488159D01*
X173925520Y-100350280D01*
X172586877Y-99011637D01*
X172586877Y-98594800D01*
X172565958Y-98483627D01*
X172500255Y-98381521D01*
X172400003Y-98313022D01*
X172281000Y-98288923D01*
X171381000Y-98288923D01*
X171269827Y-98309842D01*
X171167721Y-98375545D01*
X171137483Y-98419800D01*
X171131800Y-98419800D01*
X170996143Y-98446784D01*
X170969159Y-98452151D01*
X170831280Y-98544280D01*
X170712361Y-98663199D01*
X170594576Y-98663096D01*
X170373971Y-98754248D01*
X170205041Y-98922883D01*
X170113504Y-99143329D01*
X170113296Y-99382024D01*
X169496000Y-99382024D01*
X169496000Y-95797973D01*
X169582173Y-95781758D01*
X169633737Y-95748577D01*
X171070182Y-97185022D01*
X171038400Y-97344800D01*
X171070751Y-97507440D01*
X171075123Y-97513983D01*
X171075123Y-97594800D01*
X171096042Y-97705973D01*
X171161745Y-97808079D01*
X171261997Y-97876578D01*
X171381000Y-97900677D01*
X172281000Y-97900677D01*
X172392173Y-97879758D01*
X172494279Y-97814055D01*
X172562778Y-97713803D01*
X172586877Y-97594800D01*
X172586877Y-97094800D01*
X172565958Y-96983627D01*
X172500255Y-96881521D01*
X172400003Y-96813022D01*
X172281000Y-96788923D01*
X171876164Y-96788923D01*
X171460241Y-96373000D01*
X171461500Y-96373000D01*
X171613500Y-96221000D01*
X171613500Y-95519000D01*
X171921500Y-95519000D01*
X171921500Y-96221000D01*
X172073500Y-96373000D01*
X172263438Y-96373000D01*
X172486904Y-96280438D01*
X172657937Y-96109405D01*
X172750500Y-95885939D01*
X172750500Y-95671000D01*
X172598500Y-95519000D01*
X171921500Y-95519000D01*
X171613500Y-95519000D01*
X170936500Y-95519000D01*
X170784500Y-95671000D01*
X170784500Y-95697260D01*
X169931301Y-94844061D01*
X170784500Y-94844061D01*
X170784500Y-95059000D01*
X170936500Y-95211000D01*
X171613500Y-95211000D01*
X171613500Y-95191000D01*
X171921500Y-95191000D01*
X171921500Y-95211000D01*
X172598500Y-95211000D01*
X172746211Y-95063289D01*
X172803345Y-95152079D01*
X172903597Y-95220578D01*
X173022600Y-95244677D01*
X173922600Y-95244677D01*
X174033773Y-95223758D01*
X174135879Y-95158055D01*
X174204378Y-95057803D01*
X174228477Y-94938800D01*
X174228477Y-94138800D01*
X174207558Y-94027627D01*
X174141855Y-93925521D01*
X174041603Y-93857022D01*
X173999200Y-93848435D01*
X173999200Y-93437200D01*
X173994777Y-93414966D01*
X174005696Y-93388671D01*
X174005904Y-93149976D01*
X173914752Y-92929371D01*
X173746117Y-92760441D01*
X173525671Y-92668904D01*
X173286976Y-92668696D01*
X173066371Y-92759848D01*
X172897441Y-92928483D01*
X172805904Y-93148929D01*
X172805696Y-93387624D01*
X172837832Y-93465400D01*
X172448377Y-93465400D01*
X172448377Y-93465000D01*
X172427458Y-93353827D01*
X172361755Y-93251721D01*
X172261503Y-93183222D01*
X172142500Y-93159123D01*
X171392500Y-93159123D01*
X171281327Y-93180042D01*
X171179221Y-93245745D01*
X171110722Y-93345997D01*
X171086623Y-93465000D01*
X171086623Y-94265000D01*
X171107542Y-94376173D01*
X171132318Y-94414676D01*
X171048096Y-94449562D01*
X170877063Y-94620595D01*
X170784500Y-94844061D01*
X169931301Y-94844061D01*
X169833520Y-94746280D01*
X169776877Y-94708432D01*
X169776877Y-94596800D01*
X169755958Y-94485627D01*
X169690255Y-94383521D01*
X169590003Y-94315022D01*
X169496000Y-94295986D01*
X169496000Y-94140901D01*
X169596159Y-94040917D01*
X169687696Y-93820471D01*
X169687904Y-93581776D01*
X169596752Y-93361171D01*
X169428117Y-93192241D01*
X169207671Y-93100704D01*
X168968976Y-93100496D01*
X168748371Y-93191648D01*
X168579441Y-93360283D01*
X168487904Y-93580729D01*
X168487696Y-93819424D01*
X168578848Y-94040029D01*
X168646000Y-94107298D01*
X168646000Y-94295627D01*
X168559827Y-94311842D01*
X168457721Y-94377545D01*
X168389222Y-94477797D01*
X168365123Y-94596800D01*
X168365123Y-95496800D01*
X168386042Y-95607973D01*
X168451745Y-95710079D01*
X168551997Y-95778578D01*
X168646000Y-95797614D01*
X168646000Y-99713559D01*
X168565277Y-99794282D01*
X168565277Y-96296400D01*
X168544358Y-96185227D01*
X168478655Y-96083121D01*
X168378403Y-96014622D01*
X168259400Y-95990523D01*
X166259400Y-95990523D01*
X166148227Y-96011442D01*
X166046121Y-96077145D01*
X165977622Y-96177397D01*
X165953523Y-96296400D01*
X165953523Y-100096400D01*
X165974442Y-100207573D01*
X166040145Y-100309679D01*
X166140397Y-100378178D01*
X166259400Y-100402277D01*
X167957283Y-100402277D01*
X167695080Y-100664480D01*
X167602951Y-100802359D01*
X167600556Y-100814402D01*
X167564855Y-100758921D01*
X167464603Y-100690422D01*
X167345600Y-100666323D01*
X166545600Y-100666323D01*
X166434427Y-100687242D01*
X166332321Y-100752945D01*
X166263822Y-100853197D01*
X166239723Y-100972200D01*
X166239723Y-100997200D01*
X162265277Y-100997200D01*
X162265277Y-99746400D01*
X162244358Y-99635227D01*
X162178655Y-99533121D01*
X162078403Y-99464622D01*
X161959400Y-99440523D01*
X159959400Y-99440523D01*
X159848227Y-99461442D01*
X159746121Y-99527145D01*
X159677622Y-99627397D01*
X159653523Y-99746400D01*
X159653523Y-101246400D01*
X159674442Y-101357573D01*
X159740145Y-101459679D01*
X159840397Y-101528178D01*
X159959400Y-101552277D01*
X160534400Y-101552277D01*
X160534400Y-101941800D01*
X160556503Y-102052920D01*
X160566751Y-102104441D01*
X160658880Y-102242320D01*
X161167160Y-102750600D01*
X161046398Y-102750600D01*
X161046398Y-102902598D01*
X160894400Y-102750600D01*
X160679461Y-102750600D01*
X160455995Y-102843163D01*
X160284962Y-103014196D01*
X160192400Y-103237662D01*
X160192400Y-103427600D01*
X160344400Y-103579600D01*
X161046400Y-103579600D01*
X161046400Y-103559600D01*
X161354400Y-103559600D01*
X161354400Y-103579600D01*
X161374400Y-103579600D01*
X161374400Y-103887600D01*
X161354400Y-103887600D01*
X161354400Y-104564600D01*
X161506400Y-104716600D01*
X161721339Y-104716600D01*
X161944805Y-104624037D01*
X162115838Y-104453004D01*
X162150518Y-104369279D01*
X162181397Y-104390378D01*
X162300400Y-104414477D01*
X162326200Y-104414477D01*
X162326200Y-105592723D01*
X162300400Y-105592723D01*
X162189227Y-105613642D01*
X162150724Y-105638418D01*
X162115838Y-105554196D01*
X161944805Y-105383163D01*
X161721339Y-105290600D01*
X161506400Y-105290600D01*
X161354400Y-105442600D01*
X161354400Y-106119600D01*
X161374400Y-106119600D01*
X161374400Y-106427600D01*
X161354400Y-106427600D01*
X161354400Y-106447600D01*
X161046400Y-106447600D01*
X161046400Y-106427600D01*
X160344400Y-106427600D01*
X160192400Y-106579600D01*
X160192400Y-106769538D01*
X160284962Y-106993004D01*
X160455995Y-107164037D01*
X160679461Y-107256600D01*
X160894400Y-107256600D01*
X161046398Y-107104602D01*
X161046398Y-107256600D01*
X161167159Y-107256600D01*
X157088760Y-111335000D01*
X150947992Y-111335000D01*
X150944991Y-111319914D01*
X150695703Y-110946827D01*
X150322616Y-110697539D01*
X150014002Y-110636152D01*
X150014002Y-110517857D01*
X150238911Y-110627915D01*
X150748854Y-110375741D01*
X151123477Y-109947616D01*
X151267903Y-109598910D01*
X151156889Y-109374000D01*
X150014000Y-109374000D01*
X150014000Y-109394000D01*
X149706000Y-109394000D01*
X149706000Y-109374000D01*
X148563111Y-109374000D01*
X148452097Y-109598910D01*
X147643800Y-109598910D01*
X147643800Y-71426000D01*
X148402000Y-71426000D01*
X148402000Y-72090938D01*
X148494562Y-72314404D01*
X148665595Y-72485437D01*
X148889061Y-72578000D01*
X149495613Y-72578000D01*
X149397384Y-72597539D01*
X149024297Y-72846827D01*
X148775009Y-73219914D01*
X148687470Y-73660000D01*
X148775009Y-74100086D01*
X149024297Y-74473173D01*
X149397384Y-74722461D01*
X149837470Y-74810000D01*
X149882530Y-74810000D01*
X150322616Y-74722461D01*
X150695703Y-74473173D01*
X150944991Y-74100086D01*
X151032530Y-73660000D01*
X150969320Y-73342221D01*
X151412541Y-72899000D01*
X161196724Y-72899000D01*
X161267104Y-73004330D01*
X161423753Y-73109000D01*
X161267104Y-73213670D01*
X161196724Y-73319000D01*
X152633500Y-73319000D01*
X152470859Y-73351351D01*
X152332980Y-73443479D01*
X150512227Y-75264233D01*
X150322616Y-75137539D01*
X149882530Y-75050000D01*
X149837470Y-75050000D01*
X149397384Y-75137539D01*
X149024297Y-75386827D01*
X148775009Y-75759914D01*
X148687470Y-76200000D01*
X148775009Y-76640086D01*
X149024297Y-77013173D01*
X149397384Y-77262461D01*
X149837470Y-77350000D01*
X149882530Y-77350000D01*
X150322616Y-77262461D01*
X150695703Y-77013173D01*
X150944991Y-76640086D01*
X151032530Y-76200000D01*
X150990390Y-75988150D01*
X152809541Y-74169000D01*
X161196724Y-74169000D01*
X161267104Y-74274330D01*
X161423753Y-74379000D01*
X161267104Y-74483670D01*
X161196724Y-74589000D01*
X153586000Y-74589000D01*
X153423359Y-74621351D01*
X153285480Y-74713479D01*
X150321619Y-77677341D01*
X149882530Y-77590000D01*
X149837470Y-77590000D01*
X149397384Y-77677539D01*
X149024297Y-77926827D01*
X148775009Y-78299914D01*
X148687470Y-78740000D01*
X148775009Y-79180086D01*
X149024297Y-79553173D01*
X149397384Y-79802461D01*
X149837470Y-79890000D01*
X149882530Y-79890000D01*
X150322616Y-79802461D01*
X150695703Y-79553173D01*
X150944991Y-79180086D01*
X151032530Y-78740000D01*
X150944991Y-78299914D01*
X150927421Y-78273619D01*
X153762041Y-75439000D01*
X161196724Y-75439000D01*
X161267104Y-75544330D01*
X161423753Y-75649000D01*
X161267104Y-75753670D01*
X161196724Y-75859000D01*
X154856000Y-75859000D01*
X154720343Y-75885984D01*
X154693359Y-75891351D01*
X154555480Y-75983480D01*
X150321619Y-80217341D01*
X149882530Y-80130000D01*
X149837470Y-80130000D01*
X149397384Y-80217539D01*
X149024297Y-80466827D01*
X148775009Y-80839914D01*
X148687470Y-81280000D01*
X148775009Y-81720086D01*
X149024297Y-82093173D01*
X149397384Y-82342461D01*
X149837470Y-82430000D01*
X149882530Y-82430000D01*
X150322616Y-82342461D01*
X150695703Y-82093173D01*
X150944991Y-81720086D01*
X151032530Y-81280000D01*
X150944991Y-80839914D01*
X150927421Y-80813619D01*
X155032040Y-76709000D01*
X161196724Y-76709000D01*
X161267104Y-76814330D01*
X161423753Y-76919000D01*
X161267104Y-77023670D01*
X161196724Y-77129000D01*
X156126000Y-77129000D01*
X155963360Y-77161351D01*
X155963358Y-77161352D01*
X155963359Y-77161352D01*
X155825479Y-77253480D01*
X150321619Y-82757341D01*
X149882530Y-82670000D01*
X149837470Y-82670000D01*
X149397384Y-82757539D01*
X149024297Y-83006827D01*
X148775009Y-83379914D01*
X148687470Y-83820000D01*
X148775009Y-84260086D01*
X149024297Y-84633173D01*
X149397384Y-84882461D01*
X149837470Y-84970000D01*
X149882530Y-84970000D01*
X150322616Y-84882461D01*
X150695703Y-84633173D01*
X150944991Y-84260086D01*
X151032530Y-83820000D01*
X150944991Y-83379914D01*
X150927421Y-83353619D01*
X156302041Y-77979000D01*
X161196724Y-77979000D01*
X161267104Y-78084330D01*
X161423753Y-78189000D01*
X161267104Y-78293670D01*
X161196724Y-78399000D01*
X157396000Y-78399000D01*
X157233360Y-78431351D01*
X157187608Y-78461922D01*
X157095479Y-78523480D01*
X150321619Y-85297341D01*
X149882530Y-85210000D01*
X149837470Y-85210000D01*
X149397384Y-85297539D01*
X149024297Y-85546827D01*
X148775009Y-85919914D01*
X148687470Y-86360000D01*
X148775009Y-86800086D01*
X149024297Y-87173173D01*
X149397384Y-87422461D01*
X149837470Y-87510000D01*
X149882530Y-87510000D01*
X150322616Y-87422461D01*
X150695703Y-87173173D01*
X150944991Y-86800086D01*
X151032530Y-86360000D01*
X150944991Y-85919914D01*
X150927421Y-85893619D01*
X157572041Y-79249000D01*
X161196724Y-79249000D01*
X161267104Y-79354330D01*
X161423753Y-79459000D01*
X161267104Y-79563670D01*
X161196724Y-79669000D01*
X158666000Y-79669000D01*
X158503359Y-79701351D01*
X158365480Y-79793479D01*
X150321619Y-87837341D01*
X149882530Y-87750000D01*
X149837470Y-87750000D01*
X149397384Y-87837539D01*
X149024297Y-88086827D01*
X148775009Y-88459914D01*
X148687470Y-88900000D01*
X148775009Y-89340086D01*
X149024297Y-89713173D01*
X149397384Y-89962461D01*
X149837470Y-90050000D01*
X149882530Y-90050000D01*
X150322616Y-89962461D01*
X150695703Y-89713173D01*
X150944991Y-89340086D01*
X151032530Y-88900000D01*
X150944991Y-88459914D01*
X150927421Y-88433619D01*
X158842041Y-80519000D01*
X161196724Y-80519000D01*
X161267104Y-80624330D01*
X161423753Y-80729000D01*
X161267104Y-80833670D01*
X161196724Y-80939000D01*
X159936000Y-80939000D01*
X159773359Y-80971351D01*
X159635480Y-81063480D01*
X150321619Y-90377341D01*
X149882530Y-90290000D01*
X149837470Y-90290000D01*
X149397384Y-90377539D01*
X149024297Y-90626827D01*
X148775009Y-90999914D01*
X148687470Y-91440000D01*
X148775009Y-91880086D01*
X149024297Y-92253173D01*
X149397384Y-92502461D01*
X149837470Y-92590000D01*
X149882530Y-92590000D01*
X150322616Y-92502461D01*
X150695703Y-92253173D01*
X150944991Y-91880086D01*
X151032530Y-91440000D01*
X150944991Y-90999914D01*
X150927421Y-90973619D01*
X160112040Y-81789000D01*
X161196724Y-81789000D01*
X161267104Y-81894330D01*
X161423753Y-81999000D01*
X161267104Y-82103670D01*
X161195303Y-82211128D01*
X161070343Y-82235984D01*
X161043359Y-82241351D01*
X160905480Y-82333480D01*
X150321619Y-92917341D01*
X149882530Y-92830000D01*
X149837470Y-92830000D01*
X149397384Y-92917539D01*
X149024297Y-93166827D01*
X148775009Y-93539914D01*
X148687470Y-93980000D01*
X148775009Y-94420086D01*
X149024297Y-94793173D01*
X149397384Y-95042461D01*
X149837470Y-95130000D01*
X149882530Y-95130000D01*
X150322616Y-95042461D01*
X150695703Y-94793173D01*
X150944991Y-94420086D01*
X151032530Y-93980000D01*
X150944991Y-93539914D01*
X150927421Y-93513619D01*
X151289774Y-93151266D01*
X151276500Y-93218000D01*
X151276500Y-94502459D01*
X150321619Y-95457341D01*
X149882530Y-95370000D01*
X149837470Y-95370000D01*
X149397384Y-95457539D01*
X149024297Y-95706827D01*
X148775009Y-96079914D01*
X148687470Y-96520000D01*
X148775009Y-96960086D01*
X149024297Y-97333173D01*
X149397384Y-97582461D01*
X149837470Y-97670000D01*
X149882530Y-97670000D01*
X150322616Y-97582461D01*
X150695703Y-97333173D01*
X150944991Y-96960086D01*
X151032530Y-96520000D01*
X150944991Y-96079914D01*
X150927421Y-96053619D01*
X151911500Y-95069541D01*
X151911500Y-96407460D01*
X150321619Y-97997341D01*
X149882530Y-97910000D01*
X149837470Y-97910000D01*
X149397384Y-97997539D01*
X149024297Y-98246827D01*
X148775009Y-98619914D01*
X148687470Y-99060000D01*
X148775009Y-99500086D01*
X149024297Y-99873173D01*
X149397384Y-100122461D01*
X149837470Y-100210000D01*
X149882530Y-100210000D01*
X150322616Y-100122461D01*
X150695703Y-99873173D01*
X150944991Y-99500086D01*
X151032530Y-99060000D01*
X150944991Y-98619914D01*
X150927421Y-98593619D01*
X152546500Y-96974540D01*
X152546500Y-98312459D01*
X150321619Y-100537341D01*
X149882530Y-100450000D01*
X149837470Y-100450000D01*
X149397384Y-100537539D01*
X149024297Y-100786827D01*
X148775009Y-101159914D01*
X148687470Y-101600000D01*
X148775009Y-102040086D01*
X149024297Y-102413173D01*
X149397384Y-102662461D01*
X149837470Y-102750000D01*
X149882530Y-102750000D01*
X150322616Y-102662461D01*
X150695703Y-102413173D01*
X150944991Y-102040086D01*
X151032530Y-101600000D01*
X150944991Y-101159914D01*
X150927421Y-101133619D01*
X153181500Y-98879541D01*
X153181500Y-100217460D01*
X150321619Y-103077341D01*
X149882530Y-102990000D01*
X149837470Y-102990000D01*
X149397384Y-103077539D01*
X149024297Y-103326827D01*
X148775009Y-103699914D01*
X148687470Y-104140000D01*
X148775009Y-104580086D01*
X149024297Y-104953173D01*
X149397384Y-105202461D01*
X149837470Y-105290000D01*
X149882530Y-105290000D01*
X150322616Y-105202461D01*
X150695703Y-104953173D01*
X150944991Y-104580086D01*
X151032530Y-104140000D01*
X150944991Y-103699914D01*
X150927421Y-103673619D01*
X153753000Y-100848040D01*
X153753000Y-102185960D01*
X150321619Y-105617341D01*
X149882530Y-105530000D01*
X149837470Y-105530000D01*
X149397384Y-105617539D01*
X149024297Y-105866827D01*
X148775009Y-106239914D01*
X148687470Y-106680000D01*
X148775009Y-107120086D01*
X149024297Y-107493173D01*
X149397384Y-107742461D01*
X149705998Y-107803848D01*
X149705998Y-107922143D01*
X149481089Y-107812085D01*
X148971146Y-108064259D01*
X148596523Y-108492384D01*
X148452097Y-108841090D01*
X148563111Y-109066000D01*
X149706000Y-109066000D01*
X149706000Y-109046000D01*
X150014000Y-109046000D01*
X150014000Y-109066000D01*
X151156889Y-109066000D01*
X151267903Y-108841090D01*
X151123477Y-108492384D01*
X150748854Y-108064259D01*
X150238911Y-107812085D01*
X150014002Y-107922143D01*
X150014002Y-107803848D01*
X150322616Y-107742461D01*
X150695703Y-107493173D01*
X150944991Y-107120086D01*
X151032530Y-106680000D01*
X150944991Y-106239914D01*
X150927421Y-106213619D01*
X151363378Y-105777662D01*
X160192400Y-105777662D01*
X160192400Y-105967600D01*
X160344400Y-106119600D01*
X161046400Y-106119600D01*
X161046400Y-105442600D01*
X160894400Y-105290600D01*
X160679461Y-105290600D01*
X160455995Y-105383163D01*
X160284962Y-105554196D01*
X160192400Y-105777662D01*
X151363378Y-105777662D01*
X153101440Y-104039600D01*
X160192400Y-104039600D01*
X160192400Y-104229538D01*
X160284962Y-104453004D01*
X160455995Y-104624037D01*
X160679461Y-104716600D01*
X160894400Y-104716600D01*
X161046400Y-104564600D01*
X161046400Y-103887600D01*
X160344400Y-103887600D01*
X160192400Y-104039600D01*
X153101440Y-104039600D01*
X154478520Y-102662520D01*
X154570649Y-102524641D01*
X154577748Y-102488951D01*
X154603000Y-102362000D01*
X154603000Y-96202400D01*
X159351400Y-96202400D01*
X159351400Y-96767338D01*
X159443962Y-96990804D01*
X159614995Y-97161837D01*
X159756515Y-97220457D01*
X159746121Y-97227145D01*
X159677622Y-97327397D01*
X159653523Y-97446400D01*
X159653523Y-98946400D01*
X159674442Y-99057573D01*
X159740145Y-99159679D01*
X159840397Y-99228178D01*
X159959400Y-99252277D01*
X161959400Y-99252277D01*
X162070573Y-99231358D01*
X162172679Y-99165655D01*
X162241178Y-99065403D01*
X162265277Y-98946400D01*
X162265277Y-98614343D01*
X162365457Y-98594416D01*
X162392441Y-98589049D01*
X162530320Y-98496920D01*
X165555440Y-95471800D01*
X166265123Y-95471800D01*
X166265123Y-95496800D01*
X166286042Y-95607973D01*
X166351745Y-95710079D01*
X166451997Y-95778578D01*
X166571000Y-95802677D01*
X167371000Y-95802677D01*
X167482173Y-95781758D01*
X167584279Y-95716055D01*
X167652778Y-95615803D01*
X167676877Y-95496800D01*
X167676877Y-94596800D01*
X167655958Y-94485627D01*
X167590255Y-94383521D01*
X167490003Y-94315022D01*
X167371000Y-94290923D01*
X166571000Y-94290923D01*
X166459827Y-94311842D01*
X166357721Y-94377545D01*
X166289222Y-94477797D01*
X166265123Y-94596800D01*
X166265123Y-94621800D01*
X165379400Y-94621800D01*
X165243743Y-94648784D01*
X165216759Y-94654151D01*
X165078880Y-94746280D01*
X162265277Y-97559883D01*
X162265277Y-97446400D01*
X162244358Y-97335227D01*
X162178655Y-97233121D01*
X162160937Y-97221015D01*
X162303805Y-97161837D01*
X162474838Y-96990804D01*
X162567400Y-96767338D01*
X162567400Y-96202400D01*
X162415400Y-96050400D01*
X161113400Y-96050400D01*
X161113400Y-96070400D01*
X160805400Y-96070400D01*
X160805400Y-96050400D01*
X159503400Y-96050400D01*
X159351400Y-96202400D01*
X154603000Y-96202400D01*
X154603000Y-95025462D01*
X159351400Y-95025462D01*
X159351400Y-95590400D01*
X159503400Y-95742400D01*
X160805400Y-95742400D01*
X160805400Y-94690400D01*
X161113400Y-94690400D01*
X161113400Y-95742400D01*
X162415400Y-95742400D01*
X162567400Y-95590400D01*
X162567400Y-95025462D01*
X162474838Y-94801996D01*
X162303805Y-94630963D01*
X162080339Y-94538400D01*
X161265400Y-94538400D01*
X161113400Y-94690400D01*
X160805400Y-94690400D01*
X160653400Y-94538400D01*
X159838461Y-94538400D01*
X159614995Y-94630963D01*
X159443962Y-94801996D01*
X159351400Y-95025462D01*
X154603000Y-95025462D01*
X154603000Y-94600540D01*
X156195541Y-93008000D01*
X165671500Y-93008000D01*
X165807157Y-92981016D01*
X165834141Y-92975649D01*
X165972020Y-92883520D01*
X167483320Y-91372220D01*
X167575449Y-91234341D01*
X167580816Y-91207357D01*
X167607800Y-91071700D01*
X167607800Y-90635076D01*
X167713130Y-90564696D01*
X167817800Y-90408047D01*
X167922470Y-90564696D01*
X168165787Y-90727276D01*
X168452800Y-90784366D01*
X168739813Y-90727276D01*
X168983130Y-90564696D01*
X169087800Y-90408047D01*
X169192470Y-90564696D01*
X169435787Y-90727276D01*
X169722800Y-90784366D01*
X170009813Y-90727276D01*
X170253130Y-90564696D01*
X170357800Y-90408047D01*
X170462470Y-90564696D01*
X170705787Y-90727276D01*
X170992800Y-90784366D01*
X171279813Y-90727276D01*
X171523130Y-90564696D01*
X171627800Y-90408047D01*
X171732470Y-90564696D01*
X171975787Y-90727276D01*
X172262800Y-90784366D01*
X172549813Y-90727276D01*
X172793130Y-90564696D01*
X172897800Y-90408047D01*
X173002470Y-90564696D01*
X173245787Y-90727276D01*
X173532800Y-90784366D01*
X173819813Y-90727276D01*
X174063130Y-90564696D01*
X174167800Y-90408047D01*
X174272470Y-90564696D01*
X174515787Y-90727276D01*
X174802800Y-90784366D01*
X175089813Y-90727276D01*
X175333130Y-90564696D01*
X175437800Y-90408047D01*
X175542470Y-90564696D01*
X175785787Y-90727276D01*
X175946754Y-90759294D01*
X177372480Y-92185021D01*
X177510359Y-92277149D01*
X177673000Y-92309500D01*
X178711961Y-92309500D01*
X178667071Y-92328048D01*
X178498141Y-92496683D01*
X178406604Y-92717129D01*
X178406396Y-92955824D01*
X178454500Y-93072245D01*
X178454500Y-94071123D01*
X178429500Y-94071123D01*
X178318327Y-94092042D01*
X178216221Y-94157745D01*
X178147722Y-94257997D01*
X178123623Y-94377000D01*
X178123623Y-94877000D01*
X178144542Y-94988173D01*
X178210245Y-95090279D01*
X178310497Y-95158778D01*
X178429500Y-95182877D01*
X179329500Y-95182877D01*
X179440673Y-95161958D01*
X179542779Y-95096255D01*
X179611278Y-94996003D01*
X179635377Y-94877000D01*
X179635377Y-94377000D01*
X179614458Y-94265827D01*
X179548755Y-94163721D01*
X179448503Y-94095222D01*
X179329500Y-94071123D01*
X179304500Y-94071123D01*
X179304500Y-93363070D01*
X179345929Y-93345952D01*
X179514859Y-93177317D01*
X179606396Y-92956871D01*
X179606604Y-92718176D01*
X179515452Y-92497571D01*
X179346817Y-92328641D01*
X179300720Y-92309500D01*
X180489961Y-92309500D01*
X180445071Y-92328048D01*
X180276141Y-92496683D01*
X180184604Y-92717129D01*
X180184396Y-92955824D01*
X180275548Y-93176429D01*
X180359500Y-93260528D01*
X180359500Y-94071123D01*
X180334500Y-94071123D01*
X180223327Y-94092042D01*
X180121221Y-94157745D01*
X180052722Y-94257997D01*
X180028623Y-94377000D01*
X180028623Y-94877000D01*
X180049542Y-94988173D01*
X180115245Y-95090279D01*
X180215497Y-95158778D01*
X180334500Y-95182877D01*
X181234500Y-95182877D01*
X181345673Y-95161958D01*
X181447779Y-95096255D01*
X181516278Y-94996003D01*
X181540377Y-94877000D01*
X181540377Y-94377000D01*
X181519458Y-94265827D01*
X181453755Y-94163721D01*
X181353503Y-94095222D01*
X181234500Y-94071123D01*
X181209500Y-94071123D01*
X181209500Y-93260530D01*
X181292859Y-93177317D01*
X181384396Y-92956871D01*
X181384604Y-92718176D01*
X181293452Y-92497571D01*
X181124817Y-92328641D01*
X181078720Y-92309500D01*
X185053460Y-92309500D01*
X189376500Y-96632541D01*
X189376500Y-103505000D01*
X189399535Y-103620804D01*
X189408851Y-103667641D01*
X189500980Y-103805520D01*
X191951751Y-106256291D01*
X191867470Y-106680000D01*
X191955009Y-107120086D01*
X192204297Y-107493173D01*
X192577384Y-107742461D01*
X193017470Y-107830000D01*
X193062530Y-107830000D01*
X193502616Y-107742461D01*
X193875703Y-107493173D01*
X194124991Y-107120086D01*
X194212530Y-106680000D01*
X194124991Y-106239914D01*
X193875703Y-105866827D01*
X193502616Y-105617539D01*
X193062530Y-105530000D01*
X193017470Y-105530000D01*
X192577384Y-105617539D01*
X192540035Y-105642495D01*
X190226500Y-103328960D01*
X190226500Y-101991040D01*
X191951751Y-103716291D01*
X191867470Y-104140000D01*
X191955009Y-104580086D01*
X192204297Y-104953173D01*
X192577384Y-105202461D01*
X193017470Y-105290000D01*
X193062530Y-105290000D01*
X193502616Y-105202461D01*
X193875703Y-104953173D01*
X194124991Y-104580086D01*
X194212530Y-104140000D01*
X194124991Y-103699914D01*
X193875703Y-103326827D01*
X193502616Y-103077539D01*
X193062530Y-102990000D01*
X193017470Y-102990000D01*
X192577384Y-103077539D01*
X192540035Y-103102495D01*
X190798000Y-101360460D01*
X190798000Y-100022540D01*
X191951751Y-101176292D01*
X191867470Y-101600000D01*
X191955009Y-102040086D01*
X192204297Y-102413173D01*
X192577384Y-102662461D01*
X193017470Y-102750000D01*
X193062530Y-102750000D01*
X193502616Y-102662461D01*
X193875703Y-102413173D01*
X194124991Y-102040086D01*
X194212530Y-101600000D01*
X194124991Y-101159914D01*
X193875703Y-100786827D01*
X193502616Y-100537539D01*
X193062530Y-100450000D01*
X193017470Y-100450000D01*
X192577384Y-100537539D01*
X192540035Y-100562495D01*
X191306000Y-99328460D01*
X191306000Y-97990540D01*
X191951751Y-98636291D01*
X191867470Y-99060000D01*
X191955009Y-99500086D01*
X192204297Y-99873173D01*
X192577384Y-100122461D01*
X193017470Y-100210000D01*
X193062530Y-100210000D01*
X193502616Y-100122461D01*
X193875703Y-99873173D01*
X194124991Y-99500086D01*
X194212530Y-99060000D01*
X194124991Y-98619914D01*
X193875703Y-98246827D01*
X193502616Y-97997539D01*
X193062530Y-97910000D01*
X193017470Y-97910000D01*
X192577384Y-97997539D01*
X192540035Y-98022495D01*
X191814000Y-97296460D01*
X191814000Y-95958540D01*
X191951751Y-96096291D01*
X191867470Y-96520000D01*
X191955009Y-96960086D01*
X192204297Y-97333173D01*
X192577384Y-97582461D01*
X193017470Y-97670000D01*
X193062530Y-97670000D01*
X193502616Y-97582461D01*
X193875703Y-97333173D01*
X194124991Y-96960086D01*
X194212530Y-96520000D01*
X194124991Y-96079914D01*
X193875703Y-95706827D01*
X193502616Y-95457539D01*
X193062530Y-95370000D01*
X193017470Y-95370000D01*
X192577384Y-95457539D01*
X192540035Y-95482495D01*
X182202362Y-85144822D01*
X182151076Y-84886987D01*
X181988496Y-84643670D01*
X181831847Y-84539000D01*
X181988496Y-84434330D01*
X182058876Y-84329000D01*
X182724460Y-84329000D01*
X191951751Y-93556291D01*
X191867470Y-93980000D01*
X191955009Y-94420086D01*
X192204297Y-94793173D01*
X192577384Y-95042461D01*
X193017470Y-95130000D01*
X193062530Y-95130000D01*
X193502616Y-95042461D01*
X193875703Y-94793173D01*
X194124991Y-94420086D01*
X194212530Y-93980000D01*
X194124991Y-93539914D01*
X193875703Y-93166827D01*
X193502616Y-92917539D01*
X193062530Y-92830000D01*
X193017470Y-92830000D01*
X192577384Y-92917539D01*
X192540035Y-92942495D01*
X183201020Y-83603480D01*
X183063141Y-83511351D01*
X183036157Y-83505984D01*
X182900500Y-83479000D01*
X182058876Y-83479000D01*
X181988496Y-83373670D01*
X181831847Y-83269000D01*
X181988496Y-83164330D01*
X182058876Y-83059000D01*
X183994460Y-83059000D01*
X191951751Y-91016292D01*
X191867470Y-91440000D01*
X191955009Y-91880086D01*
X192204297Y-92253173D01*
X192577384Y-92502461D01*
X193017470Y-92590000D01*
X193062530Y-92590000D01*
X193502616Y-92502461D01*
X193875703Y-92253173D01*
X194124991Y-91880086D01*
X194212530Y-91440000D01*
X194124991Y-90999914D01*
X193875703Y-90626827D01*
X193502616Y-90377539D01*
X193062530Y-90290000D01*
X193017470Y-90290000D01*
X192577384Y-90377539D01*
X192540035Y-90402494D01*
X184471020Y-82333480D01*
X184333141Y-82241351D01*
X184306157Y-82235984D01*
X184170500Y-82209000D01*
X182058876Y-82209000D01*
X181988496Y-82103670D01*
X181831847Y-81999000D01*
X181988496Y-81894330D01*
X182058876Y-81789000D01*
X185264460Y-81789000D01*
X191951751Y-88476292D01*
X191867470Y-88900000D01*
X191955009Y-89340086D01*
X192204297Y-89713173D01*
X192577384Y-89962461D01*
X193017470Y-90050000D01*
X193062530Y-90050000D01*
X193502616Y-89962461D01*
X193875703Y-89713173D01*
X194124991Y-89340086D01*
X194212530Y-88900000D01*
X194124991Y-88459914D01*
X193875703Y-88086827D01*
X193502616Y-87837539D01*
X193062530Y-87750000D01*
X193017470Y-87750000D01*
X192577384Y-87837539D01*
X192540035Y-87862494D01*
X185741020Y-81063480D01*
X185603141Y-80971351D01*
X185576157Y-80965984D01*
X185440500Y-80939000D01*
X182058876Y-80939000D01*
X181988496Y-80833670D01*
X181831847Y-80729000D01*
X181988496Y-80624330D01*
X182058876Y-80519000D01*
X186534460Y-80519000D01*
X191951751Y-85936292D01*
X191867470Y-86360000D01*
X191955009Y-86800086D01*
X192204297Y-87173173D01*
X192577384Y-87422461D01*
X193017470Y-87510000D01*
X193062530Y-87510000D01*
X193502616Y-87422461D01*
X193875703Y-87173173D01*
X194124991Y-86800086D01*
X194212530Y-86360000D01*
X194124991Y-85919914D01*
X193875703Y-85546827D01*
X193502616Y-85297539D01*
X193062530Y-85210000D01*
X193017470Y-85210000D01*
X192577384Y-85297539D01*
X192540035Y-85322494D01*
X187011020Y-79793480D01*
X186873141Y-79701351D01*
X186846157Y-79695984D01*
X186710500Y-79669000D01*
X182058876Y-79669000D01*
X181988496Y-79563670D01*
X181831847Y-79459000D01*
X181988496Y-79354330D01*
X182151076Y-79111013D01*
X182208166Y-78824000D01*
X182151076Y-78536987D01*
X181988496Y-78293670D01*
X181831847Y-78189000D01*
X181988496Y-78084330D01*
X182058876Y-77979000D01*
X186534460Y-77979000D01*
X191951751Y-83396292D01*
X191867470Y-83820000D01*
X191955009Y-84260086D01*
X192204297Y-84633173D01*
X192577384Y-84882461D01*
X193017470Y-84970000D01*
X193062530Y-84970000D01*
X193502616Y-84882461D01*
X193875703Y-84633173D01*
X194124991Y-84260086D01*
X194212530Y-83820000D01*
X194124991Y-83379914D01*
X193875703Y-83006827D01*
X193502616Y-82757539D01*
X193062530Y-82670000D01*
X193017470Y-82670000D01*
X192577384Y-82757539D01*
X192540035Y-82782494D01*
X187011020Y-77253480D01*
X186873141Y-77161351D01*
X186846157Y-77155984D01*
X186710500Y-77129000D01*
X182058876Y-77129000D01*
X181988496Y-77023670D01*
X181831847Y-76919000D01*
X181988496Y-76814330D01*
X182058876Y-76709000D01*
X182664519Y-76709000D01*
X182753000Y-76726600D01*
X182841481Y-76709000D01*
X183365934Y-76709000D01*
X183428683Y-76771859D01*
X183649129Y-76863396D01*
X183887824Y-76863604D01*
X184108429Y-76772452D01*
X184171992Y-76709000D01*
X187804460Y-76709000D01*
X191951751Y-80856291D01*
X191867470Y-81280000D01*
X191955009Y-81720086D01*
X192204297Y-82093173D01*
X192577384Y-82342461D01*
X193017470Y-82430000D01*
X193062530Y-82430000D01*
X193502616Y-82342461D01*
X193875703Y-82093173D01*
X194124991Y-81720086D01*
X194212530Y-81280000D01*
X194124991Y-80839914D01*
X193875703Y-80466827D01*
X193502616Y-80217539D01*
X193062530Y-80130000D01*
X193017470Y-80130000D01*
X192577384Y-80217539D01*
X192540035Y-80242495D01*
X188281020Y-75983480D01*
X188143141Y-75891351D01*
X188116157Y-75885984D01*
X187980500Y-75859000D01*
X184212995Y-75859000D01*
X184109317Y-75755141D01*
X183888871Y-75663604D01*
X183650176Y-75663396D01*
X183429571Y-75754548D01*
X183324936Y-75859000D01*
X182058876Y-75859000D01*
X181988496Y-75753670D01*
X181831847Y-75649000D01*
X181988496Y-75544330D01*
X182058876Y-75439000D01*
X184064434Y-75439000D01*
X184127183Y-75501859D01*
X184347629Y-75593396D01*
X184586324Y-75593604D01*
X184806929Y-75502452D01*
X184870492Y-75439000D01*
X189074460Y-75439000D01*
X191951751Y-78316292D01*
X191867470Y-78740000D01*
X191955009Y-79180086D01*
X192204297Y-79553173D01*
X192577384Y-79802461D01*
X193017470Y-79890000D01*
X193062530Y-79890000D01*
X193502616Y-79802461D01*
X193875703Y-79553173D01*
X194124991Y-79180086D01*
X194212530Y-78740000D01*
X194124991Y-78299914D01*
X193875703Y-77926827D01*
X193502616Y-77677539D01*
X193062530Y-77590000D01*
X193017470Y-77590000D01*
X192577384Y-77677539D01*
X192540035Y-77702495D01*
X189551020Y-74713480D01*
X189413141Y-74621351D01*
X189386157Y-74615984D01*
X189250500Y-74589000D01*
X184911495Y-74589000D01*
X184807817Y-74485141D01*
X184587371Y-74393604D01*
X184348676Y-74393396D01*
X184128071Y-74484548D01*
X184023436Y-74589000D01*
X182058876Y-74589000D01*
X181988496Y-74483670D01*
X181831847Y-74379000D01*
X181988496Y-74274330D01*
X182058876Y-74169000D01*
X190344460Y-74169000D01*
X191951751Y-75776292D01*
X191867470Y-76200000D01*
X191955009Y-76640086D01*
X192204297Y-77013173D01*
X192577384Y-77262461D01*
X193017470Y-77350000D01*
X193062530Y-77350000D01*
X193502616Y-77262461D01*
X193875703Y-77013173D01*
X194124991Y-76640086D01*
X194212530Y-76200000D01*
X194124991Y-75759914D01*
X193875703Y-75386827D01*
X193502616Y-75137539D01*
X193062530Y-75050000D01*
X193017470Y-75050000D01*
X192577384Y-75137539D01*
X192540035Y-75162495D01*
X190821020Y-73443480D01*
X190683141Y-73351351D01*
X190656157Y-73345984D01*
X190520500Y-73319000D01*
X182058876Y-73319000D01*
X181988496Y-73213670D01*
X181831847Y-73109000D01*
X181988496Y-73004330D01*
X182058876Y-72899000D01*
X191614460Y-72899000D01*
X191951751Y-73236292D01*
X191867470Y-73660000D01*
X191955009Y-74100086D01*
X192204297Y-74473173D01*
X192577384Y-74722461D01*
X193017470Y-74810000D01*
X193062530Y-74810000D01*
X193502616Y-74722461D01*
X193875703Y-74473173D01*
X194124991Y-74100086D01*
X194212530Y-73660000D01*
X194124991Y-73219914D01*
X193875703Y-72846827D01*
X193502616Y-72597539D01*
X193062530Y-72510000D01*
X193017470Y-72510000D01*
X192577384Y-72597539D01*
X192540035Y-72622495D01*
X192091020Y-72173480D01*
X191953141Y-72081351D01*
X191926157Y-72075984D01*
X191790500Y-72049000D01*
X182058876Y-72049000D01*
X182057994Y-72047681D01*
X182284814Y-71843224D01*
X182437554Y-71519849D01*
X182320616Y-71358000D01*
X180781800Y-71358000D01*
X180781800Y-71378000D01*
X180473800Y-71378000D01*
X180473800Y-71358000D01*
X178934984Y-71358000D01*
X178818046Y-71519849D01*
X178970786Y-71843224D01*
X179197606Y-72047681D01*
X179104524Y-72186987D01*
X179047434Y-72474000D01*
X179104524Y-72761013D01*
X179267104Y-73004330D01*
X179423753Y-73109000D01*
X179267104Y-73213670D01*
X179104524Y-73456987D01*
X179047434Y-73744000D01*
X179104524Y-74031013D01*
X179267104Y-74274330D01*
X179423753Y-74379000D01*
X179267104Y-74483670D01*
X179104524Y-74726987D01*
X179047434Y-75014000D01*
X179104524Y-75301013D01*
X179267104Y-75544330D01*
X179423753Y-75649000D01*
X179267104Y-75753670D01*
X179104524Y-75996987D01*
X179047434Y-76284000D01*
X179104524Y-76571013D01*
X179267104Y-76814330D01*
X179423753Y-76919000D01*
X179267104Y-77023670D01*
X179104524Y-77266987D01*
X179047434Y-77554000D01*
X179104524Y-77841013D01*
X179267104Y-78084330D01*
X179423753Y-78189000D01*
X179267104Y-78293670D01*
X179104524Y-78536987D01*
X179047434Y-78824000D01*
X179104524Y-79111013D01*
X179267104Y-79354330D01*
X179423753Y-79459000D01*
X179267104Y-79563670D01*
X179104524Y-79806987D01*
X179047434Y-80094000D01*
X179104524Y-80381013D01*
X179267104Y-80624330D01*
X179423753Y-80729000D01*
X179267104Y-80833670D01*
X179104524Y-81076987D01*
X179047434Y-81364000D01*
X179104524Y-81651013D01*
X179267104Y-81894330D01*
X179423753Y-81999000D01*
X179267104Y-82103670D01*
X179104524Y-82346987D01*
X179047434Y-82634000D01*
X179104524Y-82921013D01*
X179267104Y-83164330D01*
X179423753Y-83269000D01*
X179267104Y-83373670D01*
X179104524Y-83616987D01*
X179047434Y-83904000D01*
X179104524Y-84191013D01*
X179267104Y-84434330D01*
X179423753Y-84539000D01*
X179267104Y-84643670D01*
X179104524Y-84886987D01*
X179047434Y-85174000D01*
X179104524Y-85461013D01*
X179267104Y-85704330D01*
X179423753Y-85809000D01*
X179267104Y-85913670D01*
X179104524Y-86156987D01*
X179047434Y-86444000D01*
X179104524Y-86731013D01*
X179267104Y-86974330D01*
X179423753Y-87079000D01*
X179267104Y-87183670D01*
X179196724Y-87289000D01*
X179196650Y-87289000D01*
X179181717Y-87274041D01*
X178961271Y-87182504D01*
X178722576Y-87182296D01*
X178501971Y-87273448D01*
X178333041Y-87442083D01*
X178241504Y-87662529D01*
X178241296Y-87901224D01*
X178332448Y-88121829D01*
X178501083Y-88290759D01*
X178721529Y-88382296D01*
X178960224Y-88382504D01*
X179180829Y-88291352D01*
X179251431Y-88220873D01*
X179267104Y-88244330D01*
X179510421Y-88406910D01*
X179797434Y-88464000D01*
X181458166Y-88464000D01*
X181745179Y-88406910D01*
X181988496Y-88244330D01*
X182058876Y-88139000D01*
X182464958Y-88139000D01*
X183104958Y-88779000D01*
X178092800Y-88779000D01*
X178092800Y-88373634D01*
X178035710Y-88086621D01*
X177873130Y-87843304D01*
X177629813Y-87680724D01*
X177342800Y-87623634D01*
X177055787Y-87680724D01*
X176812470Y-87843304D01*
X176707800Y-87999953D01*
X176603130Y-87843304D01*
X176359813Y-87680724D01*
X176072800Y-87623634D01*
X175785787Y-87680724D01*
X175542470Y-87843304D01*
X175437800Y-87999953D01*
X175333130Y-87843304D01*
X175089813Y-87680724D01*
X174802800Y-87623634D01*
X174515787Y-87680724D01*
X174272470Y-87843304D01*
X174167800Y-87999953D01*
X174063130Y-87843304D01*
X173819813Y-87680724D01*
X173532800Y-87623634D01*
X173245787Y-87680724D01*
X173002470Y-87843304D01*
X172897800Y-87999953D01*
X172793130Y-87843304D01*
X172549813Y-87680724D01*
X172262800Y-87623634D01*
X171975787Y-87680724D01*
X171732470Y-87843304D01*
X171627800Y-87999953D01*
X171523130Y-87843304D01*
X171279813Y-87680724D01*
X170992800Y-87623634D01*
X170705787Y-87680724D01*
X170462470Y-87843304D01*
X170357800Y-87999953D01*
X170253130Y-87843304D01*
X170009813Y-87680724D01*
X169722800Y-87623634D01*
X169435787Y-87680724D01*
X169192470Y-87843304D01*
X169087800Y-87999953D01*
X168983130Y-87843304D01*
X168739813Y-87680724D01*
X168452800Y-87623634D01*
X168165787Y-87680724D01*
X167922470Y-87843304D01*
X167817800Y-87999953D01*
X167713130Y-87843304D01*
X167469813Y-87680724D01*
X167182800Y-87623634D01*
X166895787Y-87680724D01*
X166756481Y-87773806D01*
X166552024Y-87546986D01*
X166228649Y-87394246D01*
X166066800Y-87511184D01*
X166066800Y-89050000D01*
X166086800Y-89050000D01*
X166086800Y-89358000D01*
X166066800Y-89358000D01*
X166066800Y-90896816D01*
X166228649Y-91013754D01*
X166552024Y-90861014D01*
X166756481Y-90634194D01*
X166757800Y-90635076D01*
X166757800Y-90895660D01*
X165495460Y-92158000D01*
X156093040Y-92158000D01*
X158893040Y-89358000D01*
X164854800Y-89358000D01*
X164854800Y-90158000D01*
X164994269Y-90551157D01*
X165273576Y-90861014D01*
X165596951Y-91013754D01*
X165758800Y-90896816D01*
X165758800Y-89358000D01*
X164854800Y-89358000D01*
X158893040Y-89358000D01*
X160112041Y-88139000D01*
X161196724Y-88139000D01*
X161267104Y-88244330D01*
X161510421Y-88406910D01*
X161797434Y-88464000D01*
X163458166Y-88464000D01*
X163745179Y-88406910D01*
X163980010Y-88250000D01*
X164854800Y-88250000D01*
X164854800Y-89050000D01*
X165758800Y-89050000D01*
X165758800Y-87511184D01*
X165596951Y-87394246D01*
X165273576Y-87546986D01*
X164994269Y-87856843D01*
X164854800Y-88250000D01*
X163980010Y-88250000D01*
X163988496Y-88244330D01*
X164151076Y-88001013D01*
X164208166Y-87714000D01*
X164151076Y-87426987D01*
X163988496Y-87183670D01*
X163831847Y-87079000D01*
X163988496Y-86974330D01*
X164151076Y-86731013D01*
X164208166Y-86444000D01*
X164151076Y-86156987D01*
X163988496Y-85913670D01*
X163831847Y-85809000D01*
X163988496Y-85704330D01*
X164151076Y-85461013D01*
X164208166Y-85174000D01*
X164151076Y-84886987D01*
X163988496Y-84643670D01*
X163831847Y-84539000D01*
X163988496Y-84434330D01*
X164151076Y-84191013D01*
X164208166Y-83904000D01*
X164151076Y-83616987D01*
X163988496Y-83373670D01*
X163831847Y-83269000D01*
X163988496Y-83164330D01*
X164151076Y-82921013D01*
X164208166Y-82634000D01*
X164151076Y-82346987D01*
X163988496Y-82103670D01*
X163831847Y-81999000D01*
X163988496Y-81894330D01*
X164151076Y-81651013D01*
X164208166Y-81364000D01*
X164151076Y-81076987D01*
X163988496Y-80833670D01*
X163831847Y-80729000D01*
X163988496Y-80624330D01*
X164151076Y-80381013D01*
X164208166Y-80094000D01*
X164151076Y-79806987D01*
X163988496Y-79563670D01*
X163831847Y-79459000D01*
X163988496Y-79354330D01*
X164084934Y-79210000D01*
X167719800Y-79210000D01*
X167719800Y-82024938D01*
X167812362Y-82248404D01*
X167983395Y-82419437D01*
X168206861Y-82512000D01*
X171021800Y-82512000D01*
X171173800Y-82360000D01*
X171173800Y-79058000D01*
X171481800Y-79058000D01*
X171481800Y-82360000D01*
X171633800Y-82512000D01*
X174448739Y-82512000D01*
X174672205Y-82419437D01*
X174843238Y-82248404D01*
X174935800Y-82024938D01*
X174935800Y-79210000D01*
X174783800Y-79058000D01*
X171481800Y-79058000D01*
X171173800Y-79058000D01*
X167871800Y-79058000D01*
X167719800Y-79210000D01*
X164084934Y-79210000D01*
X164151076Y-79111013D01*
X164208166Y-78824000D01*
X164151076Y-78536987D01*
X163988496Y-78293670D01*
X163831847Y-78189000D01*
X163988496Y-78084330D01*
X164151076Y-77841013D01*
X164208166Y-77554000D01*
X164151076Y-77266987D01*
X163988496Y-77023670D01*
X163831847Y-76919000D01*
X163988496Y-76814330D01*
X164151076Y-76571013D01*
X164208166Y-76284000D01*
X164151076Y-75996987D01*
X163988496Y-75753670D01*
X163831847Y-75649000D01*
X163988496Y-75544330D01*
X164151076Y-75301013D01*
X164208166Y-75014000D01*
X164151076Y-74726987D01*
X163988496Y-74483670D01*
X163831847Y-74379000D01*
X163988496Y-74274330D01*
X164058876Y-74169000D01*
X164271360Y-74169000D01*
X165439799Y-75337439D01*
X165439696Y-75455224D01*
X165530848Y-75675829D01*
X165699483Y-75844759D01*
X165919929Y-75936296D01*
X166158624Y-75936504D01*
X166379229Y-75845352D01*
X166441627Y-75783062D01*
X167719800Y-75783062D01*
X167719800Y-78598000D01*
X167871800Y-78750000D01*
X171173800Y-78750000D01*
X171173800Y-75448000D01*
X171481800Y-75448000D01*
X171481800Y-78750000D01*
X174783800Y-78750000D01*
X174935800Y-78598000D01*
X174935800Y-75783062D01*
X174843238Y-75559596D01*
X174672205Y-75388563D01*
X174448739Y-75296000D01*
X171633800Y-75296000D01*
X171481800Y-75448000D01*
X171173800Y-75448000D01*
X171021800Y-75296000D01*
X168206861Y-75296000D01*
X167983395Y-75388563D01*
X167812362Y-75559596D01*
X167719800Y-75783062D01*
X166441627Y-75783062D01*
X166548159Y-75676717D01*
X166639696Y-75456271D01*
X166639904Y-75217576D01*
X166611565Y-75148990D01*
X166742824Y-75149104D01*
X166963429Y-75057952D01*
X167132359Y-74889317D01*
X167223896Y-74668871D01*
X167224104Y-74430176D01*
X167132952Y-74209571D01*
X166964317Y-74040641D01*
X166743871Y-73949104D01*
X166625040Y-73949000D01*
X164849520Y-72173480D01*
X164711641Y-72081351D01*
X164684657Y-72075984D01*
X164549000Y-72049000D01*
X164058876Y-72049000D01*
X164057994Y-72047681D01*
X164284814Y-71843224D01*
X164437554Y-71519849D01*
X164320616Y-71358000D01*
X162781800Y-71358000D01*
X162781800Y-71378000D01*
X162473800Y-71378000D01*
X162473800Y-71358000D01*
X160934984Y-71358000D01*
X160818046Y-71519849D01*
X160970786Y-71843224D01*
X161197606Y-72047681D01*
X161196724Y-72049000D01*
X151318000Y-72049000D01*
X151318000Y-71426000D01*
X151166000Y-71274000D01*
X150014000Y-71274000D01*
X150014000Y-71294000D01*
X149706000Y-71294000D01*
X149706000Y-71274000D01*
X148554000Y-71274000D01*
X148402000Y-71426000D01*
X147643800Y-71426000D01*
X147643800Y-69886500D01*
X148533658Y-69886500D01*
X148494562Y-69925596D01*
X148494562Y-69925596D01*
G37*
X148494562Y-69925596D02*
X148402000Y-70149062D01*
X148402000Y-70814000D01*
X148554000Y-70966000D01*
X149706000Y-70966000D01*
X149706000Y-70946000D01*
X150014000Y-70946000D01*
X150014000Y-70966000D01*
X151166000Y-70966000D01*
X151243849Y-70888151D01*
X160818046Y-70888151D01*
X160934984Y-71050000D01*
X162473800Y-71050000D01*
X162473800Y-70146000D01*
X162781800Y-70146000D01*
X162781800Y-71050000D01*
X164320616Y-71050000D01*
X164437554Y-70888151D01*
X178818046Y-70888151D01*
X178934984Y-71050000D01*
X180473800Y-71050000D01*
X180473800Y-70146000D01*
X180781800Y-70146000D01*
X180781800Y-71050000D01*
X182320616Y-71050000D01*
X182437554Y-70888151D01*
X182284814Y-70564776D01*
X181974957Y-70285469D01*
X181581800Y-70146000D01*
X180781800Y-70146000D01*
X180473800Y-70146000D01*
X179673800Y-70146000D01*
X179280643Y-70285469D01*
X178970786Y-70564776D01*
X178818046Y-70888151D01*
X164437554Y-70888151D01*
X164284814Y-70564776D01*
X163974957Y-70285469D01*
X163581800Y-70146000D01*
X162781800Y-70146000D01*
X162473800Y-70146000D01*
X161673800Y-70146000D01*
X161280643Y-70285469D01*
X160970786Y-70564776D01*
X160818046Y-70888151D01*
X151243849Y-70888151D01*
X151318000Y-70814000D01*
X151318000Y-70149062D01*
X151225438Y-69925596D01*
X151186342Y-69886500D01*
X195332400Y-69886500D01*
X195332400Y-118364000D01*
X195341227Y-118408374D01*
X195282485Y-118703689D01*
X195090066Y-118991666D01*
X194802089Y-119184085D01*
X194462326Y-119251669D01*
X194373500Y-119234000D01*
X181422830Y-119234000D01*
X180686230Y-118497400D01*
X180941339Y-118497400D01*
X181164805Y-118404837D01*
X181255517Y-118314125D01*
X181288562Y-118393904D01*
X181459595Y-118564937D01*
X181683061Y-118657500D01*
X182023000Y-118657500D01*
X182175000Y-118505500D01*
X182175000Y-117878500D01*
X182483000Y-117878500D01*
X182483000Y-118505500D01*
X182635000Y-118657500D01*
X182974939Y-118657500D01*
X183198405Y-118564937D01*
X183369438Y-118393904D01*
X183462000Y-118170438D01*
X183462000Y-118030500D01*
X185346000Y-118030500D01*
X185346000Y-118170438D01*
X185438562Y-118393904D01*
X185609595Y-118564937D01*
X185833061Y-118657500D01*
X186173000Y-118657500D01*
X186325000Y-118505500D01*
X186325000Y-117878500D01*
X186633000Y-117878500D01*
X186633000Y-118505500D01*
X186785000Y-118657500D01*
X187124939Y-118657500D01*
X187348405Y-118564937D01*
X187519438Y-118393904D01*
X187612000Y-118170438D01*
X187612000Y-118030500D01*
X187460000Y-117878500D01*
X186633000Y-117878500D01*
X186325000Y-117878500D01*
X185498000Y-117878500D01*
X185346000Y-118030500D01*
X183462000Y-118030500D01*
X183310000Y-117878500D01*
X182483000Y-117878500D01*
X182175000Y-117878500D01*
X182155000Y-117878500D01*
X182155000Y-117570500D01*
X182175000Y-117570500D01*
X182175000Y-116943500D01*
X182483000Y-116943500D01*
X182483000Y-117570500D01*
X183310000Y-117570500D01*
X183462000Y-117418500D01*
X183462000Y-117278562D01*
X185346000Y-117278562D01*
X185346000Y-117418500D01*
X185498000Y-117570500D01*
X186325000Y-117570500D01*
X186325000Y-116943500D01*
X186633000Y-116943500D01*
X186633000Y-117570500D01*
X187460000Y-117570500D01*
X187612000Y-117418500D01*
X187612000Y-117278562D01*
X187519438Y-117055096D01*
X187348405Y-116884063D01*
X187124939Y-116791500D01*
X186785000Y-116791500D01*
X186633000Y-116943500D01*
X186325000Y-116943500D01*
X186173000Y-116791500D01*
X185833061Y-116791500D01*
X185609595Y-116884063D01*
X185438562Y-117055096D01*
X185346000Y-117278562D01*
X183462000Y-117278562D01*
X183369438Y-117055096D01*
X183198405Y-116884063D01*
X182974939Y-116791500D01*
X182635000Y-116791500D01*
X182483000Y-116943500D01*
X182175000Y-116943500D01*
X182023000Y-116791500D01*
X181683061Y-116791500D01*
X181459595Y-116884063D01*
X181428400Y-116915258D01*
X181428400Y-116785398D01*
X181276402Y-116785398D01*
X181428400Y-116633400D01*
X181428400Y-116535200D01*
X190613566Y-116535200D01*
X190767332Y-117308234D01*
X191205220Y-117963580D01*
X191860566Y-118401468D01*
X192633600Y-118555234D01*
X193406634Y-118401468D01*
X194061980Y-117963580D01*
X194499868Y-117308234D01*
X194653634Y-116535200D01*
X194499868Y-115762166D01*
X194061980Y-115106820D01*
X193406634Y-114668932D01*
X192633600Y-114515166D01*
X191860566Y-114668932D01*
X191205220Y-115106820D01*
X190767332Y-115762166D01*
X190613566Y-116535200D01*
X181428400Y-116535200D01*
X181428400Y-115868462D01*
X181335838Y-115644996D01*
X181164805Y-115473963D01*
X180941339Y-115381400D01*
X180678400Y-115381400D01*
X180678400Y-115249500D01*
X181498123Y-115249500D01*
X181498123Y-115899500D01*
X181519042Y-116010673D01*
X181584745Y-116112779D01*
X181684997Y-116181278D01*
X181804000Y-116205377D01*
X182854000Y-116205377D01*
X182965173Y-116184458D01*
X183067279Y-116118755D01*
X183135778Y-116018503D01*
X183139626Y-115999500D01*
X185666940Y-115999500D01*
X185669042Y-116010673D01*
X185734745Y-116112779D01*
X185834997Y-116181278D01*
X185954000Y-116205377D01*
X187004000Y-116205377D01*
X187115173Y-116184458D01*
X187217279Y-116118755D01*
X187285778Y-116018503D01*
X187309877Y-115899500D01*
X187309877Y-115249500D01*
X187288958Y-115138327D01*
X187223255Y-115036221D01*
X187123003Y-114967722D01*
X187004000Y-114943623D01*
X186988000Y-114943623D01*
X186988000Y-114342530D01*
X187071359Y-114259317D01*
X187162896Y-114038871D01*
X187163104Y-113800176D01*
X187071952Y-113579571D01*
X186903317Y-113410641D01*
X186682871Y-113319104D01*
X186444176Y-113318896D01*
X186223571Y-113410048D01*
X186054641Y-113578683D01*
X185963104Y-113799129D01*
X185962896Y-114037824D01*
X186054048Y-114258429D01*
X186138000Y-114342528D01*
X186138000Y-114943623D01*
X185954000Y-114943623D01*
X185842827Y-114964542D01*
X185740721Y-115030245D01*
X185672222Y-115130497D01*
X185668374Y-115149500D01*
X183141060Y-115149500D01*
X183138958Y-115138327D01*
X183073255Y-115036221D01*
X182973003Y-114967722D01*
X182854000Y-114943623D01*
X181804000Y-114943623D01*
X181692827Y-114964542D01*
X181590721Y-115030245D01*
X181522222Y-115130497D01*
X181498123Y-115249500D01*
X180678400Y-115249500D01*
X180678400Y-114895400D01*
X180526400Y-114743400D01*
X179174400Y-114743400D01*
X179174400Y-114763400D01*
X178866400Y-114763400D01*
X178866400Y-114743400D01*
X178846400Y-114743400D01*
X178846400Y-114435400D01*
X178866400Y-114435400D01*
X178866400Y-113133400D01*
X179174400Y-113133400D01*
X179174400Y-114435400D01*
X180526400Y-114435400D01*
X180678400Y-114283400D01*
X180678400Y-113468462D01*
X180585838Y-113244996D01*
X180414805Y-113073963D01*
X180191339Y-112981400D01*
X179326400Y-112981400D01*
X179174400Y-113133400D01*
X178866400Y-113133400D01*
X178714400Y-112981400D01*
X177849461Y-112981400D01*
X177683500Y-113050144D01*
X177683500Y-112138910D01*
X191632097Y-112138910D01*
X191776523Y-112487616D01*
X192151146Y-112915741D01*
X192661089Y-113167915D01*
X192886000Y-113057856D01*
X192886000Y-111914000D01*
X193194000Y-111914000D01*
X193194000Y-113057856D01*
X193418911Y-113167915D01*
X193928854Y-112915741D01*
X194303477Y-112487616D01*
X194447903Y-112138910D01*
X194336889Y-111914000D01*
X193194000Y-111914000D01*
X192886000Y-111914000D01*
X191743111Y-111914000D01*
X191632097Y-112138910D01*
X177683500Y-112138910D01*
X177683500Y-111207540D01*
X179001520Y-109889520D01*
X179093649Y-109751641D01*
X179111860Y-109660086D01*
X179126000Y-109589000D01*
X179126000Y-108413919D01*
X179331129Y-108499096D01*
X179569824Y-108499304D01*
X179790429Y-108408152D01*
X179874528Y-108324200D01*
X191479660Y-108324200D01*
X191951751Y-108796292D01*
X191867470Y-109220000D01*
X191955009Y-109660086D01*
X192204297Y-110033173D01*
X192577384Y-110282461D01*
X192885998Y-110343848D01*
X192885998Y-110462143D01*
X192661089Y-110352085D01*
X192151146Y-110604259D01*
X191776523Y-111032384D01*
X191632097Y-111381090D01*
X191743111Y-111606000D01*
X192886000Y-111606000D01*
X192886000Y-111586000D01*
X193194000Y-111586000D01*
X193194000Y-111606000D01*
X194336889Y-111606000D01*
X194447903Y-111381090D01*
X194303477Y-111032384D01*
X193928854Y-110604259D01*
X193418911Y-110352085D01*
X193194002Y-110462143D01*
X193194002Y-110343848D01*
X193502616Y-110282461D01*
X193875703Y-110033173D01*
X194124991Y-109660086D01*
X194212530Y-109220000D01*
X194124991Y-108779914D01*
X193875703Y-108406827D01*
X193502616Y-108157539D01*
X193062530Y-108070000D01*
X193017470Y-108070000D01*
X192577384Y-108157539D01*
X192540035Y-108182495D01*
X191956220Y-107598680D01*
X191818341Y-107506551D01*
X191791357Y-107501184D01*
X191655700Y-107474200D01*
X182394830Y-107474200D01*
X182463896Y-107307871D01*
X182464104Y-107069176D01*
X182372952Y-106848571D01*
X182338054Y-106813612D01*
X182344278Y-106804503D01*
X182368377Y-106685500D01*
X182368377Y-105785500D01*
X182756623Y-105785500D01*
X182756623Y-106685500D01*
X182777542Y-106796673D01*
X182843245Y-106898779D01*
X182943497Y-106967278D01*
X183062500Y-106991377D01*
X183562500Y-106991377D01*
X183673673Y-106970458D01*
X183775779Y-106904755D01*
X183844278Y-106804503D01*
X183868377Y-106685500D01*
X183868377Y-106660500D01*
X184086377Y-106660500D01*
X184098248Y-106689229D01*
X184266883Y-106858159D01*
X184487329Y-106949696D01*
X184726024Y-106949904D01*
X184946629Y-106858752D01*
X185115559Y-106690117D01*
X185207096Y-106469671D01*
X185207304Y-106230976D01*
X185116152Y-106010371D01*
X184947517Y-105841441D01*
X184727071Y-105749904D01*
X184488376Y-105749696D01*
X184341219Y-105810500D01*
X183868377Y-105810500D01*
X183868377Y-105785500D01*
X183847458Y-105674327D01*
X183781755Y-105572221D01*
X183681503Y-105503722D01*
X183562500Y-105479623D01*
X183062500Y-105479623D01*
X182951327Y-105500542D01*
X182849221Y-105566245D01*
X182780722Y-105666497D01*
X182756623Y-105785500D01*
X182368377Y-105785500D01*
X182347458Y-105674327D01*
X182281755Y-105572221D01*
X182181503Y-105503722D01*
X182062500Y-105479623D01*
X181562500Y-105479623D01*
X181451327Y-105500542D01*
X181349221Y-105566245D01*
X181280722Y-105666497D01*
X181256623Y-105785500D01*
X181256623Y-106685500D01*
X181277542Y-106796673D01*
X181337884Y-106890447D01*
X181264104Y-107068129D01*
X181263896Y-107306824D01*
X181333054Y-107474200D01*
X179874530Y-107474200D01*
X179791317Y-107390841D01*
X179570871Y-107299304D01*
X179332176Y-107299096D01*
X179126000Y-107384286D01*
X179126000Y-106898973D01*
X179212173Y-106882758D01*
X179250676Y-106857982D01*
X179285562Y-106942204D01*
X179456595Y-107113237D01*
X179680061Y-107205800D01*
X179895000Y-107205800D01*
X180047000Y-107053800D01*
X180047000Y-106376800D01*
X180355000Y-106376800D01*
X180355000Y-107053800D01*
X180507000Y-107205800D01*
X180721939Y-107205800D01*
X180945405Y-107113237D01*
X181116438Y-106942204D01*
X181209000Y-106718738D01*
X181209000Y-106528800D01*
X181057000Y-106376800D01*
X180355000Y-106376800D01*
X180047000Y-106376800D01*
X180027000Y-106376800D01*
X180027000Y-106068800D01*
X180047000Y-106068800D01*
X180047000Y-105391800D01*
X180355000Y-105391800D01*
X180355000Y-106068800D01*
X181057000Y-106068800D01*
X181209000Y-105916800D01*
X181209000Y-105726862D01*
X181116438Y-105503396D01*
X180945405Y-105332363D01*
X180721939Y-105239800D01*
X180507000Y-105239800D01*
X180355000Y-105391800D01*
X180047000Y-105391800D01*
X179895000Y-105239800D01*
X179680061Y-105239800D01*
X179456595Y-105332363D01*
X179285562Y-105503396D01*
X179250882Y-105587121D01*
X179220003Y-105566022D01*
X179126000Y-105546986D01*
X179126000Y-105218800D01*
X179109084Y-105133756D01*
X179521521Y-104721320D01*
X179613649Y-104583441D01*
X179646000Y-104420800D01*
X179646000Y-103605886D01*
X179721000Y-103620804D01*
X179893208Y-103586550D01*
X179971000Y-103534571D01*
X180048792Y-103586550D01*
X180221000Y-103620804D01*
X180393208Y-103586550D01*
X180471000Y-103534571D01*
X180548792Y-103586550D01*
X180721000Y-103620804D01*
X180893208Y-103586550D01*
X180971000Y-103534571D01*
X181048792Y-103586550D01*
X181221000Y-103620804D01*
X181393208Y-103586550D01*
X181471000Y-103534571D01*
X181548792Y-103586550D01*
X181721000Y-103620804D01*
X181893208Y-103586550D01*
X181971000Y-103534571D01*
X182048792Y-103586550D01*
X182221000Y-103620804D01*
X182393208Y-103586550D01*
X182539198Y-103489002D01*
X182636746Y-103343012D01*
X182671000Y-103170804D01*
X182671000Y-102650786D01*
X182740405Y-102622037D01*
X182911438Y-102451004D01*
X182940186Y-102381600D01*
X183460204Y-102381600D01*
X183632412Y-102347346D01*
X183778402Y-102249798D01*
X183875950Y-102103808D01*
X183910204Y-101931600D01*
X183875950Y-101759392D01*
X183823971Y-101681600D01*
X183875950Y-101603808D01*
X183910204Y-101431600D01*
X183875950Y-101259392D01*
X183823971Y-101181600D01*
X183875950Y-101103808D01*
X183910204Y-100931600D01*
X183875950Y-100759392D01*
X183823971Y-100681600D01*
X183875950Y-100603808D01*
X183910204Y-100431600D01*
X183875950Y-100259392D01*
X183823971Y-100181600D01*
X183875950Y-100103808D01*
X183910204Y-99931600D01*
X183875950Y-99759392D01*
X183823971Y-99681600D01*
X183875950Y-99603808D01*
X183910204Y-99431600D01*
X183875950Y-99259392D01*
X183823971Y-99181600D01*
X183875950Y-99103808D01*
X183910204Y-98931600D01*
X183875950Y-98759392D01*
X183778402Y-98613402D01*
X183632412Y-98515854D01*
X183460204Y-98481600D01*
X182940186Y-98481600D01*
X182911438Y-98412196D01*
X182740405Y-98241163D01*
X182671000Y-98212414D01*
X182671000Y-97692396D01*
X182636746Y-97520188D01*
X182539198Y-97374198D01*
X182393208Y-97276650D01*
X182221000Y-97242396D01*
X182050672Y-97276276D01*
X182082896Y-97198671D01*
X182083104Y-96959976D01*
X181991952Y-96739371D01*
X181823317Y-96570441D01*
X181602871Y-96478904D01*
X181519755Y-96478832D01*
X181540377Y-96377000D01*
X181540377Y-95877000D01*
X181519458Y-95765827D01*
X181453755Y-95663721D01*
X181353503Y-95595222D01*
X181234500Y-95571123D01*
X180334500Y-95571123D01*
X180223327Y-95592042D01*
X180121221Y-95657745D01*
X180052722Y-95757997D01*
X180028623Y-95877000D01*
X180028623Y-96344182D01*
X179635377Y-95950937D01*
X179635377Y-95877000D01*
X179614458Y-95765827D01*
X179548755Y-95663721D01*
X179448503Y-95595222D01*
X179329500Y-95571123D01*
X178429500Y-95571123D01*
X178318327Y-95592042D01*
X178216221Y-95657745D01*
X178147722Y-95757997D01*
X178123623Y-95877000D01*
X178123623Y-96377000D01*
X178144542Y-96488173D01*
X178210245Y-96590279D01*
X178310497Y-96658778D01*
X178429500Y-96682877D01*
X179165237Y-96682877D01*
X179725688Y-97243328D01*
X179721000Y-97242396D01*
X179548792Y-97276650D01*
X179471000Y-97328629D01*
X179393208Y-97276650D01*
X179221000Y-97242396D01*
X179048792Y-97276650D01*
X178902802Y-97374198D01*
X178805254Y-97520188D01*
X178798011Y-97556600D01*
X178345441Y-97556600D01*
X177031200Y-96242360D01*
X177031200Y-94620800D01*
X176998849Y-94458160D01*
X176945274Y-94377980D01*
X176906720Y-94320279D01*
X176228477Y-93642037D01*
X176228477Y-93188800D01*
X176207558Y-93077627D01*
X176141855Y-92975521D01*
X176041603Y-92907022D01*
X175922600Y-92882923D01*
X175022600Y-92882923D01*
X174911427Y-92903842D01*
X174809321Y-92969545D01*
X174740822Y-93069797D01*
X174716723Y-93188800D01*
X174716723Y-93988800D01*
X174737642Y-94099973D01*
X174803345Y-94202079D01*
X174903597Y-94270578D01*
X175022600Y-94294677D01*
X175679037Y-94294677D01*
X176181200Y-94796841D01*
X176181200Y-94936665D01*
X176141855Y-94875521D01*
X176041603Y-94807022D01*
X175922600Y-94782923D01*
X175022600Y-94782923D01*
X174911427Y-94803842D01*
X174809321Y-94869545D01*
X174740822Y-94969797D01*
X174716723Y-95088800D01*
X174716723Y-95745236D01*
X173660337Y-96801623D01*
X173222500Y-96801623D01*
X173111327Y-96822542D01*
X173009221Y-96888245D01*
X172940722Y-96988497D01*
X172916623Y-97107500D01*
X172916623Y-97607500D01*
X172937542Y-97718673D01*
X173003245Y-97820779D01*
X173103497Y-97889278D01*
X173222500Y-97913377D01*
X174122500Y-97913377D01*
X174233673Y-97892458D01*
X174335779Y-97826755D01*
X174404278Y-97726503D01*
X174428377Y-97607500D01*
X174428377Y-97235663D01*
X175469364Y-96194677D01*
X175922600Y-96194677D01*
X176033773Y-96173758D01*
X176135879Y-96108055D01*
X176181200Y-96041725D01*
X176181200Y-96191560D01*
X175583837Y-96788923D01*
X175038600Y-96788923D01*
X174927427Y-96809842D01*
X174825321Y-96875545D01*
X174756822Y-96975797D01*
X174732723Y-97094800D01*
X174732723Y-97594800D01*
X174753642Y-97705973D01*
X174819345Y-97808079D01*
X174919597Y-97876578D01*
X175038600Y-97900677D01*
X175938600Y-97900677D01*
X176049773Y-97879758D01*
X176151879Y-97814055D01*
X176220378Y-97713803D01*
X176244477Y-97594800D01*
X176244477Y-97330363D01*
X176580800Y-96994040D01*
X177868880Y-98282121D01*
X178006759Y-98374249D01*
X178169400Y-98406600D01*
X178536158Y-98406600D01*
X178530562Y-98412196D01*
X178501814Y-98481600D01*
X177981796Y-98481600D01*
X177809588Y-98515854D01*
X177663598Y-98613402D01*
X177566050Y-98759392D01*
X177531796Y-98931600D01*
X177566050Y-99103808D01*
X177618029Y-99181600D01*
X177566050Y-99259392D01*
X177556899Y-99305395D01*
X177444037Y-99381011D01*
X177275351Y-99634149D01*
X177262739Y-99739528D01*
X177394659Y-99856600D01*
X177856111Y-99856600D01*
X177981796Y-99881600D01*
X178445000Y-99881600D01*
X178445000Y-99893100D01*
X178438000Y-99900100D01*
X178438000Y-99981600D01*
X177981796Y-99981600D01*
X177856111Y-100006600D01*
X177394659Y-100006600D01*
X177372952Y-100025864D01*
X177307159Y-100038951D01*
X177169280Y-100131079D01*
X176777200Y-100523160D01*
X176777200Y-99708400D01*
X176766747Y-99655849D01*
X176744849Y-99545759D01*
X176652721Y-99407880D01*
X176244477Y-98999636D01*
X176244477Y-98594800D01*
X176223558Y-98483627D01*
X176157855Y-98381521D01*
X176057603Y-98313022D01*
X175938600Y-98288923D01*
X175038600Y-98288923D01*
X174927427Y-98309842D01*
X174825321Y-98375545D01*
X174756822Y-98475797D01*
X174732723Y-98594800D01*
X174732723Y-99094800D01*
X174753642Y-99205973D01*
X174819345Y-99308079D01*
X174919597Y-99376578D01*
X175038600Y-99400677D01*
X175335383Y-99400677D01*
X175301571Y-99414648D01*
X175132641Y-99583283D01*
X175095755Y-99672114D01*
X174428377Y-99004737D01*
X174428377Y-98607500D01*
X174407458Y-98496327D01*
X174341755Y-98394221D01*
X174241503Y-98325722D01*
X174122500Y-98301623D01*
X173222500Y-98301623D01*
X173111327Y-98322542D01*
X173009221Y-98388245D01*
X172940722Y-98488497D01*
X172916623Y-98607500D01*
X172916623Y-99107500D01*
X172937542Y-99218673D01*
X173003245Y-99320779D01*
X173103497Y-99389278D01*
X173222500Y-99413377D01*
X173634937Y-99413377D01*
X174716723Y-100495164D01*
X174716723Y-101202400D01*
X174737642Y-101313573D01*
X174803345Y-101415679D01*
X174903597Y-101484178D01*
X175022600Y-101508277D01*
X175922600Y-101508277D01*
X175927200Y-101507411D01*
X175927200Y-101997455D01*
X175922600Y-101996523D01*
X175022600Y-101996523D01*
X174911427Y-102017442D01*
X174809321Y-102083145D01*
X174740822Y-102183397D01*
X174716723Y-102302400D01*
X174716723Y-103102400D01*
X174737642Y-103213573D01*
X174803345Y-103315679D01*
X174903597Y-103384178D01*
X175022600Y-103408277D01*
X175922600Y-103408277D01*
X176033773Y-103387358D01*
X176135879Y-103321655D01*
X176204378Y-103221403D01*
X176228477Y-103102400D01*
X176228477Y-102934363D01*
X176435200Y-102727641D01*
X176435200Y-109564659D01*
X175657980Y-110341880D01*
X175565851Y-110479759D01*
X175565851Y-110479760D01*
X175533500Y-110642400D01*
X175533500Y-113296301D01*
X175470400Y-113283523D01*
X175351796Y-113283523D01*
X175335838Y-113244996D01*
X175164805Y-113073963D01*
X174941339Y-112981400D01*
X174872400Y-112981400D01*
X174720400Y-113133400D01*
X174720400Y-114110400D01*
X174764523Y-114110400D01*
X174764523Y-114418400D01*
X174720400Y-114418400D01*
X174720400Y-114438400D01*
X174520400Y-114438400D01*
X174520400Y-114418400D01*
X174446400Y-114418400D01*
X174446400Y-114315400D01*
X174478400Y-114283400D01*
X174478400Y-114110400D01*
X174520400Y-114110400D01*
X174520400Y-113133400D01*
X174368400Y-112981400D01*
X174299461Y-112981400D01*
X174145400Y-113045214D01*
X173991339Y-112981400D01*
X173126400Y-112981400D01*
X172974400Y-113133400D01*
X172974400Y-114435400D01*
X172994400Y-114435400D01*
X172994400Y-114743400D01*
X172974400Y-114743400D01*
X172974400Y-114763400D01*
X172666400Y-114763400D01*
X172666400Y-114743400D01*
X171314400Y-114743400D01*
X171162400Y-114895400D01*
X171162400Y-115381400D01*
X170899461Y-115381400D01*
X170675995Y-115473963D01*
X170504962Y-115644996D01*
X170412400Y-115868462D01*
X170412400Y-116633400D01*
X170564400Y-116785400D01*
X171666400Y-116785400D01*
X171666400Y-116765400D01*
X171974400Y-116765400D01*
X171974400Y-116785400D01*
X173076400Y-116785400D01*
X173228400Y-116633400D01*
X173228400Y-116197400D01*
X173862400Y-116197400D01*
X173862400Y-116633400D01*
X174014400Y-116785400D01*
X174916400Y-116785400D01*
X174916400Y-116765400D01*
X175224400Y-116765400D01*
X175224400Y-116785400D01*
X176616400Y-116785400D01*
X176616400Y-115533400D01*
X176464400Y-115381400D01*
X176049461Y-115381400D01*
X175920400Y-115434859D01*
X175791339Y-115381400D01*
X175376400Y-115381400D01*
X175224402Y-115533398D01*
X175224402Y-115395240D01*
X175335838Y-115283804D01*
X175351796Y-115245277D01*
X175470400Y-115245277D01*
X175581573Y-115224358D01*
X175594179Y-115216246D01*
X175601397Y-115221178D01*
X175720400Y-115245277D01*
X176120400Y-115245277D01*
X176231573Y-115224358D01*
X176244179Y-115216246D01*
X176251397Y-115221178D01*
X176370400Y-115245277D01*
X176770400Y-115245277D01*
X176881573Y-115224358D01*
X176894179Y-115216246D01*
X176901397Y-115221178D01*
X177020400Y-115245277D01*
X177362400Y-115245277D01*
X177362400Y-115381400D01*
X177076400Y-115381400D01*
X176924400Y-115533400D01*
X176924400Y-116785400D01*
X177826400Y-116785400D01*
X177978400Y-116633400D01*
X177978400Y-116197400D01*
X178612400Y-116197400D01*
X178612400Y-116633400D01*
X178764400Y-116785400D01*
X179866400Y-116785400D01*
X179866400Y-116765400D01*
X180174400Y-116765400D01*
X180174400Y-116785400D01*
X180194400Y-116785400D01*
X180194400Y-117093400D01*
X180174400Y-117093400D01*
X180174400Y-117113400D01*
X179866400Y-117113400D01*
X179866400Y-117093400D01*
X178764400Y-117093400D01*
X178612400Y-117245400D01*
X178612400Y-118010338D01*
X178704962Y-118233804D01*
X178714158Y-118243000D01*
X177876642Y-118243000D01*
X177885838Y-118233804D01*
X177978400Y-118010338D01*
X177978400Y-117245400D01*
X177826400Y-117093400D01*
X176924400Y-117093400D01*
X176924400Y-117113400D01*
X176616400Y-117113400D01*
X176616400Y-117093400D01*
X175224400Y-117093400D01*
X175224400Y-117113400D01*
X174916400Y-117113400D01*
X174916400Y-117093400D01*
X174014400Y-117093400D01*
X173862400Y-117245400D01*
X173862400Y-118010338D01*
X173954962Y-118233804D01*
X173964158Y-118243000D01*
X173126642Y-118243000D01*
X173135838Y-118233804D01*
X173228400Y-118010338D01*
X173228400Y-117245400D01*
X173076400Y-117093400D01*
X171974400Y-117093400D01*
X171974400Y-117113400D01*
X171666400Y-117113400D01*
X171666400Y-117093400D01*
X170564400Y-117093400D01*
X170412400Y-117245400D01*
X170412400Y-118010338D01*
X170504962Y-118233804D01*
X170675995Y-118404837D01*
X170899461Y-118497400D01*
X171170014Y-118497400D01*
X170433414Y-119234000D01*
X148488400Y-119234000D01*
X148456726Y-119240300D01*
X148174111Y-119184085D01*
X147886134Y-118991666D01*
X147693715Y-118703689D01*
X147634973Y-118408376D01*
X147643800Y-118364000D01*
X147643800Y-116535200D01*
X148347966Y-116535200D01*
X148501732Y-117308234D01*
X148939620Y-117963580D01*
X149594966Y-118401468D01*
X150368000Y-118555234D01*
X151141034Y-118401468D01*
X151601192Y-118094000D01*
X156177000Y-118094000D01*
X156177000Y-118233938D01*
X156269562Y-118457404D01*
X156440595Y-118628437D01*
X156664061Y-118721000D01*
X157004000Y-118721000D01*
X157156000Y-118569000D01*
X157156000Y-117942000D01*
X157464000Y-117942000D01*
X157464000Y-118569000D01*
X157616000Y-118721000D01*
X157955939Y-118721000D01*
X158179405Y-118628437D01*
X158350438Y-118457404D01*
X158443000Y-118233938D01*
X158443000Y-118094000D01*
X160327000Y-118094000D01*
X160327000Y-118233938D01*
X160419562Y-118457404D01*
X160590595Y-118628437D01*
X160814061Y-118721000D01*
X161154000Y-118721000D01*
X161306000Y-118569000D01*
X161306000Y-117942000D01*
X161614000Y-117942000D01*
X161614000Y-118569000D01*
X161766000Y-118721000D01*
X162105939Y-118721000D01*
X162329405Y-118628437D01*
X162500438Y-118457404D01*
X162591234Y-118238200D01*
X164765200Y-118238200D01*
X164765200Y-118453138D01*
X164857762Y-118676604D01*
X165028795Y-118847637D01*
X165252261Y-118940200D01*
X165467200Y-118940200D01*
X165619200Y-118788200D01*
X165619200Y-118086200D01*
X164917200Y-118086200D01*
X164765200Y-118238200D01*
X162591234Y-118238200D01*
X162593000Y-118233938D01*
X162593000Y-118094000D01*
X162441000Y-117942000D01*
X161614000Y-117942000D01*
X161306000Y-117942000D01*
X160479000Y-117942000D01*
X160327000Y-118094000D01*
X158443000Y-118094000D01*
X158291000Y-117942000D01*
X157464000Y-117942000D01*
X157156000Y-117942000D01*
X156329000Y-117942000D01*
X156177000Y-118094000D01*
X151601192Y-118094000D01*
X151796380Y-117963580D01*
X152211664Y-117342062D01*
X156177000Y-117342062D01*
X156177000Y-117482000D01*
X156329000Y-117634000D01*
X157156000Y-117634000D01*
X157156000Y-117007000D01*
X157464000Y-117007000D01*
X157464000Y-117634000D01*
X158291000Y-117634000D01*
X158443000Y-117482000D01*
X158443000Y-117342062D01*
X160327000Y-117342062D01*
X160327000Y-117482000D01*
X160479000Y-117634000D01*
X161306000Y-117634000D01*
X161306000Y-117007000D01*
X161614000Y-117007000D01*
X161614000Y-117634000D01*
X162441000Y-117634000D01*
X162593000Y-117482000D01*
X162593000Y-117411262D01*
X164765200Y-117411262D01*
X164765200Y-117626200D01*
X164917200Y-117778200D01*
X165619200Y-117778200D01*
X165619200Y-117076200D01*
X165927200Y-117076200D01*
X165927200Y-117778200D01*
X165947200Y-117778200D01*
X165947200Y-118086200D01*
X165927200Y-118086200D01*
X165927200Y-118788200D01*
X166079200Y-118940200D01*
X166294139Y-118940200D01*
X166517605Y-118847637D01*
X166688638Y-118676604D01*
X166747257Y-118535085D01*
X166753945Y-118545479D01*
X166854197Y-118613978D01*
X166973200Y-118638077D01*
X167773200Y-118638077D01*
X167884373Y-118617158D01*
X167986479Y-118551455D01*
X168054978Y-118451203D01*
X168076586Y-118344500D01*
X168211500Y-118344500D01*
X168347157Y-118317516D01*
X168374141Y-118312149D01*
X168512020Y-118220020D01*
X168530039Y-118202001D01*
X168647824Y-118202104D01*
X168868429Y-118110952D01*
X169037359Y-117942317D01*
X169128896Y-117721871D01*
X169129104Y-117483176D01*
X169037952Y-117262571D01*
X168869317Y-117093641D01*
X168648871Y-117002104D01*
X168410176Y-117001896D01*
X168189571Y-117093048D01*
X168020641Y-117261683D01*
X167995141Y-117323095D01*
X167992455Y-117318921D01*
X167892203Y-117250422D01*
X167773200Y-117226323D01*
X166973200Y-117226323D01*
X166862027Y-117247242D01*
X166759921Y-117312945D01*
X166747815Y-117330663D01*
X166688638Y-117187796D01*
X166517605Y-117016763D01*
X166294139Y-116924200D01*
X166079200Y-116924200D01*
X165927200Y-117076200D01*
X165619200Y-117076200D01*
X165467200Y-116924200D01*
X165252261Y-116924200D01*
X165028795Y-117016763D01*
X164857762Y-117187796D01*
X164765200Y-117411262D01*
X162593000Y-117411262D01*
X162593000Y-117342062D01*
X162500438Y-117118596D01*
X162329405Y-116947563D01*
X162105939Y-116855000D01*
X161766000Y-116855000D01*
X161614000Y-117007000D01*
X161306000Y-117007000D01*
X161154000Y-116855000D01*
X160814061Y-116855000D01*
X160590595Y-116947563D01*
X160419562Y-117118596D01*
X160327000Y-117342062D01*
X158443000Y-117342062D01*
X158350438Y-117118596D01*
X158179405Y-116947563D01*
X157955939Y-116855000D01*
X157616000Y-116855000D01*
X157464000Y-117007000D01*
X157156000Y-117007000D01*
X157004000Y-116855000D01*
X156664061Y-116855000D01*
X156440595Y-116947563D01*
X156269562Y-117118596D01*
X156177000Y-117342062D01*
X152211664Y-117342062D01*
X152234268Y-117308234D01*
X152388034Y-116535200D01*
X152234268Y-115762166D01*
X151934146Y-115313000D01*
X156479123Y-115313000D01*
X156479123Y-115963000D01*
X156500042Y-116074173D01*
X156565745Y-116176279D01*
X156665997Y-116244778D01*
X156785000Y-116268877D01*
X157835000Y-116268877D01*
X157946173Y-116247958D01*
X158048279Y-116182255D01*
X158116778Y-116082003D01*
X158120626Y-116063000D01*
X160647940Y-116063000D01*
X160650042Y-116074173D01*
X160715745Y-116176279D01*
X160815997Y-116244778D01*
X160935000Y-116268877D01*
X161985000Y-116268877D01*
X162096173Y-116247958D01*
X162198279Y-116182255D01*
X162266778Y-116082003D01*
X162284397Y-115995000D01*
X163177870Y-115995000D01*
X163261083Y-116078359D01*
X163481529Y-116169896D01*
X163720224Y-116170104D01*
X163940829Y-116078952D01*
X164109759Y-115910317D01*
X164201296Y-115689871D01*
X164201504Y-115451176D01*
X164110352Y-115230571D01*
X163941717Y-115061641D01*
X163721271Y-114970104D01*
X163482576Y-114969896D01*
X163261971Y-115061048D01*
X163177872Y-115145000D01*
X162233391Y-115145000D01*
X162204255Y-115099721D01*
X162104003Y-115031222D01*
X161985000Y-115007123D01*
X160935000Y-115007123D01*
X160823827Y-115028042D01*
X160721721Y-115093745D01*
X160653222Y-115193997D01*
X160649374Y-115213000D01*
X158122060Y-115213000D01*
X158119958Y-115201827D01*
X158054255Y-115099721D01*
X157954003Y-115031222D01*
X157835000Y-115007123D01*
X156785000Y-115007123D01*
X156673827Y-115028042D01*
X156571721Y-115093745D01*
X156503222Y-115193997D01*
X156479123Y-115313000D01*
X151934146Y-115313000D01*
X151796380Y-115106820D01*
X151141034Y-114668932D01*
X150368000Y-114515166D01*
X149594966Y-114668932D01*
X148939620Y-115106820D01*
X148501732Y-115762166D01*
X148347966Y-116535200D01*
X147643800Y-116535200D01*
X147643800Y-113468462D01*
X171162400Y-113468462D01*
X171162400Y-114283400D01*
X171314400Y-114435400D01*
X172666400Y-114435400D01*
X172666400Y-113133400D01*
X172514400Y-112981400D01*
X171649461Y-112981400D01*
X171425995Y-113073963D01*
X171254962Y-113244996D01*
X171162400Y-113468462D01*
X147643800Y-113468462D01*
X147643800Y-109598910D01*
X148452097Y-109598910D01*
X148596523Y-109947616D01*
X148971146Y-110375741D01*
X149481089Y-110627915D01*
X149705998Y-110517857D01*
X149705998Y-110636152D01*
X149397384Y-110697539D01*
X149024297Y-110946827D01*
X148775009Y-111319914D01*
X148687470Y-111760000D01*
X148775009Y-112200086D01*
X149024297Y-112573173D01*
X149397384Y-112822461D01*
X149837470Y-112910000D01*
X149882530Y-112910000D01*
X150322616Y-112822461D01*
X150695703Y-112573173D01*
X150944991Y-112200086D01*
X150947992Y-112185000D01*
X157264800Y-112185000D01*
X157400457Y-112158016D01*
X157427441Y-112152649D01*
X157565320Y-112060520D01*
X162671364Y-106954477D01*
X163100400Y-106954477D01*
X163211573Y-106933558D01*
X163313679Y-106867855D01*
X163382178Y-106767603D01*
X163406277Y-106648600D01*
X163406277Y-106478000D01*
X163659500Y-106478000D01*
X163659500Y-106667938D01*
X163752062Y-106891404D01*
X163923095Y-107062437D01*
X164146561Y-107155000D01*
X164361500Y-107155000D01*
X164513500Y-107003000D01*
X164513500Y-106326000D01*
X163811500Y-106326000D01*
X163659500Y-106478000D01*
X163406277Y-106478000D01*
X163406277Y-105898600D01*
X163385358Y-105787427D01*
X163319655Y-105685321D01*
X163306104Y-105676062D01*
X163659500Y-105676062D01*
X163659500Y-105866000D01*
X163811500Y-106018000D01*
X164513500Y-106018000D01*
X164513500Y-105341000D01*
X164361500Y-105189000D01*
X164146561Y-105189000D01*
X163923095Y-105281563D01*
X163752062Y-105452596D01*
X163659500Y-105676062D01*
X163306104Y-105676062D01*
X163219403Y-105616822D01*
X163176200Y-105608073D01*
X163176200Y-104400214D01*
X163211573Y-104393558D01*
X163313679Y-104327855D01*
X163382178Y-104227603D01*
X163406277Y-104108600D01*
X163406277Y-104039600D01*
X163672200Y-104039600D01*
X163672200Y-104229538D01*
X163764762Y-104453004D01*
X163935795Y-104624037D01*
X164159261Y-104716600D01*
X164374200Y-104716600D01*
X164526200Y-104564600D01*
X164526200Y-103887600D01*
X163824200Y-103887600D01*
X163672200Y-104039600D01*
X163406277Y-104039600D01*
X163406277Y-103358600D01*
X163385358Y-103247427D01*
X163379075Y-103237662D01*
X163672200Y-103237662D01*
X163672200Y-103427600D01*
X163824200Y-103579600D01*
X164526200Y-103579600D01*
X164526200Y-102902600D01*
X164374200Y-102750600D01*
X164159261Y-102750600D01*
X163935795Y-102843163D01*
X163764762Y-103014196D01*
X163672200Y-103237662D01*
X163379075Y-103237662D01*
X163319655Y-103145321D01*
X163219403Y-103076822D01*
X163100400Y-103052723D01*
X162671363Y-103052723D01*
X161384400Y-101765760D01*
X161384400Y-101552277D01*
X161414237Y-101552277D01*
X161584680Y-101722720D01*
X161722559Y-101814849D01*
X161885200Y-101847200D01*
X166239723Y-101847200D01*
X166239723Y-101872200D01*
X166260642Y-101983373D01*
X166326345Y-102085479D01*
X166426597Y-102153978D01*
X166545600Y-102178077D01*
X167345600Y-102178077D01*
X167382162Y-102171197D01*
X166500637Y-103052723D01*
X165780200Y-103052723D01*
X165669027Y-103073642D01*
X165630524Y-103098418D01*
X165595638Y-103014196D01*
X165424605Y-102843163D01*
X165201139Y-102750600D01*
X164986200Y-102750600D01*
X164834200Y-102902600D01*
X164834200Y-103579600D01*
X164854200Y-103579600D01*
X164854200Y-103887600D01*
X164834200Y-103887600D01*
X164834200Y-104564600D01*
X164986200Y-104716600D01*
X165201139Y-104716600D01*
X165424605Y-104624037D01*
X165595638Y-104453004D01*
X165630318Y-104369279D01*
X165661197Y-104390378D01*
X165755200Y-104409414D01*
X165755200Y-105493437D01*
X165656327Y-105512042D01*
X165617824Y-105536818D01*
X165582938Y-105452596D01*
X165411905Y-105281563D01*
X165188439Y-105189000D01*
X164973500Y-105189000D01*
X164821500Y-105341000D01*
X164821500Y-106018000D01*
X164841500Y-106018000D01*
X164841500Y-106326000D01*
X164821500Y-106326000D01*
X164821500Y-107003000D01*
X164973500Y-107155000D01*
X165188439Y-107155000D01*
X165411905Y-107062437D01*
X165582938Y-106891404D01*
X165617618Y-106807679D01*
X165648497Y-106828778D01*
X165767500Y-106852877D01*
X166567500Y-106852877D01*
X166678673Y-106831958D01*
X166780779Y-106766255D01*
X166827006Y-106698600D01*
X167493123Y-106698600D01*
X167493123Y-107073600D01*
X167514042Y-107184773D01*
X167579745Y-107286879D01*
X167679997Y-107355378D01*
X167799000Y-107379477D01*
X168799000Y-107379477D01*
X168910173Y-107358558D01*
X169012279Y-107292855D01*
X169080778Y-107192603D01*
X169104877Y-107073600D01*
X169104877Y-106698600D01*
X169241445Y-106698600D01*
X169290048Y-106816229D01*
X169458683Y-106985159D01*
X169679129Y-107076696D01*
X169917824Y-107076904D01*
X170138429Y-106985752D01*
X170191000Y-106933273D01*
X170191000Y-107194538D01*
X170283562Y-107418004D01*
X170454595Y-107589037D01*
X170678061Y-107681600D01*
X170993000Y-107681600D01*
X171145000Y-107529600D01*
X171145000Y-106427600D01*
X171453000Y-106427600D01*
X171453000Y-107529600D01*
X171605000Y-107681600D01*
X171919939Y-107681600D01*
X172143405Y-107589037D01*
X172314438Y-107418004D01*
X172407000Y-107194538D01*
X172407000Y-106579600D01*
X172255000Y-106427600D01*
X171453000Y-106427600D01*
X171145000Y-106427600D01*
X171125000Y-106427600D01*
X171125000Y-106119600D01*
X171145000Y-106119600D01*
X171145000Y-105017600D01*
X171453000Y-105017600D01*
X171453000Y-106119600D01*
X172255000Y-106119600D01*
X172407000Y-105967600D01*
X172407000Y-105352662D01*
X172314438Y-105129196D01*
X172143405Y-104958163D01*
X171919939Y-104865600D01*
X171605000Y-104865600D01*
X171453000Y-105017600D01*
X171145000Y-105017600D01*
X170993000Y-104865600D01*
X170678061Y-104865600D01*
X170454595Y-104958163D01*
X170283562Y-105129196D01*
X170191000Y-105352662D01*
X170191000Y-105967600D01*
X170342998Y-106119598D01*
X170290210Y-106119598D01*
X170139317Y-105968441D01*
X169918871Y-105876904D01*
X169737299Y-105876746D01*
X169731457Y-105875584D01*
X169595800Y-105848600D01*
X169104877Y-105848600D01*
X169104877Y-105473600D01*
X169083958Y-105362427D01*
X169018255Y-105260321D01*
X168918003Y-105191822D01*
X168799000Y-105167723D01*
X167799000Y-105167723D01*
X167687827Y-105188642D01*
X167585721Y-105254345D01*
X167517222Y-105354597D01*
X167493123Y-105473600D01*
X167493123Y-105848600D01*
X166873377Y-105848600D01*
X166873377Y-105797000D01*
X166852458Y-105685827D01*
X166786755Y-105583721D01*
X166686503Y-105515222D01*
X166605200Y-105498758D01*
X166605200Y-104409773D01*
X166691373Y-104393558D01*
X166793479Y-104327855D01*
X166861978Y-104227603D01*
X166886077Y-104108600D01*
X166886077Y-103869363D01*
X168296121Y-102459320D01*
X168388249Y-102321441D01*
X168420600Y-102158800D01*
X168420600Y-102076551D01*
X168426345Y-102085479D01*
X168526597Y-102153978D01*
X168620600Y-102173014D01*
X168620600Y-102370600D01*
X168647584Y-102506257D01*
X168652951Y-102533241D01*
X168745080Y-102671120D01*
X168817999Y-102744039D01*
X168817896Y-102861824D01*
X168909048Y-103082429D01*
X169077683Y-103251359D01*
X169298129Y-103342896D01*
X169536824Y-103343104D01*
X169757429Y-103251952D01*
X169926359Y-103083317D01*
X170017896Y-102862871D01*
X170018104Y-102624176D01*
X169926952Y-102403571D01*
X169758317Y-102234641D01*
X169562634Y-102153387D01*
X169658879Y-102091455D01*
X169727378Y-101991203D01*
X169751477Y-101872200D01*
X169751477Y-100972200D01*
X169730558Y-100861027D01*
X169664855Y-100758921D01*
X169564603Y-100690422D01*
X169445600Y-100666323D01*
X168895318Y-100666323D01*
X169029380Y-100532261D01*
X170797200Y-100532261D01*
X170797200Y-100747200D01*
X170949200Y-100899200D01*
X171626200Y-100899200D01*
X171626200Y-100197200D01*
X171934200Y-100197200D01*
X171934200Y-100899200D01*
X172611200Y-100899200D01*
X172763200Y-100747200D01*
X172763200Y-100532261D01*
X172670637Y-100308795D01*
X172499604Y-100137762D01*
X172276138Y-100045200D01*
X172086200Y-100045200D01*
X171934200Y-100197200D01*
X171626200Y-100197200D01*
X171474200Y-100045200D01*
X171284262Y-100045200D01*
X171060796Y-100137762D01*
X170889763Y-100308795D01*
X170797200Y-100532261D01*
X169029380Y-100532261D01*
X169371520Y-100190121D01*
X169450846Y-100071401D01*
X169463649Y-100052240D01*
X169496000Y-99889600D01*
X169496000Y-99382024D01*
X170113296Y-99382024D01*
X170204448Y-99602629D01*
X170373083Y-99771559D01*
X170593529Y-99863096D01*
X170832224Y-99863304D01*
X171052829Y-99772152D01*
X171221759Y-99603517D01*
X171311804Y-99386664D01*
X171381000Y-99400677D01*
X171773837Y-99400677D01*
X173200000Y-100826840D01*
X173200000Y-101046523D01*
X173022600Y-101046523D01*
X172911427Y-101067442D01*
X172809321Y-101133145D01*
X172740822Y-101233397D01*
X172723405Y-101319405D01*
X172611200Y-101207200D01*
X171934200Y-101207200D01*
X171934200Y-101227200D01*
X171626200Y-101227200D01*
X171626200Y-101207200D01*
X170949200Y-101207200D01*
X170797200Y-101359200D01*
X170797200Y-101574139D01*
X170889763Y-101797605D01*
X171060796Y-101968638D01*
X171144521Y-102003318D01*
X171123422Y-102034197D01*
X171099323Y-102153200D01*
X171099323Y-102953200D01*
X171120242Y-103064373D01*
X171185945Y-103166479D01*
X171286197Y-103234978D01*
X171355200Y-103248952D01*
X171355200Y-103335470D01*
X171271841Y-103418683D01*
X171180304Y-103639129D01*
X171180096Y-103877824D01*
X171271248Y-104098429D01*
X171439883Y-104267359D01*
X171660329Y-104358896D01*
X171899024Y-104359104D01*
X172119629Y-104267952D01*
X172288559Y-104099317D01*
X172380096Y-103878871D01*
X172380304Y-103640176D01*
X172289152Y-103419571D01*
X172205200Y-103335472D01*
X172205200Y-103249669D01*
X172266373Y-103238158D01*
X172368479Y-103172455D01*
X172436978Y-103072203D01*
X172456014Y-102978200D01*
X173062200Y-102978200D01*
X173197857Y-102951216D01*
X173224841Y-102945849D01*
X173362720Y-102853720D01*
X173758164Y-102458277D01*
X173922600Y-102458277D01*
X174033773Y-102437358D01*
X174135879Y-102371655D01*
X174204378Y-102271403D01*
X174228477Y-102152400D01*
X174228477Y-101352400D01*
X174207558Y-101241227D01*
X174141855Y-101139121D01*
X174050000Y-101076359D01*
X174050000Y-100650800D01*
X174017649Y-100488160D01*
X174017649Y-100488159D01*
X173925520Y-100350280D01*
X172586877Y-99011637D01*
X172586877Y-98594800D01*
X172565958Y-98483627D01*
X172500255Y-98381521D01*
X172400003Y-98313022D01*
X172281000Y-98288923D01*
X171381000Y-98288923D01*
X171269827Y-98309842D01*
X171167721Y-98375545D01*
X171137483Y-98419800D01*
X171131800Y-98419800D01*
X170996143Y-98446784D01*
X170969159Y-98452151D01*
X170831280Y-98544280D01*
X170712361Y-98663199D01*
X170594576Y-98663096D01*
X170373971Y-98754248D01*
X170205041Y-98922883D01*
X170113504Y-99143329D01*
X170113296Y-99382024D01*
X169496000Y-99382024D01*
X169496000Y-95797973D01*
X169582173Y-95781758D01*
X169633737Y-95748577D01*
X171070182Y-97185022D01*
X171038400Y-97344800D01*
X171070751Y-97507440D01*
X171075123Y-97513983D01*
X171075123Y-97594800D01*
X171096042Y-97705973D01*
X171161745Y-97808079D01*
X171261997Y-97876578D01*
X171381000Y-97900677D01*
X172281000Y-97900677D01*
X172392173Y-97879758D01*
X172494279Y-97814055D01*
X172562778Y-97713803D01*
X172586877Y-97594800D01*
X172586877Y-97094800D01*
X172565958Y-96983627D01*
X172500255Y-96881521D01*
X172400003Y-96813022D01*
X172281000Y-96788923D01*
X171876164Y-96788923D01*
X171460241Y-96373000D01*
X171461500Y-96373000D01*
X171613500Y-96221000D01*
X171613500Y-95519000D01*
X171921500Y-95519000D01*
X171921500Y-96221000D01*
X172073500Y-96373000D01*
X172263438Y-96373000D01*
X172486904Y-96280438D01*
X172657937Y-96109405D01*
X172750500Y-95885939D01*
X172750500Y-95671000D01*
X172598500Y-95519000D01*
X171921500Y-95519000D01*
X171613500Y-95519000D01*
X170936500Y-95519000D01*
X170784500Y-95671000D01*
X170784500Y-95697260D01*
X169931301Y-94844061D01*
X170784500Y-94844061D01*
X170784500Y-95059000D01*
X170936500Y-95211000D01*
X171613500Y-95211000D01*
X171613500Y-95191000D01*
X171921500Y-95191000D01*
X171921500Y-95211000D01*
X172598500Y-95211000D01*
X172746211Y-95063289D01*
X172803345Y-95152079D01*
X172903597Y-95220578D01*
X173022600Y-95244677D01*
X173922600Y-95244677D01*
X174033773Y-95223758D01*
X174135879Y-95158055D01*
X174204378Y-95057803D01*
X174228477Y-94938800D01*
X174228477Y-94138800D01*
X174207558Y-94027627D01*
X174141855Y-93925521D01*
X174041603Y-93857022D01*
X173999200Y-93848435D01*
X173999200Y-93437200D01*
X173994777Y-93414966D01*
X174005696Y-93388671D01*
X174005904Y-93149976D01*
X173914752Y-92929371D01*
X173746117Y-92760441D01*
X173525671Y-92668904D01*
X173286976Y-92668696D01*
X173066371Y-92759848D01*
X172897441Y-92928483D01*
X172805904Y-93148929D01*
X172805696Y-93387624D01*
X172837832Y-93465400D01*
X172448377Y-93465400D01*
X172448377Y-93465000D01*
X172427458Y-93353827D01*
X172361755Y-93251721D01*
X172261503Y-93183222D01*
X172142500Y-93159123D01*
X171392500Y-93159123D01*
X171281327Y-93180042D01*
X171179221Y-93245745D01*
X171110722Y-93345997D01*
X171086623Y-93465000D01*
X171086623Y-94265000D01*
X171107542Y-94376173D01*
X171132318Y-94414676D01*
X171048096Y-94449562D01*
X170877063Y-94620595D01*
X170784500Y-94844061D01*
X169931301Y-94844061D01*
X169833520Y-94746280D01*
X169776877Y-94708432D01*
X169776877Y-94596800D01*
X169755958Y-94485627D01*
X169690255Y-94383521D01*
X169590003Y-94315022D01*
X169496000Y-94295986D01*
X169496000Y-94140901D01*
X169596159Y-94040917D01*
X169687696Y-93820471D01*
X169687904Y-93581776D01*
X169596752Y-93361171D01*
X169428117Y-93192241D01*
X169207671Y-93100704D01*
X168968976Y-93100496D01*
X168748371Y-93191648D01*
X168579441Y-93360283D01*
X168487904Y-93580729D01*
X168487696Y-93819424D01*
X168578848Y-94040029D01*
X168646000Y-94107298D01*
X168646000Y-94295627D01*
X168559827Y-94311842D01*
X168457721Y-94377545D01*
X168389222Y-94477797D01*
X168365123Y-94596800D01*
X168365123Y-95496800D01*
X168386042Y-95607973D01*
X168451745Y-95710079D01*
X168551997Y-95778578D01*
X168646000Y-95797614D01*
X168646000Y-99713559D01*
X168565277Y-99794282D01*
X168565277Y-96296400D01*
X168544358Y-96185227D01*
X168478655Y-96083121D01*
X168378403Y-96014622D01*
X168259400Y-95990523D01*
X166259400Y-95990523D01*
X166148227Y-96011442D01*
X166046121Y-96077145D01*
X165977622Y-96177397D01*
X165953523Y-96296400D01*
X165953523Y-100096400D01*
X165974442Y-100207573D01*
X166040145Y-100309679D01*
X166140397Y-100378178D01*
X166259400Y-100402277D01*
X167957283Y-100402277D01*
X167695080Y-100664480D01*
X167602951Y-100802359D01*
X167600556Y-100814402D01*
X167564855Y-100758921D01*
X167464603Y-100690422D01*
X167345600Y-100666323D01*
X166545600Y-100666323D01*
X166434427Y-100687242D01*
X166332321Y-100752945D01*
X166263822Y-100853197D01*
X166239723Y-100972200D01*
X166239723Y-100997200D01*
X162265277Y-100997200D01*
X162265277Y-99746400D01*
X162244358Y-99635227D01*
X162178655Y-99533121D01*
X162078403Y-99464622D01*
X161959400Y-99440523D01*
X159959400Y-99440523D01*
X159848227Y-99461442D01*
X159746121Y-99527145D01*
X159677622Y-99627397D01*
X159653523Y-99746400D01*
X159653523Y-101246400D01*
X159674442Y-101357573D01*
X159740145Y-101459679D01*
X159840397Y-101528178D01*
X159959400Y-101552277D01*
X160534400Y-101552277D01*
X160534400Y-101941800D01*
X160556503Y-102052920D01*
X160566751Y-102104441D01*
X160658880Y-102242320D01*
X161167160Y-102750600D01*
X161046398Y-102750600D01*
X161046398Y-102902598D01*
X160894400Y-102750600D01*
X160679461Y-102750600D01*
X160455995Y-102843163D01*
X160284962Y-103014196D01*
X160192400Y-103237662D01*
X160192400Y-103427600D01*
X160344400Y-103579600D01*
X161046400Y-103579600D01*
X161046400Y-103559600D01*
X161354400Y-103559600D01*
X161354400Y-103579600D01*
X161374400Y-103579600D01*
X161374400Y-103887600D01*
X161354400Y-103887600D01*
X161354400Y-104564600D01*
X161506400Y-104716600D01*
X161721339Y-104716600D01*
X161944805Y-104624037D01*
X162115838Y-104453004D01*
X162150518Y-104369279D01*
X162181397Y-104390378D01*
X162300400Y-104414477D01*
X162326200Y-104414477D01*
X162326200Y-105592723D01*
X162300400Y-105592723D01*
X162189227Y-105613642D01*
X162150724Y-105638418D01*
X162115838Y-105554196D01*
X161944805Y-105383163D01*
X161721339Y-105290600D01*
X161506400Y-105290600D01*
X161354400Y-105442600D01*
X161354400Y-106119600D01*
X161374400Y-106119600D01*
X161374400Y-106427600D01*
X161354400Y-106427600D01*
X161354400Y-106447600D01*
X161046400Y-106447600D01*
X161046400Y-106427600D01*
X160344400Y-106427600D01*
X160192400Y-106579600D01*
X160192400Y-106769538D01*
X160284962Y-106993004D01*
X160455995Y-107164037D01*
X160679461Y-107256600D01*
X160894400Y-107256600D01*
X161046398Y-107104602D01*
X161046398Y-107256600D01*
X161167159Y-107256600D01*
X157088760Y-111335000D01*
X150947992Y-111335000D01*
X150944991Y-111319914D01*
X150695703Y-110946827D01*
X150322616Y-110697539D01*
X150014002Y-110636152D01*
X150014002Y-110517857D01*
X150238911Y-110627915D01*
X150748854Y-110375741D01*
X151123477Y-109947616D01*
X151267903Y-109598910D01*
X151156889Y-109374000D01*
X150014000Y-109374000D01*
X150014000Y-109394000D01*
X149706000Y-109394000D01*
X149706000Y-109374000D01*
X148563111Y-109374000D01*
X148452097Y-109598910D01*
X147643800Y-109598910D01*
X147643800Y-71426000D01*
X148402000Y-71426000D01*
X148402000Y-72090938D01*
X148494562Y-72314404D01*
X148665595Y-72485437D01*
X148889061Y-72578000D01*
X149495613Y-72578000D01*
X149397384Y-72597539D01*
X149024297Y-72846827D01*
X148775009Y-73219914D01*
X148687470Y-73660000D01*
X148775009Y-74100086D01*
X149024297Y-74473173D01*
X149397384Y-74722461D01*
X149837470Y-74810000D01*
X149882530Y-74810000D01*
X150322616Y-74722461D01*
X150695703Y-74473173D01*
X150944991Y-74100086D01*
X151032530Y-73660000D01*
X150969320Y-73342221D01*
X151412541Y-72899000D01*
X161196724Y-72899000D01*
X161267104Y-73004330D01*
X161423753Y-73109000D01*
X161267104Y-73213670D01*
X161196724Y-73319000D01*
X152633500Y-73319000D01*
X152470859Y-73351351D01*
X152332980Y-73443479D01*
X150512227Y-75264233D01*
X150322616Y-75137539D01*
X149882530Y-75050000D01*
X149837470Y-75050000D01*
X149397384Y-75137539D01*
X149024297Y-75386827D01*
X148775009Y-75759914D01*
X148687470Y-76200000D01*
X148775009Y-76640086D01*
X149024297Y-77013173D01*
X149397384Y-77262461D01*
X149837470Y-77350000D01*
X149882530Y-77350000D01*
X150322616Y-77262461D01*
X150695703Y-77013173D01*
X150944991Y-76640086D01*
X151032530Y-76200000D01*
X150990390Y-75988150D01*
X152809541Y-74169000D01*
X161196724Y-74169000D01*
X161267104Y-74274330D01*
X161423753Y-74379000D01*
X161267104Y-74483670D01*
X161196724Y-74589000D01*
X153586000Y-74589000D01*
X153423359Y-74621351D01*
X153285480Y-74713479D01*
X150321619Y-77677341D01*
X149882530Y-77590000D01*
X149837470Y-77590000D01*
X149397384Y-77677539D01*
X149024297Y-77926827D01*
X148775009Y-78299914D01*
X148687470Y-78740000D01*
X148775009Y-79180086D01*
X149024297Y-79553173D01*
X149397384Y-79802461D01*
X149837470Y-79890000D01*
X149882530Y-79890000D01*
X150322616Y-79802461D01*
X150695703Y-79553173D01*
X150944991Y-79180086D01*
X151032530Y-78740000D01*
X150944991Y-78299914D01*
X150927421Y-78273619D01*
X153762041Y-75439000D01*
X161196724Y-75439000D01*
X161267104Y-75544330D01*
X161423753Y-75649000D01*
X161267104Y-75753670D01*
X161196724Y-75859000D01*
X154856000Y-75859000D01*
X154720343Y-75885984D01*
X154693359Y-75891351D01*
X154555480Y-75983480D01*
X150321619Y-80217341D01*
X149882530Y-80130000D01*
X149837470Y-80130000D01*
X149397384Y-80217539D01*
X149024297Y-80466827D01*
X148775009Y-80839914D01*
X148687470Y-81280000D01*
X148775009Y-81720086D01*
X149024297Y-82093173D01*
X149397384Y-82342461D01*
X149837470Y-82430000D01*
X149882530Y-82430000D01*
X150322616Y-82342461D01*
X150695703Y-82093173D01*
X150944991Y-81720086D01*
X151032530Y-81280000D01*
X150944991Y-80839914D01*
X150927421Y-80813619D01*
X155032040Y-76709000D01*
X161196724Y-76709000D01*
X161267104Y-76814330D01*
X161423753Y-76919000D01*
X161267104Y-77023670D01*
X161196724Y-77129000D01*
X156126000Y-77129000D01*
X155963360Y-77161351D01*
X155963358Y-77161352D01*
X155963359Y-77161352D01*
X155825479Y-77253480D01*
X150321619Y-82757341D01*
X149882530Y-82670000D01*
X149837470Y-82670000D01*
X149397384Y-82757539D01*
X149024297Y-83006827D01*
X148775009Y-83379914D01*
X148687470Y-83820000D01*
X148775009Y-84260086D01*
X149024297Y-84633173D01*
X149397384Y-84882461D01*
X149837470Y-84970000D01*
X149882530Y-84970000D01*
X150322616Y-84882461D01*
X150695703Y-84633173D01*
X150944991Y-84260086D01*
X151032530Y-83820000D01*
X150944991Y-83379914D01*
X150927421Y-83353619D01*
X156302041Y-77979000D01*
X161196724Y-77979000D01*
X161267104Y-78084330D01*
X161423753Y-78189000D01*
X161267104Y-78293670D01*
X161196724Y-78399000D01*
X157396000Y-78399000D01*
X157233360Y-78431351D01*
X157187608Y-78461922D01*
X157095479Y-78523480D01*
X150321619Y-85297341D01*
X149882530Y-85210000D01*
X149837470Y-85210000D01*
X149397384Y-85297539D01*
X149024297Y-85546827D01*
X148775009Y-85919914D01*
X148687470Y-86360000D01*
X148775009Y-86800086D01*
X149024297Y-87173173D01*
X149397384Y-87422461D01*
X149837470Y-87510000D01*
X149882530Y-87510000D01*
X150322616Y-87422461D01*
X150695703Y-87173173D01*
X150944991Y-86800086D01*
X151032530Y-86360000D01*
X150944991Y-85919914D01*
X150927421Y-85893619D01*
X157572041Y-79249000D01*
X161196724Y-79249000D01*
X161267104Y-79354330D01*
X161423753Y-79459000D01*
X161267104Y-79563670D01*
X161196724Y-79669000D01*
X158666000Y-79669000D01*
X158503359Y-79701351D01*
X158365480Y-79793479D01*
X150321619Y-87837341D01*
X149882530Y-87750000D01*
X149837470Y-87750000D01*
X149397384Y-87837539D01*
X149024297Y-88086827D01*
X148775009Y-88459914D01*
X148687470Y-88900000D01*
X148775009Y-89340086D01*
X149024297Y-89713173D01*
X149397384Y-89962461D01*
X149837470Y-90050000D01*
X149882530Y-90050000D01*
X150322616Y-89962461D01*
X150695703Y-89713173D01*
X150944991Y-89340086D01*
X151032530Y-88900000D01*
X150944991Y-88459914D01*
X150927421Y-88433619D01*
X158842041Y-80519000D01*
X161196724Y-80519000D01*
X161267104Y-80624330D01*
X161423753Y-80729000D01*
X161267104Y-80833670D01*
X161196724Y-80939000D01*
X159936000Y-80939000D01*
X159773359Y-80971351D01*
X159635480Y-81063480D01*
X150321619Y-90377341D01*
X149882530Y-90290000D01*
X149837470Y-90290000D01*
X149397384Y-90377539D01*
X149024297Y-90626827D01*
X148775009Y-90999914D01*
X148687470Y-91440000D01*
X148775009Y-91880086D01*
X149024297Y-92253173D01*
X149397384Y-92502461D01*
X149837470Y-92590000D01*
X149882530Y-92590000D01*
X150322616Y-92502461D01*
X150695703Y-92253173D01*
X150944991Y-91880086D01*
X151032530Y-91440000D01*
X150944991Y-90999914D01*
X150927421Y-90973619D01*
X160112040Y-81789000D01*
X161196724Y-81789000D01*
X161267104Y-81894330D01*
X161423753Y-81999000D01*
X161267104Y-82103670D01*
X161195303Y-82211128D01*
X161070343Y-82235984D01*
X161043359Y-82241351D01*
X160905480Y-82333480D01*
X150321619Y-92917341D01*
X149882530Y-92830000D01*
X149837470Y-92830000D01*
X149397384Y-92917539D01*
X149024297Y-93166827D01*
X148775009Y-93539914D01*
X148687470Y-93980000D01*
X148775009Y-94420086D01*
X149024297Y-94793173D01*
X149397384Y-95042461D01*
X149837470Y-95130000D01*
X149882530Y-95130000D01*
X150322616Y-95042461D01*
X150695703Y-94793173D01*
X150944991Y-94420086D01*
X151032530Y-93980000D01*
X150944991Y-93539914D01*
X150927421Y-93513619D01*
X151289774Y-93151266D01*
X151276500Y-93218000D01*
X151276500Y-94502459D01*
X150321619Y-95457341D01*
X149882530Y-95370000D01*
X149837470Y-95370000D01*
X149397384Y-95457539D01*
X149024297Y-95706827D01*
X148775009Y-96079914D01*
X148687470Y-96520000D01*
X148775009Y-96960086D01*
X149024297Y-97333173D01*
X149397384Y-97582461D01*
X149837470Y-97670000D01*
X149882530Y-97670000D01*
X150322616Y-97582461D01*
X150695703Y-97333173D01*
X150944991Y-96960086D01*
X151032530Y-96520000D01*
X150944991Y-96079914D01*
X150927421Y-96053619D01*
X151911500Y-95069541D01*
X151911500Y-96407460D01*
X150321619Y-97997341D01*
X149882530Y-97910000D01*
X149837470Y-97910000D01*
X149397384Y-97997539D01*
X149024297Y-98246827D01*
X148775009Y-98619914D01*
X148687470Y-99060000D01*
X148775009Y-99500086D01*
X149024297Y-99873173D01*
X149397384Y-100122461D01*
X149837470Y-100210000D01*
X149882530Y-100210000D01*
X150322616Y-100122461D01*
X150695703Y-99873173D01*
X150944991Y-99500086D01*
X151032530Y-99060000D01*
X150944991Y-98619914D01*
X150927421Y-98593619D01*
X152546500Y-96974540D01*
X152546500Y-98312459D01*
X150321619Y-100537341D01*
X149882530Y-100450000D01*
X149837470Y-100450000D01*
X149397384Y-100537539D01*
X149024297Y-100786827D01*
X148775009Y-101159914D01*
X148687470Y-101600000D01*
X148775009Y-102040086D01*
X149024297Y-102413173D01*
X149397384Y-102662461D01*
X149837470Y-102750000D01*
X149882530Y-102750000D01*
X150322616Y-102662461D01*
X150695703Y-102413173D01*
X150944991Y-102040086D01*
X151032530Y-101600000D01*
X150944991Y-101159914D01*
X150927421Y-101133619D01*
X153181500Y-98879541D01*
X153181500Y-100217460D01*
X150321619Y-103077341D01*
X149882530Y-102990000D01*
X149837470Y-102990000D01*
X149397384Y-103077539D01*
X149024297Y-103326827D01*
X148775009Y-103699914D01*
X148687470Y-104140000D01*
X148775009Y-104580086D01*
X149024297Y-104953173D01*
X149397384Y-105202461D01*
X149837470Y-105290000D01*
X149882530Y-105290000D01*
X150322616Y-105202461D01*
X150695703Y-104953173D01*
X150944991Y-104580086D01*
X151032530Y-104140000D01*
X150944991Y-103699914D01*
X150927421Y-103673619D01*
X153753000Y-100848040D01*
X153753000Y-102185960D01*
X150321619Y-105617341D01*
X149882530Y-105530000D01*
X149837470Y-105530000D01*
X149397384Y-105617539D01*
X149024297Y-105866827D01*
X148775009Y-106239914D01*
X148687470Y-106680000D01*
X148775009Y-107120086D01*
X149024297Y-107493173D01*
X149397384Y-107742461D01*
X149705998Y-107803848D01*
X149705998Y-107922143D01*
X149481089Y-107812085D01*
X148971146Y-108064259D01*
X148596523Y-108492384D01*
X148452097Y-108841090D01*
X148563111Y-109066000D01*
X149706000Y-109066000D01*
X149706000Y-109046000D01*
X150014000Y-109046000D01*
X150014000Y-109066000D01*
X151156889Y-109066000D01*
X151267903Y-108841090D01*
X151123477Y-108492384D01*
X150748854Y-108064259D01*
X150238911Y-107812085D01*
X150014002Y-107922143D01*
X150014002Y-107803848D01*
X150322616Y-107742461D01*
X150695703Y-107493173D01*
X150944991Y-107120086D01*
X151032530Y-106680000D01*
X150944991Y-106239914D01*
X150927421Y-106213619D01*
X151363378Y-105777662D01*
X160192400Y-105777662D01*
X160192400Y-105967600D01*
X160344400Y-106119600D01*
X161046400Y-106119600D01*
X161046400Y-105442600D01*
X160894400Y-105290600D01*
X160679461Y-105290600D01*
X160455995Y-105383163D01*
X160284962Y-105554196D01*
X160192400Y-105777662D01*
X151363378Y-105777662D01*
X153101440Y-104039600D01*
X160192400Y-104039600D01*
X160192400Y-104229538D01*
X160284962Y-104453004D01*
X160455995Y-104624037D01*
X160679461Y-104716600D01*
X160894400Y-104716600D01*
X161046400Y-104564600D01*
X161046400Y-103887600D01*
X160344400Y-103887600D01*
X160192400Y-104039600D01*
X153101440Y-104039600D01*
X154478520Y-102662520D01*
X154570649Y-102524641D01*
X154577748Y-102488951D01*
X154603000Y-102362000D01*
X154603000Y-96202400D01*
X159351400Y-96202400D01*
X159351400Y-96767338D01*
X159443962Y-96990804D01*
X159614995Y-97161837D01*
X159756515Y-97220457D01*
X159746121Y-97227145D01*
X159677622Y-97327397D01*
X159653523Y-97446400D01*
X159653523Y-98946400D01*
X159674442Y-99057573D01*
X159740145Y-99159679D01*
X159840397Y-99228178D01*
X159959400Y-99252277D01*
X161959400Y-99252277D01*
X162070573Y-99231358D01*
X162172679Y-99165655D01*
X162241178Y-99065403D01*
X162265277Y-98946400D01*
X162265277Y-98614343D01*
X162365457Y-98594416D01*
X162392441Y-98589049D01*
X162530320Y-98496920D01*
X165555440Y-95471800D01*
X166265123Y-95471800D01*
X166265123Y-95496800D01*
X166286042Y-95607973D01*
X166351745Y-95710079D01*
X166451997Y-95778578D01*
X166571000Y-95802677D01*
X167371000Y-95802677D01*
X167482173Y-95781758D01*
X167584279Y-95716055D01*
X167652778Y-95615803D01*
X167676877Y-95496800D01*
X167676877Y-94596800D01*
X167655958Y-94485627D01*
X167590255Y-94383521D01*
X167490003Y-94315022D01*
X167371000Y-94290923D01*
X166571000Y-94290923D01*
X166459827Y-94311842D01*
X166357721Y-94377545D01*
X166289222Y-94477797D01*
X166265123Y-94596800D01*
X166265123Y-94621800D01*
X165379400Y-94621800D01*
X165243743Y-94648784D01*
X165216759Y-94654151D01*
X165078880Y-94746280D01*
X162265277Y-97559883D01*
X162265277Y-97446400D01*
X162244358Y-97335227D01*
X162178655Y-97233121D01*
X162160937Y-97221015D01*
X162303805Y-97161837D01*
X162474838Y-96990804D01*
X162567400Y-96767338D01*
X162567400Y-96202400D01*
X162415400Y-96050400D01*
X161113400Y-96050400D01*
X161113400Y-96070400D01*
X160805400Y-96070400D01*
X160805400Y-96050400D01*
X159503400Y-96050400D01*
X159351400Y-96202400D01*
X154603000Y-96202400D01*
X154603000Y-95025462D01*
X159351400Y-95025462D01*
X159351400Y-95590400D01*
X159503400Y-95742400D01*
X160805400Y-95742400D01*
X160805400Y-94690400D01*
X161113400Y-94690400D01*
X161113400Y-95742400D01*
X162415400Y-95742400D01*
X162567400Y-95590400D01*
X162567400Y-95025462D01*
X162474838Y-94801996D01*
X162303805Y-94630963D01*
X162080339Y-94538400D01*
X161265400Y-94538400D01*
X161113400Y-94690400D01*
X160805400Y-94690400D01*
X160653400Y-94538400D01*
X159838461Y-94538400D01*
X159614995Y-94630963D01*
X159443962Y-94801996D01*
X159351400Y-95025462D01*
X154603000Y-95025462D01*
X154603000Y-94600540D01*
X156195541Y-93008000D01*
X165671500Y-93008000D01*
X165807157Y-92981016D01*
X165834141Y-92975649D01*
X165972020Y-92883520D01*
X167483320Y-91372220D01*
X167575449Y-91234341D01*
X167580816Y-91207357D01*
X167607800Y-91071700D01*
X167607800Y-90635076D01*
X167713130Y-90564696D01*
X167817800Y-90408047D01*
X167922470Y-90564696D01*
X168165787Y-90727276D01*
X168452800Y-90784366D01*
X168739813Y-90727276D01*
X168983130Y-90564696D01*
X169087800Y-90408047D01*
X169192470Y-90564696D01*
X169435787Y-90727276D01*
X169722800Y-90784366D01*
X170009813Y-90727276D01*
X170253130Y-90564696D01*
X170357800Y-90408047D01*
X170462470Y-90564696D01*
X170705787Y-90727276D01*
X170992800Y-90784366D01*
X171279813Y-90727276D01*
X171523130Y-90564696D01*
X171627800Y-90408047D01*
X171732470Y-90564696D01*
X171975787Y-90727276D01*
X172262800Y-90784366D01*
X172549813Y-90727276D01*
X172793130Y-90564696D01*
X172897800Y-90408047D01*
X173002470Y-90564696D01*
X173245787Y-90727276D01*
X173532800Y-90784366D01*
X173819813Y-90727276D01*
X174063130Y-90564696D01*
X174167800Y-90408047D01*
X174272470Y-90564696D01*
X174515787Y-90727276D01*
X174802800Y-90784366D01*
X175089813Y-90727276D01*
X175333130Y-90564696D01*
X175437800Y-90408047D01*
X175542470Y-90564696D01*
X175785787Y-90727276D01*
X175946754Y-90759294D01*
X177372480Y-92185021D01*
X177510359Y-92277149D01*
X177673000Y-92309500D01*
X178711961Y-92309500D01*
X178667071Y-92328048D01*
X178498141Y-92496683D01*
X178406604Y-92717129D01*
X178406396Y-92955824D01*
X178454500Y-93072245D01*
X178454500Y-94071123D01*
X178429500Y-94071123D01*
X178318327Y-94092042D01*
X178216221Y-94157745D01*
X178147722Y-94257997D01*
X178123623Y-94377000D01*
X178123623Y-94877000D01*
X178144542Y-94988173D01*
X178210245Y-95090279D01*
X178310497Y-95158778D01*
X178429500Y-95182877D01*
X179329500Y-95182877D01*
X179440673Y-95161958D01*
X179542779Y-95096255D01*
X179611278Y-94996003D01*
X179635377Y-94877000D01*
X179635377Y-94377000D01*
X179614458Y-94265827D01*
X179548755Y-94163721D01*
X179448503Y-94095222D01*
X179329500Y-94071123D01*
X179304500Y-94071123D01*
X179304500Y-93363070D01*
X179345929Y-93345952D01*
X179514859Y-93177317D01*
X179606396Y-92956871D01*
X179606604Y-92718176D01*
X179515452Y-92497571D01*
X179346817Y-92328641D01*
X179300720Y-92309500D01*
X180489961Y-92309500D01*
X180445071Y-92328048D01*
X180276141Y-92496683D01*
X180184604Y-92717129D01*
X180184396Y-92955824D01*
X180275548Y-93176429D01*
X180359500Y-93260528D01*
X180359500Y-94071123D01*
X180334500Y-94071123D01*
X180223327Y-94092042D01*
X180121221Y-94157745D01*
X180052722Y-94257997D01*
X180028623Y-94377000D01*
X180028623Y-94877000D01*
X180049542Y-94988173D01*
X180115245Y-95090279D01*
X180215497Y-95158778D01*
X180334500Y-95182877D01*
X181234500Y-95182877D01*
X181345673Y-95161958D01*
X181447779Y-95096255D01*
X181516278Y-94996003D01*
X181540377Y-94877000D01*
X181540377Y-94377000D01*
X181519458Y-94265827D01*
X181453755Y-94163721D01*
X181353503Y-94095222D01*
X181234500Y-94071123D01*
X181209500Y-94071123D01*
X181209500Y-93260530D01*
X181292859Y-93177317D01*
X181384396Y-92956871D01*
X181384604Y-92718176D01*
X181293452Y-92497571D01*
X181124817Y-92328641D01*
X181078720Y-92309500D01*
X185053460Y-92309500D01*
X189376500Y-96632541D01*
X189376500Y-103505000D01*
X189399535Y-103620804D01*
X189408851Y-103667641D01*
X189500980Y-103805520D01*
X191951751Y-106256291D01*
X191867470Y-106680000D01*
X191955009Y-107120086D01*
X192204297Y-107493173D01*
X192577384Y-107742461D01*
X193017470Y-107830000D01*
X193062530Y-107830000D01*
X193502616Y-107742461D01*
X193875703Y-107493173D01*
X194124991Y-107120086D01*
X194212530Y-106680000D01*
X194124991Y-106239914D01*
X193875703Y-105866827D01*
X193502616Y-105617539D01*
X193062530Y-105530000D01*
X193017470Y-105530000D01*
X192577384Y-105617539D01*
X192540035Y-105642495D01*
X190226500Y-103328960D01*
X190226500Y-101991040D01*
X191951751Y-103716291D01*
X191867470Y-104140000D01*
X191955009Y-104580086D01*
X192204297Y-104953173D01*
X192577384Y-105202461D01*
X193017470Y-105290000D01*
X193062530Y-105290000D01*
X193502616Y-105202461D01*
X193875703Y-104953173D01*
X194124991Y-104580086D01*
X194212530Y-104140000D01*
X194124991Y-103699914D01*
X193875703Y-103326827D01*
X193502616Y-103077539D01*
X193062530Y-102990000D01*
X193017470Y-102990000D01*
X192577384Y-103077539D01*
X192540035Y-103102495D01*
X190798000Y-101360460D01*
X190798000Y-100022540D01*
X191951751Y-101176292D01*
X191867470Y-101600000D01*
X191955009Y-102040086D01*
X192204297Y-102413173D01*
X192577384Y-102662461D01*
X193017470Y-102750000D01*
X193062530Y-102750000D01*
X193502616Y-102662461D01*
X193875703Y-102413173D01*
X194124991Y-102040086D01*
X194212530Y-101600000D01*
X194124991Y-101159914D01*
X193875703Y-100786827D01*
X193502616Y-100537539D01*
X193062530Y-100450000D01*
X193017470Y-100450000D01*
X192577384Y-100537539D01*
X192540035Y-100562495D01*
X191306000Y-99328460D01*
X191306000Y-97990540D01*
X191951751Y-98636291D01*
X191867470Y-99060000D01*
X191955009Y-99500086D01*
X192204297Y-99873173D01*
X192577384Y-100122461D01*
X193017470Y-100210000D01*
X193062530Y-100210000D01*
X193502616Y-100122461D01*
X193875703Y-99873173D01*
X194124991Y-99500086D01*
X194212530Y-99060000D01*
X194124991Y-98619914D01*
X193875703Y-98246827D01*
X193502616Y-97997539D01*
X193062530Y-97910000D01*
X193017470Y-97910000D01*
X192577384Y-97997539D01*
X192540035Y-98022495D01*
X191814000Y-97296460D01*
X191814000Y-95958540D01*
X191951751Y-96096291D01*
X191867470Y-96520000D01*
X191955009Y-96960086D01*
X192204297Y-97333173D01*
X192577384Y-97582461D01*
X193017470Y-97670000D01*
X193062530Y-97670000D01*
X193502616Y-97582461D01*
X193875703Y-97333173D01*
X194124991Y-96960086D01*
X194212530Y-96520000D01*
X194124991Y-96079914D01*
X193875703Y-95706827D01*
X193502616Y-95457539D01*
X193062530Y-95370000D01*
X193017470Y-95370000D01*
X192577384Y-95457539D01*
X192540035Y-95482495D01*
X182202362Y-85144822D01*
X182151076Y-84886987D01*
X181988496Y-84643670D01*
X181831847Y-84539000D01*
X181988496Y-84434330D01*
X182058876Y-84329000D01*
X182724460Y-84329000D01*
X191951751Y-93556291D01*
X191867470Y-93980000D01*
X191955009Y-94420086D01*
X192204297Y-94793173D01*
X192577384Y-95042461D01*
X193017470Y-95130000D01*
X193062530Y-95130000D01*
X193502616Y-95042461D01*
X193875703Y-94793173D01*
X194124991Y-94420086D01*
X194212530Y-93980000D01*
X194124991Y-93539914D01*
X193875703Y-93166827D01*
X193502616Y-92917539D01*
X193062530Y-92830000D01*
X193017470Y-92830000D01*
X192577384Y-92917539D01*
X192540035Y-92942495D01*
X183201020Y-83603480D01*
X183063141Y-83511351D01*
X183036157Y-83505984D01*
X182900500Y-83479000D01*
X182058876Y-83479000D01*
X181988496Y-83373670D01*
X181831847Y-83269000D01*
X181988496Y-83164330D01*
X182058876Y-83059000D01*
X183994460Y-83059000D01*
X191951751Y-91016292D01*
X191867470Y-91440000D01*
X191955009Y-91880086D01*
X192204297Y-92253173D01*
X192577384Y-92502461D01*
X193017470Y-92590000D01*
X193062530Y-92590000D01*
X193502616Y-92502461D01*
X193875703Y-92253173D01*
X194124991Y-91880086D01*
X194212530Y-91440000D01*
X194124991Y-90999914D01*
X193875703Y-90626827D01*
X193502616Y-90377539D01*
X193062530Y-90290000D01*
X193017470Y-90290000D01*
X192577384Y-90377539D01*
X192540035Y-90402494D01*
X184471020Y-82333480D01*
X184333141Y-82241351D01*
X184306157Y-82235984D01*
X184170500Y-82209000D01*
X182058876Y-82209000D01*
X181988496Y-82103670D01*
X181831847Y-81999000D01*
X181988496Y-81894330D01*
X182058876Y-81789000D01*
X185264460Y-81789000D01*
X191951751Y-88476292D01*
X191867470Y-88900000D01*
X191955009Y-89340086D01*
X192204297Y-89713173D01*
X192577384Y-89962461D01*
X193017470Y-90050000D01*
X193062530Y-90050000D01*
X193502616Y-89962461D01*
X193875703Y-89713173D01*
X194124991Y-89340086D01*
X194212530Y-88900000D01*
X194124991Y-88459914D01*
X193875703Y-88086827D01*
X193502616Y-87837539D01*
X193062530Y-87750000D01*
X193017470Y-87750000D01*
X192577384Y-87837539D01*
X192540035Y-87862494D01*
X185741020Y-81063480D01*
X185603141Y-80971351D01*
X185576157Y-80965984D01*
X185440500Y-80939000D01*
X182058876Y-80939000D01*
X181988496Y-80833670D01*
X181831847Y-80729000D01*
X181988496Y-80624330D01*
X182058876Y-80519000D01*
X186534460Y-80519000D01*
X191951751Y-85936292D01*
X191867470Y-86360000D01*
X191955009Y-86800086D01*
X192204297Y-87173173D01*
X192577384Y-87422461D01*
X193017470Y-87510000D01*
X193062530Y-87510000D01*
X193502616Y-87422461D01*
X193875703Y-87173173D01*
X194124991Y-86800086D01*
X194212530Y-86360000D01*
X194124991Y-85919914D01*
X193875703Y-85546827D01*
X193502616Y-85297539D01*
X193062530Y-85210000D01*
X193017470Y-85210000D01*
X192577384Y-85297539D01*
X192540035Y-85322494D01*
X187011020Y-79793480D01*
X186873141Y-79701351D01*
X186846157Y-79695984D01*
X186710500Y-79669000D01*
X182058876Y-79669000D01*
X181988496Y-79563670D01*
X181831847Y-79459000D01*
X181988496Y-79354330D01*
X182151076Y-79111013D01*
X182208166Y-78824000D01*
X182151076Y-78536987D01*
X181988496Y-78293670D01*
X181831847Y-78189000D01*
X181988496Y-78084330D01*
X182058876Y-77979000D01*
X186534460Y-77979000D01*
X191951751Y-83396292D01*
X191867470Y-83820000D01*
X191955009Y-84260086D01*
X192204297Y-84633173D01*
X192577384Y-84882461D01*
X193017470Y-84970000D01*
X193062530Y-84970000D01*
X193502616Y-84882461D01*
X193875703Y-84633173D01*
X194124991Y-84260086D01*
X194212530Y-83820000D01*
X194124991Y-83379914D01*
X193875703Y-83006827D01*
X193502616Y-82757539D01*
X193062530Y-82670000D01*
X193017470Y-82670000D01*
X192577384Y-82757539D01*
X192540035Y-82782494D01*
X187011020Y-77253480D01*
X186873141Y-77161351D01*
X186846157Y-77155984D01*
X186710500Y-77129000D01*
X182058876Y-77129000D01*
X181988496Y-77023670D01*
X181831847Y-76919000D01*
X181988496Y-76814330D01*
X182058876Y-76709000D01*
X182664519Y-76709000D01*
X182753000Y-76726600D01*
X182841481Y-76709000D01*
X183365934Y-76709000D01*
X183428683Y-76771859D01*
X183649129Y-76863396D01*
X183887824Y-76863604D01*
X184108429Y-76772452D01*
X184171992Y-76709000D01*
X187804460Y-76709000D01*
X191951751Y-80856291D01*
X191867470Y-81280000D01*
X191955009Y-81720086D01*
X192204297Y-82093173D01*
X192577384Y-82342461D01*
X193017470Y-82430000D01*
X193062530Y-82430000D01*
X193502616Y-82342461D01*
X193875703Y-82093173D01*
X194124991Y-81720086D01*
X194212530Y-81280000D01*
X194124991Y-80839914D01*
X193875703Y-80466827D01*
X193502616Y-80217539D01*
X193062530Y-80130000D01*
X193017470Y-80130000D01*
X192577384Y-80217539D01*
X192540035Y-80242495D01*
X188281020Y-75983480D01*
X188143141Y-75891351D01*
X188116157Y-75885984D01*
X187980500Y-75859000D01*
X184212995Y-75859000D01*
X184109317Y-75755141D01*
X183888871Y-75663604D01*
X183650176Y-75663396D01*
X183429571Y-75754548D01*
X183324936Y-75859000D01*
X182058876Y-75859000D01*
X181988496Y-75753670D01*
X181831847Y-75649000D01*
X181988496Y-75544330D01*
X182058876Y-75439000D01*
X184064434Y-75439000D01*
X184127183Y-75501859D01*
X184347629Y-75593396D01*
X184586324Y-75593604D01*
X184806929Y-75502452D01*
X184870492Y-75439000D01*
X189074460Y-75439000D01*
X191951751Y-78316292D01*
X191867470Y-78740000D01*
X191955009Y-79180086D01*
X192204297Y-79553173D01*
X192577384Y-79802461D01*
X193017470Y-79890000D01*
X193062530Y-79890000D01*
X193502616Y-79802461D01*
X193875703Y-79553173D01*
X194124991Y-79180086D01*
X194212530Y-78740000D01*
X194124991Y-78299914D01*
X193875703Y-77926827D01*
X193502616Y-77677539D01*
X193062530Y-77590000D01*
X193017470Y-77590000D01*
X192577384Y-77677539D01*
X192540035Y-77702495D01*
X189551020Y-74713480D01*
X189413141Y-74621351D01*
X189386157Y-74615984D01*
X189250500Y-74589000D01*
X184911495Y-74589000D01*
X184807817Y-74485141D01*
X184587371Y-74393604D01*
X184348676Y-74393396D01*
X184128071Y-74484548D01*
X184023436Y-74589000D01*
X182058876Y-74589000D01*
X181988496Y-74483670D01*
X181831847Y-74379000D01*
X181988496Y-74274330D01*
X182058876Y-74169000D01*
X190344460Y-74169000D01*
X191951751Y-75776292D01*
X191867470Y-76200000D01*
X191955009Y-76640086D01*
X192204297Y-77013173D01*
X192577384Y-77262461D01*
X193017470Y-77350000D01*
X193062530Y-77350000D01*
X193502616Y-77262461D01*
X193875703Y-77013173D01*
X194124991Y-76640086D01*
X194212530Y-76200000D01*
X194124991Y-75759914D01*
X193875703Y-75386827D01*
X193502616Y-75137539D01*
X193062530Y-75050000D01*
X193017470Y-75050000D01*
X192577384Y-75137539D01*
X192540035Y-75162495D01*
X190821020Y-73443480D01*
X190683141Y-73351351D01*
X190656157Y-73345984D01*
X190520500Y-73319000D01*
X182058876Y-73319000D01*
X181988496Y-73213670D01*
X181831847Y-73109000D01*
X181988496Y-73004330D01*
X182058876Y-72899000D01*
X191614460Y-72899000D01*
X191951751Y-73236292D01*
X191867470Y-73660000D01*
X191955009Y-74100086D01*
X192204297Y-74473173D01*
X192577384Y-74722461D01*
X193017470Y-74810000D01*
X193062530Y-74810000D01*
X193502616Y-74722461D01*
X193875703Y-74473173D01*
X194124991Y-74100086D01*
X194212530Y-73660000D01*
X194124991Y-73219914D01*
X193875703Y-72846827D01*
X193502616Y-72597539D01*
X193062530Y-72510000D01*
X193017470Y-72510000D01*
X192577384Y-72597539D01*
X192540035Y-72622495D01*
X192091020Y-72173480D01*
X191953141Y-72081351D01*
X191926157Y-72075984D01*
X191790500Y-72049000D01*
X182058876Y-72049000D01*
X182057994Y-72047681D01*
X182284814Y-71843224D01*
X182437554Y-71519849D01*
X182320616Y-71358000D01*
X180781800Y-71358000D01*
X180781800Y-71378000D01*
X180473800Y-71378000D01*
X180473800Y-71358000D01*
X178934984Y-71358000D01*
X178818046Y-71519849D01*
X178970786Y-71843224D01*
X179197606Y-72047681D01*
X179104524Y-72186987D01*
X179047434Y-72474000D01*
X179104524Y-72761013D01*
X179267104Y-73004330D01*
X179423753Y-73109000D01*
X179267104Y-73213670D01*
X179104524Y-73456987D01*
X179047434Y-73744000D01*
X179104524Y-74031013D01*
X179267104Y-74274330D01*
X179423753Y-74379000D01*
X179267104Y-74483670D01*
X179104524Y-74726987D01*
X179047434Y-75014000D01*
X179104524Y-75301013D01*
X179267104Y-75544330D01*
X179423753Y-75649000D01*
X179267104Y-75753670D01*
X179104524Y-75996987D01*
X179047434Y-76284000D01*
X179104524Y-76571013D01*
X179267104Y-76814330D01*
X179423753Y-76919000D01*
X179267104Y-77023670D01*
X179104524Y-77266987D01*
X179047434Y-77554000D01*
X179104524Y-77841013D01*
X179267104Y-78084330D01*
X179423753Y-78189000D01*
X179267104Y-78293670D01*
X179104524Y-78536987D01*
X179047434Y-78824000D01*
X179104524Y-79111013D01*
X179267104Y-79354330D01*
X179423753Y-79459000D01*
X179267104Y-79563670D01*
X179104524Y-79806987D01*
X179047434Y-80094000D01*
X179104524Y-80381013D01*
X179267104Y-80624330D01*
X179423753Y-80729000D01*
X179267104Y-80833670D01*
X179104524Y-81076987D01*
X179047434Y-81364000D01*
X179104524Y-81651013D01*
X179267104Y-81894330D01*
X179423753Y-81999000D01*
X179267104Y-82103670D01*
X179104524Y-82346987D01*
X179047434Y-82634000D01*
X179104524Y-82921013D01*
X179267104Y-83164330D01*
X179423753Y-83269000D01*
X179267104Y-83373670D01*
X179104524Y-83616987D01*
X179047434Y-83904000D01*
X179104524Y-84191013D01*
X179267104Y-84434330D01*
X179423753Y-84539000D01*
X179267104Y-84643670D01*
X179104524Y-84886987D01*
X179047434Y-85174000D01*
X179104524Y-85461013D01*
X179267104Y-85704330D01*
X179423753Y-85809000D01*
X179267104Y-85913670D01*
X179104524Y-86156987D01*
X179047434Y-86444000D01*
X179104524Y-86731013D01*
X179267104Y-86974330D01*
X179423753Y-87079000D01*
X179267104Y-87183670D01*
X179196724Y-87289000D01*
X179196650Y-87289000D01*
X179181717Y-87274041D01*
X178961271Y-87182504D01*
X178722576Y-87182296D01*
X178501971Y-87273448D01*
X178333041Y-87442083D01*
X178241504Y-87662529D01*
X178241296Y-87901224D01*
X178332448Y-88121829D01*
X178501083Y-88290759D01*
X178721529Y-88382296D01*
X178960224Y-88382504D01*
X179180829Y-88291352D01*
X179251431Y-88220873D01*
X179267104Y-88244330D01*
X179510421Y-88406910D01*
X179797434Y-88464000D01*
X181458166Y-88464000D01*
X181745179Y-88406910D01*
X181988496Y-88244330D01*
X182058876Y-88139000D01*
X182464958Y-88139000D01*
X183104958Y-88779000D01*
X178092800Y-88779000D01*
X178092800Y-88373634D01*
X178035710Y-88086621D01*
X177873130Y-87843304D01*
X177629813Y-87680724D01*
X177342800Y-87623634D01*
X177055787Y-87680724D01*
X176812470Y-87843304D01*
X176707800Y-87999953D01*
X176603130Y-87843304D01*
X176359813Y-87680724D01*
X176072800Y-87623634D01*
X175785787Y-87680724D01*
X175542470Y-87843304D01*
X175437800Y-87999953D01*
X175333130Y-87843304D01*
X175089813Y-87680724D01*
X174802800Y-87623634D01*
X174515787Y-87680724D01*
X174272470Y-87843304D01*
X174167800Y-87999953D01*
X174063130Y-87843304D01*
X173819813Y-87680724D01*
X173532800Y-87623634D01*
X173245787Y-87680724D01*
X173002470Y-87843304D01*
X172897800Y-87999953D01*
X172793130Y-87843304D01*
X172549813Y-87680724D01*
X172262800Y-87623634D01*
X171975787Y-87680724D01*
X171732470Y-87843304D01*
X171627800Y-87999953D01*
X171523130Y-87843304D01*
X171279813Y-87680724D01*
X170992800Y-87623634D01*
X170705787Y-87680724D01*
X170462470Y-87843304D01*
X170357800Y-87999953D01*
X170253130Y-87843304D01*
X170009813Y-87680724D01*
X169722800Y-87623634D01*
X169435787Y-87680724D01*
X169192470Y-87843304D01*
X169087800Y-87999953D01*
X168983130Y-87843304D01*
X168739813Y-87680724D01*
X168452800Y-87623634D01*
X168165787Y-87680724D01*
X167922470Y-87843304D01*
X167817800Y-87999953D01*
X167713130Y-87843304D01*
X167469813Y-87680724D01*
X167182800Y-87623634D01*
X166895787Y-87680724D01*
X166756481Y-87773806D01*
X166552024Y-87546986D01*
X166228649Y-87394246D01*
X166066800Y-87511184D01*
X166066800Y-89050000D01*
X166086800Y-89050000D01*
X166086800Y-89358000D01*
X166066800Y-89358000D01*
X166066800Y-90896816D01*
X166228649Y-91013754D01*
X166552024Y-90861014D01*
X166756481Y-90634194D01*
X166757800Y-90635076D01*
X166757800Y-90895660D01*
X165495460Y-92158000D01*
X156093040Y-92158000D01*
X158893040Y-89358000D01*
X164854800Y-89358000D01*
X164854800Y-90158000D01*
X164994269Y-90551157D01*
X165273576Y-90861014D01*
X165596951Y-91013754D01*
X165758800Y-90896816D01*
X165758800Y-89358000D01*
X164854800Y-89358000D01*
X158893040Y-89358000D01*
X160112041Y-88139000D01*
X161196724Y-88139000D01*
X161267104Y-88244330D01*
X161510421Y-88406910D01*
X161797434Y-88464000D01*
X163458166Y-88464000D01*
X163745179Y-88406910D01*
X163980010Y-88250000D01*
X164854800Y-88250000D01*
X164854800Y-89050000D01*
X165758800Y-89050000D01*
X165758800Y-87511184D01*
X165596951Y-87394246D01*
X165273576Y-87546986D01*
X164994269Y-87856843D01*
X164854800Y-88250000D01*
X163980010Y-88250000D01*
X163988496Y-88244330D01*
X164151076Y-88001013D01*
X164208166Y-87714000D01*
X164151076Y-87426987D01*
X163988496Y-87183670D01*
X163831847Y-87079000D01*
X163988496Y-86974330D01*
X164151076Y-86731013D01*
X164208166Y-86444000D01*
X164151076Y-86156987D01*
X163988496Y-85913670D01*
X163831847Y-85809000D01*
X163988496Y-85704330D01*
X164151076Y-85461013D01*
X164208166Y-85174000D01*
X164151076Y-84886987D01*
X163988496Y-84643670D01*
X163831847Y-84539000D01*
X163988496Y-84434330D01*
X164151076Y-84191013D01*
X164208166Y-83904000D01*
X164151076Y-83616987D01*
X163988496Y-83373670D01*
X163831847Y-83269000D01*
X163988496Y-83164330D01*
X164151076Y-82921013D01*
X164208166Y-82634000D01*
X164151076Y-82346987D01*
X163988496Y-82103670D01*
X163831847Y-81999000D01*
X163988496Y-81894330D01*
X164151076Y-81651013D01*
X164208166Y-81364000D01*
X164151076Y-81076987D01*
X163988496Y-80833670D01*
X163831847Y-80729000D01*
X163988496Y-80624330D01*
X164151076Y-80381013D01*
X164208166Y-80094000D01*
X164151076Y-79806987D01*
X163988496Y-79563670D01*
X163831847Y-79459000D01*
X163988496Y-79354330D01*
X164084934Y-79210000D01*
X167719800Y-79210000D01*
X167719800Y-82024938D01*
X167812362Y-82248404D01*
X167983395Y-82419437D01*
X168206861Y-82512000D01*
X171021800Y-82512000D01*
X171173800Y-82360000D01*
X171173800Y-79058000D01*
X171481800Y-79058000D01*
X171481800Y-82360000D01*
X171633800Y-82512000D01*
X174448739Y-82512000D01*
X174672205Y-82419437D01*
X174843238Y-82248404D01*
X174935800Y-82024938D01*
X174935800Y-79210000D01*
X174783800Y-79058000D01*
X171481800Y-79058000D01*
X171173800Y-79058000D01*
X167871800Y-79058000D01*
X167719800Y-79210000D01*
X164084934Y-79210000D01*
X164151076Y-79111013D01*
X164208166Y-78824000D01*
X164151076Y-78536987D01*
X163988496Y-78293670D01*
X163831847Y-78189000D01*
X163988496Y-78084330D01*
X164151076Y-77841013D01*
X164208166Y-77554000D01*
X164151076Y-77266987D01*
X163988496Y-77023670D01*
X163831847Y-76919000D01*
X163988496Y-76814330D01*
X164151076Y-76571013D01*
X164208166Y-76284000D01*
X164151076Y-75996987D01*
X163988496Y-75753670D01*
X163831847Y-75649000D01*
X163988496Y-75544330D01*
X164151076Y-75301013D01*
X164208166Y-75014000D01*
X164151076Y-74726987D01*
X163988496Y-74483670D01*
X163831847Y-74379000D01*
X163988496Y-74274330D01*
X164058876Y-74169000D01*
X164271360Y-74169000D01*
X165439799Y-75337439D01*
X165439696Y-75455224D01*
X165530848Y-75675829D01*
X165699483Y-75844759D01*
X165919929Y-75936296D01*
X166158624Y-75936504D01*
X166379229Y-75845352D01*
X166441627Y-75783062D01*
X167719800Y-75783062D01*
X167719800Y-78598000D01*
X167871800Y-78750000D01*
X171173800Y-78750000D01*
X171173800Y-75448000D01*
X171481800Y-75448000D01*
X171481800Y-78750000D01*
X174783800Y-78750000D01*
X174935800Y-78598000D01*
X174935800Y-75783062D01*
X174843238Y-75559596D01*
X174672205Y-75388563D01*
X174448739Y-75296000D01*
X171633800Y-75296000D01*
X171481800Y-75448000D01*
X171173800Y-75448000D01*
X171021800Y-75296000D01*
X168206861Y-75296000D01*
X167983395Y-75388563D01*
X167812362Y-75559596D01*
X167719800Y-75783062D01*
X166441627Y-75783062D01*
X166548159Y-75676717D01*
X166639696Y-75456271D01*
X166639904Y-75217576D01*
X166611565Y-75148990D01*
X166742824Y-75149104D01*
X166963429Y-75057952D01*
X167132359Y-74889317D01*
X167223896Y-74668871D01*
X167224104Y-74430176D01*
X167132952Y-74209571D01*
X166964317Y-74040641D01*
X166743871Y-73949104D01*
X166625040Y-73949000D01*
X164849520Y-72173480D01*
X164711641Y-72081351D01*
X164684657Y-72075984D01*
X164549000Y-72049000D01*
X164058876Y-72049000D01*
X164057994Y-72047681D01*
X164284814Y-71843224D01*
X164437554Y-71519849D01*
X164320616Y-71358000D01*
X162781800Y-71358000D01*
X162781800Y-71378000D01*
X162473800Y-71378000D01*
X162473800Y-71358000D01*
X160934984Y-71358000D01*
X160818046Y-71519849D01*
X160970786Y-71843224D01*
X161197606Y-72047681D01*
X161196724Y-72049000D01*
X151318000Y-72049000D01*
X151318000Y-71426000D01*
X151166000Y-71274000D01*
X150014000Y-71274000D01*
X150014000Y-71294000D01*
X149706000Y-71294000D01*
X149706000Y-71274000D01*
X148554000Y-71274000D01*
X148402000Y-71426000D01*
X147643800Y-71426000D01*
X147643800Y-69886500D01*
X148533658Y-69886500D01*
X148494562Y-69925596D01*
G36*
X177809588Y-102347346D02*
X177846000Y-102354589D01*
X177846000Y-102858400D01*
X177869830Y-102978200D01*
X177878351Y-103021041D01*
X177970480Y-103158920D01*
X177993680Y-103182121D01*
X178131559Y-103274249D01*
X178294200Y-103306600D01*
X178796000Y-103306600D01*
X178796000Y-104244759D01*
X178462160Y-104578600D01*
X178401330Y-104578600D01*
X178318117Y-104495241D01*
X178097671Y-104403704D01*
X177858976Y-104403496D01*
X177742400Y-104451664D01*
X177742400Y-102302452D01*
X177809588Y-102347346D01*
X177809588Y-102347346D01*
G37*
X177809588Y-102347346D02*
X177846000Y-102354589D01*
X177846000Y-102858400D01*
X177869830Y-102978200D01*
X177878351Y-103021041D01*
X177970480Y-103158920D01*
X177993680Y-103182121D01*
X178131559Y-103274249D01*
X178294200Y-103306600D01*
X178796000Y-103306600D01*
X178796000Y-104244759D01*
X178462160Y-104578600D01*
X178401330Y-104578600D01*
X178318117Y-104495241D01*
X178097671Y-104403704D01*
X177858976Y-104403496D01*
X177742400Y-104451664D01*
X177742400Y-102302452D01*
X177809588Y-102347346D01*
G36*
X180037500Y-99440100D02*
X181404500Y-99440100D01*
X181404500Y-99420100D01*
X181712500Y-99420100D01*
X181712500Y-99440100D01*
X181732500Y-99440100D01*
X181732500Y-99748100D01*
X181712500Y-99748100D01*
X181712500Y-101115100D01*
X181732500Y-101115100D01*
X181732500Y-101423100D01*
X181712500Y-101423100D01*
X181712500Y-101443100D01*
X181404500Y-101443100D01*
X181404500Y-101423100D01*
X180037500Y-101423100D01*
X180037500Y-101443100D01*
X179729500Y-101443100D01*
X179729500Y-101423100D01*
X179709500Y-101423100D01*
X179709500Y-101115100D01*
X179729500Y-101115100D01*
X179729500Y-99748100D01*
X180037500Y-99748100D01*
X180037500Y-101115100D01*
X181404500Y-101115100D01*
X181404500Y-99748100D01*
X180037500Y-99748100D01*
X179729500Y-99748100D01*
X179709500Y-99748100D01*
X179709500Y-99440100D01*
X179729500Y-99440100D01*
X179729500Y-99420100D01*
X180037500Y-99420100D01*
X180037500Y-99440100D01*
X180037500Y-99440100D01*
G37*
X180037500Y-99440100D02*
X181404500Y-99440100D01*
X181404500Y-99420100D01*
X181712500Y-99420100D01*
X181712500Y-99440100D01*
X181732500Y-99440100D01*
X181732500Y-99748100D01*
X181712500Y-99748100D01*
X181712500Y-101115100D01*
X181732500Y-101115100D01*
X181732500Y-101423100D01*
X181712500Y-101423100D01*
X181712500Y-101443100D01*
X181404500Y-101443100D01*
X181404500Y-101423100D01*
X180037500Y-101423100D01*
X180037500Y-101443100D01*
X179729500Y-101443100D01*
X179729500Y-101423100D01*
X179709500Y-101423100D01*
X179709500Y-101115100D01*
X179729500Y-101115100D01*
X179729500Y-99748100D01*
X180037500Y-99748100D01*
X180037500Y-101115100D01*
X181404500Y-101115100D01*
X181404500Y-99748100D01*
X180037500Y-99748100D01*
X179729500Y-99748100D01*
X179709500Y-99748100D01*
X179709500Y-99440100D01*
X179729500Y-99440100D01*
X179729500Y-99420100D01*
X180037500Y-99420100D01*
X180037500Y-99440100D01*
M02*
