G04 #@! TF.FileFunction,Soldermask,Top*
%FSLAX46Y46*%
G04 Gerber Fmt 4.6, Leading zero omitted, Abs format (unit mm)*
G04 Created by KiCad (PCBNEW 4.0.6-e0-6349~52~ubuntu16.10.1) date Fri Apr 28 23:24:08 2017*
%MOMM*%
%LPD*%
G01*
G04 APERTURE LIST*
%ADD10C,0.100000*%
%ADD11O,2.900000X1.300000*%
%ADD12O,1.300000X2.900000*%
%ADD13R,6.400000X6.400000*%
%ADD14R,1.150000X1.200000*%
%ADD15R,1.200000X1.150000*%
%ADD16R,1.300000X1.200000*%
%ADD17R,0.900000X1.300000*%
%ADD18R,1.300000X0.900000*%
%ADD19R,1.450000X1.050000*%
%ADD20R,1.200000X1.300000*%
%ADD21R,1.400000X2.000000*%
%ADD22O,1.250000X0.700000*%
%ADD23O,0.700000X1.250000*%
%ADD24R,2.075000X2.075000*%
%ADD25R,2.400000X4.200000*%
%ADD26R,2.400000X1.900000*%
%ADD27R,2.100000X2.100000*%
%ADD28O,2.100000X2.100000*%
%ADD29R,1.200000X1.200000*%
%ADD30R,0.800000X1.750000*%
%ADD31R,2.500000X2.400000*%
%ADD32R,2.000000X2.300000*%
%ADD33R,1.600000X2.300000*%
G04 APERTURE END LIST*
D10*
D11*
X180627800Y-71204000D03*
X180627800Y-72474000D03*
X180627800Y-73744000D03*
X180627800Y-75014000D03*
X180627800Y-76284000D03*
X180627800Y-77554000D03*
X180627800Y-78824000D03*
X180627800Y-80094000D03*
X180627800Y-81364000D03*
X180627800Y-82634000D03*
X180627800Y-83904000D03*
X180627800Y-85174000D03*
X180627800Y-86444000D03*
X180627800Y-87714000D03*
D12*
X177342800Y-89204000D03*
X176072800Y-89204000D03*
X174802800Y-89204000D03*
X173532800Y-89204000D03*
X172262800Y-89204000D03*
X170992800Y-89204000D03*
X169722800Y-89204000D03*
X168452800Y-89204000D03*
X167182800Y-89204000D03*
X165912800Y-89204000D03*
D11*
X162627800Y-87714000D03*
X162627800Y-86444000D03*
X162627800Y-85174000D03*
X162627800Y-83904000D03*
X162627800Y-82634000D03*
X162627800Y-81364000D03*
X162627800Y-80094000D03*
X162627800Y-78824000D03*
X162627800Y-77554000D03*
X162627800Y-76284000D03*
X162627800Y-75014000D03*
X162627800Y-73744000D03*
X162627800Y-72474000D03*
X162627800Y-71204000D03*
D13*
X171327800Y-78904000D03*
D14*
X171767500Y-93865000D03*
X171767500Y-95365000D03*
D15*
X166180200Y-103733600D03*
X164680200Y-103733600D03*
X162700400Y-103733600D03*
X161200400Y-103733600D03*
X162700400Y-106273600D03*
X161200400Y-106273600D03*
X178701000Y-106222800D03*
X180201000Y-106222800D03*
D16*
X175472600Y-102702400D03*
X175472600Y-100802400D03*
X173472600Y-101752400D03*
X175472600Y-95488800D03*
X175472600Y-93588800D03*
X173472600Y-94538800D03*
D17*
X183312500Y-106235500D03*
X181812500Y-106235500D03*
D18*
X180784500Y-94627000D03*
X180784500Y-96127000D03*
X178879500Y-94627000D03*
X178879500Y-96127000D03*
D19*
X182329000Y-115574500D03*
X186479000Y-115574500D03*
X182329000Y-117724500D03*
X186479000Y-117724500D03*
D20*
X166945600Y-101422200D03*
X169045600Y-101422200D03*
D19*
X157310000Y-115638000D03*
X161460000Y-115638000D03*
X157310000Y-117788000D03*
X161460000Y-117788000D03*
D14*
X171780200Y-102553200D03*
X171780200Y-101053200D03*
D15*
X166167500Y-106172000D03*
X164667500Y-106172000D03*
D21*
X168299000Y-106273600D03*
X171299000Y-106273600D03*
D18*
X175488600Y-97344800D03*
X175488600Y-98844800D03*
X171831000Y-98844800D03*
X171831000Y-97344800D03*
D22*
X178271000Y-98931600D03*
X178271000Y-99431600D03*
X178271000Y-99931600D03*
X178271000Y-100431600D03*
X178271000Y-100931600D03*
X178271000Y-101431600D03*
X178271000Y-101931600D03*
D23*
X179221000Y-102881600D03*
X179721000Y-102881600D03*
X180221000Y-102881600D03*
X180721000Y-102881600D03*
X181221000Y-102881600D03*
X181721000Y-102881600D03*
X182221000Y-102881600D03*
D22*
X183171000Y-101931600D03*
X183171000Y-101431600D03*
X183171000Y-100931600D03*
X183171000Y-100431600D03*
X183171000Y-99931600D03*
X183171000Y-99431600D03*
X183171000Y-98931600D03*
D23*
X182221000Y-97981600D03*
X181721000Y-97981600D03*
X181221000Y-97981600D03*
X180721000Y-97981600D03*
X180221000Y-97981600D03*
X179721000Y-97981600D03*
X179221000Y-97981600D03*
D24*
X181558500Y-101269100D03*
X181558500Y-99594100D03*
X179883500Y-101269100D03*
X179883500Y-99594100D03*
D25*
X167259400Y-98196400D03*
D26*
X160959400Y-98196400D03*
X160959400Y-100496400D03*
X160959400Y-95896400D03*
D27*
X149860000Y-71120000D03*
D28*
X149860000Y-73660000D03*
X149860000Y-76200000D03*
X149860000Y-78740000D03*
X149860000Y-81280000D03*
X149860000Y-83820000D03*
X149860000Y-86360000D03*
X149860000Y-88900000D03*
X149860000Y-91440000D03*
X149860000Y-93980000D03*
X149860000Y-96520000D03*
X149860000Y-99060000D03*
X149860000Y-101600000D03*
X149860000Y-104140000D03*
X149860000Y-106680000D03*
X149860000Y-109220000D03*
X149860000Y-111760000D03*
X193040000Y-73660000D03*
X193040000Y-76200000D03*
X193040000Y-78740000D03*
X193040000Y-81280000D03*
X193040000Y-83820000D03*
X193040000Y-86360000D03*
X193040000Y-88900000D03*
X193040000Y-91440000D03*
X193040000Y-93980000D03*
X193040000Y-96520000D03*
X193040000Y-99060000D03*
X193040000Y-101600000D03*
X193040000Y-104140000D03*
X193040000Y-106680000D03*
X193040000Y-109220000D03*
X193040000Y-111760000D03*
D18*
X173672500Y-98857500D03*
X173672500Y-97357500D03*
D29*
X167373200Y-117932200D03*
X165773200Y-117932200D03*
D30*
X177220400Y-114264400D03*
X176570400Y-114264400D03*
X175920400Y-114264400D03*
X175270400Y-114264400D03*
X174620400Y-114264400D03*
D31*
X179020400Y-114589400D03*
X172820400Y-114589400D03*
D32*
X171820400Y-116939400D03*
D33*
X175070400Y-116939400D03*
X176770400Y-116939400D03*
D32*
X180020400Y-116939400D03*
D20*
X169071000Y-95046800D03*
X166971000Y-95046800D03*
M02*
