G04 #@! TF.FileFunction,Legend,Bot*
%FSLAX46Y46*%
G04 Gerber Fmt 4.6, Leading zero omitted, Abs format (unit mm)*
G04 Created by KiCad (PCBNEW 4.0.6-e0-6349~52~ubuntu16.10.1) date Fri Apr 21 00:00:01 2017*
%MOMM*%
%LPD*%
G01*
G04 APERTURE LIST*
%ADD10C,0.100000*%
%ADD11C,0.500000*%
%ADD12C,0.175000*%
%ADD13C,0.010000*%
%ADD14R,2.100000X2.100000*%
%ADD15O,2.100000X2.100000*%
G04 APERTURE END LIST*
D10*
D11*
X180211953Y-115960543D02*
X179545286Y-115960543D01*
X179259572Y-117008162D02*
X180211953Y-117008162D01*
X180211953Y-115008162D01*
X179259572Y-115008162D01*
X178497667Y-116912924D02*
X178211952Y-117008162D01*
X177735762Y-117008162D01*
X177545286Y-116912924D01*
X177450048Y-116817686D01*
X177354809Y-116627210D01*
X177354809Y-116436733D01*
X177450048Y-116246257D01*
X177545286Y-116151019D01*
X177735762Y-116055781D01*
X178116714Y-115960543D01*
X178307190Y-115865305D01*
X178402429Y-115770067D01*
X178497667Y-115579590D01*
X178497667Y-115389114D01*
X178402429Y-115198638D01*
X178307190Y-115103400D01*
X178116714Y-115008162D01*
X177640524Y-115008162D01*
X177354809Y-115103400D01*
X176497667Y-117008162D02*
X176497667Y-115008162D01*
X175735762Y-115008162D01*
X175545286Y-115103400D01*
X175450047Y-115198638D01*
X175354809Y-115389114D01*
X175354809Y-115674829D01*
X175450047Y-115865305D01*
X175545286Y-115960543D01*
X175735762Y-116055781D01*
X176497667Y-116055781D01*
X174688143Y-115008162D02*
X173450047Y-115008162D01*
X174116714Y-115770067D01*
X173831000Y-115770067D01*
X173640524Y-115865305D01*
X173545286Y-115960543D01*
X173450047Y-116151019D01*
X173450047Y-116627210D01*
X173545286Y-116817686D01*
X173640524Y-116912924D01*
X173831000Y-117008162D01*
X174402428Y-117008162D01*
X174592905Y-116912924D01*
X174688143Y-116817686D01*
X172688143Y-115198638D02*
X172592905Y-115103400D01*
X172402428Y-115008162D01*
X171926238Y-115008162D01*
X171735762Y-115103400D01*
X171640524Y-115198638D01*
X171545285Y-115389114D01*
X171545285Y-115579590D01*
X171640524Y-115865305D01*
X172783381Y-117008162D01*
X171545285Y-117008162D01*
X170783381Y-116912924D02*
X170497666Y-117008162D01*
X170021476Y-117008162D01*
X169831000Y-116912924D01*
X169735762Y-116817686D01*
X169640523Y-116627210D01*
X169640523Y-116436733D01*
X169735762Y-116246257D01*
X169831000Y-116151019D01*
X170021476Y-116055781D01*
X170402428Y-115960543D01*
X170592904Y-115865305D01*
X170688143Y-115770067D01*
X170783381Y-115579590D01*
X170783381Y-115389114D01*
X170688143Y-115198638D01*
X170592904Y-115103400D01*
X170402428Y-115008162D01*
X169926238Y-115008162D01*
X169640523Y-115103400D01*
X169069095Y-115674829D02*
X168307190Y-115674829D01*
X168783381Y-115008162D02*
X168783381Y-116722448D01*
X168688142Y-116912924D01*
X168497666Y-117008162D01*
X168307190Y-117008162D01*
X166783381Y-117008162D02*
X166783381Y-115960543D01*
X166878619Y-115770067D01*
X167069095Y-115674829D01*
X167450047Y-115674829D01*
X167640524Y-115770067D01*
X166783381Y-116912924D02*
X166973857Y-117008162D01*
X167450047Y-117008162D01*
X167640524Y-116912924D01*
X167735762Y-116722448D01*
X167735762Y-116531971D01*
X167640524Y-116341495D01*
X167450047Y-116246257D01*
X166973857Y-116246257D01*
X166783381Y-116151019D01*
X164973857Y-116912924D02*
X165164333Y-117008162D01*
X165545285Y-117008162D01*
X165735761Y-116912924D01*
X165831000Y-116817686D01*
X165926238Y-116627210D01*
X165926238Y-116055781D01*
X165831000Y-115865305D01*
X165735761Y-115770067D01*
X165545285Y-115674829D01*
X165164333Y-115674829D01*
X164973857Y-115770067D01*
X164116714Y-117008162D02*
X164116714Y-115008162D01*
X163926237Y-116246257D02*
X163354809Y-117008162D01*
X163354809Y-115674829D02*
X164116714Y-116436733D01*
D12*
X195261667Y-81226834D02*
X194928333Y-80993500D01*
X195261667Y-80826834D02*
X194561667Y-80826834D01*
X194561667Y-81093500D01*
X194595000Y-81160167D01*
X194628333Y-81193500D01*
X194695000Y-81226834D01*
X194795000Y-81226834D01*
X194861667Y-81193500D01*
X194895000Y-81160167D01*
X194928333Y-81093500D01*
X194928333Y-80826834D01*
X194561667Y-81460167D02*
X195261667Y-81926834D01*
X194561667Y-81926834D02*
X195261667Y-81460167D01*
X147638333Y-99910000D02*
X148338333Y-99910000D01*
X148338333Y-99743334D01*
X148305000Y-99643334D01*
X148238333Y-99576667D01*
X148171667Y-99543334D01*
X148038333Y-99510000D01*
X147938333Y-99510000D01*
X147805000Y-99543334D01*
X147738333Y-99576667D01*
X147671667Y-99643334D01*
X147638333Y-99743334D01*
X147638333Y-99910000D01*
X148271667Y-99243334D02*
X148305000Y-99210000D01*
X148338333Y-99143334D01*
X148338333Y-98976667D01*
X148305000Y-98910000D01*
X148271667Y-98876667D01*
X148205000Y-98843334D01*
X148138333Y-98843334D01*
X148038333Y-98876667D01*
X147638333Y-99276667D01*
X147638333Y-98843334D01*
X148338333Y-98610000D02*
X148338333Y-98143333D01*
X147638333Y-98443333D01*
X194595000Y-111226667D02*
X194561667Y-111160001D01*
X194561667Y-111060001D01*
X194595000Y-110960001D01*
X194661667Y-110893334D01*
X194728333Y-110860001D01*
X194861667Y-110826667D01*
X194961667Y-110826667D01*
X195095000Y-110860001D01*
X195161667Y-110893334D01*
X195228333Y-110960001D01*
X195261667Y-111060001D01*
X195261667Y-111126667D01*
X195228333Y-111226667D01*
X195195000Y-111260001D01*
X194961667Y-111260001D01*
X194961667Y-111126667D01*
X195261667Y-111560001D02*
X194561667Y-111560001D01*
X195261667Y-111960001D01*
X194561667Y-111960001D01*
X195261667Y-112293334D02*
X194561667Y-112293334D01*
X194561667Y-112460000D01*
X194595000Y-112560000D01*
X194661667Y-112626667D01*
X194728333Y-112660000D01*
X194861667Y-112693334D01*
X194961667Y-112693334D01*
X195095000Y-112660000D01*
X195161667Y-112626667D01*
X195228333Y-112560000D01*
X195261667Y-112460000D01*
X195261667Y-112293334D01*
X195261667Y-72810000D02*
X194561667Y-72810000D01*
X194561667Y-72976666D01*
X194595000Y-73076666D01*
X194661667Y-73143333D01*
X194728333Y-73176666D01*
X194861667Y-73210000D01*
X194961667Y-73210000D01*
X195095000Y-73176666D01*
X195161667Y-73143333D01*
X195228333Y-73076666D01*
X195261667Y-72976666D01*
X195261667Y-72810000D01*
X194628333Y-73476666D02*
X194595000Y-73510000D01*
X194561667Y-73576666D01*
X194561667Y-73743333D01*
X194595000Y-73810000D01*
X194628333Y-73843333D01*
X194695000Y-73876666D01*
X194761667Y-73876666D01*
X194861667Y-73843333D01*
X195261667Y-73443333D01*
X195261667Y-73876666D01*
X194561667Y-74110000D02*
X194561667Y-74543333D01*
X194828333Y-74310000D01*
X194828333Y-74410000D01*
X194861667Y-74476667D01*
X194895000Y-74510000D01*
X194961667Y-74543333D01*
X195128333Y-74543333D01*
X195195000Y-74510000D01*
X195228333Y-74476667D01*
X195261667Y-74410000D01*
X195261667Y-74210000D01*
X195228333Y-74143333D01*
X195195000Y-74110000D01*
X195261667Y-75350000D02*
X194561667Y-75350000D01*
X194561667Y-75516666D01*
X194595000Y-75616666D01*
X194661667Y-75683333D01*
X194728333Y-75716666D01*
X194861667Y-75750000D01*
X194961667Y-75750000D01*
X195095000Y-75716666D01*
X195161667Y-75683333D01*
X195228333Y-75616666D01*
X195261667Y-75516666D01*
X195261667Y-75350000D01*
X194628333Y-76016666D02*
X194595000Y-76050000D01*
X194561667Y-76116666D01*
X194561667Y-76283333D01*
X194595000Y-76350000D01*
X194628333Y-76383333D01*
X194695000Y-76416666D01*
X194761667Y-76416666D01*
X194861667Y-76383333D01*
X195261667Y-75983333D01*
X195261667Y-76416666D01*
X194628333Y-76683333D02*
X194595000Y-76716667D01*
X194561667Y-76783333D01*
X194561667Y-76950000D01*
X194595000Y-77016667D01*
X194628333Y-77050000D01*
X194695000Y-77083333D01*
X194761667Y-77083333D01*
X194861667Y-77050000D01*
X195261667Y-76650000D01*
X195261667Y-77083333D01*
X195261667Y-82970000D02*
X194561667Y-82970000D01*
X194561667Y-83136666D01*
X194595000Y-83236666D01*
X194661667Y-83303333D01*
X194728333Y-83336666D01*
X194861667Y-83370000D01*
X194961667Y-83370000D01*
X195095000Y-83336666D01*
X195161667Y-83303333D01*
X195228333Y-83236666D01*
X195261667Y-83136666D01*
X195261667Y-82970000D01*
X194628333Y-83636666D02*
X194595000Y-83670000D01*
X194561667Y-83736666D01*
X194561667Y-83903333D01*
X194595000Y-83970000D01*
X194628333Y-84003333D01*
X194695000Y-84036666D01*
X194761667Y-84036666D01*
X194861667Y-84003333D01*
X195261667Y-83603333D01*
X195261667Y-84036666D01*
X195261667Y-84703333D02*
X195261667Y-84303333D01*
X195261667Y-84503333D02*
X194561667Y-84503333D01*
X194661667Y-84436667D01*
X194728333Y-84370000D01*
X194761667Y-84303333D01*
X195261667Y-85510000D02*
X194561667Y-85510000D01*
X194561667Y-85676666D01*
X194595000Y-85776666D01*
X194661667Y-85843333D01*
X194728333Y-85876666D01*
X194861667Y-85910000D01*
X194961667Y-85910000D01*
X195095000Y-85876666D01*
X195161667Y-85843333D01*
X195228333Y-85776666D01*
X195261667Y-85676666D01*
X195261667Y-85510000D01*
X195261667Y-86576666D02*
X195261667Y-86176666D01*
X195261667Y-86376666D02*
X194561667Y-86376666D01*
X194661667Y-86310000D01*
X194728333Y-86243333D01*
X194761667Y-86176666D01*
X195261667Y-86910000D02*
X195261667Y-87043333D01*
X195228333Y-87110000D01*
X195195000Y-87143333D01*
X195095000Y-87210000D01*
X194961667Y-87243333D01*
X194695000Y-87243333D01*
X194628333Y-87210000D01*
X194595000Y-87176667D01*
X194561667Y-87110000D01*
X194561667Y-86976667D01*
X194595000Y-86910000D01*
X194628333Y-86876667D01*
X194695000Y-86843333D01*
X194861667Y-86843333D01*
X194928333Y-86876667D01*
X194961667Y-86910000D01*
X194995000Y-86976667D01*
X194995000Y-87110000D01*
X194961667Y-87176667D01*
X194928333Y-87210000D01*
X194861667Y-87243333D01*
X195261667Y-88050000D02*
X194561667Y-88050000D01*
X194561667Y-88216666D01*
X194595000Y-88316666D01*
X194661667Y-88383333D01*
X194728333Y-88416666D01*
X194861667Y-88450000D01*
X194961667Y-88450000D01*
X195095000Y-88416666D01*
X195161667Y-88383333D01*
X195228333Y-88316666D01*
X195261667Y-88216666D01*
X195261667Y-88050000D01*
X195261667Y-89116666D02*
X195261667Y-88716666D01*
X195261667Y-88916666D02*
X194561667Y-88916666D01*
X194661667Y-88850000D01*
X194728333Y-88783333D01*
X194761667Y-88716666D01*
X194861667Y-89516667D02*
X194828333Y-89450000D01*
X194795000Y-89416667D01*
X194728333Y-89383333D01*
X194695000Y-89383333D01*
X194628333Y-89416667D01*
X194595000Y-89450000D01*
X194561667Y-89516667D01*
X194561667Y-89650000D01*
X194595000Y-89716667D01*
X194628333Y-89750000D01*
X194695000Y-89783333D01*
X194728333Y-89783333D01*
X194795000Y-89750000D01*
X194828333Y-89716667D01*
X194861667Y-89650000D01*
X194861667Y-89516667D01*
X194895000Y-89450000D01*
X194928333Y-89416667D01*
X194995000Y-89383333D01*
X195128333Y-89383333D01*
X195195000Y-89416667D01*
X195228333Y-89450000D01*
X195261667Y-89516667D01*
X195261667Y-89650000D01*
X195228333Y-89716667D01*
X195195000Y-89750000D01*
X195128333Y-89783333D01*
X194995000Y-89783333D01*
X194928333Y-89750000D01*
X194895000Y-89716667D01*
X194861667Y-89650000D01*
X195261667Y-90590000D02*
X194561667Y-90590000D01*
X194561667Y-90756666D01*
X194595000Y-90856666D01*
X194661667Y-90923333D01*
X194728333Y-90956666D01*
X194861667Y-90990000D01*
X194961667Y-90990000D01*
X195095000Y-90956666D01*
X195161667Y-90923333D01*
X195228333Y-90856666D01*
X195261667Y-90756666D01*
X195261667Y-90590000D01*
X194561667Y-91423333D02*
X194561667Y-91490000D01*
X194595000Y-91556666D01*
X194628333Y-91590000D01*
X194695000Y-91623333D01*
X194828333Y-91656666D01*
X194995000Y-91656666D01*
X195128333Y-91623333D01*
X195195000Y-91590000D01*
X195228333Y-91556666D01*
X195261667Y-91490000D01*
X195261667Y-91423333D01*
X195228333Y-91356666D01*
X195195000Y-91323333D01*
X195128333Y-91290000D01*
X194995000Y-91256666D01*
X194828333Y-91256666D01*
X194695000Y-91290000D01*
X194628333Y-91323333D01*
X194595000Y-91356666D01*
X194561667Y-91423333D01*
X194561667Y-92290000D02*
X194561667Y-91956667D01*
X194895000Y-91923333D01*
X194861667Y-91956667D01*
X194828333Y-92023333D01*
X194828333Y-92190000D01*
X194861667Y-92256667D01*
X194895000Y-92290000D01*
X194961667Y-92323333D01*
X195128333Y-92323333D01*
X195195000Y-92290000D01*
X195228333Y-92256667D01*
X195261667Y-92190000D01*
X195261667Y-92023333D01*
X195228333Y-91956667D01*
X195195000Y-91923333D01*
X195261667Y-93130000D02*
X194561667Y-93130000D01*
X194561667Y-93296666D01*
X194595000Y-93396666D01*
X194661667Y-93463333D01*
X194728333Y-93496666D01*
X194861667Y-93530000D01*
X194961667Y-93530000D01*
X195095000Y-93496666D01*
X195161667Y-93463333D01*
X195228333Y-93396666D01*
X195261667Y-93296666D01*
X195261667Y-93130000D01*
X195261667Y-94196666D02*
X195261667Y-93796666D01*
X195261667Y-93996666D02*
X194561667Y-93996666D01*
X194661667Y-93930000D01*
X194728333Y-93863333D01*
X194761667Y-93796666D01*
X194561667Y-94430000D02*
X194561667Y-94896667D01*
X195261667Y-94596667D01*
X195261667Y-95670000D02*
X194561667Y-95670000D01*
X194561667Y-95836666D01*
X194595000Y-95936666D01*
X194661667Y-96003333D01*
X194728333Y-96036666D01*
X194861667Y-96070000D01*
X194961667Y-96070000D01*
X195095000Y-96036666D01*
X195161667Y-96003333D01*
X195228333Y-95936666D01*
X195261667Y-95836666D01*
X195261667Y-95670000D01*
X195261667Y-96736666D02*
X195261667Y-96336666D01*
X195261667Y-96536666D02*
X194561667Y-96536666D01*
X194661667Y-96470000D01*
X194728333Y-96403333D01*
X194761667Y-96336666D01*
X194561667Y-97336667D02*
X194561667Y-97203333D01*
X194595000Y-97136667D01*
X194628333Y-97103333D01*
X194728333Y-97036667D01*
X194861667Y-97003333D01*
X195128333Y-97003333D01*
X195195000Y-97036667D01*
X195228333Y-97070000D01*
X195261667Y-97136667D01*
X195261667Y-97270000D01*
X195228333Y-97336667D01*
X195195000Y-97370000D01*
X195128333Y-97403333D01*
X194961667Y-97403333D01*
X194895000Y-97370000D01*
X194861667Y-97336667D01*
X194828333Y-97270000D01*
X194828333Y-97136667D01*
X194861667Y-97070000D01*
X194895000Y-97036667D01*
X194961667Y-97003333D01*
X195261667Y-98210000D02*
X194561667Y-98210000D01*
X194561667Y-98376666D01*
X194595000Y-98476666D01*
X194661667Y-98543333D01*
X194728333Y-98576666D01*
X194861667Y-98610000D01*
X194961667Y-98610000D01*
X195095000Y-98576666D01*
X195161667Y-98543333D01*
X195228333Y-98476666D01*
X195261667Y-98376666D01*
X195261667Y-98210000D01*
X194561667Y-99043333D02*
X194561667Y-99110000D01*
X194595000Y-99176666D01*
X194628333Y-99210000D01*
X194695000Y-99243333D01*
X194828333Y-99276666D01*
X194995000Y-99276666D01*
X195128333Y-99243333D01*
X195195000Y-99210000D01*
X195228333Y-99176666D01*
X195261667Y-99110000D01*
X195261667Y-99043333D01*
X195228333Y-98976666D01*
X195195000Y-98943333D01*
X195128333Y-98910000D01*
X194995000Y-98876666D01*
X194828333Y-98876666D01*
X194695000Y-98910000D01*
X194628333Y-98943333D01*
X194595000Y-98976666D01*
X194561667Y-99043333D01*
X194795000Y-99876667D02*
X195261667Y-99876667D01*
X194528333Y-99710000D02*
X195028333Y-99543333D01*
X195028333Y-99976667D01*
X195261667Y-100750000D02*
X194561667Y-100750000D01*
X194561667Y-100916666D01*
X194595000Y-101016666D01*
X194661667Y-101083333D01*
X194728333Y-101116666D01*
X194861667Y-101150000D01*
X194961667Y-101150000D01*
X195095000Y-101116666D01*
X195161667Y-101083333D01*
X195228333Y-101016666D01*
X195261667Y-100916666D01*
X195261667Y-100750000D01*
X194561667Y-101583333D02*
X194561667Y-101650000D01*
X194595000Y-101716666D01*
X194628333Y-101750000D01*
X194695000Y-101783333D01*
X194828333Y-101816666D01*
X194995000Y-101816666D01*
X195128333Y-101783333D01*
X195195000Y-101750000D01*
X195228333Y-101716666D01*
X195261667Y-101650000D01*
X195261667Y-101583333D01*
X195228333Y-101516666D01*
X195195000Y-101483333D01*
X195128333Y-101450000D01*
X194995000Y-101416666D01*
X194828333Y-101416666D01*
X194695000Y-101450000D01*
X194628333Y-101483333D01*
X194595000Y-101516666D01*
X194561667Y-101583333D01*
X194561667Y-102250000D02*
X194561667Y-102316667D01*
X194595000Y-102383333D01*
X194628333Y-102416667D01*
X194695000Y-102450000D01*
X194828333Y-102483333D01*
X194995000Y-102483333D01*
X195128333Y-102450000D01*
X195195000Y-102416667D01*
X195228333Y-102383333D01*
X195261667Y-102316667D01*
X195261667Y-102250000D01*
X195228333Y-102183333D01*
X195195000Y-102150000D01*
X195128333Y-102116667D01*
X194995000Y-102083333D01*
X194828333Y-102083333D01*
X194695000Y-102116667D01*
X194628333Y-102150000D01*
X194595000Y-102183333D01*
X194561667Y-102250000D01*
X195261667Y-103290000D02*
X194561667Y-103290000D01*
X194561667Y-103456666D01*
X194595000Y-103556666D01*
X194661667Y-103623333D01*
X194728333Y-103656666D01*
X194861667Y-103690000D01*
X194961667Y-103690000D01*
X195095000Y-103656666D01*
X195161667Y-103623333D01*
X195228333Y-103556666D01*
X195261667Y-103456666D01*
X195261667Y-103290000D01*
X194561667Y-104123333D02*
X194561667Y-104190000D01*
X194595000Y-104256666D01*
X194628333Y-104290000D01*
X194695000Y-104323333D01*
X194828333Y-104356666D01*
X194995000Y-104356666D01*
X195128333Y-104323333D01*
X195195000Y-104290000D01*
X195228333Y-104256666D01*
X195261667Y-104190000D01*
X195261667Y-104123333D01*
X195228333Y-104056666D01*
X195195000Y-104023333D01*
X195128333Y-103990000D01*
X194995000Y-103956666D01*
X194828333Y-103956666D01*
X194695000Y-103990000D01*
X194628333Y-104023333D01*
X194595000Y-104056666D01*
X194561667Y-104123333D01*
X194628333Y-104623333D02*
X194595000Y-104656667D01*
X194561667Y-104723333D01*
X194561667Y-104890000D01*
X194595000Y-104956667D01*
X194628333Y-104990000D01*
X194695000Y-105023333D01*
X194761667Y-105023333D01*
X194861667Y-104990000D01*
X195261667Y-104590000D01*
X195261667Y-105023333D01*
X194561667Y-78143167D02*
X194561667Y-78543167D01*
X195261667Y-78343167D02*
X194561667Y-78343167D01*
X194561667Y-78709833D02*
X195261667Y-79176500D01*
X194561667Y-79176500D02*
X195261667Y-78709833D01*
X195261667Y-105830000D02*
X194561667Y-105830000D01*
X194561667Y-105996666D01*
X194595000Y-106096666D01*
X194661667Y-106163333D01*
X194728333Y-106196666D01*
X194861667Y-106230000D01*
X194961667Y-106230000D01*
X195095000Y-106196666D01*
X195161667Y-106163333D01*
X195228333Y-106096666D01*
X195261667Y-105996666D01*
X195261667Y-105830000D01*
X195261667Y-106896666D02*
X195261667Y-106496666D01*
X195261667Y-106696666D02*
X194561667Y-106696666D01*
X194661667Y-106630000D01*
X194728333Y-106563333D01*
X194761667Y-106496666D01*
X194561667Y-107530000D02*
X194561667Y-107196667D01*
X194895000Y-107163333D01*
X194861667Y-107196667D01*
X194828333Y-107263333D01*
X194828333Y-107430000D01*
X194861667Y-107496667D01*
X194895000Y-107530000D01*
X194961667Y-107563333D01*
X195128333Y-107563333D01*
X195195000Y-107530000D01*
X195228333Y-107496667D01*
X195261667Y-107430000D01*
X195261667Y-107263333D01*
X195228333Y-107196667D01*
X195195000Y-107163333D01*
X194561667Y-108353333D02*
X194561667Y-108786666D01*
X194828333Y-108553333D01*
X194828333Y-108653333D01*
X194861667Y-108720000D01*
X194895000Y-108753333D01*
X194961667Y-108786666D01*
X195128333Y-108786666D01*
X195195000Y-108753333D01*
X195228333Y-108720000D01*
X195261667Y-108653333D01*
X195261667Y-108453333D01*
X195228333Y-108386666D01*
X195195000Y-108353333D01*
X194561667Y-108986667D02*
X195261667Y-109220000D01*
X194561667Y-109453333D01*
X194561667Y-109620000D02*
X194561667Y-110053333D01*
X194828333Y-109820000D01*
X194828333Y-109920000D01*
X194861667Y-109986667D01*
X194895000Y-110020000D01*
X194961667Y-110053333D01*
X195128333Y-110053333D01*
X195195000Y-110020000D01*
X195228333Y-109986667D01*
X195261667Y-109920000D01*
X195261667Y-109720000D01*
X195228333Y-109653333D01*
X195195000Y-109620000D01*
X148338333Y-112526666D02*
X147638333Y-112293333D01*
X148338333Y-112060000D01*
X147638333Y-111826666D02*
X148338333Y-111826666D01*
X147638333Y-111493333D02*
X148338333Y-111493333D01*
X147638333Y-111093333D01*
X148338333Y-111093333D01*
X148305000Y-109753333D02*
X148338333Y-109819999D01*
X148338333Y-109919999D01*
X148305000Y-110019999D01*
X148238333Y-110086666D01*
X148171667Y-110119999D01*
X148038333Y-110153333D01*
X147938333Y-110153333D01*
X147805000Y-110119999D01*
X147738333Y-110086666D01*
X147671667Y-110019999D01*
X147638333Y-109919999D01*
X147638333Y-109853333D01*
X147671667Y-109753333D01*
X147705000Y-109719999D01*
X147938333Y-109719999D01*
X147938333Y-109853333D01*
X147638333Y-109419999D02*
X148338333Y-109419999D01*
X147638333Y-109019999D01*
X148338333Y-109019999D01*
X147638333Y-108686666D02*
X148338333Y-108686666D01*
X148338333Y-108520000D01*
X148305000Y-108420000D01*
X148238333Y-108353333D01*
X148171667Y-108320000D01*
X148038333Y-108286666D01*
X147938333Y-108286666D01*
X147805000Y-108320000D01*
X147738333Y-108353333D01*
X147671667Y-108420000D01*
X147638333Y-108520000D01*
X147638333Y-108686666D01*
X147638333Y-107530000D02*
X148338333Y-107530000D01*
X148338333Y-107363334D01*
X148305000Y-107263334D01*
X148238333Y-107196667D01*
X148171667Y-107163334D01*
X148038333Y-107130000D01*
X147938333Y-107130000D01*
X147805000Y-107163334D01*
X147738333Y-107196667D01*
X147671667Y-107263334D01*
X147638333Y-107363334D01*
X147638333Y-107530000D01*
X147638333Y-106463334D02*
X147638333Y-106863334D01*
X147638333Y-106663334D02*
X148338333Y-106663334D01*
X148238333Y-106730000D01*
X148171667Y-106796667D01*
X148138333Y-106863334D01*
X148338333Y-106230000D02*
X148338333Y-105796667D01*
X148071667Y-106030000D01*
X148071667Y-105930000D01*
X148038333Y-105863333D01*
X148005000Y-105830000D01*
X147938333Y-105796667D01*
X147771667Y-105796667D01*
X147705000Y-105830000D01*
X147671667Y-105863333D01*
X147638333Y-105930000D01*
X147638333Y-106130000D01*
X147671667Y-106196667D01*
X147705000Y-106230000D01*
X147638333Y-104990000D02*
X148338333Y-104990000D01*
X148338333Y-104823334D01*
X148305000Y-104723334D01*
X148238333Y-104656667D01*
X148171667Y-104623334D01*
X148038333Y-104590000D01*
X147938333Y-104590000D01*
X147805000Y-104623334D01*
X147738333Y-104656667D01*
X147671667Y-104723334D01*
X147638333Y-104823334D01*
X147638333Y-104990000D01*
X147638333Y-103923334D02*
X147638333Y-104323334D01*
X147638333Y-104123334D02*
X148338333Y-104123334D01*
X148238333Y-104190000D01*
X148171667Y-104256667D01*
X148138333Y-104323334D01*
X148271667Y-103656667D02*
X148305000Y-103623333D01*
X148338333Y-103556667D01*
X148338333Y-103390000D01*
X148305000Y-103323333D01*
X148271667Y-103290000D01*
X148205000Y-103256667D01*
X148138333Y-103256667D01*
X148038333Y-103290000D01*
X147638333Y-103690000D01*
X147638333Y-103256667D01*
X147638333Y-102450000D02*
X148338333Y-102450000D01*
X148338333Y-102283334D01*
X148305000Y-102183334D01*
X148238333Y-102116667D01*
X148171667Y-102083334D01*
X148038333Y-102050000D01*
X147938333Y-102050000D01*
X147805000Y-102083334D01*
X147738333Y-102116667D01*
X147671667Y-102183334D01*
X147638333Y-102283334D01*
X147638333Y-102450000D01*
X147638333Y-101383334D02*
X147638333Y-101783334D01*
X147638333Y-101583334D02*
X148338333Y-101583334D01*
X148238333Y-101650000D01*
X148171667Y-101716667D01*
X148138333Y-101783334D01*
X148105000Y-100783333D02*
X147638333Y-100783333D01*
X148371667Y-100950000D02*
X147871667Y-101116667D01*
X147871667Y-100683333D01*
X147638333Y-97370000D02*
X148338333Y-97370000D01*
X148338333Y-97203334D01*
X148305000Y-97103334D01*
X148238333Y-97036667D01*
X148171667Y-97003334D01*
X148038333Y-96970000D01*
X147938333Y-96970000D01*
X147805000Y-97003334D01*
X147738333Y-97036667D01*
X147671667Y-97103334D01*
X147638333Y-97203334D01*
X147638333Y-97370000D01*
X148271667Y-96703334D02*
X148305000Y-96670000D01*
X148338333Y-96603334D01*
X148338333Y-96436667D01*
X148305000Y-96370000D01*
X148271667Y-96336667D01*
X148205000Y-96303334D01*
X148138333Y-96303334D01*
X148038333Y-96336667D01*
X147638333Y-96736667D01*
X147638333Y-96303334D01*
X148338333Y-95703333D02*
X148338333Y-95836667D01*
X148305000Y-95903333D01*
X148271667Y-95936667D01*
X148171667Y-96003333D01*
X148038333Y-96036667D01*
X147771667Y-96036667D01*
X147705000Y-96003333D01*
X147671667Y-95970000D01*
X147638333Y-95903333D01*
X147638333Y-95770000D01*
X147671667Y-95703333D01*
X147705000Y-95670000D01*
X147771667Y-95636667D01*
X147938333Y-95636667D01*
X148005000Y-95670000D01*
X148038333Y-95703333D01*
X148071667Y-95770000D01*
X148071667Y-95903333D01*
X148038333Y-95970000D01*
X148005000Y-96003333D01*
X147938333Y-96036667D01*
X147638333Y-94830000D02*
X148338333Y-94830000D01*
X148338333Y-94663334D01*
X148305000Y-94563334D01*
X148238333Y-94496667D01*
X148171667Y-94463334D01*
X148038333Y-94430000D01*
X147938333Y-94430000D01*
X147805000Y-94463334D01*
X147738333Y-94496667D01*
X147671667Y-94563334D01*
X147638333Y-94663334D01*
X147638333Y-94830000D01*
X148271667Y-94163334D02*
X148305000Y-94130000D01*
X148338333Y-94063334D01*
X148338333Y-93896667D01*
X148305000Y-93830000D01*
X148271667Y-93796667D01*
X148205000Y-93763334D01*
X148138333Y-93763334D01*
X148038333Y-93796667D01*
X147638333Y-94196667D01*
X147638333Y-93763334D01*
X148338333Y-93130000D02*
X148338333Y-93463333D01*
X148005000Y-93496667D01*
X148038333Y-93463333D01*
X148071667Y-93396667D01*
X148071667Y-93230000D01*
X148038333Y-93163333D01*
X148005000Y-93130000D01*
X147938333Y-93096667D01*
X147771667Y-93096667D01*
X147705000Y-93130000D01*
X147671667Y-93163333D01*
X147638333Y-93230000D01*
X147638333Y-93396667D01*
X147671667Y-93463333D01*
X147705000Y-93496667D01*
X147638333Y-92290000D02*
X148338333Y-92290000D01*
X148338333Y-92123334D01*
X148305000Y-92023334D01*
X148238333Y-91956667D01*
X148171667Y-91923334D01*
X148038333Y-91890000D01*
X147938333Y-91890000D01*
X147805000Y-91923334D01*
X147738333Y-91956667D01*
X147671667Y-92023334D01*
X147638333Y-92123334D01*
X147638333Y-92290000D01*
X148338333Y-91656667D02*
X148338333Y-91223334D01*
X148071667Y-91456667D01*
X148071667Y-91356667D01*
X148038333Y-91290000D01*
X148005000Y-91256667D01*
X147938333Y-91223334D01*
X147771667Y-91223334D01*
X147705000Y-91256667D01*
X147671667Y-91290000D01*
X147638333Y-91356667D01*
X147638333Y-91556667D01*
X147671667Y-91623334D01*
X147705000Y-91656667D01*
X148338333Y-90990000D02*
X148338333Y-90556667D01*
X148071667Y-90790000D01*
X148071667Y-90690000D01*
X148038333Y-90623333D01*
X148005000Y-90590000D01*
X147938333Y-90556667D01*
X147771667Y-90556667D01*
X147705000Y-90590000D01*
X147671667Y-90623333D01*
X147638333Y-90690000D01*
X147638333Y-90890000D01*
X147671667Y-90956667D01*
X147705000Y-90990000D01*
X147638333Y-89750000D02*
X148338333Y-89750000D01*
X148338333Y-89583334D01*
X148305000Y-89483334D01*
X148238333Y-89416667D01*
X148171667Y-89383334D01*
X148038333Y-89350000D01*
X147938333Y-89350000D01*
X147805000Y-89383334D01*
X147738333Y-89416667D01*
X147671667Y-89483334D01*
X147638333Y-89583334D01*
X147638333Y-89750000D01*
X148338333Y-89116667D02*
X148338333Y-88683334D01*
X148071667Y-88916667D01*
X148071667Y-88816667D01*
X148038333Y-88750000D01*
X148005000Y-88716667D01*
X147938333Y-88683334D01*
X147771667Y-88683334D01*
X147705000Y-88716667D01*
X147671667Y-88750000D01*
X147638333Y-88816667D01*
X147638333Y-89016667D01*
X147671667Y-89083334D01*
X147705000Y-89116667D01*
X148271667Y-88416667D02*
X148305000Y-88383333D01*
X148338333Y-88316667D01*
X148338333Y-88150000D01*
X148305000Y-88083333D01*
X148271667Y-88050000D01*
X148205000Y-88016667D01*
X148138333Y-88016667D01*
X148038333Y-88050000D01*
X147638333Y-88450000D01*
X147638333Y-88016667D01*
X147638333Y-87210000D02*
X148338333Y-87210000D01*
X148338333Y-87043334D01*
X148305000Y-86943334D01*
X148238333Y-86876667D01*
X148171667Y-86843334D01*
X148038333Y-86810000D01*
X147938333Y-86810000D01*
X147805000Y-86843334D01*
X147738333Y-86876667D01*
X147671667Y-86943334D01*
X147638333Y-87043334D01*
X147638333Y-87210000D01*
X148338333Y-86576667D02*
X148338333Y-86143334D01*
X148071667Y-86376667D01*
X148071667Y-86276667D01*
X148038333Y-86210000D01*
X148005000Y-86176667D01*
X147938333Y-86143334D01*
X147771667Y-86143334D01*
X147705000Y-86176667D01*
X147671667Y-86210000D01*
X147638333Y-86276667D01*
X147638333Y-86476667D01*
X147671667Y-86543334D01*
X147705000Y-86576667D01*
X148338333Y-85510000D02*
X148338333Y-85843333D01*
X148005000Y-85876667D01*
X148038333Y-85843333D01*
X148071667Y-85776667D01*
X148071667Y-85610000D01*
X148038333Y-85543333D01*
X148005000Y-85510000D01*
X147938333Y-85476667D01*
X147771667Y-85476667D01*
X147705000Y-85510000D01*
X147671667Y-85543333D01*
X147638333Y-85610000D01*
X147638333Y-85776667D01*
X147671667Y-85843333D01*
X147705000Y-85876667D01*
X147638333Y-84670000D02*
X148338333Y-84670000D01*
X148338333Y-84503334D01*
X148305000Y-84403334D01*
X148238333Y-84336667D01*
X148171667Y-84303334D01*
X148038333Y-84270000D01*
X147938333Y-84270000D01*
X147805000Y-84303334D01*
X147738333Y-84336667D01*
X147671667Y-84403334D01*
X147638333Y-84503334D01*
X147638333Y-84670000D01*
X148338333Y-84036667D02*
X148338333Y-83603334D01*
X148071667Y-83836667D01*
X148071667Y-83736667D01*
X148038333Y-83670000D01*
X148005000Y-83636667D01*
X147938333Y-83603334D01*
X147771667Y-83603334D01*
X147705000Y-83636667D01*
X147671667Y-83670000D01*
X147638333Y-83736667D01*
X147638333Y-83936667D01*
X147671667Y-84003334D01*
X147705000Y-84036667D01*
X148105000Y-83003333D02*
X147638333Y-83003333D01*
X148371667Y-83170000D02*
X147871667Y-83336667D01*
X147871667Y-82903333D01*
X147671667Y-82146667D02*
X147638333Y-82046667D01*
X147638333Y-81880000D01*
X147671667Y-81813333D01*
X147705000Y-81780000D01*
X147771667Y-81746667D01*
X147838333Y-81746667D01*
X147905000Y-81780000D01*
X147938333Y-81813333D01*
X147971667Y-81880000D01*
X148005000Y-82013333D01*
X148038333Y-82080000D01*
X148071667Y-82113333D01*
X148138333Y-82146667D01*
X148205000Y-82146667D01*
X148271667Y-82113333D01*
X148305000Y-82080000D01*
X148338333Y-82013333D01*
X148338333Y-81846667D01*
X148305000Y-81746667D01*
X148338333Y-81546666D02*
X147638333Y-81313333D01*
X148338333Y-81080000D01*
X147638333Y-80846666D02*
X148338333Y-80846666D01*
X147638333Y-80446666D01*
X148338333Y-80446666D01*
X147671667Y-79590000D02*
X147638333Y-79490000D01*
X147638333Y-79323333D01*
X147671667Y-79256666D01*
X147705000Y-79223333D01*
X147771667Y-79190000D01*
X147838333Y-79190000D01*
X147905000Y-79223333D01*
X147938333Y-79256666D01*
X147971667Y-79323333D01*
X148005000Y-79456666D01*
X148038333Y-79523333D01*
X148071667Y-79556666D01*
X148138333Y-79590000D01*
X148205000Y-79590000D01*
X148271667Y-79556666D01*
X148305000Y-79523333D01*
X148338333Y-79456666D01*
X148338333Y-79290000D01*
X148305000Y-79190000D01*
X148338333Y-78989999D02*
X147638333Y-78756666D01*
X148338333Y-78523333D01*
X147638333Y-78289999D02*
X148338333Y-78289999D01*
X148338333Y-78023333D01*
X148305000Y-77956666D01*
X148271667Y-77923333D01*
X148205000Y-77889999D01*
X148105000Y-77889999D01*
X148038333Y-77923333D01*
X148005000Y-77956666D01*
X147971667Y-78023333D01*
X147971667Y-78289999D01*
X148005000Y-76716666D02*
X148005000Y-76483333D01*
X147638333Y-76383333D02*
X147638333Y-76716666D01*
X148338333Y-76716666D01*
X148338333Y-76383333D01*
X147638333Y-76083333D02*
X148338333Y-76083333D01*
X147638333Y-75683333D01*
X148338333Y-75683333D01*
X148338333Y-74526667D02*
X148338333Y-74093334D01*
X148071667Y-74326667D01*
X148071667Y-74226667D01*
X148038333Y-74160000D01*
X148005000Y-74126667D01*
X147938333Y-74093334D01*
X147771667Y-74093334D01*
X147705000Y-74126667D01*
X147671667Y-74160000D01*
X147638333Y-74226667D01*
X147638333Y-74426667D01*
X147671667Y-74493334D01*
X147705000Y-74526667D01*
X148338333Y-73893333D02*
X147638333Y-73660000D01*
X148338333Y-73426667D01*
X148338333Y-73260000D02*
X148338333Y-72826667D01*
X148071667Y-73060000D01*
X148071667Y-72960000D01*
X148038333Y-72893333D01*
X148005000Y-72860000D01*
X147938333Y-72826667D01*
X147771667Y-72826667D01*
X147705000Y-72860000D01*
X147671667Y-72893333D01*
X147638333Y-72960000D01*
X147638333Y-73160000D01*
X147671667Y-73226667D01*
X147705000Y-73260000D01*
X148305000Y-71653333D02*
X148338333Y-71719999D01*
X148338333Y-71819999D01*
X148305000Y-71919999D01*
X148238333Y-71986666D01*
X148171667Y-72019999D01*
X148038333Y-72053333D01*
X147938333Y-72053333D01*
X147805000Y-72019999D01*
X147738333Y-71986666D01*
X147671667Y-71919999D01*
X147638333Y-71819999D01*
X147638333Y-71753333D01*
X147671667Y-71653333D01*
X147705000Y-71619999D01*
X147938333Y-71619999D01*
X147938333Y-71753333D01*
X147638333Y-71319999D02*
X148338333Y-71319999D01*
X147638333Y-70919999D01*
X148338333Y-70919999D01*
X147638333Y-70586666D02*
X148338333Y-70586666D01*
X148338333Y-70420000D01*
X148305000Y-70320000D01*
X148238333Y-70253333D01*
X148171667Y-70220000D01*
X148038333Y-70186666D01*
X147938333Y-70186666D01*
X147805000Y-70220000D01*
X147738333Y-70253333D01*
X147671667Y-70320000D01*
X147638333Y-70420000D01*
X147638333Y-70586666D01*
D13*
G36*
X192713575Y-69257517D02*
X192701430Y-69322571D01*
X192689965Y-69380876D01*
X192679973Y-69428636D01*
X192672245Y-69462052D01*
X192667721Y-69477061D01*
X192654226Y-69487872D01*
X192624566Y-69503889D01*
X192583373Y-69523229D01*
X192535282Y-69544006D01*
X192484927Y-69564338D01*
X192436941Y-69582341D01*
X192395958Y-69596129D01*
X192366612Y-69603821D01*
X192354672Y-69604335D01*
X192340686Y-69596298D01*
X192311809Y-69577808D01*
X192271293Y-69551012D01*
X192222388Y-69518055D01*
X192175197Y-69485803D01*
X192121721Y-69449266D01*
X192073898Y-69417044D01*
X192034947Y-69391271D01*
X192008088Y-69374081D01*
X191997012Y-69367747D01*
X191984869Y-69373389D01*
X191960594Y-69392335D01*
X191927095Y-69421710D01*
X191887279Y-69458643D01*
X191844052Y-69500260D01*
X191800323Y-69543688D01*
X191758998Y-69586055D01*
X191722985Y-69624486D01*
X191695191Y-69656110D01*
X191678522Y-69678053D01*
X191675026Y-69685944D01*
X191681020Y-69700221D01*
X191697683Y-69729413D01*
X191723038Y-69770330D01*
X191755110Y-69819778D01*
X191790982Y-69873191D01*
X191827645Y-69927618D01*
X191859540Y-69976324D01*
X191884698Y-70016191D01*
X191901153Y-70044104D01*
X191906939Y-70056873D01*
X191902689Y-70071836D01*
X191891253Y-70102288D01*
X191874608Y-70143616D01*
X191854725Y-70191211D01*
X191833581Y-70240461D01*
X191813147Y-70286756D01*
X191795400Y-70325485D01*
X191782312Y-70352038D01*
X191776571Y-70361368D01*
X191764521Y-70365141D01*
X191734841Y-70372165D01*
X191691609Y-70381622D01*
X191638903Y-70392692D01*
X191580803Y-70404556D01*
X191521385Y-70416396D01*
X191464729Y-70427393D01*
X191414912Y-70436728D01*
X191376015Y-70443582D01*
X191352113Y-70447136D01*
X191347799Y-70447452D01*
X191345485Y-70457828D01*
X191343936Y-70486322D01*
X191343090Y-70528978D01*
X191342888Y-70581841D01*
X191343270Y-70640958D01*
X191344177Y-70702373D01*
X191345548Y-70762131D01*
X191347325Y-70816278D01*
X191349447Y-70860859D01*
X191351855Y-70891920D01*
X191354488Y-70905506D01*
X191354720Y-70905729D01*
X191368685Y-70909879D01*
X191400673Y-70917211D01*
X191446978Y-70926944D01*
X191503894Y-70938295D01*
X191559845Y-70949008D01*
X191624324Y-70961813D01*
X191681123Y-70974401D01*
X191726560Y-70985855D01*
X191756956Y-70995259D01*
X191768113Y-71000840D01*
X191777149Y-71016396D01*
X191791882Y-71047866D01*
X191810417Y-71090556D01*
X191830864Y-71139771D01*
X191851328Y-71190813D01*
X191869918Y-71238988D01*
X191884741Y-71279601D01*
X191893904Y-71307954D01*
X191895937Y-71317971D01*
X191889905Y-71331453D01*
X191873199Y-71359762D01*
X191847865Y-71399666D01*
X191815944Y-71447933D01*
X191785461Y-71492683D01*
X191749517Y-71545802D01*
X191718465Y-71593645D01*
X191694360Y-71632885D01*
X191679255Y-71660197D01*
X191675026Y-71671443D01*
X191682471Y-71683840D01*
X191702865Y-71708561D01*
X191733300Y-71742616D01*
X191770864Y-71783011D01*
X191812649Y-71826755D01*
X191855745Y-71870856D01*
X191897241Y-71912322D01*
X191934228Y-71948160D01*
X191963797Y-71975378D01*
X191983037Y-71990985D01*
X191988265Y-71993539D01*
X192000018Y-71987579D01*
X192026711Y-71971076D01*
X192065151Y-71946096D01*
X192112145Y-71914706D01*
X192150907Y-71888320D01*
X192203016Y-71852882D01*
X192249716Y-71821699D01*
X192287579Y-71797016D01*
X192313177Y-71781075D01*
X192322060Y-71776283D01*
X192340255Y-71777541D01*
X192371731Y-71787297D01*
X192410313Y-71803590D01*
X192414939Y-71805800D01*
X192453126Y-71822609D01*
X192484846Y-71833558D01*
X192504001Y-71836593D01*
X192505385Y-71836250D01*
X192512010Y-71825514D01*
X192525852Y-71797204D01*
X192545695Y-71754158D01*
X192570323Y-71699215D01*
X192598522Y-71635216D01*
X192629074Y-71564999D01*
X192660765Y-71491404D01*
X192692379Y-71417269D01*
X192722700Y-71345435D01*
X192750513Y-71278740D01*
X192774602Y-71220024D01*
X192793751Y-71172125D01*
X192806745Y-71137884D01*
X192812369Y-71120139D01*
X192812504Y-71118935D01*
X192804231Y-71109750D01*
X192782140Y-71091033D01*
X192750323Y-71066180D01*
X192735627Y-71055160D01*
X192658663Y-70986035D01*
X192600076Y-70907968D01*
X192560046Y-70823451D01*
X192538753Y-70734975D01*
X192536377Y-70645032D01*
X192553096Y-70556113D01*
X192589092Y-70470709D01*
X192644542Y-70391313D01*
X192684779Y-70349832D01*
X192760940Y-70293186D01*
X192842752Y-70255995D01*
X192927752Y-70237172D01*
X193013474Y-70235629D01*
X193097456Y-70250278D01*
X193177233Y-70280033D01*
X193250341Y-70323806D01*
X193314316Y-70380510D01*
X193366694Y-70449057D01*
X193405011Y-70528361D01*
X193426802Y-70617334D01*
X193430939Y-70679089D01*
X193420499Y-70778012D01*
X193389393Y-70869444D01*
X193337941Y-70952783D01*
X193266463Y-71027424D01*
X193231729Y-71055160D01*
X193197141Y-71081531D01*
X193170624Y-71103138D01*
X193156271Y-71116586D01*
X193154852Y-71118935D01*
X193159054Y-71133553D01*
X193170847Y-71165158D01*
X193189017Y-71210911D01*
X193212345Y-71267972D01*
X193239615Y-71333502D01*
X193269611Y-71404662D01*
X193301115Y-71478612D01*
X193332912Y-71552514D01*
X193363784Y-71623527D01*
X193392515Y-71688812D01*
X193417889Y-71745531D01*
X193438687Y-71790843D01*
X193453695Y-71821909D01*
X193461695Y-71835891D01*
X193462276Y-71836367D01*
X193479023Y-71834562D01*
X193509357Y-71824381D01*
X193547396Y-71807880D01*
X193556580Y-71803425D01*
X193635243Y-71764481D01*
X193802646Y-71879010D01*
X193856323Y-71915397D01*
X193903903Y-71947015D01*
X193942342Y-71971892D01*
X193968591Y-71988054D01*
X193979490Y-71993539D01*
X193989864Y-71986068D01*
X194013189Y-71965254D01*
X194046924Y-71933494D01*
X194088526Y-71893187D01*
X194135453Y-71846730D01*
X194140630Y-71841548D01*
X194187654Y-71793523D01*
X194228747Y-71749816D01*
X194261491Y-71713140D01*
X194283471Y-71686212D01*
X194292268Y-71671745D01*
X194292330Y-71671152D01*
X194286291Y-71656409D01*
X194269542Y-71626960D01*
X194244138Y-71586122D01*
X194212133Y-71537215D01*
X194181895Y-71492683D01*
X194146014Y-71439882D01*
X194114998Y-71392722D01*
X194090891Y-71354435D01*
X194075736Y-71328254D01*
X194071420Y-71317971D01*
X194075518Y-71300938D01*
X194086596Y-71268373D01*
X194102760Y-71224973D01*
X194122118Y-71175433D01*
X194142777Y-71124449D01*
X194162844Y-71076716D01*
X194180427Y-71036930D01*
X194193634Y-71009786D01*
X194199243Y-71000840D01*
X194214403Y-70993826D01*
X194247652Y-70984003D01*
X194295309Y-70972288D01*
X194353693Y-70959598D01*
X194407511Y-70949008D01*
X194470703Y-70936879D01*
X194526545Y-70925679D01*
X194571334Y-70916193D01*
X194601362Y-70909200D01*
X194612636Y-70905729D01*
X194615286Y-70893811D01*
X194617715Y-70864082D01*
X194619863Y-70820496D01*
X194621672Y-70767009D01*
X194623080Y-70707574D01*
X194624029Y-70646146D01*
X194624458Y-70586681D01*
X194624308Y-70533132D01*
X194623519Y-70489454D01*
X194622031Y-70459602D01*
X194619785Y-70447531D01*
X194619558Y-70447452D01*
X194602457Y-70445373D01*
X194568803Y-70439682D01*
X194522673Y-70431197D01*
X194468147Y-70420738D01*
X194409302Y-70409123D01*
X194350217Y-70397172D01*
X194294971Y-70385702D01*
X194247641Y-70375533D01*
X194212306Y-70367483D01*
X194193045Y-70362372D01*
X194190785Y-70361368D01*
X194182764Y-70347670D01*
X194168527Y-70318159D01*
X194150047Y-70277446D01*
X194129299Y-70230142D01*
X194108256Y-70180857D01*
X194088894Y-70134203D01*
X194073185Y-70094789D01*
X194063104Y-70067227D01*
X194060417Y-70056873D01*
X194066392Y-70043759D01*
X194083006Y-70015625D01*
X194108290Y-69975588D01*
X194140279Y-69926763D01*
X194176374Y-69873191D01*
X194213092Y-69818496D01*
X194245024Y-69769218D01*
X194270191Y-69728549D01*
X194286618Y-69699682D01*
X194292330Y-69685944D01*
X194284817Y-69672161D01*
X194264215Y-69646758D01*
X194233431Y-69612608D01*
X194195374Y-69572583D01*
X194152949Y-69529556D01*
X194109064Y-69486402D01*
X194066627Y-69445991D01*
X194028544Y-69411199D01*
X193997723Y-69384897D01*
X193977071Y-69369958D01*
X193970344Y-69367747D01*
X193956791Y-69375620D01*
X193928311Y-69393952D01*
X193888126Y-69420611D01*
X193839455Y-69453463D01*
X193792160Y-69485803D01*
X193738575Y-69522392D01*
X193690532Y-69554703D01*
X193651279Y-69580589D01*
X193624068Y-69597902D01*
X193612684Y-69604335D01*
X193595879Y-69602828D01*
X193563758Y-69593727D01*
X193520954Y-69578916D01*
X193472101Y-69560280D01*
X193421833Y-69539702D01*
X193374784Y-69519067D01*
X193335587Y-69500257D01*
X193308877Y-69485158D01*
X193299635Y-69477061D01*
X193294800Y-69460818D01*
X193286944Y-69426618D01*
X193276862Y-69378258D01*
X193265345Y-69319537D01*
X193253781Y-69257517D01*
X193217112Y-69055974D01*
X192750244Y-69055974D01*
X192713575Y-69257517D01*
X192713575Y-69257517D01*
G37*
X192713575Y-69257517D02*
X192701430Y-69322571D01*
X192689965Y-69380876D01*
X192679973Y-69428636D01*
X192672245Y-69462052D01*
X192667721Y-69477061D01*
X192654226Y-69487872D01*
X192624566Y-69503889D01*
X192583373Y-69523229D01*
X192535282Y-69544006D01*
X192484927Y-69564338D01*
X192436941Y-69582341D01*
X192395958Y-69596129D01*
X192366612Y-69603821D01*
X192354672Y-69604335D01*
X192340686Y-69596298D01*
X192311809Y-69577808D01*
X192271293Y-69551012D01*
X192222388Y-69518055D01*
X192175197Y-69485803D01*
X192121721Y-69449266D01*
X192073898Y-69417044D01*
X192034947Y-69391271D01*
X192008088Y-69374081D01*
X191997012Y-69367747D01*
X191984869Y-69373389D01*
X191960594Y-69392335D01*
X191927095Y-69421710D01*
X191887279Y-69458643D01*
X191844052Y-69500260D01*
X191800323Y-69543688D01*
X191758998Y-69586055D01*
X191722985Y-69624486D01*
X191695191Y-69656110D01*
X191678522Y-69678053D01*
X191675026Y-69685944D01*
X191681020Y-69700221D01*
X191697683Y-69729413D01*
X191723038Y-69770330D01*
X191755110Y-69819778D01*
X191790982Y-69873191D01*
X191827645Y-69927618D01*
X191859540Y-69976324D01*
X191884698Y-70016191D01*
X191901153Y-70044104D01*
X191906939Y-70056873D01*
X191902689Y-70071836D01*
X191891253Y-70102288D01*
X191874608Y-70143616D01*
X191854725Y-70191211D01*
X191833581Y-70240461D01*
X191813147Y-70286756D01*
X191795400Y-70325485D01*
X191782312Y-70352038D01*
X191776571Y-70361368D01*
X191764521Y-70365141D01*
X191734841Y-70372165D01*
X191691609Y-70381622D01*
X191638903Y-70392692D01*
X191580803Y-70404556D01*
X191521385Y-70416396D01*
X191464729Y-70427393D01*
X191414912Y-70436728D01*
X191376015Y-70443582D01*
X191352113Y-70447136D01*
X191347799Y-70447452D01*
X191345485Y-70457828D01*
X191343936Y-70486322D01*
X191343090Y-70528978D01*
X191342888Y-70581841D01*
X191343270Y-70640958D01*
X191344177Y-70702373D01*
X191345548Y-70762131D01*
X191347325Y-70816278D01*
X191349447Y-70860859D01*
X191351855Y-70891920D01*
X191354488Y-70905506D01*
X191354720Y-70905729D01*
X191368685Y-70909879D01*
X191400673Y-70917211D01*
X191446978Y-70926944D01*
X191503894Y-70938295D01*
X191559845Y-70949008D01*
X191624324Y-70961813D01*
X191681123Y-70974401D01*
X191726560Y-70985855D01*
X191756956Y-70995259D01*
X191768113Y-71000840D01*
X191777149Y-71016396D01*
X191791882Y-71047866D01*
X191810417Y-71090556D01*
X191830864Y-71139771D01*
X191851328Y-71190813D01*
X191869918Y-71238988D01*
X191884741Y-71279601D01*
X191893904Y-71307954D01*
X191895937Y-71317971D01*
X191889905Y-71331453D01*
X191873199Y-71359762D01*
X191847865Y-71399666D01*
X191815944Y-71447933D01*
X191785461Y-71492683D01*
X191749517Y-71545802D01*
X191718465Y-71593645D01*
X191694360Y-71632885D01*
X191679255Y-71660197D01*
X191675026Y-71671443D01*
X191682471Y-71683840D01*
X191702865Y-71708561D01*
X191733300Y-71742616D01*
X191770864Y-71783011D01*
X191812649Y-71826755D01*
X191855745Y-71870856D01*
X191897241Y-71912322D01*
X191934228Y-71948160D01*
X191963797Y-71975378D01*
X191983037Y-71990985D01*
X191988265Y-71993539D01*
X192000018Y-71987579D01*
X192026711Y-71971076D01*
X192065151Y-71946096D01*
X192112145Y-71914706D01*
X192150907Y-71888320D01*
X192203016Y-71852882D01*
X192249716Y-71821699D01*
X192287579Y-71797016D01*
X192313177Y-71781075D01*
X192322060Y-71776283D01*
X192340255Y-71777541D01*
X192371731Y-71787297D01*
X192410313Y-71803590D01*
X192414939Y-71805800D01*
X192453126Y-71822609D01*
X192484846Y-71833558D01*
X192504001Y-71836593D01*
X192505385Y-71836250D01*
X192512010Y-71825514D01*
X192525852Y-71797204D01*
X192545695Y-71754158D01*
X192570323Y-71699215D01*
X192598522Y-71635216D01*
X192629074Y-71564999D01*
X192660765Y-71491404D01*
X192692379Y-71417269D01*
X192722700Y-71345435D01*
X192750513Y-71278740D01*
X192774602Y-71220024D01*
X192793751Y-71172125D01*
X192806745Y-71137884D01*
X192812369Y-71120139D01*
X192812504Y-71118935D01*
X192804231Y-71109750D01*
X192782140Y-71091033D01*
X192750323Y-71066180D01*
X192735627Y-71055160D01*
X192658663Y-70986035D01*
X192600076Y-70907968D01*
X192560046Y-70823451D01*
X192538753Y-70734975D01*
X192536377Y-70645032D01*
X192553096Y-70556113D01*
X192589092Y-70470709D01*
X192644542Y-70391313D01*
X192684779Y-70349832D01*
X192760940Y-70293186D01*
X192842752Y-70255995D01*
X192927752Y-70237172D01*
X193013474Y-70235629D01*
X193097456Y-70250278D01*
X193177233Y-70280033D01*
X193250341Y-70323806D01*
X193314316Y-70380510D01*
X193366694Y-70449057D01*
X193405011Y-70528361D01*
X193426802Y-70617334D01*
X193430939Y-70679089D01*
X193420499Y-70778012D01*
X193389393Y-70869444D01*
X193337941Y-70952783D01*
X193266463Y-71027424D01*
X193231729Y-71055160D01*
X193197141Y-71081531D01*
X193170624Y-71103138D01*
X193156271Y-71116586D01*
X193154852Y-71118935D01*
X193159054Y-71133553D01*
X193170847Y-71165158D01*
X193189017Y-71210911D01*
X193212345Y-71267972D01*
X193239615Y-71333502D01*
X193269611Y-71404662D01*
X193301115Y-71478612D01*
X193332912Y-71552514D01*
X193363784Y-71623527D01*
X193392515Y-71688812D01*
X193417889Y-71745531D01*
X193438687Y-71790843D01*
X193453695Y-71821909D01*
X193461695Y-71835891D01*
X193462276Y-71836367D01*
X193479023Y-71834562D01*
X193509357Y-71824381D01*
X193547396Y-71807880D01*
X193556580Y-71803425D01*
X193635243Y-71764481D01*
X193802646Y-71879010D01*
X193856323Y-71915397D01*
X193903903Y-71947015D01*
X193942342Y-71971892D01*
X193968591Y-71988054D01*
X193979490Y-71993539D01*
X193989864Y-71986068D01*
X194013189Y-71965254D01*
X194046924Y-71933494D01*
X194088526Y-71893187D01*
X194135453Y-71846730D01*
X194140630Y-71841548D01*
X194187654Y-71793523D01*
X194228747Y-71749816D01*
X194261491Y-71713140D01*
X194283471Y-71686212D01*
X194292268Y-71671745D01*
X194292330Y-71671152D01*
X194286291Y-71656409D01*
X194269542Y-71626960D01*
X194244138Y-71586122D01*
X194212133Y-71537215D01*
X194181895Y-71492683D01*
X194146014Y-71439882D01*
X194114998Y-71392722D01*
X194090891Y-71354435D01*
X194075736Y-71328254D01*
X194071420Y-71317971D01*
X194075518Y-71300938D01*
X194086596Y-71268373D01*
X194102760Y-71224973D01*
X194122118Y-71175433D01*
X194142777Y-71124449D01*
X194162844Y-71076716D01*
X194180427Y-71036930D01*
X194193634Y-71009786D01*
X194199243Y-71000840D01*
X194214403Y-70993826D01*
X194247652Y-70984003D01*
X194295309Y-70972288D01*
X194353693Y-70959598D01*
X194407511Y-70949008D01*
X194470703Y-70936879D01*
X194526545Y-70925679D01*
X194571334Y-70916193D01*
X194601362Y-70909200D01*
X194612636Y-70905729D01*
X194615286Y-70893811D01*
X194617715Y-70864082D01*
X194619863Y-70820496D01*
X194621672Y-70767009D01*
X194623080Y-70707574D01*
X194624029Y-70646146D01*
X194624458Y-70586681D01*
X194624308Y-70533132D01*
X194623519Y-70489454D01*
X194622031Y-70459602D01*
X194619785Y-70447531D01*
X194619558Y-70447452D01*
X194602457Y-70445373D01*
X194568803Y-70439682D01*
X194522673Y-70431197D01*
X194468147Y-70420738D01*
X194409302Y-70409123D01*
X194350217Y-70397172D01*
X194294971Y-70385702D01*
X194247641Y-70375533D01*
X194212306Y-70367483D01*
X194193045Y-70362372D01*
X194190785Y-70361368D01*
X194182764Y-70347670D01*
X194168527Y-70318159D01*
X194150047Y-70277446D01*
X194129299Y-70230142D01*
X194108256Y-70180857D01*
X194088894Y-70134203D01*
X194073185Y-70094789D01*
X194063104Y-70067227D01*
X194060417Y-70056873D01*
X194066392Y-70043759D01*
X194083006Y-70015625D01*
X194108290Y-69975588D01*
X194140279Y-69926763D01*
X194176374Y-69873191D01*
X194213092Y-69818496D01*
X194245024Y-69769218D01*
X194270191Y-69728549D01*
X194286618Y-69699682D01*
X194292330Y-69685944D01*
X194284817Y-69672161D01*
X194264215Y-69646758D01*
X194233431Y-69612608D01*
X194195374Y-69572583D01*
X194152949Y-69529556D01*
X194109064Y-69486402D01*
X194066627Y-69445991D01*
X194028544Y-69411199D01*
X193997723Y-69384897D01*
X193977071Y-69369958D01*
X193970344Y-69367747D01*
X193956791Y-69375620D01*
X193928311Y-69393952D01*
X193888126Y-69420611D01*
X193839455Y-69453463D01*
X193792160Y-69485803D01*
X193738575Y-69522392D01*
X193690532Y-69554703D01*
X193651279Y-69580589D01*
X193624068Y-69597902D01*
X193612684Y-69604335D01*
X193595879Y-69602828D01*
X193563758Y-69593727D01*
X193520954Y-69578916D01*
X193472101Y-69560280D01*
X193421833Y-69539702D01*
X193374784Y-69519067D01*
X193335587Y-69500257D01*
X193308877Y-69485158D01*
X193299635Y-69477061D01*
X193294800Y-69460818D01*
X193286944Y-69426618D01*
X193276862Y-69378258D01*
X193265345Y-69319537D01*
X193253781Y-69257517D01*
X193217112Y-69055974D01*
X192750244Y-69055974D01*
X192713575Y-69257517D01*
%LPC*%
D14*
X149860000Y-71120000D03*
D15*
X149860000Y-73660000D03*
X149860000Y-76200000D03*
X149860000Y-78740000D03*
X149860000Y-81280000D03*
X149860000Y-83820000D03*
X149860000Y-86360000D03*
X149860000Y-88900000D03*
X149860000Y-91440000D03*
X149860000Y-93980000D03*
X149860000Y-96520000D03*
X149860000Y-99060000D03*
X149860000Y-101600000D03*
X149860000Y-104140000D03*
X149860000Y-106680000D03*
X149860000Y-109220000D03*
X149860000Y-111760000D03*
X192976500Y-73660000D03*
X192976500Y-76200000D03*
X192976500Y-78740000D03*
X192976500Y-81280000D03*
X192976500Y-83820000D03*
X192976500Y-86360000D03*
X192976500Y-88900000D03*
X192976500Y-91440000D03*
X192976500Y-93980000D03*
X192976500Y-96520000D03*
X192976500Y-99060000D03*
X192976500Y-101600000D03*
X192976500Y-104140000D03*
X192976500Y-106680000D03*
X192976500Y-109220000D03*
X192976500Y-111760000D03*
M02*
