G04 #@! TF.FileFunction,Copper,L2,Bot,Signal*
%FSLAX46Y46*%
G04 Gerber Fmt 4.6, Leading zero omitted, Abs format (unit mm)*
G04 Created by KiCad (PCBNEW 4.0.6-e0-6349~52~ubuntu16.10.1) date Fri Apr 21 00:00:01 2017*
%MOMM*%
%LPD*%
G01*
G04 APERTURE LIST*
%ADD10C,0.100000*%
%ADD11R,1.700000X1.700000*%
%ADD12O,1.700000X1.700000*%
%ADD13C,0.600000*%
%ADD14C,0.250000*%
%ADD15C,0.200000*%
G04 APERTURE END LIST*
D10*
D11*
X149860000Y-71120000D03*
D12*
X149860000Y-73660000D03*
X149860000Y-76200000D03*
X149860000Y-78740000D03*
X149860000Y-81280000D03*
X149860000Y-83820000D03*
X149860000Y-86360000D03*
X149860000Y-88900000D03*
X149860000Y-91440000D03*
X149860000Y-93980000D03*
X149860000Y-96520000D03*
X149860000Y-99060000D03*
X149860000Y-101600000D03*
X149860000Y-104140000D03*
X149860000Y-106680000D03*
X149860000Y-109220000D03*
X149860000Y-111760000D03*
X192976500Y-73660000D03*
X192976500Y-76200000D03*
X192976500Y-78740000D03*
X192976500Y-81280000D03*
X192976500Y-83820000D03*
X192976500Y-86360000D03*
X192976500Y-88900000D03*
X192976500Y-91440000D03*
X192976500Y-93980000D03*
X192976500Y-96520000D03*
X192976500Y-99060000D03*
X192976500Y-101600000D03*
X192976500Y-104140000D03*
X192976500Y-106680000D03*
X192976500Y-109220000D03*
X192976500Y-111760000D03*
D13*
X169799000Y-106476800D03*
X165328600Y-72593200D03*
X164871400Y-94843600D03*
X179451000Y-107899200D03*
X161036000Y-81991200D03*
X161036000Y-80721200D03*
X161036000Y-79451200D03*
X161036000Y-78181200D03*
X161061400Y-75641200D03*
X161061400Y-76911200D03*
X161061400Y-73101200D03*
X161061400Y-74371200D03*
X194894200Y-69977000D03*
X189484000Y-69977000D03*
X186309000Y-69977000D03*
X183134000Y-69977000D03*
X179959000Y-69977000D03*
X176784000Y-69977000D03*
X173609000Y-69977000D03*
X170434000Y-69977000D03*
X167259000Y-69977000D03*
X164084000Y-69977000D03*
X160909000Y-69977000D03*
X157734000Y-69977000D03*
X154559000Y-69977000D03*
X151384000Y-69977000D03*
X182473600Y-83261200D03*
X182422800Y-84734400D03*
X182499000Y-81991200D03*
X182499000Y-80721200D03*
X182499000Y-78359000D03*
X182499000Y-75641200D03*
X182727600Y-71170800D03*
X182499000Y-73101200D03*
X182499000Y-74371200D03*
X182499000Y-76911200D03*
X157289500Y-91630500D03*
X178282600Y-103987600D03*
X167106600Y-105460800D03*
X166903400Y-106984800D03*
X180822600Y-104394000D03*
X180873400Y-100838000D03*
X171729400Y-99974400D03*
X163855400Y-104749600D03*
X160909000Y-93929200D03*
X177977800Y-105003600D03*
X175488600Y-105156000D03*
X184467500Y-74993500D03*
X180784500Y-92837000D03*
X183769000Y-76263500D03*
X179006500Y-92837000D03*
X163601400Y-115570000D03*
X171780200Y-103759000D03*
X166039800Y-75336400D03*
X170713400Y-99263200D03*
X184607200Y-106349800D03*
X181483000Y-97078800D03*
X175641000Y-99923600D03*
X186563000Y-113919000D03*
X173405800Y-93268800D03*
X178841400Y-87782400D03*
X181864000Y-107188000D03*
X168529000Y-117602000D03*
D14*
X169799000Y-106476800D02*
X171221400Y-107899200D01*
X165328600Y-94386400D02*
X165328600Y-72593200D01*
X164871400Y-94843600D02*
X165328600Y-94386400D01*
X171221400Y-107899200D02*
X179451000Y-107899200D01*
X161036000Y-80721200D02*
X161036000Y-81991200D01*
X161036000Y-79451200D02*
X161036000Y-80721200D01*
X161036000Y-78181200D02*
X161036000Y-79451200D01*
X161061400Y-76911200D02*
X161061400Y-78155800D01*
X161061400Y-78155800D02*
X161036000Y-78181200D01*
X161061400Y-75641200D02*
X161061400Y-76911200D01*
X161061400Y-74371200D02*
X161061400Y-75641200D01*
X161061400Y-73101200D02*
X161061400Y-74371200D01*
X160909000Y-72948800D02*
X161061400Y-73101200D01*
X160909000Y-69977000D02*
X160909000Y-72948800D01*
X189484000Y-69977000D02*
X194894200Y-69977000D01*
X183134000Y-69977000D02*
X186309000Y-69977000D01*
X176784000Y-69977000D02*
X179959000Y-69977000D01*
X170434000Y-69977000D02*
X173609000Y-69977000D01*
X164084000Y-69977000D02*
X167259000Y-69977000D01*
X157734000Y-69977000D02*
X160909000Y-69977000D01*
X151384000Y-69977000D02*
X154559000Y-69977000D01*
X182473600Y-83261200D02*
X182473600Y-84683600D01*
X182499000Y-83235800D02*
X182473600Y-83261200D01*
X182499000Y-81991200D02*
X182499000Y-83235800D01*
X182473600Y-84683600D02*
X182422800Y-84734400D01*
X182499000Y-80721200D02*
X182499000Y-81991200D01*
X182499000Y-78359000D02*
X182499000Y-80721200D01*
X182499000Y-76911200D02*
X182499000Y-78359000D01*
X182499000Y-75641200D02*
X182499000Y-76911200D01*
X182499000Y-74371200D02*
X182499000Y-73101200D01*
X182727600Y-71170800D02*
X182499000Y-71399400D01*
X182499000Y-71399400D02*
X182499000Y-73101200D01*
X182499000Y-75641200D02*
X182499000Y-74371200D01*
X192976500Y-111760000D02*
X189928500Y-111760000D01*
X183134000Y-106705400D02*
X180822600Y-104394000D01*
X183134000Y-112522000D02*
X183134000Y-106705400D01*
X185801000Y-115189000D02*
X183134000Y-112522000D01*
X186499500Y-115189000D02*
X185801000Y-115189000D01*
X189928500Y-111760000D02*
X186499500Y-115189000D01*
X159588200Y-93929200D02*
X160909000Y-93929200D01*
X157289500Y-91630500D02*
X159588200Y-93929200D01*
X180822600Y-104394000D02*
X178689000Y-104394000D01*
X178689000Y-104394000D02*
X178282600Y-103987600D01*
X166903400Y-106984800D02*
X166903400Y-105664000D01*
X166903400Y-105664000D02*
X167106600Y-105460800D01*
X163855400Y-109423200D02*
X164465000Y-109423200D01*
X164465000Y-109423200D02*
X166903400Y-106984800D01*
X171729400Y-99974400D02*
X172491400Y-99974400D01*
X180060600Y-101650800D02*
X180873400Y-100838000D01*
X174167800Y-101650800D02*
X180060600Y-101650800D01*
X172491400Y-99974400D02*
X174167800Y-101650800D01*
X171729400Y-99974400D02*
X163855400Y-99974400D01*
X163855400Y-99974400D02*
X163906200Y-99974400D01*
X163906200Y-99974400D02*
X163855400Y-99974400D01*
X180009800Y-99974400D02*
X180873400Y-100838000D01*
X180873400Y-104343200D02*
X180873400Y-100838000D01*
X180822600Y-104394000D02*
X180873400Y-104343200D01*
X163855400Y-104749600D02*
X163855400Y-109423200D01*
X160909000Y-93929200D02*
X160959800Y-93929200D01*
X163855400Y-96824800D02*
X163855400Y-99974400D01*
X160959800Y-93929200D02*
X163855400Y-96824800D01*
X163855400Y-99974400D02*
X163855400Y-104749600D01*
X149860000Y-70485000D02*
X149225000Y-70485000D01*
X175641000Y-105003600D02*
X177977800Y-105003600D01*
X175488600Y-105156000D02*
X175641000Y-105003600D01*
X184467500Y-89154000D02*
X184467500Y-74993500D01*
X180784500Y-92837000D02*
X184467500Y-89154000D01*
X183769000Y-88074500D02*
X183769000Y-76263500D01*
X179006500Y-92837000D02*
X183769000Y-88074500D01*
X168427400Y-110744000D02*
X163601400Y-115570000D01*
X168427400Y-105333800D02*
X168427400Y-110744000D01*
X169392600Y-104368600D02*
X168427400Y-105333800D01*
X171170600Y-104368600D02*
X169392600Y-104368600D01*
X171780200Y-103759000D02*
X171170600Y-104368600D01*
X166039800Y-94589600D02*
X166039800Y-75336400D01*
X170713400Y-99263200D02*
X166039800Y-94589600D01*
X192976500Y-91440000D02*
X192659000Y-91440000D01*
X192659000Y-91440000D02*
X185597800Y-98501200D01*
X185597800Y-105359200D02*
X184607200Y-106349800D01*
X185597800Y-98501200D02*
X185597800Y-105359200D01*
X193014600Y-104140000D02*
X193014600Y-104241600D01*
X193040000Y-104140000D02*
X193040000Y-104267000D01*
X178485800Y-97078800D02*
X181483000Y-97078800D01*
X175641000Y-99923600D02*
X178485800Y-97078800D01*
X186563000Y-113919000D02*
X190754000Y-109728000D01*
X190754000Y-109728000D02*
X190754000Y-103822500D01*
X190754000Y-103822500D02*
X192976500Y-101600000D01*
X173405800Y-93218000D02*
X173405800Y-93268800D01*
X178841400Y-87782400D02*
X173405800Y-93218000D01*
X171640500Y-112585500D02*
X176466500Y-112585500D01*
X181864000Y-107188000D02*
X176466500Y-112585500D01*
X171640500Y-112585500D02*
X168529000Y-115697000D01*
X168529000Y-115697000D02*
X168529000Y-117602000D01*
D15*
G36*
X148494562Y-69925596D02*
X148402000Y-70149062D01*
X148402000Y-70814000D01*
X148554000Y-70966000D01*
X149706000Y-70966000D01*
X149706000Y-70946000D01*
X150014000Y-70946000D01*
X150014000Y-70966000D01*
X151166000Y-70966000D01*
X151318000Y-70814000D01*
X151318000Y-70149062D01*
X151225438Y-69925596D01*
X151186342Y-69886500D01*
X195116500Y-69886500D01*
X195116500Y-118364000D01*
X195125327Y-118408374D01*
X195066585Y-118703689D01*
X194874166Y-118991666D01*
X194586189Y-119184085D01*
X194322626Y-119236511D01*
X194310000Y-119234000D01*
X181422830Y-119234000D01*
X180541665Y-118352835D01*
X180420007Y-118271545D01*
X180276500Y-118243000D01*
X171740785Y-118243000D01*
X171615100Y-118218000D01*
X171462026Y-118248448D01*
X171332257Y-118335157D01*
X170433414Y-119234000D01*
X148780500Y-119234000D01*
X148704376Y-119249142D01*
X148377311Y-119184085D01*
X148089334Y-118991666D01*
X147896915Y-118703689D01*
X147838173Y-118408376D01*
X147847000Y-118364000D01*
X147847000Y-116509800D01*
X148249976Y-116509800D01*
X148419902Y-117364073D01*
X148903809Y-118088291D01*
X149628027Y-118572198D01*
X150482300Y-118742124D01*
X151336573Y-118572198D01*
X152060791Y-118088291D01*
X152306324Y-117720824D01*
X167928896Y-117720824D01*
X168020048Y-117941429D01*
X168188683Y-118110359D01*
X168409129Y-118201896D01*
X168647824Y-118202104D01*
X168868429Y-118110952D01*
X169037359Y-117942317D01*
X169128896Y-117721871D01*
X169129104Y-117483176D01*
X169037952Y-117262571D01*
X168954000Y-117178472D01*
X168954000Y-116522500D01*
X190134576Y-116522500D01*
X190304502Y-117376773D01*
X190788409Y-118100991D01*
X191512627Y-118584898D01*
X192366900Y-118754824D01*
X193221173Y-118584898D01*
X193945391Y-118100991D01*
X194429298Y-117376773D01*
X194599224Y-116522500D01*
X194429298Y-115668227D01*
X193945391Y-114944009D01*
X193221173Y-114460102D01*
X192366900Y-114290176D01*
X191512627Y-114460102D01*
X190788409Y-114944009D01*
X190304502Y-115668227D01*
X190134576Y-116522500D01*
X168954000Y-116522500D01*
X168954000Y-115873040D01*
X170789216Y-114037824D01*
X185962896Y-114037824D01*
X186054048Y-114258429D01*
X186222683Y-114427359D01*
X186443129Y-114518896D01*
X186681824Y-114519104D01*
X186902429Y-114427952D01*
X187071359Y-114259317D01*
X187162896Y-114038871D01*
X187163000Y-113920040D01*
X188944130Y-112138910D01*
X191568597Y-112138910D01*
X191713023Y-112487616D01*
X192087646Y-112915741D01*
X192597589Y-113167915D01*
X192822500Y-113057856D01*
X192822500Y-111914000D01*
X193130500Y-111914000D01*
X193130500Y-113057856D01*
X193355411Y-113167915D01*
X193865354Y-112915741D01*
X194239977Y-112487616D01*
X194384403Y-112138910D01*
X194273389Y-111914000D01*
X193130500Y-111914000D01*
X192822500Y-111914000D01*
X191679611Y-111914000D01*
X191568597Y-112138910D01*
X188944130Y-112138910D01*
X189701950Y-111381090D01*
X191568597Y-111381090D01*
X191679611Y-111606000D01*
X192822500Y-111606000D01*
X192822500Y-111586000D01*
X193130500Y-111586000D01*
X193130500Y-111606000D01*
X194273389Y-111606000D01*
X194384403Y-111381090D01*
X194239977Y-111032384D01*
X193865354Y-110604259D01*
X193355411Y-110352085D01*
X193130502Y-110462143D01*
X193130502Y-110343848D01*
X193439116Y-110282461D01*
X193812203Y-110033173D01*
X194061491Y-109660086D01*
X194149030Y-109220000D01*
X194061491Y-108779914D01*
X193812203Y-108406827D01*
X193439116Y-108157539D01*
X192999030Y-108070000D01*
X192953970Y-108070000D01*
X192513884Y-108157539D01*
X192140797Y-108406827D01*
X191891509Y-108779914D01*
X191803970Y-109220000D01*
X191891509Y-109660086D01*
X192140797Y-110033173D01*
X192513884Y-110282461D01*
X192822498Y-110343848D01*
X192822498Y-110462143D01*
X192597589Y-110352085D01*
X192087646Y-110604259D01*
X191713023Y-111032384D01*
X191568597Y-111381090D01*
X189701950Y-111381090D01*
X191054520Y-110028520D01*
X191146649Y-109890641D01*
X191152016Y-109863657D01*
X191179000Y-109728000D01*
X191179000Y-106680000D01*
X191803970Y-106680000D01*
X191891509Y-107120086D01*
X192140797Y-107493173D01*
X192513884Y-107742461D01*
X192953970Y-107830000D01*
X192999030Y-107830000D01*
X193439116Y-107742461D01*
X193812203Y-107493173D01*
X194061491Y-107120086D01*
X194149030Y-106680000D01*
X194061491Y-106239914D01*
X193812203Y-105866827D01*
X193439116Y-105617539D01*
X192999030Y-105530000D01*
X192953970Y-105530000D01*
X192513884Y-105617539D01*
X192140797Y-105866827D01*
X191891509Y-106239914D01*
X191803970Y-106680000D01*
X191179000Y-106680000D01*
X191179000Y-104140000D01*
X191803970Y-104140000D01*
X191891509Y-104580086D01*
X192140797Y-104953173D01*
X192513884Y-105202461D01*
X192953970Y-105290000D01*
X192999030Y-105290000D01*
X193439116Y-105202461D01*
X193812203Y-104953173D01*
X194061491Y-104580086D01*
X194149030Y-104140000D01*
X194061491Y-103699914D01*
X193812203Y-103326827D01*
X193439116Y-103077539D01*
X192999030Y-102990000D01*
X192953970Y-102990000D01*
X192513884Y-103077539D01*
X192140797Y-103326827D01*
X191891509Y-103699914D01*
X191803970Y-104140000D01*
X191179000Y-104140000D01*
X191179000Y-103998540D01*
X192514881Y-102662659D01*
X192953970Y-102750000D01*
X192999030Y-102750000D01*
X193439116Y-102662461D01*
X193812203Y-102413173D01*
X194061491Y-102040086D01*
X194149030Y-101600000D01*
X194061491Y-101159914D01*
X193812203Y-100786827D01*
X193439116Y-100537539D01*
X192999030Y-100450000D01*
X192953970Y-100450000D01*
X192513884Y-100537539D01*
X192140797Y-100786827D01*
X191891509Y-101159914D01*
X191803970Y-101600000D01*
X191891509Y-102040086D01*
X191909079Y-102066381D01*
X190453480Y-103521980D01*
X190361351Y-103659859D01*
X190361351Y-103659860D01*
X190329000Y-103822500D01*
X190329000Y-109551960D01*
X186561961Y-113318999D01*
X186444176Y-113318896D01*
X186223571Y-113410048D01*
X186054641Y-113578683D01*
X185963104Y-113799129D01*
X185962896Y-114037824D01*
X170789216Y-114037824D01*
X171816541Y-113010500D01*
X176466500Y-113010500D01*
X176602157Y-112983516D01*
X176629141Y-112978149D01*
X176767020Y-112886020D01*
X181865040Y-107788001D01*
X181982824Y-107788104D01*
X182203429Y-107696952D01*
X182372359Y-107528317D01*
X182463896Y-107307871D01*
X182464104Y-107069176D01*
X182372952Y-106848571D01*
X182204317Y-106679641D01*
X181983871Y-106588104D01*
X181745176Y-106587896D01*
X181524571Y-106679048D01*
X181355641Y-106847683D01*
X181264104Y-107068129D01*
X181264000Y-107186959D01*
X176290460Y-112160500D01*
X171640500Y-112160500D01*
X171477860Y-112192851D01*
X171477858Y-112192852D01*
X171477859Y-112192852D01*
X171339979Y-112284980D01*
X168228480Y-115396480D01*
X168136351Y-115534359D01*
X168136351Y-115534360D01*
X168104000Y-115697000D01*
X168104000Y-117178470D01*
X168020641Y-117261683D01*
X167929104Y-117482129D01*
X167928896Y-117720824D01*
X152306324Y-117720824D01*
X152544698Y-117364073D01*
X152714624Y-116509800D01*
X152551322Y-115688824D01*
X163001296Y-115688824D01*
X163092448Y-115909429D01*
X163261083Y-116078359D01*
X163481529Y-116169896D01*
X163720224Y-116170104D01*
X163940829Y-116078952D01*
X164109759Y-115910317D01*
X164201296Y-115689871D01*
X164201400Y-115571041D01*
X168727921Y-111044520D01*
X168820049Y-110906641D01*
X168852400Y-110744000D01*
X168852400Y-106595624D01*
X169198896Y-106595624D01*
X169290048Y-106816229D01*
X169458683Y-106985159D01*
X169679129Y-107076696D01*
X169797959Y-107076800D01*
X170920879Y-108199720D01*
X170979111Y-108238629D01*
X171058760Y-108291849D01*
X171221400Y-108324200D01*
X179027470Y-108324200D01*
X179110683Y-108407559D01*
X179331129Y-108499096D01*
X179569824Y-108499304D01*
X179790429Y-108408152D01*
X179959359Y-108239517D01*
X180050896Y-108019071D01*
X180051104Y-107780376D01*
X179959952Y-107559771D01*
X179791317Y-107390841D01*
X179570871Y-107299304D01*
X179332176Y-107299096D01*
X179111571Y-107390248D01*
X179027472Y-107474200D01*
X171397441Y-107474200D01*
X170399001Y-106475761D01*
X170399007Y-106468624D01*
X184007096Y-106468624D01*
X184098248Y-106689229D01*
X184266883Y-106858159D01*
X184487329Y-106949696D01*
X184726024Y-106949904D01*
X184946629Y-106858752D01*
X185115559Y-106690117D01*
X185207096Y-106469671D01*
X185207200Y-106350840D01*
X185898320Y-105659720D01*
X185990449Y-105521841D01*
X186003442Y-105456520D01*
X186022800Y-105359200D01*
X186022800Y-99060000D01*
X191803970Y-99060000D01*
X191891509Y-99500086D01*
X192140797Y-99873173D01*
X192513884Y-100122461D01*
X192953970Y-100210000D01*
X192999030Y-100210000D01*
X193439116Y-100122461D01*
X193812203Y-99873173D01*
X194061491Y-99500086D01*
X194149030Y-99060000D01*
X194061491Y-98619914D01*
X193812203Y-98246827D01*
X193439116Y-97997539D01*
X192999030Y-97910000D01*
X192953970Y-97910000D01*
X192513884Y-97997539D01*
X192140797Y-98246827D01*
X191891509Y-98619914D01*
X191803970Y-99060000D01*
X186022800Y-99060000D01*
X186022800Y-98677240D01*
X188180040Y-96520000D01*
X191803970Y-96520000D01*
X191891509Y-96960086D01*
X192140797Y-97333173D01*
X192513884Y-97582461D01*
X192953970Y-97670000D01*
X192999030Y-97670000D01*
X193439116Y-97582461D01*
X193812203Y-97333173D01*
X194061491Y-96960086D01*
X194149030Y-96520000D01*
X194061491Y-96079914D01*
X193812203Y-95706827D01*
X193439116Y-95457539D01*
X192999030Y-95370000D01*
X192953970Y-95370000D01*
X192513884Y-95457539D01*
X192140797Y-95706827D01*
X191891509Y-96079914D01*
X191803970Y-96520000D01*
X188180040Y-96520000D01*
X190720040Y-93980000D01*
X191803970Y-93980000D01*
X191891509Y-94420086D01*
X192140797Y-94793173D01*
X192513884Y-95042461D01*
X192953970Y-95130000D01*
X192999030Y-95130000D01*
X193439116Y-95042461D01*
X193812203Y-94793173D01*
X194061491Y-94420086D01*
X194149030Y-93980000D01*
X194061491Y-93539914D01*
X193812203Y-93166827D01*
X193439116Y-92917539D01*
X192999030Y-92830000D01*
X192953970Y-92830000D01*
X192513884Y-92917539D01*
X192140797Y-93166827D01*
X191891509Y-93539914D01*
X191803970Y-93980000D01*
X190720040Y-93980000D01*
X192324273Y-92375768D01*
X192513884Y-92502461D01*
X192953970Y-92590000D01*
X192999030Y-92590000D01*
X193439116Y-92502461D01*
X193812203Y-92253173D01*
X194061491Y-91880086D01*
X194149030Y-91440000D01*
X194061491Y-90999914D01*
X193812203Y-90626827D01*
X193439116Y-90377539D01*
X192999030Y-90290000D01*
X192953970Y-90290000D01*
X192513884Y-90377539D01*
X192140797Y-90626827D01*
X191891509Y-90999914D01*
X191803970Y-91440000D01*
X191846110Y-91651849D01*
X185297280Y-98200680D01*
X185205151Y-98338559D01*
X185205151Y-98338560D01*
X185172800Y-98501200D01*
X185172800Y-105183160D01*
X184606161Y-105749799D01*
X184488376Y-105749696D01*
X184267771Y-105840848D01*
X184098841Y-106009483D01*
X184007304Y-106229929D01*
X184007096Y-106468624D01*
X170399007Y-106468624D01*
X170399104Y-106357976D01*
X170307952Y-106137371D01*
X170139317Y-105968441D01*
X169918871Y-105876904D01*
X169680176Y-105876696D01*
X169459571Y-105967848D01*
X169290641Y-106136483D01*
X169199104Y-106356929D01*
X169198896Y-106595624D01*
X168852400Y-106595624D01*
X168852400Y-105509840D01*
X169087416Y-105274824D01*
X174888496Y-105274824D01*
X174979648Y-105495429D01*
X175148283Y-105664359D01*
X175368729Y-105755896D01*
X175607424Y-105756104D01*
X175828029Y-105664952D01*
X175996959Y-105496317D01*
X176025078Y-105428600D01*
X177554270Y-105428600D01*
X177637483Y-105511959D01*
X177857929Y-105603496D01*
X178096624Y-105603704D01*
X178317229Y-105512552D01*
X178486159Y-105343917D01*
X178577696Y-105123471D01*
X178577904Y-104884776D01*
X178486752Y-104664171D01*
X178318117Y-104495241D01*
X178097671Y-104403704D01*
X177858976Y-104403496D01*
X177638371Y-104494648D01*
X177554272Y-104578600D01*
X175662647Y-104578600D01*
X175608471Y-104556104D01*
X175369776Y-104555896D01*
X175149171Y-104647048D01*
X174980241Y-104815683D01*
X174888704Y-105036129D01*
X174888496Y-105274824D01*
X169087416Y-105274824D01*
X169568640Y-104793600D01*
X171170600Y-104793600D01*
X171306257Y-104766616D01*
X171333241Y-104761249D01*
X171471120Y-104669120D01*
X171781239Y-104359001D01*
X171899024Y-104359104D01*
X172119629Y-104267952D01*
X172288559Y-104099317D01*
X172380096Y-103878871D01*
X172380304Y-103640176D01*
X172289152Y-103419571D01*
X172120517Y-103250641D01*
X171900071Y-103159104D01*
X171661376Y-103158896D01*
X171440771Y-103250048D01*
X171271841Y-103418683D01*
X171180304Y-103639129D01*
X171180200Y-103757959D01*
X170994560Y-103943600D01*
X169392600Y-103943600D01*
X169229959Y-103975951D01*
X169092080Y-104068080D01*
X168126880Y-105033280D01*
X168034751Y-105171159D01*
X168034751Y-105171160D01*
X168002400Y-105333800D01*
X168002400Y-110567959D01*
X163600361Y-114969999D01*
X163482576Y-114969896D01*
X163261971Y-115061048D01*
X163093041Y-115229683D01*
X163001504Y-115450129D01*
X163001296Y-115688824D01*
X152551322Y-115688824D01*
X152544698Y-115655527D01*
X152060791Y-114931309D01*
X151336573Y-114447402D01*
X150482300Y-114277476D01*
X149628027Y-114447402D01*
X148903809Y-114931309D01*
X148419902Y-115655527D01*
X148249976Y-116509800D01*
X147847000Y-116509800D01*
X147847000Y-109598910D01*
X148452097Y-109598910D01*
X148596523Y-109947616D01*
X148971146Y-110375741D01*
X149481089Y-110627915D01*
X149705998Y-110517857D01*
X149705998Y-110636152D01*
X149397384Y-110697539D01*
X149024297Y-110946827D01*
X148775009Y-111319914D01*
X148687470Y-111760000D01*
X148775009Y-112200086D01*
X149024297Y-112573173D01*
X149397384Y-112822461D01*
X149837470Y-112910000D01*
X149882530Y-112910000D01*
X150322616Y-112822461D01*
X150695703Y-112573173D01*
X150944991Y-112200086D01*
X151032530Y-111760000D01*
X150944991Y-111319914D01*
X150695703Y-110946827D01*
X150322616Y-110697539D01*
X150014002Y-110636152D01*
X150014002Y-110517857D01*
X150238911Y-110627915D01*
X150748854Y-110375741D01*
X151123477Y-109947616D01*
X151267903Y-109598910D01*
X151156889Y-109374000D01*
X150014000Y-109374000D01*
X150014000Y-109394000D01*
X149706000Y-109394000D01*
X149706000Y-109374000D01*
X148563111Y-109374000D01*
X148452097Y-109598910D01*
X147847000Y-109598910D01*
X147847000Y-108841090D01*
X148452097Y-108841090D01*
X148563111Y-109066000D01*
X149706000Y-109066000D01*
X149706000Y-109046000D01*
X150014000Y-109046000D01*
X150014000Y-109066000D01*
X151156889Y-109066000D01*
X151267903Y-108841090D01*
X151123477Y-108492384D01*
X150748854Y-108064259D01*
X150238911Y-107812085D01*
X150014002Y-107922143D01*
X150014002Y-107803848D01*
X150322616Y-107742461D01*
X150695703Y-107493173D01*
X150944991Y-107120086D01*
X151032530Y-106680000D01*
X150944991Y-106239914D01*
X150695703Y-105866827D01*
X150322616Y-105617539D01*
X149882530Y-105530000D01*
X149837470Y-105530000D01*
X149397384Y-105617539D01*
X149024297Y-105866827D01*
X148775009Y-106239914D01*
X148687470Y-106680000D01*
X148775009Y-107120086D01*
X149024297Y-107493173D01*
X149397384Y-107742461D01*
X149705998Y-107803848D01*
X149705998Y-107922143D01*
X149481089Y-107812085D01*
X148971146Y-108064259D01*
X148596523Y-108492384D01*
X148452097Y-108841090D01*
X147847000Y-108841090D01*
X147847000Y-104140000D01*
X148687470Y-104140000D01*
X148775009Y-104580086D01*
X149024297Y-104953173D01*
X149397384Y-105202461D01*
X149837470Y-105290000D01*
X149882530Y-105290000D01*
X150322616Y-105202461D01*
X150695703Y-104953173D01*
X150944991Y-104580086D01*
X151032530Y-104140000D01*
X150944991Y-103699914D01*
X150695703Y-103326827D01*
X150322616Y-103077539D01*
X149882530Y-102990000D01*
X149837470Y-102990000D01*
X149397384Y-103077539D01*
X149024297Y-103326827D01*
X148775009Y-103699914D01*
X148687470Y-104140000D01*
X147847000Y-104140000D01*
X147847000Y-101600000D01*
X148687470Y-101600000D01*
X148775009Y-102040086D01*
X149024297Y-102413173D01*
X149397384Y-102662461D01*
X149837470Y-102750000D01*
X149882530Y-102750000D01*
X150322616Y-102662461D01*
X150695703Y-102413173D01*
X150944991Y-102040086D01*
X151032530Y-101600000D01*
X150944991Y-101159914D01*
X150695703Y-100786827D01*
X150322616Y-100537539D01*
X149882530Y-100450000D01*
X149837470Y-100450000D01*
X149397384Y-100537539D01*
X149024297Y-100786827D01*
X148775009Y-101159914D01*
X148687470Y-101600000D01*
X147847000Y-101600000D01*
X147847000Y-99060000D01*
X148687470Y-99060000D01*
X148775009Y-99500086D01*
X149024297Y-99873173D01*
X149397384Y-100122461D01*
X149837470Y-100210000D01*
X149882530Y-100210000D01*
X150322616Y-100122461D01*
X150442400Y-100042424D01*
X175040896Y-100042424D01*
X175132048Y-100263029D01*
X175300683Y-100431959D01*
X175521129Y-100523496D01*
X175759824Y-100523704D01*
X175980429Y-100432552D01*
X176149359Y-100263917D01*
X176240896Y-100043471D01*
X176241000Y-99924641D01*
X178661841Y-97503800D01*
X181059470Y-97503800D01*
X181142683Y-97587159D01*
X181363129Y-97678696D01*
X181601824Y-97678904D01*
X181822429Y-97587752D01*
X181991359Y-97419117D01*
X182082896Y-97198671D01*
X182083104Y-96959976D01*
X181991952Y-96739371D01*
X181823317Y-96570441D01*
X181602871Y-96478904D01*
X181364176Y-96478696D01*
X181143571Y-96569848D01*
X181059472Y-96653800D01*
X178485800Y-96653800D01*
X178323159Y-96686151D01*
X178185280Y-96778279D01*
X175639961Y-99323599D01*
X175522176Y-99323496D01*
X175301571Y-99414648D01*
X175132641Y-99583283D01*
X175041104Y-99803729D01*
X175040896Y-100042424D01*
X150442400Y-100042424D01*
X150695703Y-99873173D01*
X150944991Y-99500086D01*
X151032530Y-99060000D01*
X150944991Y-98619914D01*
X150695703Y-98246827D01*
X150322616Y-97997539D01*
X149882530Y-97910000D01*
X149837470Y-97910000D01*
X149397384Y-97997539D01*
X149024297Y-98246827D01*
X148775009Y-98619914D01*
X148687470Y-99060000D01*
X147847000Y-99060000D01*
X147847000Y-96520000D01*
X148687470Y-96520000D01*
X148775009Y-96960086D01*
X149024297Y-97333173D01*
X149397384Y-97582461D01*
X149837470Y-97670000D01*
X149882530Y-97670000D01*
X150322616Y-97582461D01*
X150695703Y-97333173D01*
X150944991Y-96960086D01*
X151032530Y-96520000D01*
X150944991Y-96079914D01*
X150695703Y-95706827D01*
X150322616Y-95457539D01*
X149882530Y-95370000D01*
X149837470Y-95370000D01*
X149397384Y-95457539D01*
X149024297Y-95706827D01*
X148775009Y-96079914D01*
X148687470Y-96520000D01*
X147847000Y-96520000D01*
X147847000Y-93980000D01*
X148687470Y-93980000D01*
X148775009Y-94420086D01*
X149024297Y-94793173D01*
X149397384Y-95042461D01*
X149837470Y-95130000D01*
X149882530Y-95130000D01*
X150322616Y-95042461D01*
X150442400Y-94962424D01*
X164271296Y-94962424D01*
X164362448Y-95183029D01*
X164531083Y-95351959D01*
X164751529Y-95443496D01*
X164990224Y-95443704D01*
X165210829Y-95352552D01*
X165379759Y-95183917D01*
X165471296Y-94963471D01*
X165471400Y-94844641D01*
X165629120Y-94686921D01*
X165633002Y-94681110D01*
X165641480Y-94723729D01*
X165647151Y-94752241D01*
X165739280Y-94890120D01*
X170113399Y-99264240D01*
X170113296Y-99382024D01*
X170204448Y-99602629D01*
X170373083Y-99771559D01*
X170593529Y-99863096D01*
X170832224Y-99863304D01*
X171052829Y-99772152D01*
X171221759Y-99603517D01*
X171313296Y-99383071D01*
X171313504Y-99144376D01*
X171222352Y-98923771D01*
X171053717Y-98754841D01*
X170833271Y-98663304D01*
X170714441Y-98663200D01*
X166464800Y-94413560D01*
X166464800Y-93387624D01*
X172805696Y-93387624D01*
X172896848Y-93608229D01*
X173065483Y-93777159D01*
X173285929Y-93868696D01*
X173524624Y-93868904D01*
X173745229Y-93777752D01*
X173914159Y-93609117D01*
X174005696Y-93388671D01*
X174005844Y-93218996D01*
X174269016Y-92955824D01*
X178406396Y-92955824D01*
X178497548Y-93176429D01*
X178666183Y-93345359D01*
X178886629Y-93436896D01*
X179125324Y-93437104D01*
X179345929Y-93345952D01*
X179514859Y-93177317D01*
X179606396Y-92956871D01*
X179606500Y-92838040D01*
X184042500Y-88402040D01*
X184042500Y-88977959D01*
X180783461Y-92236999D01*
X180665676Y-92236896D01*
X180445071Y-92328048D01*
X180276141Y-92496683D01*
X180184604Y-92717129D01*
X180184396Y-92955824D01*
X180275548Y-93176429D01*
X180444183Y-93345359D01*
X180664629Y-93436896D01*
X180903324Y-93437104D01*
X181123929Y-93345952D01*
X181292859Y-93177317D01*
X181384396Y-92956871D01*
X181384500Y-92838041D01*
X184768021Y-89454520D01*
X184860149Y-89316641D01*
X184892500Y-89154000D01*
X184892500Y-88900000D01*
X191803970Y-88900000D01*
X191891509Y-89340086D01*
X192140797Y-89713173D01*
X192513884Y-89962461D01*
X192953970Y-90050000D01*
X192999030Y-90050000D01*
X193439116Y-89962461D01*
X193812203Y-89713173D01*
X194061491Y-89340086D01*
X194149030Y-88900000D01*
X194061491Y-88459914D01*
X193812203Y-88086827D01*
X193439116Y-87837539D01*
X192999030Y-87750000D01*
X192953970Y-87750000D01*
X192513884Y-87837539D01*
X192140797Y-88086827D01*
X191891509Y-88459914D01*
X191803970Y-88900000D01*
X184892500Y-88900000D01*
X184892500Y-86360000D01*
X191803970Y-86360000D01*
X191891509Y-86800086D01*
X192140797Y-87173173D01*
X192513884Y-87422461D01*
X192953970Y-87510000D01*
X192999030Y-87510000D01*
X193439116Y-87422461D01*
X193812203Y-87173173D01*
X194061491Y-86800086D01*
X194149030Y-86360000D01*
X194061491Y-85919914D01*
X193812203Y-85546827D01*
X193439116Y-85297539D01*
X192999030Y-85210000D01*
X192953970Y-85210000D01*
X192513884Y-85297539D01*
X192140797Y-85546827D01*
X191891509Y-85919914D01*
X191803970Y-86360000D01*
X184892500Y-86360000D01*
X184892500Y-83820000D01*
X191803970Y-83820000D01*
X191891509Y-84260086D01*
X192140797Y-84633173D01*
X192513884Y-84882461D01*
X192953970Y-84970000D01*
X192999030Y-84970000D01*
X193439116Y-84882461D01*
X193812203Y-84633173D01*
X194061491Y-84260086D01*
X194149030Y-83820000D01*
X194061491Y-83379914D01*
X193812203Y-83006827D01*
X193439116Y-82757539D01*
X192999030Y-82670000D01*
X192953970Y-82670000D01*
X192513884Y-82757539D01*
X192140797Y-83006827D01*
X191891509Y-83379914D01*
X191803970Y-83820000D01*
X184892500Y-83820000D01*
X184892500Y-81280000D01*
X191803970Y-81280000D01*
X191891509Y-81720086D01*
X192140797Y-82093173D01*
X192513884Y-82342461D01*
X192953970Y-82430000D01*
X192999030Y-82430000D01*
X193439116Y-82342461D01*
X193812203Y-82093173D01*
X194061491Y-81720086D01*
X194149030Y-81280000D01*
X194061491Y-80839914D01*
X193812203Y-80466827D01*
X193439116Y-80217539D01*
X192999030Y-80130000D01*
X192953970Y-80130000D01*
X192513884Y-80217539D01*
X192140797Y-80466827D01*
X191891509Y-80839914D01*
X191803970Y-81280000D01*
X184892500Y-81280000D01*
X184892500Y-78740000D01*
X191803970Y-78740000D01*
X191891509Y-79180086D01*
X192140797Y-79553173D01*
X192513884Y-79802461D01*
X192953970Y-79890000D01*
X192999030Y-79890000D01*
X193439116Y-79802461D01*
X193812203Y-79553173D01*
X194061491Y-79180086D01*
X194149030Y-78740000D01*
X194061491Y-78299914D01*
X193812203Y-77926827D01*
X193439116Y-77677539D01*
X192999030Y-77590000D01*
X192953970Y-77590000D01*
X192513884Y-77677539D01*
X192140797Y-77926827D01*
X191891509Y-78299914D01*
X191803970Y-78740000D01*
X184892500Y-78740000D01*
X184892500Y-76200000D01*
X191803970Y-76200000D01*
X191891509Y-76640086D01*
X192140797Y-77013173D01*
X192513884Y-77262461D01*
X192953970Y-77350000D01*
X192999030Y-77350000D01*
X193439116Y-77262461D01*
X193812203Y-77013173D01*
X194061491Y-76640086D01*
X194149030Y-76200000D01*
X194061491Y-75759914D01*
X193812203Y-75386827D01*
X193439116Y-75137539D01*
X192999030Y-75050000D01*
X192953970Y-75050000D01*
X192513884Y-75137539D01*
X192140797Y-75386827D01*
X191891509Y-75759914D01*
X191803970Y-76200000D01*
X184892500Y-76200000D01*
X184892500Y-75417030D01*
X184975859Y-75333817D01*
X185067396Y-75113371D01*
X185067604Y-74874676D01*
X184976452Y-74654071D01*
X184807817Y-74485141D01*
X184587371Y-74393604D01*
X184348676Y-74393396D01*
X184128071Y-74484548D01*
X183959141Y-74653183D01*
X183867604Y-74873629D01*
X183867396Y-75112324D01*
X183958548Y-75332929D01*
X184042500Y-75417028D01*
X184042500Y-75727396D01*
X183888871Y-75663604D01*
X183650176Y-75663396D01*
X183429571Y-75754548D01*
X183260641Y-75923183D01*
X183169104Y-76143629D01*
X183168896Y-76382324D01*
X183260048Y-76602929D01*
X183344000Y-76687028D01*
X183344000Y-87898460D01*
X179005461Y-92236999D01*
X178887676Y-92236896D01*
X178667071Y-92328048D01*
X178498141Y-92496683D01*
X178406604Y-92717129D01*
X178406396Y-92955824D01*
X174269016Y-92955824D01*
X178842440Y-88382401D01*
X178960224Y-88382504D01*
X179180829Y-88291352D01*
X179349759Y-88122717D01*
X179441296Y-87902271D01*
X179441504Y-87663576D01*
X179350352Y-87442971D01*
X179181717Y-87274041D01*
X178961271Y-87182504D01*
X178722576Y-87182296D01*
X178501971Y-87273448D01*
X178333041Y-87442083D01*
X178241504Y-87662529D01*
X178241400Y-87781359D01*
X173354006Y-92668754D01*
X173286976Y-92668696D01*
X173066371Y-92759848D01*
X172897441Y-92928483D01*
X172805904Y-93148929D01*
X172805696Y-93387624D01*
X166464800Y-93387624D01*
X166464800Y-75759930D01*
X166548159Y-75676717D01*
X166639696Y-75456271D01*
X166639904Y-75217576D01*
X166548752Y-74996971D01*
X166380117Y-74828041D01*
X166159671Y-74736504D01*
X165920976Y-74736296D01*
X165753600Y-74805454D01*
X165753600Y-73660000D01*
X191803970Y-73660000D01*
X191891509Y-74100086D01*
X192140797Y-74473173D01*
X192513884Y-74722461D01*
X192953970Y-74810000D01*
X192999030Y-74810000D01*
X193439116Y-74722461D01*
X193812203Y-74473173D01*
X194061491Y-74100086D01*
X194149030Y-73660000D01*
X194061491Y-73219914D01*
X193812203Y-72846827D01*
X193439116Y-72597539D01*
X192999030Y-72510000D01*
X192953970Y-72510000D01*
X192513884Y-72597539D01*
X192140797Y-72846827D01*
X191891509Y-73219914D01*
X191803970Y-73660000D01*
X165753600Y-73660000D01*
X165753600Y-73016730D01*
X165836959Y-72933517D01*
X165928496Y-72713071D01*
X165928704Y-72474376D01*
X165837552Y-72253771D01*
X165668917Y-72084841D01*
X165448471Y-71993304D01*
X165209776Y-71993096D01*
X164989171Y-72084248D01*
X164820241Y-72252883D01*
X164728704Y-72473329D01*
X164728496Y-72712024D01*
X164819648Y-72932629D01*
X164903600Y-73016728D01*
X164903600Y-94210359D01*
X164870361Y-94243599D01*
X164752576Y-94243496D01*
X164531971Y-94334648D01*
X164363041Y-94503283D01*
X164271504Y-94723729D01*
X164271296Y-94962424D01*
X150442400Y-94962424D01*
X150695703Y-94793173D01*
X150944991Y-94420086D01*
X151032530Y-93980000D01*
X150944991Y-93539914D01*
X150695703Y-93166827D01*
X150322616Y-92917539D01*
X149882530Y-92830000D01*
X149837470Y-92830000D01*
X149397384Y-92917539D01*
X149024297Y-93166827D01*
X148775009Y-93539914D01*
X148687470Y-93980000D01*
X147847000Y-93980000D01*
X147847000Y-91440000D01*
X148687470Y-91440000D01*
X148775009Y-91880086D01*
X149024297Y-92253173D01*
X149397384Y-92502461D01*
X149837470Y-92590000D01*
X149882530Y-92590000D01*
X150322616Y-92502461D01*
X150695703Y-92253173D01*
X150944991Y-91880086D01*
X151032530Y-91440000D01*
X150944991Y-90999914D01*
X150695703Y-90626827D01*
X150322616Y-90377539D01*
X149882530Y-90290000D01*
X149837470Y-90290000D01*
X149397384Y-90377539D01*
X149024297Y-90626827D01*
X148775009Y-90999914D01*
X148687470Y-91440000D01*
X147847000Y-91440000D01*
X147847000Y-88900000D01*
X148687470Y-88900000D01*
X148775009Y-89340086D01*
X149024297Y-89713173D01*
X149397384Y-89962461D01*
X149837470Y-90050000D01*
X149882530Y-90050000D01*
X150322616Y-89962461D01*
X150695703Y-89713173D01*
X150944991Y-89340086D01*
X151032530Y-88900000D01*
X150944991Y-88459914D01*
X150695703Y-88086827D01*
X150322616Y-87837539D01*
X149882530Y-87750000D01*
X149837470Y-87750000D01*
X149397384Y-87837539D01*
X149024297Y-88086827D01*
X148775009Y-88459914D01*
X148687470Y-88900000D01*
X147847000Y-88900000D01*
X147847000Y-86360000D01*
X148687470Y-86360000D01*
X148775009Y-86800086D01*
X149024297Y-87173173D01*
X149397384Y-87422461D01*
X149837470Y-87510000D01*
X149882530Y-87510000D01*
X150322616Y-87422461D01*
X150695703Y-87173173D01*
X150944991Y-86800086D01*
X151032530Y-86360000D01*
X150944991Y-85919914D01*
X150695703Y-85546827D01*
X150322616Y-85297539D01*
X149882530Y-85210000D01*
X149837470Y-85210000D01*
X149397384Y-85297539D01*
X149024297Y-85546827D01*
X148775009Y-85919914D01*
X148687470Y-86360000D01*
X147847000Y-86360000D01*
X147847000Y-83820000D01*
X148687470Y-83820000D01*
X148775009Y-84260086D01*
X149024297Y-84633173D01*
X149397384Y-84882461D01*
X149837470Y-84970000D01*
X149882530Y-84970000D01*
X150322616Y-84882461D01*
X150695703Y-84633173D01*
X150944991Y-84260086D01*
X151032530Y-83820000D01*
X150944991Y-83379914D01*
X150695703Y-83006827D01*
X150322616Y-82757539D01*
X149882530Y-82670000D01*
X149837470Y-82670000D01*
X149397384Y-82757539D01*
X149024297Y-83006827D01*
X148775009Y-83379914D01*
X148687470Y-83820000D01*
X147847000Y-83820000D01*
X147847000Y-81280000D01*
X148687470Y-81280000D01*
X148775009Y-81720086D01*
X149024297Y-82093173D01*
X149397384Y-82342461D01*
X149837470Y-82430000D01*
X149882530Y-82430000D01*
X150322616Y-82342461D01*
X150695703Y-82093173D01*
X150944991Y-81720086D01*
X151032530Y-81280000D01*
X150944991Y-80839914D01*
X150695703Y-80466827D01*
X150322616Y-80217539D01*
X149882530Y-80130000D01*
X149837470Y-80130000D01*
X149397384Y-80217539D01*
X149024297Y-80466827D01*
X148775009Y-80839914D01*
X148687470Y-81280000D01*
X147847000Y-81280000D01*
X147847000Y-78740000D01*
X148687470Y-78740000D01*
X148775009Y-79180086D01*
X149024297Y-79553173D01*
X149397384Y-79802461D01*
X149837470Y-79890000D01*
X149882530Y-79890000D01*
X150322616Y-79802461D01*
X150695703Y-79553173D01*
X150944991Y-79180086D01*
X151032530Y-78740000D01*
X150944991Y-78299914D01*
X150695703Y-77926827D01*
X150322616Y-77677539D01*
X149882530Y-77590000D01*
X149837470Y-77590000D01*
X149397384Y-77677539D01*
X149024297Y-77926827D01*
X148775009Y-78299914D01*
X148687470Y-78740000D01*
X147847000Y-78740000D01*
X147847000Y-76200000D01*
X148687470Y-76200000D01*
X148775009Y-76640086D01*
X149024297Y-77013173D01*
X149397384Y-77262461D01*
X149837470Y-77350000D01*
X149882530Y-77350000D01*
X150322616Y-77262461D01*
X150695703Y-77013173D01*
X150944991Y-76640086D01*
X151032530Y-76200000D01*
X150944991Y-75759914D01*
X150695703Y-75386827D01*
X150322616Y-75137539D01*
X149882530Y-75050000D01*
X149837470Y-75050000D01*
X149397384Y-75137539D01*
X149024297Y-75386827D01*
X148775009Y-75759914D01*
X148687470Y-76200000D01*
X147847000Y-76200000D01*
X147847000Y-71426000D01*
X148402000Y-71426000D01*
X148402000Y-72090938D01*
X148494562Y-72314404D01*
X148665595Y-72485437D01*
X148889061Y-72578000D01*
X149495613Y-72578000D01*
X149397384Y-72597539D01*
X149024297Y-72846827D01*
X148775009Y-73219914D01*
X148687470Y-73660000D01*
X148775009Y-74100086D01*
X149024297Y-74473173D01*
X149397384Y-74722461D01*
X149837470Y-74810000D01*
X149882530Y-74810000D01*
X150322616Y-74722461D01*
X150695703Y-74473173D01*
X150944991Y-74100086D01*
X151032530Y-73660000D01*
X150944991Y-73219914D01*
X150695703Y-72846827D01*
X150322616Y-72597539D01*
X150224387Y-72578000D01*
X150830939Y-72578000D01*
X151054405Y-72485437D01*
X151225438Y-72314404D01*
X151318000Y-72090938D01*
X151318000Y-71426000D01*
X151166000Y-71274000D01*
X150014000Y-71274000D01*
X150014000Y-71294000D01*
X149706000Y-71294000D01*
X149706000Y-71274000D01*
X148554000Y-71274000D01*
X148402000Y-71426000D01*
X147847000Y-71426000D01*
X147847000Y-69886500D01*
X148533658Y-69886500D01*
X148494562Y-69925596D01*
X148494562Y-69925596D01*
G37*
X148494562Y-69925596D02*
X148402000Y-70149062D01*
X148402000Y-70814000D01*
X148554000Y-70966000D01*
X149706000Y-70966000D01*
X149706000Y-70946000D01*
X150014000Y-70946000D01*
X150014000Y-70966000D01*
X151166000Y-70966000D01*
X151318000Y-70814000D01*
X151318000Y-70149062D01*
X151225438Y-69925596D01*
X151186342Y-69886500D01*
X195116500Y-69886500D01*
X195116500Y-118364000D01*
X195125327Y-118408374D01*
X195066585Y-118703689D01*
X194874166Y-118991666D01*
X194586189Y-119184085D01*
X194322626Y-119236511D01*
X194310000Y-119234000D01*
X181422830Y-119234000D01*
X180541665Y-118352835D01*
X180420007Y-118271545D01*
X180276500Y-118243000D01*
X171740785Y-118243000D01*
X171615100Y-118218000D01*
X171462026Y-118248448D01*
X171332257Y-118335157D01*
X170433414Y-119234000D01*
X148780500Y-119234000D01*
X148704376Y-119249142D01*
X148377311Y-119184085D01*
X148089334Y-118991666D01*
X147896915Y-118703689D01*
X147838173Y-118408376D01*
X147847000Y-118364000D01*
X147847000Y-116509800D01*
X148249976Y-116509800D01*
X148419902Y-117364073D01*
X148903809Y-118088291D01*
X149628027Y-118572198D01*
X150482300Y-118742124D01*
X151336573Y-118572198D01*
X152060791Y-118088291D01*
X152306324Y-117720824D01*
X167928896Y-117720824D01*
X168020048Y-117941429D01*
X168188683Y-118110359D01*
X168409129Y-118201896D01*
X168647824Y-118202104D01*
X168868429Y-118110952D01*
X169037359Y-117942317D01*
X169128896Y-117721871D01*
X169129104Y-117483176D01*
X169037952Y-117262571D01*
X168954000Y-117178472D01*
X168954000Y-116522500D01*
X190134576Y-116522500D01*
X190304502Y-117376773D01*
X190788409Y-118100991D01*
X191512627Y-118584898D01*
X192366900Y-118754824D01*
X193221173Y-118584898D01*
X193945391Y-118100991D01*
X194429298Y-117376773D01*
X194599224Y-116522500D01*
X194429298Y-115668227D01*
X193945391Y-114944009D01*
X193221173Y-114460102D01*
X192366900Y-114290176D01*
X191512627Y-114460102D01*
X190788409Y-114944009D01*
X190304502Y-115668227D01*
X190134576Y-116522500D01*
X168954000Y-116522500D01*
X168954000Y-115873040D01*
X170789216Y-114037824D01*
X185962896Y-114037824D01*
X186054048Y-114258429D01*
X186222683Y-114427359D01*
X186443129Y-114518896D01*
X186681824Y-114519104D01*
X186902429Y-114427952D01*
X187071359Y-114259317D01*
X187162896Y-114038871D01*
X187163000Y-113920040D01*
X188944130Y-112138910D01*
X191568597Y-112138910D01*
X191713023Y-112487616D01*
X192087646Y-112915741D01*
X192597589Y-113167915D01*
X192822500Y-113057856D01*
X192822500Y-111914000D01*
X193130500Y-111914000D01*
X193130500Y-113057856D01*
X193355411Y-113167915D01*
X193865354Y-112915741D01*
X194239977Y-112487616D01*
X194384403Y-112138910D01*
X194273389Y-111914000D01*
X193130500Y-111914000D01*
X192822500Y-111914000D01*
X191679611Y-111914000D01*
X191568597Y-112138910D01*
X188944130Y-112138910D01*
X189701950Y-111381090D01*
X191568597Y-111381090D01*
X191679611Y-111606000D01*
X192822500Y-111606000D01*
X192822500Y-111586000D01*
X193130500Y-111586000D01*
X193130500Y-111606000D01*
X194273389Y-111606000D01*
X194384403Y-111381090D01*
X194239977Y-111032384D01*
X193865354Y-110604259D01*
X193355411Y-110352085D01*
X193130502Y-110462143D01*
X193130502Y-110343848D01*
X193439116Y-110282461D01*
X193812203Y-110033173D01*
X194061491Y-109660086D01*
X194149030Y-109220000D01*
X194061491Y-108779914D01*
X193812203Y-108406827D01*
X193439116Y-108157539D01*
X192999030Y-108070000D01*
X192953970Y-108070000D01*
X192513884Y-108157539D01*
X192140797Y-108406827D01*
X191891509Y-108779914D01*
X191803970Y-109220000D01*
X191891509Y-109660086D01*
X192140797Y-110033173D01*
X192513884Y-110282461D01*
X192822498Y-110343848D01*
X192822498Y-110462143D01*
X192597589Y-110352085D01*
X192087646Y-110604259D01*
X191713023Y-111032384D01*
X191568597Y-111381090D01*
X189701950Y-111381090D01*
X191054520Y-110028520D01*
X191146649Y-109890641D01*
X191152016Y-109863657D01*
X191179000Y-109728000D01*
X191179000Y-106680000D01*
X191803970Y-106680000D01*
X191891509Y-107120086D01*
X192140797Y-107493173D01*
X192513884Y-107742461D01*
X192953970Y-107830000D01*
X192999030Y-107830000D01*
X193439116Y-107742461D01*
X193812203Y-107493173D01*
X194061491Y-107120086D01*
X194149030Y-106680000D01*
X194061491Y-106239914D01*
X193812203Y-105866827D01*
X193439116Y-105617539D01*
X192999030Y-105530000D01*
X192953970Y-105530000D01*
X192513884Y-105617539D01*
X192140797Y-105866827D01*
X191891509Y-106239914D01*
X191803970Y-106680000D01*
X191179000Y-106680000D01*
X191179000Y-104140000D01*
X191803970Y-104140000D01*
X191891509Y-104580086D01*
X192140797Y-104953173D01*
X192513884Y-105202461D01*
X192953970Y-105290000D01*
X192999030Y-105290000D01*
X193439116Y-105202461D01*
X193812203Y-104953173D01*
X194061491Y-104580086D01*
X194149030Y-104140000D01*
X194061491Y-103699914D01*
X193812203Y-103326827D01*
X193439116Y-103077539D01*
X192999030Y-102990000D01*
X192953970Y-102990000D01*
X192513884Y-103077539D01*
X192140797Y-103326827D01*
X191891509Y-103699914D01*
X191803970Y-104140000D01*
X191179000Y-104140000D01*
X191179000Y-103998540D01*
X192514881Y-102662659D01*
X192953970Y-102750000D01*
X192999030Y-102750000D01*
X193439116Y-102662461D01*
X193812203Y-102413173D01*
X194061491Y-102040086D01*
X194149030Y-101600000D01*
X194061491Y-101159914D01*
X193812203Y-100786827D01*
X193439116Y-100537539D01*
X192999030Y-100450000D01*
X192953970Y-100450000D01*
X192513884Y-100537539D01*
X192140797Y-100786827D01*
X191891509Y-101159914D01*
X191803970Y-101600000D01*
X191891509Y-102040086D01*
X191909079Y-102066381D01*
X190453480Y-103521980D01*
X190361351Y-103659859D01*
X190361351Y-103659860D01*
X190329000Y-103822500D01*
X190329000Y-109551960D01*
X186561961Y-113318999D01*
X186444176Y-113318896D01*
X186223571Y-113410048D01*
X186054641Y-113578683D01*
X185963104Y-113799129D01*
X185962896Y-114037824D01*
X170789216Y-114037824D01*
X171816541Y-113010500D01*
X176466500Y-113010500D01*
X176602157Y-112983516D01*
X176629141Y-112978149D01*
X176767020Y-112886020D01*
X181865040Y-107788001D01*
X181982824Y-107788104D01*
X182203429Y-107696952D01*
X182372359Y-107528317D01*
X182463896Y-107307871D01*
X182464104Y-107069176D01*
X182372952Y-106848571D01*
X182204317Y-106679641D01*
X181983871Y-106588104D01*
X181745176Y-106587896D01*
X181524571Y-106679048D01*
X181355641Y-106847683D01*
X181264104Y-107068129D01*
X181264000Y-107186959D01*
X176290460Y-112160500D01*
X171640500Y-112160500D01*
X171477860Y-112192851D01*
X171477858Y-112192852D01*
X171477859Y-112192852D01*
X171339979Y-112284980D01*
X168228480Y-115396480D01*
X168136351Y-115534359D01*
X168136351Y-115534360D01*
X168104000Y-115697000D01*
X168104000Y-117178470D01*
X168020641Y-117261683D01*
X167929104Y-117482129D01*
X167928896Y-117720824D01*
X152306324Y-117720824D01*
X152544698Y-117364073D01*
X152714624Y-116509800D01*
X152551322Y-115688824D01*
X163001296Y-115688824D01*
X163092448Y-115909429D01*
X163261083Y-116078359D01*
X163481529Y-116169896D01*
X163720224Y-116170104D01*
X163940829Y-116078952D01*
X164109759Y-115910317D01*
X164201296Y-115689871D01*
X164201400Y-115571041D01*
X168727921Y-111044520D01*
X168820049Y-110906641D01*
X168852400Y-110744000D01*
X168852400Y-106595624D01*
X169198896Y-106595624D01*
X169290048Y-106816229D01*
X169458683Y-106985159D01*
X169679129Y-107076696D01*
X169797959Y-107076800D01*
X170920879Y-108199720D01*
X170979111Y-108238629D01*
X171058760Y-108291849D01*
X171221400Y-108324200D01*
X179027470Y-108324200D01*
X179110683Y-108407559D01*
X179331129Y-108499096D01*
X179569824Y-108499304D01*
X179790429Y-108408152D01*
X179959359Y-108239517D01*
X180050896Y-108019071D01*
X180051104Y-107780376D01*
X179959952Y-107559771D01*
X179791317Y-107390841D01*
X179570871Y-107299304D01*
X179332176Y-107299096D01*
X179111571Y-107390248D01*
X179027472Y-107474200D01*
X171397441Y-107474200D01*
X170399001Y-106475761D01*
X170399007Y-106468624D01*
X184007096Y-106468624D01*
X184098248Y-106689229D01*
X184266883Y-106858159D01*
X184487329Y-106949696D01*
X184726024Y-106949904D01*
X184946629Y-106858752D01*
X185115559Y-106690117D01*
X185207096Y-106469671D01*
X185207200Y-106350840D01*
X185898320Y-105659720D01*
X185990449Y-105521841D01*
X186003442Y-105456520D01*
X186022800Y-105359200D01*
X186022800Y-99060000D01*
X191803970Y-99060000D01*
X191891509Y-99500086D01*
X192140797Y-99873173D01*
X192513884Y-100122461D01*
X192953970Y-100210000D01*
X192999030Y-100210000D01*
X193439116Y-100122461D01*
X193812203Y-99873173D01*
X194061491Y-99500086D01*
X194149030Y-99060000D01*
X194061491Y-98619914D01*
X193812203Y-98246827D01*
X193439116Y-97997539D01*
X192999030Y-97910000D01*
X192953970Y-97910000D01*
X192513884Y-97997539D01*
X192140797Y-98246827D01*
X191891509Y-98619914D01*
X191803970Y-99060000D01*
X186022800Y-99060000D01*
X186022800Y-98677240D01*
X188180040Y-96520000D01*
X191803970Y-96520000D01*
X191891509Y-96960086D01*
X192140797Y-97333173D01*
X192513884Y-97582461D01*
X192953970Y-97670000D01*
X192999030Y-97670000D01*
X193439116Y-97582461D01*
X193812203Y-97333173D01*
X194061491Y-96960086D01*
X194149030Y-96520000D01*
X194061491Y-96079914D01*
X193812203Y-95706827D01*
X193439116Y-95457539D01*
X192999030Y-95370000D01*
X192953970Y-95370000D01*
X192513884Y-95457539D01*
X192140797Y-95706827D01*
X191891509Y-96079914D01*
X191803970Y-96520000D01*
X188180040Y-96520000D01*
X190720040Y-93980000D01*
X191803970Y-93980000D01*
X191891509Y-94420086D01*
X192140797Y-94793173D01*
X192513884Y-95042461D01*
X192953970Y-95130000D01*
X192999030Y-95130000D01*
X193439116Y-95042461D01*
X193812203Y-94793173D01*
X194061491Y-94420086D01*
X194149030Y-93980000D01*
X194061491Y-93539914D01*
X193812203Y-93166827D01*
X193439116Y-92917539D01*
X192999030Y-92830000D01*
X192953970Y-92830000D01*
X192513884Y-92917539D01*
X192140797Y-93166827D01*
X191891509Y-93539914D01*
X191803970Y-93980000D01*
X190720040Y-93980000D01*
X192324273Y-92375768D01*
X192513884Y-92502461D01*
X192953970Y-92590000D01*
X192999030Y-92590000D01*
X193439116Y-92502461D01*
X193812203Y-92253173D01*
X194061491Y-91880086D01*
X194149030Y-91440000D01*
X194061491Y-90999914D01*
X193812203Y-90626827D01*
X193439116Y-90377539D01*
X192999030Y-90290000D01*
X192953970Y-90290000D01*
X192513884Y-90377539D01*
X192140797Y-90626827D01*
X191891509Y-90999914D01*
X191803970Y-91440000D01*
X191846110Y-91651849D01*
X185297280Y-98200680D01*
X185205151Y-98338559D01*
X185205151Y-98338560D01*
X185172800Y-98501200D01*
X185172800Y-105183160D01*
X184606161Y-105749799D01*
X184488376Y-105749696D01*
X184267771Y-105840848D01*
X184098841Y-106009483D01*
X184007304Y-106229929D01*
X184007096Y-106468624D01*
X170399007Y-106468624D01*
X170399104Y-106357976D01*
X170307952Y-106137371D01*
X170139317Y-105968441D01*
X169918871Y-105876904D01*
X169680176Y-105876696D01*
X169459571Y-105967848D01*
X169290641Y-106136483D01*
X169199104Y-106356929D01*
X169198896Y-106595624D01*
X168852400Y-106595624D01*
X168852400Y-105509840D01*
X169087416Y-105274824D01*
X174888496Y-105274824D01*
X174979648Y-105495429D01*
X175148283Y-105664359D01*
X175368729Y-105755896D01*
X175607424Y-105756104D01*
X175828029Y-105664952D01*
X175996959Y-105496317D01*
X176025078Y-105428600D01*
X177554270Y-105428600D01*
X177637483Y-105511959D01*
X177857929Y-105603496D01*
X178096624Y-105603704D01*
X178317229Y-105512552D01*
X178486159Y-105343917D01*
X178577696Y-105123471D01*
X178577904Y-104884776D01*
X178486752Y-104664171D01*
X178318117Y-104495241D01*
X178097671Y-104403704D01*
X177858976Y-104403496D01*
X177638371Y-104494648D01*
X177554272Y-104578600D01*
X175662647Y-104578600D01*
X175608471Y-104556104D01*
X175369776Y-104555896D01*
X175149171Y-104647048D01*
X174980241Y-104815683D01*
X174888704Y-105036129D01*
X174888496Y-105274824D01*
X169087416Y-105274824D01*
X169568640Y-104793600D01*
X171170600Y-104793600D01*
X171306257Y-104766616D01*
X171333241Y-104761249D01*
X171471120Y-104669120D01*
X171781239Y-104359001D01*
X171899024Y-104359104D01*
X172119629Y-104267952D01*
X172288559Y-104099317D01*
X172380096Y-103878871D01*
X172380304Y-103640176D01*
X172289152Y-103419571D01*
X172120517Y-103250641D01*
X171900071Y-103159104D01*
X171661376Y-103158896D01*
X171440771Y-103250048D01*
X171271841Y-103418683D01*
X171180304Y-103639129D01*
X171180200Y-103757959D01*
X170994560Y-103943600D01*
X169392600Y-103943600D01*
X169229959Y-103975951D01*
X169092080Y-104068080D01*
X168126880Y-105033280D01*
X168034751Y-105171159D01*
X168034751Y-105171160D01*
X168002400Y-105333800D01*
X168002400Y-110567959D01*
X163600361Y-114969999D01*
X163482576Y-114969896D01*
X163261971Y-115061048D01*
X163093041Y-115229683D01*
X163001504Y-115450129D01*
X163001296Y-115688824D01*
X152551322Y-115688824D01*
X152544698Y-115655527D01*
X152060791Y-114931309D01*
X151336573Y-114447402D01*
X150482300Y-114277476D01*
X149628027Y-114447402D01*
X148903809Y-114931309D01*
X148419902Y-115655527D01*
X148249976Y-116509800D01*
X147847000Y-116509800D01*
X147847000Y-109598910D01*
X148452097Y-109598910D01*
X148596523Y-109947616D01*
X148971146Y-110375741D01*
X149481089Y-110627915D01*
X149705998Y-110517857D01*
X149705998Y-110636152D01*
X149397384Y-110697539D01*
X149024297Y-110946827D01*
X148775009Y-111319914D01*
X148687470Y-111760000D01*
X148775009Y-112200086D01*
X149024297Y-112573173D01*
X149397384Y-112822461D01*
X149837470Y-112910000D01*
X149882530Y-112910000D01*
X150322616Y-112822461D01*
X150695703Y-112573173D01*
X150944991Y-112200086D01*
X151032530Y-111760000D01*
X150944991Y-111319914D01*
X150695703Y-110946827D01*
X150322616Y-110697539D01*
X150014002Y-110636152D01*
X150014002Y-110517857D01*
X150238911Y-110627915D01*
X150748854Y-110375741D01*
X151123477Y-109947616D01*
X151267903Y-109598910D01*
X151156889Y-109374000D01*
X150014000Y-109374000D01*
X150014000Y-109394000D01*
X149706000Y-109394000D01*
X149706000Y-109374000D01*
X148563111Y-109374000D01*
X148452097Y-109598910D01*
X147847000Y-109598910D01*
X147847000Y-108841090D01*
X148452097Y-108841090D01*
X148563111Y-109066000D01*
X149706000Y-109066000D01*
X149706000Y-109046000D01*
X150014000Y-109046000D01*
X150014000Y-109066000D01*
X151156889Y-109066000D01*
X151267903Y-108841090D01*
X151123477Y-108492384D01*
X150748854Y-108064259D01*
X150238911Y-107812085D01*
X150014002Y-107922143D01*
X150014002Y-107803848D01*
X150322616Y-107742461D01*
X150695703Y-107493173D01*
X150944991Y-107120086D01*
X151032530Y-106680000D01*
X150944991Y-106239914D01*
X150695703Y-105866827D01*
X150322616Y-105617539D01*
X149882530Y-105530000D01*
X149837470Y-105530000D01*
X149397384Y-105617539D01*
X149024297Y-105866827D01*
X148775009Y-106239914D01*
X148687470Y-106680000D01*
X148775009Y-107120086D01*
X149024297Y-107493173D01*
X149397384Y-107742461D01*
X149705998Y-107803848D01*
X149705998Y-107922143D01*
X149481089Y-107812085D01*
X148971146Y-108064259D01*
X148596523Y-108492384D01*
X148452097Y-108841090D01*
X147847000Y-108841090D01*
X147847000Y-104140000D01*
X148687470Y-104140000D01*
X148775009Y-104580086D01*
X149024297Y-104953173D01*
X149397384Y-105202461D01*
X149837470Y-105290000D01*
X149882530Y-105290000D01*
X150322616Y-105202461D01*
X150695703Y-104953173D01*
X150944991Y-104580086D01*
X151032530Y-104140000D01*
X150944991Y-103699914D01*
X150695703Y-103326827D01*
X150322616Y-103077539D01*
X149882530Y-102990000D01*
X149837470Y-102990000D01*
X149397384Y-103077539D01*
X149024297Y-103326827D01*
X148775009Y-103699914D01*
X148687470Y-104140000D01*
X147847000Y-104140000D01*
X147847000Y-101600000D01*
X148687470Y-101600000D01*
X148775009Y-102040086D01*
X149024297Y-102413173D01*
X149397384Y-102662461D01*
X149837470Y-102750000D01*
X149882530Y-102750000D01*
X150322616Y-102662461D01*
X150695703Y-102413173D01*
X150944991Y-102040086D01*
X151032530Y-101600000D01*
X150944991Y-101159914D01*
X150695703Y-100786827D01*
X150322616Y-100537539D01*
X149882530Y-100450000D01*
X149837470Y-100450000D01*
X149397384Y-100537539D01*
X149024297Y-100786827D01*
X148775009Y-101159914D01*
X148687470Y-101600000D01*
X147847000Y-101600000D01*
X147847000Y-99060000D01*
X148687470Y-99060000D01*
X148775009Y-99500086D01*
X149024297Y-99873173D01*
X149397384Y-100122461D01*
X149837470Y-100210000D01*
X149882530Y-100210000D01*
X150322616Y-100122461D01*
X150442400Y-100042424D01*
X175040896Y-100042424D01*
X175132048Y-100263029D01*
X175300683Y-100431959D01*
X175521129Y-100523496D01*
X175759824Y-100523704D01*
X175980429Y-100432552D01*
X176149359Y-100263917D01*
X176240896Y-100043471D01*
X176241000Y-99924641D01*
X178661841Y-97503800D01*
X181059470Y-97503800D01*
X181142683Y-97587159D01*
X181363129Y-97678696D01*
X181601824Y-97678904D01*
X181822429Y-97587752D01*
X181991359Y-97419117D01*
X182082896Y-97198671D01*
X182083104Y-96959976D01*
X181991952Y-96739371D01*
X181823317Y-96570441D01*
X181602871Y-96478904D01*
X181364176Y-96478696D01*
X181143571Y-96569848D01*
X181059472Y-96653800D01*
X178485800Y-96653800D01*
X178323159Y-96686151D01*
X178185280Y-96778279D01*
X175639961Y-99323599D01*
X175522176Y-99323496D01*
X175301571Y-99414648D01*
X175132641Y-99583283D01*
X175041104Y-99803729D01*
X175040896Y-100042424D01*
X150442400Y-100042424D01*
X150695703Y-99873173D01*
X150944991Y-99500086D01*
X151032530Y-99060000D01*
X150944991Y-98619914D01*
X150695703Y-98246827D01*
X150322616Y-97997539D01*
X149882530Y-97910000D01*
X149837470Y-97910000D01*
X149397384Y-97997539D01*
X149024297Y-98246827D01*
X148775009Y-98619914D01*
X148687470Y-99060000D01*
X147847000Y-99060000D01*
X147847000Y-96520000D01*
X148687470Y-96520000D01*
X148775009Y-96960086D01*
X149024297Y-97333173D01*
X149397384Y-97582461D01*
X149837470Y-97670000D01*
X149882530Y-97670000D01*
X150322616Y-97582461D01*
X150695703Y-97333173D01*
X150944991Y-96960086D01*
X151032530Y-96520000D01*
X150944991Y-96079914D01*
X150695703Y-95706827D01*
X150322616Y-95457539D01*
X149882530Y-95370000D01*
X149837470Y-95370000D01*
X149397384Y-95457539D01*
X149024297Y-95706827D01*
X148775009Y-96079914D01*
X148687470Y-96520000D01*
X147847000Y-96520000D01*
X147847000Y-93980000D01*
X148687470Y-93980000D01*
X148775009Y-94420086D01*
X149024297Y-94793173D01*
X149397384Y-95042461D01*
X149837470Y-95130000D01*
X149882530Y-95130000D01*
X150322616Y-95042461D01*
X150442400Y-94962424D01*
X164271296Y-94962424D01*
X164362448Y-95183029D01*
X164531083Y-95351959D01*
X164751529Y-95443496D01*
X164990224Y-95443704D01*
X165210829Y-95352552D01*
X165379759Y-95183917D01*
X165471296Y-94963471D01*
X165471400Y-94844641D01*
X165629120Y-94686921D01*
X165633002Y-94681110D01*
X165641480Y-94723729D01*
X165647151Y-94752241D01*
X165739280Y-94890120D01*
X170113399Y-99264240D01*
X170113296Y-99382024D01*
X170204448Y-99602629D01*
X170373083Y-99771559D01*
X170593529Y-99863096D01*
X170832224Y-99863304D01*
X171052829Y-99772152D01*
X171221759Y-99603517D01*
X171313296Y-99383071D01*
X171313504Y-99144376D01*
X171222352Y-98923771D01*
X171053717Y-98754841D01*
X170833271Y-98663304D01*
X170714441Y-98663200D01*
X166464800Y-94413560D01*
X166464800Y-93387624D01*
X172805696Y-93387624D01*
X172896848Y-93608229D01*
X173065483Y-93777159D01*
X173285929Y-93868696D01*
X173524624Y-93868904D01*
X173745229Y-93777752D01*
X173914159Y-93609117D01*
X174005696Y-93388671D01*
X174005844Y-93218996D01*
X174269016Y-92955824D01*
X178406396Y-92955824D01*
X178497548Y-93176429D01*
X178666183Y-93345359D01*
X178886629Y-93436896D01*
X179125324Y-93437104D01*
X179345929Y-93345952D01*
X179514859Y-93177317D01*
X179606396Y-92956871D01*
X179606500Y-92838040D01*
X184042500Y-88402040D01*
X184042500Y-88977959D01*
X180783461Y-92236999D01*
X180665676Y-92236896D01*
X180445071Y-92328048D01*
X180276141Y-92496683D01*
X180184604Y-92717129D01*
X180184396Y-92955824D01*
X180275548Y-93176429D01*
X180444183Y-93345359D01*
X180664629Y-93436896D01*
X180903324Y-93437104D01*
X181123929Y-93345952D01*
X181292859Y-93177317D01*
X181384396Y-92956871D01*
X181384500Y-92838041D01*
X184768021Y-89454520D01*
X184860149Y-89316641D01*
X184892500Y-89154000D01*
X184892500Y-88900000D01*
X191803970Y-88900000D01*
X191891509Y-89340086D01*
X192140797Y-89713173D01*
X192513884Y-89962461D01*
X192953970Y-90050000D01*
X192999030Y-90050000D01*
X193439116Y-89962461D01*
X193812203Y-89713173D01*
X194061491Y-89340086D01*
X194149030Y-88900000D01*
X194061491Y-88459914D01*
X193812203Y-88086827D01*
X193439116Y-87837539D01*
X192999030Y-87750000D01*
X192953970Y-87750000D01*
X192513884Y-87837539D01*
X192140797Y-88086827D01*
X191891509Y-88459914D01*
X191803970Y-88900000D01*
X184892500Y-88900000D01*
X184892500Y-86360000D01*
X191803970Y-86360000D01*
X191891509Y-86800086D01*
X192140797Y-87173173D01*
X192513884Y-87422461D01*
X192953970Y-87510000D01*
X192999030Y-87510000D01*
X193439116Y-87422461D01*
X193812203Y-87173173D01*
X194061491Y-86800086D01*
X194149030Y-86360000D01*
X194061491Y-85919914D01*
X193812203Y-85546827D01*
X193439116Y-85297539D01*
X192999030Y-85210000D01*
X192953970Y-85210000D01*
X192513884Y-85297539D01*
X192140797Y-85546827D01*
X191891509Y-85919914D01*
X191803970Y-86360000D01*
X184892500Y-86360000D01*
X184892500Y-83820000D01*
X191803970Y-83820000D01*
X191891509Y-84260086D01*
X192140797Y-84633173D01*
X192513884Y-84882461D01*
X192953970Y-84970000D01*
X192999030Y-84970000D01*
X193439116Y-84882461D01*
X193812203Y-84633173D01*
X194061491Y-84260086D01*
X194149030Y-83820000D01*
X194061491Y-83379914D01*
X193812203Y-83006827D01*
X193439116Y-82757539D01*
X192999030Y-82670000D01*
X192953970Y-82670000D01*
X192513884Y-82757539D01*
X192140797Y-83006827D01*
X191891509Y-83379914D01*
X191803970Y-83820000D01*
X184892500Y-83820000D01*
X184892500Y-81280000D01*
X191803970Y-81280000D01*
X191891509Y-81720086D01*
X192140797Y-82093173D01*
X192513884Y-82342461D01*
X192953970Y-82430000D01*
X192999030Y-82430000D01*
X193439116Y-82342461D01*
X193812203Y-82093173D01*
X194061491Y-81720086D01*
X194149030Y-81280000D01*
X194061491Y-80839914D01*
X193812203Y-80466827D01*
X193439116Y-80217539D01*
X192999030Y-80130000D01*
X192953970Y-80130000D01*
X192513884Y-80217539D01*
X192140797Y-80466827D01*
X191891509Y-80839914D01*
X191803970Y-81280000D01*
X184892500Y-81280000D01*
X184892500Y-78740000D01*
X191803970Y-78740000D01*
X191891509Y-79180086D01*
X192140797Y-79553173D01*
X192513884Y-79802461D01*
X192953970Y-79890000D01*
X192999030Y-79890000D01*
X193439116Y-79802461D01*
X193812203Y-79553173D01*
X194061491Y-79180086D01*
X194149030Y-78740000D01*
X194061491Y-78299914D01*
X193812203Y-77926827D01*
X193439116Y-77677539D01*
X192999030Y-77590000D01*
X192953970Y-77590000D01*
X192513884Y-77677539D01*
X192140797Y-77926827D01*
X191891509Y-78299914D01*
X191803970Y-78740000D01*
X184892500Y-78740000D01*
X184892500Y-76200000D01*
X191803970Y-76200000D01*
X191891509Y-76640086D01*
X192140797Y-77013173D01*
X192513884Y-77262461D01*
X192953970Y-77350000D01*
X192999030Y-77350000D01*
X193439116Y-77262461D01*
X193812203Y-77013173D01*
X194061491Y-76640086D01*
X194149030Y-76200000D01*
X194061491Y-75759914D01*
X193812203Y-75386827D01*
X193439116Y-75137539D01*
X192999030Y-75050000D01*
X192953970Y-75050000D01*
X192513884Y-75137539D01*
X192140797Y-75386827D01*
X191891509Y-75759914D01*
X191803970Y-76200000D01*
X184892500Y-76200000D01*
X184892500Y-75417030D01*
X184975859Y-75333817D01*
X185067396Y-75113371D01*
X185067604Y-74874676D01*
X184976452Y-74654071D01*
X184807817Y-74485141D01*
X184587371Y-74393604D01*
X184348676Y-74393396D01*
X184128071Y-74484548D01*
X183959141Y-74653183D01*
X183867604Y-74873629D01*
X183867396Y-75112324D01*
X183958548Y-75332929D01*
X184042500Y-75417028D01*
X184042500Y-75727396D01*
X183888871Y-75663604D01*
X183650176Y-75663396D01*
X183429571Y-75754548D01*
X183260641Y-75923183D01*
X183169104Y-76143629D01*
X183168896Y-76382324D01*
X183260048Y-76602929D01*
X183344000Y-76687028D01*
X183344000Y-87898460D01*
X179005461Y-92236999D01*
X178887676Y-92236896D01*
X178667071Y-92328048D01*
X178498141Y-92496683D01*
X178406604Y-92717129D01*
X178406396Y-92955824D01*
X174269016Y-92955824D01*
X178842440Y-88382401D01*
X178960224Y-88382504D01*
X179180829Y-88291352D01*
X179349759Y-88122717D01*
X179441296Y-87902271D01*
X179441504Y-87663576D01*
X179350352Y-87442971D01*
X179181717Y-87274041D01*
X178961271Y-87182504D01*
X178722576Y-87182296D01*
X178501971Y-87273448D01*
X178333041Y-87442083D01*
X178241504Y-87662529D01*
X178241400Y-87781359D01*
X173354006Y-92668754D01*
X173286976Y-92668696D01*
X173066371Y-92759848D01*
X172897441Y-92928483D01*
X172805904Y-93148929D01*
X172805696Y-93387624D01*
X166464800Y-93387624D01*
X166464800Y-75759930D01*
X166548159Y-75676717D01*
X166639696Y-75456271D01*
X166639904Y-75217576D01*
X166548752Y-74996971D01*
X166380117Y-74828041D01*
X166159671Y-74736504D01*
X165920976Y-74736296D01*
X165753600Y-74805454D01*
X165753600Y-73660000D01*
X191803970Y-73660000D01*
X191891509Y-74100086D01*
X192140797Y-74473173D01*
X192513884Y-74722461D01*
X192953970Y-74810000D01*
X192999030Y-74810000D01*
X193439116Y-74722461D01*
X193812203Y-74473173D01*
X194061491Y-74100086D01*
X194149030Y-73660000D01*
X194061491Y-73219914D01*
X193812203Y-72846827D01*
X193439116Y-72597539D01*
X192999030Y-72510000D01*
X192953970Y-72510000D01*
X192513884Y-72597539D01*
X192140797Y-72846827D01*
X191891509Y-73219914D01*
X191803970Y-73660000D01*
X165753600Y-73660000D01*
X165753600Y-73016730D01*
X165836959Y-72933517D01*
X165928496Y-72713071D01*
X165928704Y-72474376D01*
X165837552Y-72253771D01*
X165668917Y-72084841D01*
X165448471Y-71993304D01*
X165209776Y-71993096D01*
X164989171Y-72084248D01*
X164820241Y-72252883D01*
X164728704Y-72473329D01*
X164728496Y-72712024D01*
X164819648Y-72932629D01*
X164903600Y-73016728D01*
X164903600Y-94210359D01*
X164870361Y-94243599D01*
X164752576Y-94243496D01*
X164531971Y-94334648D01*
X164363041Y-94503283D01*
X164271504Y-94723729D01*
X164271296Y-94962424D01*
X150442400Y-94962424D01*
X150695703Y-94793173D01*
X150944991Y-94420086D01*
X151032530Y-93980000D01*
X150944991Y-93539914D01*
X150695703Y-93166827D01*
X150322616Y-92917539D01*
X149882530Y-92830000D01*
X149837470Y-92830000D01*
X149397384Y-92917539D01*
X149024297Y-93166827D01*
X148775009Y-93539914D01*
X148687470Y-93980000D01*
X147847000Y-93980000D01*
X147847000Y-91440000D01*
X148687470Y-91440000D01*
X148775009Y-91880086D01*
X149024297Y-92253173D01*
X149397384Y-92502461D01*
X149837470Y-92590000D01*
X149882530Y-92590000D01*
X150322616Y-92502461D01*
X150695703Y-92253173D01*
X150944991Y-91880086D01*
X151032530Y-91440000D01*
X150944991Y-90999914D01*
X150695703Y-90626827D01*
X150322616Y-90377539D01*
X149882530Y-90290000D01*
X149837470Y-90290000D01*
X149397384Y-90377539D01*
X149024297Y-90626827D01*
X148775009Y-90999914D01*
X148687470Y-91440000D01*
X147847000Y-91440000D01*
X147847000Y-88900000D01*
X148687470Y-88900000D01*
X148775009Y-89340086D01*
X149024297Y-89713173D01*
X149397384Y-89962461D01*
X149837470Y-90050000D01*
X149882530Y-90050000D01*
X150322616Y-89962461D01*
X150695703Y-89713173D01*
X150944991Y-89340086D01*
X151032530Y-88900000D01*
X150944991Y-88459914D01*
X150695703Y-88086827D01*
X150322616Y-87837539D01*
X149882530Y-87750000D01*
X149837470Y-87750000D01*
X149397384Y-87837539D01*
X149024297Y-88086827D01*
X148775009Y-88459914D01*
X148687470Y-88900000D01*
X147847000Y-88900000D01*
X147847000Y-86360000D01*
X148687470Y-86360000D01*
X148775009Y-86800086D01*
X149024297Y-87173173D01*
X149397384Y-87422461D01*
X149837470Y-87510000D01*
X149882530Y-87510000D01*
X150322616Y-87422461D01*
X150695703Y-87173173D01*
X150944991Y-86800086D01*
X151032530Y-86360000D01*
X150944991Y-85919914D01*
X150695703Y-85546827D01*
X150322616Y-85297539D01*
X149882530Y-85210000D01*
X149837470Y-85210000D01*
X149397384Y-85297539D01*
X149024297Y-85546827D01*
X148775009Y-85919914D01*
X148687470Y-86360000D01*
X147847000Y-86360000D01*
X147847000Y-83820000D01*
X148687470Y-83820000D01*
X148775009Y-84260086D01*
X149024297Y-84633173D01*
X149397384Y-84882461D01*
X149837470Y-84970000D01*
X149882530Y-84970000D01*
X150322616Y-84882461D01*
X150695703Y-84633173D01*
X150944991Y-84260086D01*
X151032530Y-83820000D01*
X150944991Y-83379914D01*
X150695703Y-83006827D01*
X150322616Y-82757539D01*
X149882530Y-82670000D01*
X149837470Y-82670000D01*
X149397384Y-82757539D01*
X149024297Y-83006827D01*
X148775009Y-83379914D01*
X148687470Y-83820000D01*
X147847000Y-83820000D01*
X147847000Y-81280000D01*
X148687470Y-81280000D01*
X148775009Y-81720086D01*
X149024297Y-82093173D01*
X149397384Y-82342461D01*
X149837470Y-82430000D01*
X149882530Y-82430000D01*
X150322616Y-82342461D01*
X150695703Y-82093173D01*
X150944991Y-81720086D01*
X151032530Y-81280000D01*
X150944991Y-80839914D01*
X150695703Y-80466827D01*
X150322616Y-80217539D01*
X149882530Y-80130000D01*
X149837470Y-80130000D01*
X149397384Y-80217539D01*
X149024297Y-80466827D01*
X148775009Y-80839914D01*
X148687470Y-81280000D01*
X147847000Y-81280000D01*
X147847000Y-78740000D01*
X148687470Y-78740000D01*
X148775009Y-79180086D01*
X149024297Y-79553173D01*
X149397384Y-79802461D01*
X149837470Y-79890000D01*
X149882530Y-79890000D01*
X150322616Y-79802461D01*
X150695703Y-79553173D01*
X150944991Y-79180086D01*
X151032530Y-78740000D01*
X150944991Y-78299914D01*
X150695703Y-77926827D01*
X150322616Y-77677539D01*
X149882530Y-77590000D01*
X149837470Y-77590000D01*
X149397384Y-77677539D01*
X149024297Y-77926827D01*
X148775009Y-78299914D01*
X148687470Y-78740000D01*
X147847000Y-78740000D01*
X147847000Y-76200000D01*
X148687470Y-76200000D01*
X148775009Y-76640086D01*
X149024297Y-77013173D01*
X149397384Y-77262461D01*
X149837470Y-77350000D01*
X149882530Y-77350000D01*
X150322616Y-77262461D01*
X150695703Y-77013173D01*
X150944991Y-76640086D01*
X151032530Y-76200000D01*
X150944991Y-75759914D01*
X150695703Y-75386827D01*
X150322616Y-75137539D01*
X149882530Y-75050000D01*
X149837470Y-75050000D01*
X149397384Y-75137539D01*
X149024297Y-75386827D01*
X148775009Y-75759914D01*
X148687470Y-76200000D01*
X147847000Y-76200000D01*
X147847000Y-71426000D01*
X148402000Y-71426000D01*
X148402000Y-72090938D01*
X148494562Y-72314404D01*
X148665595Y-72485437D01*
X148889061Y-72578000D01*
X149495613Y-72578000D01*
X149397384Y-72597539D01*
X149024297Y-72846827D01*
X148775009Y-73219914D01*
X148687470Y-73660000D01*
X148775009Y-74100086D01*
X149024297Y-74473173D01*
X149397384Y-74722461D01*
X149837470Y-74810000D01*
X149882530Y-74810000D01*
X150322616Y-74722461D01*
X150695703Y-74473173D01*
X150944991Y-74100086D01*
X151032530Y-73660000D01*
X150944991Y-73219914D01*
X150695703Y-72846827D01*
X150322616Y-72597539D01*
X150224387Y-72578000D01*
X150830939Y-72578000D01*
X151054405Y-72485437D01*
X151225438Y-72314404D01*
X151318000Y-72090938D01*
X151318000Y-71426000D01*
X151166000Y-71274000D01*
X150014000Y-71274000D01*
X150014000Y-71294000D01*
X149706000Y-71294000D01*
X149706000Y-71274000D01*
X148554000Y-71274000D01*
X148402000Y-71426000D01*
X147847000Y-71426000D01*
X147847000Y-69886500D01*
X148533658Y-69886500D01*
X148494562Y-69925596D01*
M02*
