M48
;DRILL file {KiCad 4.0.6-e0-6349~52~ubuntu16.10.1} date Sun Apr 30 13:40:04 2017
;FORMAT={-:-/ absolute / metric / decimal}
FMAT,2
METRIC,TZ
T1C0.400
T2C1.000
%
G90
G05
M71
T1
X151.384Y-69.977
X154.559Y-69.977
X157.29Y-91.63
X157.734Y-69.977
X160.909Y-69.977
X160.909Y-93.929
X161.036Y-78.181
X161.036Y-79.451
X161.036Y-80.721
X161.036Y-81.991
X161.061Y-73.101
X161.061Y-74.371
X161.061Y-75.641
X161.061Y-76.911
X163.601Y-115.57
X163.855Y-104.75
X164.084Y-69.977
X166.04Y-75.336
X166.624Y-74.549
X167.107Y-107.264
X167.183Y-105.308
X167.259Y-69.977
X169.088Y-93.701
X169.418Y-102.743
X169.799Y-106.477
X170.434Y-69.977
X170.713Y-99.263
X171.729Y-99.974
X171.78Y-103.759
X173.406Y-93.269
X173.609Y-69.977
X175.641Y-99.924
X176.784Y-69.977
X177.978Y-105.004
X178.283Y-103.988
X178.841Y-87.782
X179.006Y-92.837
X179.959Y-69.977
X180.784Y-92.837
X180.823Y-104.394
X180.873Y-100.838
X181.483Y-97.079
X182.27Y-107.899
X182.423Y-84.734
X182.474Y-83.261
X182.499Y-73.101
X182.499Y-74.371
X182.499Y-75.641
X182.499Y-76.911
X182.499Y-78.359
X182.499Y-80.721
X182.499Y-81.991
X182.728Y-71.171
X183.134Y-69.977
X183.769Y-76.263
X184.468Y-74.993
X184.607Y-106.35
X186.309Y-69.977
X186.563Y-113.919
X189.484Y-69.977
X194.894Y-69.977
T2
X149.86Y-71.12
X149.86Y-73.66
X149.86Y-76.2
X149.86Y-78.74
X149.86Y-81.28
X149.86Y-83.82
X149.86Y-86.36
X149.86Y-88.9
X149.86Y-91.44
X149.86Y-93.98
X149.86Y-96.52
X149.86Y-99.06
X149.86Y-101.6
X149.86Y-104.14
X149.86Y-106.68
X149.86Y-109.22
X149.86Y-111.76
X193.04Y-73.66
X193.04Y-76.2
X193.04Y-78.74
X193.04Y-81.28
X193.04Y-83.82
X193.04Y-86.36
X193.04Y-88.9
X193.04Y-91.44
X193.04Y-93.98
X193.04Y-96.52
X193.04Y-99.06
X193.04Y-101.6
X193.04Y-104.14
X193.04Y-106.68
X193.04Y-109.22
X193.04Y-111.76
T0
M30
