G04 #@! TF.FileFunction,Profile,NP*
%FSLAX46Y46*%
G04 Gerber Fmt 4.6, Leading zero omitted, Abs format (unit mm)*
G04 Created by KiCad (PCBNEW 4.0.6-e0-6349~52~ubuntu16.10.1) date Sun Apr 30 13:43:17 2017*
%MOMM*%
%LPD*%
G01*
G04 APERTURE LIST*
%ADD10C,0.100000*%
%ADD11C,0.200000*%
%ADD12C,0.150000*%
G04 APERTURE END LIST*
D10*
D11*
X176428400Y-119634000D02*
X181356000Y-119634000D01*
X148488400Y-119634000D02*
X165709600Y-119634000D01*
X194253634Y-116535200D02*
G75*
G03X194253634Y-116535200I-1620034J0D01*
G01*
X151988034Y-116535200D02*
G75*
G03X151988034Y-116535200I-1620034J0D01*
G01*
X194253634Y-66344800D02*
G75*
G03X194253634Y-66344800I-1620034J0D01*
G01*
X151988034Y-66395600D02*
G75*
G03X151988034Y-66395600I-1620034J0D01*
G01*
X148488400Y-63296800D02*
X152755600Y-63296800D01*
X190449200Y-63246000D02*
X194614800Y-63246000D01*
X147243800Y-64579500D02*
X147243800Y-118364000D01*
X189992000Y-63690500D02*
X188722000Y-63690500D01*
X190436500Y-63246000D02*
X189992000Y-63690500D01*
X153162000Y-63690500D02*
X188722000Y-63690500D01*
X152781000Y-63309500D02*
X153162000Y-63690500D01*
X195732400Y-64008000D02*
X195732400Y-118364000D01*
X181356000Y-119634000D02*
X194373500Y-119634000D01*
X166738300Y-118618000D02*
X165722300Y-119634000D01*
D12*
X166763700Y-118618000D02*
X175399700Y-118618000D01*
X176415700Y-119634000D02*
X175399700Y-118618000D01*
X194462400Y-119634000D02*
G75*
G03X195732400Y-118364000I0J1270000D01*
G01*
X147243800Y-118364000D02*
G75*
G03X148513800Y-119634000I1270000J0D01*
G01*
X195732400Y-64516000D02*
G75*
G03X194462400Y-63246000I-1270000J0D01*
G01*
X148513800Y-63309500D02*
G75*
G03X147243800Y-64579500I0J-1270000D01*
G01*
M02*
