G04 #@! TF.FileFunction,Legend,Bot*
%FSLAX46Y46*%
G04 Gerber Fmt 4.6, Leading zero omitted, Abs format (unit mm)*
G04 Created by KiCad (PCBNEW 4.0.6-e0-6349~52~ubuntu16.10.1) date Sun Apr 30 13:43:17 2017*
%MOMM*%
%LPD*%
G01*
G04 APERTURE LIST*
%ADD10C,0.100000*%
%ADD11C,0.500000*%
%ADD12C,0.175000*%
%ADD13C,0.010000*%
%ADD14R,2.100000X2.100000*%
%ADD15O,2.100000X2.100000*%
G04 APERTURE END LIST*
D10*
D11*
X180211953Y-115960543D02*
X179545286Y-115960543D01*
X179259572Y-117008162D02*
X180211953Y-117008162D01*
X180211953Y-115008162D01*
X179259572Y-115008162D01*
X178497667Y-116912924D02*
X178211952Y-117008162D01*
X177735762Y-117008162D01*
X177545286Y-116912924D01*
X177450048Y-116817686D01*
X177354809Y-116627210D01*
X177354809Y-116436733D01*
X177450048Y-116246257D01*
X177545286Y-116151019D01*
X177735762Y-116055781D01*
X178116714Y-115960543D01*
X178307190Y-115865305D01*
X178402429Y-115770067D01*
X178497667Y-115579590D01*
X178497667Y-115389114D01*
X178402429Y-115198638D01*
X178307190Y-115103400D01*
X178116714Y-115008162D01*
X177640524Y-115008162D01*
X177354809Y-115103400D01*
X176497667Y-117008162D02*
X176497667Y-115008162D01*
X175735762Y-115008162D01*
X175545286Y-115103400D01*
X175450047Y-115198638D01*
X175354809Y-115389114D01*
X175354809Y-115674829D01*
X175450047Y-115865305D01*
X175545286Y-115960543D01*
X175735762Y-116055781D01*
X176497667Y-116055781D01*
X174688143Y-115008162D02*
X173450047Y-115008162D01*
X174116714Y-115770067D01*
X173831000Y-115770067D01*
X173640524Y-115865305D01*
X173545286Y-115960543D01*
X173450047Y-116151019D01*
X173450047Y-116627210D01*
X173545286Y-116817686D01*
X173640524Y-116912924D01*
X173831000Y-117008162D01*
X174402428Y-117008162D01*
X174592905Y-116912924D01*
X174688143Y-116817686D01*
X172688143Y-115198638D02*
X172592905Y-115103400D01*
X172402428Y-115008162D01*
X171926238Y-115008162D01*
X171735762Y-115103400D01*
X171640524Y-115198638D01*
X171545285Y-115389114D01*
X171545285Y-115579590D01*
X171640524Y-115865305D01*
X172783381Y-117008162D01*
X171545285Y-117008162D01*
X170783381Y-116912924D02*
X170497666Y-117008162D01*
X170021476Y-117008162D01*
X169831000Y-116912924D01*
X169735762Y-116817686D01*
X169640523Y-116627210D01*
X169640523Y-116436733D01*
X169735762Y-116246257D01*
X169831000Y-116151019D01*
X170021476Y-116055781D01*
X170402428Y-115960543D01*
X170592904Y-115865305D01*
X170688143Y-115770067D01*
X170783381Y-115579590D01*
X170783381Y-115389114D01*
X170688143Y-115198638D01*
X170592904Y-115103400D01*
X170402428Y-115008162D01*
X169926238Y-115008162D01*
X169640523Y-115103400D01*
X169069095Y-115674829D02*
X168307190Y-115674829D01*
X168783381Y-115008162D02*
X168783381Y-116722448D01*
X168688142Y-116912924D01*
X168497666Y-117008162D01*
X168307190Y-117008162D01*
X166783381Y-117008162D02*
X166783381Y-115960543D01*
X166878619Y-115770067D01*
X167069095Y-115674829D01*
X167450047Y-115674829D01*
X167640524Y-115770067D01*
X166783381Y-116912924D02*
X166973857Y-117008162D01*
X167450047Y-117008162D01*
X167640524Y-116912924D01*
X167735762Y-116722448D01*
X167735762Y-116531971D01*
X167640524Y-116341495D01*
X167450047Y-116246257D01*
X166973857Y-116246257D01*
X166783381Y-116151019D01*
X164973857Y-116912924D02*
X165164333Y-117008162D01*
X165545285Y-117008162D01*
X165735761Y-116912924D01*
X165831000Y-116817686D01*
X165926238Y-116627210D01*
X165926238Y-116055781D01*
X165831000Y-115865305D01*
X165735761Y-115770067D01*
X165545285Y-115674829D01*
X165164333Y-115674829D01*
X164973857Y-115770067D01*
X164116714Y-117008162D02*
X164116714Y-115008162D01*
X163926237Y-116246257D02*
X163354809Y-117008162D01*
X163354809Y-115674829D02*
X164116714Y-116436733D01*
D12*
X195477567Y-81226834D02*
X195144233Y-80993500D01*
X195477567Y-80826834D02*
X194777567Y-80826834D01*
X194777567Y-81093500D01*
X194810900Y-81160167D01*
X194844233Y-81193500D01*
X194910900Y-81226834D01*
X195010900Y-81226834D01*
X195077567Y-81193500D01*
X195110900Y-81160167D01*
X195144233Y-81093500D01*
X195144233Y-80826834D01*
X194777567Y-81460167D02*
X195477567Y-81926834D01*
X194777567Y-81926834D02*
X195477567Y-81460167D01*
X147435133Y-99910000D02*
X148135133Y-99910000D01*
X148135133Y-99743334D01*
X148101800Y-99643334D01*
X148035133Y-99576667D01*
X147968467Y-99543334D01*
X147835133Y-99510000D01*
X147735133Y-99510000D01*
X147601800Y-99543334D01*
X147535133Y-99576667D01*
X147468467Y-99643334D01*
X147435133Y-99743334D01*
X147435133Y-99910000D01*
X148068467Y-99243334D02*
X148101800Y-99210000D01*
X148135133Y-99143334D01*
X148135133Y-98976667D01*
X148101800Y-98910000D01*
X148068467Y-98876667D01*
X148001800Y-98843334D01*
X147935133Y-98843334D01*
X147835133Y-98876667D01*
X147435133Y-99276667D01*
X147435133Y-98843334D01*
X148135133Y-98610000D02*
X148135133Y-98143333D01*
X147435133Y-98443333D01*
X194810900Y-111226667D02*
X194777567Y-111160001D01*
X194777567Y-111060001D01*
X194810900Y-110960001D01*
X194877567Y-110893334D01*
X194944233Y-110860001D01*
X195077567Y-110826667D01*
X195177567Y-110826667D01*
X195310900Y-110860001D01*
X195377567Y-110893334D01*
X195444233Y-110960001D01*
X195477567Y-111060001D01*
X195477567Y-111126667D01*
X195444233Y-111226667D01*
X195410900Y-111260001D01*
X195177567Y-111260001D01*
X195177567Y-111126667D01*
X195477567Y-111560001D02*
X194777567Y-111560001D01*
X195477567Y-111960001D01*
X194777567Y-111960001D01*
X195477567Y-112293334D02*
X194777567Y-112293334D01*
X194777567Y-112460000D01*
X194810900Y-112560000D01*
X194877567Y-112626667D01*
X194944233Y-112660000D01*
X195077567Y-112693334D01*
X195177567Y-112693334D01*
X195310900Y-112660000D01*
X195377567Y-112626667D01*
X195444233Y-112560000D01*
X195477567Y-112460000D01*
X195477567Y-112293334D01*
X195477567Y-72810000D02*
X194777567Y-72810000D01*
X194777567Y-72976666D01*
X194810900Y-73076666D01*
X194877567Y-73143333D01*
X194944233Y-73176666D01*
X195077567Y-73210000D01*
X195177567Y-73210000D01*
X195310900Y-73176666D01*
X195377567Y-73143333D01*
X195444233Y-73076666D01*
X195477567Y-72976666D01*
X195477567Y-72810000D01*
X194844233Y-73476666D02*
X194810900Y-73510000D01*
X194777567Y-73576666D01*
X194777567Y-73743333D01*
X194810900Y-73810000D01*
X194844233Y-73843333D01*
X194910900Y-73876666D01*
X194977567Y-73876666D01*
X195077567Y-73843333D01*
X195477567Y-73443333D01*
X195477567Y-73876666D01*
X194777567Y-74110000D02*
X194777567Y-74543333D01*
X195044233Y-74310000D01*
X195044233Y-74410000D01*
X195077567Y-74476667D01*
X195110900Y-74510000D01*
X195177567Y-74543333D01*
X195344233Y-74543333D01*
X195410900Y-74510000D01*
X195444233Y-74476667D01*
X195477567Y-74410000D01*
X195477567Y-74210000D01*
X195444233Y-74143333D01*
X195410900Y-74110000D01*
X195477567Y-75350000D02*
X194777567Y-75350000D01*
X194777567Y-75516666D01*
X194810900Y-75616666D01*
X194877567Y-75683333D01*
X194944233Y-75716666D01*
X195077567Y-75750000D01*
X195177567Y-75750000D01*
X195310900Y-75716666D01*
X195377567Y-75683333D01*
X195444233Y-75616666D01*
X195477567Y-75516666D01*
X195477567Y-75350000D01*
X194844233Y-76016666D02*
X194810900Y-76050000D01*
X194777567Y-76116666D01*
X194777567Y-76283333D01*
X194810900Y-76350000D01*
X194844233Y-76383333D01*
X194910900Y-76416666D01*
X194977567Y-76416666D01*
X195077567Y-76383333D01*
X195477567Y-75983333D01*
X195477567Y-76416666D01*
X194844233Y-76683333D02*
X194810900Y-76716667D01*
X194777567Y-76783333D01*
X194777567Y-76950000D01*
X194810900Y-77016667D01*
X194844233Y-77050000D01*
X194910900Y-77083333D01*
X194977567Y-77083333D01*
X195077567Y-77050000D01*
X195477567Y-76650000D01*
X195477567Y-77083333D01*
X195477567Y-82970000D02*
X194777567Y-82970000D01*
X194777567Y-83136666D01*
X194810900Y-83236666D01*
X194877567Y-83303333D01*
X194944233Y-83336666D01*
X195077567Y-83370000D01*
X195177567Y-83370000D01*
X195310900Y-83336666D01*
X195377567Y-83303333D01*
X195444233Y-83236666D01*
X195477567Y-83136666D01*
X195477567Y-82970000D01*
X194844233Y-83636666D02*
X194810900Y-83670000D01*
X194777567Y-83736666D01*
X194777567Y-83903333D01*
X194810900Y-83970000D01*
X194844233Y-84003333D01*
X194910900Y-84036666D01*
X194977567Y-84036666D01*
X195077567Y-84003333D01*
X195477567Y-83603333D01*
X195477567Y-84036666D01*
X195477567Y-84703333D02*
X195477567Y-84303333D01*
X195477567Y-84503333D02*
X194777567Y-84503333D01*
X194877567Y-84436667D01*
X194944233Y-84370000D01*
X194977567Y-84303333D01*
X195477567Y-85510000D02*
X194777567Y-85510000D01*
X194777567Y-85676666D01*
X194810900Y-85776666D01*
X194877567Y-85843333D01*
X194944233Y-85876666D01*
X195077567Y-85910000D01*
X195177567Y-85910000D01*
X195310900Y-85876666D01*
X195377567Y-85843333D01*
X195444233Y-85776666D01*
X195477567Y-85676666D01*
X195477567Y-85510000D01*
X195477567Y-86576666D02*
X195477567Y-86176666D01*
X195477567Y-86376666D02*
X194777567Y-86376666D01*
X194877567Y-86310000D01*
X194944233Y-86243333D01*
X194977567Y-86176666D01*
X195477567Y-86910000D02*
X195477567Y-87043333D01*
X195444233Y-87110000D01*
X195410900Y-87143333D01*
X195310900Y-87210000D01*
X195177567Y-87243333D01*
X194910900Y-87243333D01*
X194844233Y-87210000D01*
X194810900Y-87176667D01*
X194777567Y-87110000D01*
X194777567Y-86976667D01*
X194810900Y-86910000D01*
X194844233Y-86876667D01*
X194910900Y-86843333D01*
X195077567Y-86843333D01*
X195144233Y-86876667D01*
X195177567Y-86910000D01*
X195210900Y-86976667D01*
X195210900Y-87110000D01*
X195177567Y-87176667D01*
X195144233Y-87210000D01*
X195077567Y-87243333D01*
X195477567Y-88050000D02*
X194777567Y-88050000D01*
X194777567Y-88216666D01*
X194810900Y-88316666D01*
X194877567Y-88383333D01*
X194944233Y-88416666D01*
X195077567Y-88450000D01*
X195177567Y-88450000D01*
X195310900Y-88416666D01*
X195377567Y-88383333D01*
X195444233Y-88316666D01*
X195477567Y-88216666D01*
X195477567Y-88050000D01*
X195477567Y-89116666D02*
X195477567Y-88716666D01*
X195477567Y-88916666D02*
X194777567Y-88916666D01*
X194877567Y-88850000D01*
X194944233Y-88783333D01*
X194977567Y-88716666D01*
X195077567Y-89516667D02*
X195044233Y-89450000D01*
X195010900Y-89416667D01*
X194944233Y-89383333D01*
X194910900Y-89383333D01*
X194844233Y-89416667D01*
X194810900Y-89450000D01*
X194777567Y-89516667D01*
X194777567Y-89650000D01*
X194810900Y-89716667D01*
X194844233Y-89750000D01*
X194910900Y-89783333D01*
X194944233Y-89783333D01*
X195010900Y-89750000D01*
X195044233Y-89716667D01*
X195077567Y-89650000D01*
X195077567Y-89516667D01*
X195110900Y-89450000D01*
X195144233Y-89416667D01*
X195210900Y-89383333D01*
X195344233Y-89383333D01*
X195410900Y-89416667D01*
X195444233Y-89450000D01*
X195477567Y-89516667D01*
X195477567Y-89650000D01*
X195444233Y-89716667D01*
X195410900Y-89750000D01*
X195344233Y-89783333D01*
X195210900Y-89783333D01*
X195144233Y-89750000D01*
X195110900Y-89716667D01*
X195077567Y-89650000D01*
X195477567Y-90590000D02*
X194777567Y-90590000D01*
X194777567Y-90756666D01*
X194810900Y-90856666D01*
X194877567Y-90923333D01*
X194944233Y-90956666D01*
X195077567Y-90990000D01*
X195177567Y-90990000D01*
X195310900Y-90956666D01*
X195377567Y-90923333D01*
X195444233Y-90856666D01*
X195477567Y-90756666D01*
X195477567Y-90590000D01*
X194777567Y-91423333D02*
X194777567Y-91490000D01*
X194810900Y-91556666D01*
X194844233Y-91590000D01*
X194910900Y-91623333D01*
X195044233Y-91656666D01*
X195210900Y-91656666D01*
X195344233Y-91623333D01*
X195410900Y-91590000D01*
X195444233Y-91556666D01*
X195477567Y-91490000D01*
X195477567Y-91423333D01*
X195444233Y-91356666D01*
X195410900Y-91323333D01*
X195344233Y-91290000D01*
X195210900Y-91256666D01*
X195044233Y-91256666D01*
X194910900Y-91290000D01*
X194844233Y-91323333D01*
X194810900Y-91356666D01*
X194777567Y-91423333D01*
X194777567Y-92290000D02*
X194777567Y-91956667D01*
X195110900Y-91923333D01*
X195077567Y-91956667D01*
X195044233Y-92023333D01*
X195044233Y-92190000D01*
X195077567Y-92256667D01*
X195110900Y-92290000D01*
X195177567Y-92323333D01*
X195344233Y-92323333D01*
X195410900Y-92290000D01*
X195444233Y-92256667D01*
X195477567Y-92190000D01*
X195477567Y-92023333D01*
X195444233Y-91956667D01*
X195410900Y-91923333D01*
X195477567Y-93130000D02*
X194777567Y-93130000D01*
X194777567Y-93296666D01*
X194810900Y-93396666D01*
X194877567Y-93463333D01*
X194944233Y-93496666D01*
X195077567Y-93530000D01*
X195177567Y-93530000D01*
X195310900Y-93496666D01*
X195377567Y-93463333D01*
X195444233Y-93396666D01*
X195477567Y-93296666D01*
X195477567Y-93130000D01*
X195477567Y-94196666D02*
X195477567Y-93796666D01*
X195477567Y-93996666D02*
X194777567Y-93996666D01*
X194877567Y-93930000D01*
X194944233Y-93863333D01*
X194977567Y-93796666D01*
X194777567Y-94430000D02*
X194777567Y-94896667D01*
X195477567Y-94596667D01*
X195477567Y-95670000D02*
X194777567Y-95670000D01*
X194777567Y-95836666D01*
X194810900Y-95936666D01*
X194877567Y-96003333D01*
X194944233Y-96036666D01*
X195077567Y-96070000D01*
X195177567Y-96070000D01*
X195310900Y-96036666D01*
X195377567Y-96003333D01*
X195444233Y-95936666D01*
X195477567Y-95836666D01*
X195477567Y-95670000D01*
X195477567Y-96736666D02*
X195477567Y-96336666D01*
X195477567Y-96536666D02*
X194777567Y-96536666D01*
X194877567Y-96470000D01*
X194944233Y-96403333D01*
X194977567Y-96336666D01*
X194777567Y-97336667D02*
X194777567Y-97203333D01*
X194810900Y-97136667D01*
X194844233Y-97103333D01*
X194944233Y-97036667D01*
X195077567Y-97003333D01*
X195344233Y-97003333D01*
X195410900Y-97036667D01*
X195444233Y-97070000D01*
X195477567Y-97136667D01*
X195477567Y-97270000D01*
X195444233Y-97336667D01*
X195410900Y-97370000D01*
X195344233Y-97403333D01*
X195177567Y-97403333D01*
X195110900Y-97370000D01*
X195077567Y-97336667D01*
X195044233Y-97270000D01*
X195044233Y-97136667D01*
X195077567Y-97070000D01*
X195110900Y-97036667D01*
X195177567Y-97003333D01*
X195477567Y-98210000D02*
X194777567Y-98210000D01*
X194777567Y-98376666D01*
X194810900Y-98476666D01*
X194877567Y-98543333D01*
X194944233Y-98576666D01*
X195077567Y-98610000D01*
X195177567Y-98610000D01*
X195310900Y-98576666D01*
X195377567Y-98543333D01*
X195444233Y-98476666D01*
X195477567Y-98376666D01*
X195477567Y-98210000D01*
X194777567Y-99043333D02*
X194777567Y-99110000D01*
X194810900Y-99176666D01*
X194844233Y-99210000D01*
X194910900Y-99243333D01*
X195044233Y-99276666D01*
X195210900Y-99276666D01*
X195344233Y-99243333D01*
X195410900Y-99210000D01*
X195444233Y-99176666D01*
X195477567Y-99110000D01*
X195477567Y-99043333D01*
X195444233Y-98976666D01*
X195410900Y-98943333D01*
X195344233Y-98910000D01*
X195210900Y-98876666D01*
X195044233Y-98876666D01*
X194910900Y-98910000D01*
X194844233Y-98943333D01*
X194810900Y-98976666D01*
X194777567Y-99043333D01*
X195010900Y-99876667D02*
X195477567Y-99876667D01*
X194744233Y-99710000D02*
X195244233Y-99543333D01*
X195244233Y-99976667D01*
X195477567Y-100750000D02*
X194777567Y-100750000D01*
X194777567Y-100916666D01*
X194810900Y-101016666D01*
X194877567Y-101083333D01*
X194944233Y-101116666D01*
X195077567Y-101150000D01*
X195177567Y-101150000D01*
X195310900Y-101116666D01*
X195377567Y-101083333D01*
X195444233Y-101016666D01*
X195477567Y-100916666D01*
X195477567Y-100750000D01*
X194777567Y-101583333D02*
X194777567Y-101650000D01*
X194810900Y-101716666D01*
X194844233Y-101750000D01*
X194910900Y-101783333D01*
X195044233Y-101816666D01*
X195210900Y-101816666D01*
X195344233Y-101783333D01*
X195410900Y-101750000D01*
X195444233Y-101716666D01*
X195477567Y-101650000D01*
X195477567Y-101583333D01*
X195444233Y-101516666D01*
X195410900Y-101483333D01*
X195344233Y-101450000D01*
X195210900Y-101416666D01*
X195044233Y-101416666D01*
X194910900Y-101450000D01*
X194844233Y-101483333D01*
X194810900Y-101516666D01*
X194777567Y-101583333D01*
X194777567Y-102250000D02*
X194777567Y-102316667D01*
X194810900Y-102383333D01*
X194844233Y-102416667D01*
X194910900Y-102450000D01*
X195044233Y-102483333D01*
X195210900Y-102483333D01*
X195344233Y-102450000D01*
X195410900Y-102416667D01*
X195444233Y-102383333D01*
X195477567Y-102316667D01*
X195477567Y-102250000D01*
X195444233Y-102183333D01*
X195410900Y-102150000D01*
X195344233Y-102116667D01*
X195210900Y-102083333D01*
X195044233Y-102083333D01*
X194910900Y-102116667D01*
X194844233Y-102150000D01*
X194810900Y-102183333D01*
X194777567Y-102250000D01*
X195477567Y-103290000D02*
X194777567Y-103290000D01*
X194777567Y-103456666D01*
X194810900Y-103556666D01*
X194877567Y-103623333D01*
X194944233Y-103656666D01*
X195077567Y-103690000D01*
X195177567Y-103690000D01*
X195310900Y-103656666D01*
X195377567Y-103623333D01*
X195444233Y-103556666D01*
X195477567Y-103456666D01*
X195477567Y-103290000D01*
X194777567Y-104123333D02*
X194777567Y-104190000D01*
X194810900Y-104256666D01*
X194844233Y-104290000D01*
X194910900Y-104323333D01*
X195044233Y-104356666D01*
X195210900Y-104356666D01*
X195344233Y-104323333D01*
X195410900Y-104290000D01*
X195444233Y-104256666D01*
X195477567Y-104190000D01*
X195477567Y-104123333D01*
X195444233Y-104056666D01*
X195410900Y-104023333D01*
X195344233Y-103990000D01*
X195210900Y-103956666D01*
X195044233Y-103956666D01*
X194910900Y-103990000D01*
X194844233Y-104023333D01*
X194810900Y-104056666D01*
X194777567Y-104123333D01*
X194844233Y-104623333D02*
X194810900Y-104656667D01*
X194777567Y-104723333D01*
X194777567Y-104890000D01*
X194810900Y-104956667D01*
X194844233Y-104990000D01*
X194910900Y-105023333D01*
X194977567Y-105023333D01*
X195077567Y-104990000D01*
X195477567Y-104590000D01*
X195477567Y-105023333D01*
X194777567Y-78143167D02*
X194777567Y-78543167D01*
X195477567Y-78343167D02*
X194777567Y-78343167D01*
X194777567Y-78709833D02*
X195477567Y-79176500D01*
X194777567Y-79176500D02*
X195477567Y-78709833D01*
X195477567Y-105830000D02*
X194777567Y-105830000D01*
X194777567Y-105996666D01*
X194810900Y-106096666D01*
X194877567Y-106163333D01*
X194944233Y-106196666D01*
X195077567Y-106230000D01*
X195177567Y-106230000D01*
X195310900Y-106196666D01*
X195377567Y-106163333D01*
X195444233Y-106096666D01*
X195477567Y-105996666D01*
X195477567Y-105830000D01*
X195477567Y-106896666D02*
X195477567Y-106496666D01*
X195477567Y-106696666D02*
X194777567Y-106696666D01*
X194877567Y-106630000D01*
X194944233Y-106563333D01*
X194977567Y-106496666D01*
X194777567Y-107530000D02*
X194777567Y-107196667D01*
X195110900Y-107163333D01*
X195077567Y-107196667D01*
X195044233Y-107263333D01*
X195044233Y-107430000D01*
X195077567Y-107496667D01*
X195110900Y-107530000D01*
X195177567Y-107563333D01*
X195344233Y-107563333D01*
X195410900Y-107530000D01*
X195444233Y-107496667D01*
X195477567Y-107430000D01*
X195477567Y-107263333D01*
X195444233Y-107196667D01*
X195410900Y-107163333D01*
X194777567Y-108353333D02*
X194777567Y-108786666D01*
X195044233Y-108553333D01*
X195044233Y-108653333D01*
X195077567Y-108720000D01*
X195110900Y-108753333D01*
X195177567Y-108786666D01*
X195344233Y-108786666D01*
X195410900Y-108753333D01*
X195444233Y-108720000D01*
X195477567Y-108653333D01*
X195477567Y-108453333D01*
X195444233Y-108386666D01*
X195410900Y-108353333D01*
X194777567Y-108986667D02*
X195477567Y-109220000D01*
X194777567Y-109453333D01*
X194777567Y-109620000D02*
X194777567Y-110053333D01*
X195044233Y-109820000D01*
X195044233Y-109920000D01*
X195077567Y-109986667D01*
X195110900Y-110020000D01*
X195177567Y-110053333D01*
X195344233Y-110053333D01*
X195410900Y-110020000D01*
X195444233Y-109986667D01*
X195477567Y-109920000D01*
X195477567Y-109720000D01*
X195444233Y-109653333D01*
X195410900Y-109620000D01*
X147435133Y-112243333D02*
X147768467Y-112476667D01*
X147435133Y-112643333D02*
X148135133Y-112643333D01*
X148135133Y-112376667D01*
X148101800Y-112310000D01*
X148068467Y-112276667D01*
X148001800Y-112243333D01*
X147901800Y-112243333D01*
X147835133Y-112276667D01*
X147801800Y-112310000D01*
X147768467Y-112376667D01*
X147768467Y-112643333D01*
X147635133Y-111976667D02*
X147635133Y-111643333D01*
X147435133Y-112043333D02*
X148135133Y-111810000D01*
X147435133Y-111576667D01*
X148135133Y-111410000D02*
X147435133Y-111243333D01*
X147935133Y-111110000D01*
X147435133Y-110976667D01*
X148135133Y-110810000D01*
X148101800Y-109753333D02*
X148135133Y-109819999D01*
X148135133Y-109919999D01*
X148101800Y-110019999D01*
X148035133Y-110086666D01*
X147968467Y-110119999D01*
X147835133Y-110153333D01*
X147735133Y-110153333D01*
X147601800Y-110119999D01*
X147535133Y-110086666D01*
X147468467Y-110019999D01*
X147435133Y-109919999D01*
X147435133Y-109853333D01*
X147468467Y-109753333D01*
X147501800Y-109719999D01*
X147735133Y-109719999D01*
X147735133Y-109853333D01*
X147435133Y-109419999D02*
X148135133Y-109419999D01*
X147435133Y-109019999D01*
X148135133Y-109019999D01*
X147435133Y-108686666D02*
X148135133Y-108686666D01*
X148135133Y-108520000D01*
X148101800Y-108420000D01*
X148035133Y-108353333D01*
X147968467Y-108320000D01*
X147835133Y-108286666D01*
X147735133Y-108286666D01*
X147601800Y-108320000D01*
X147535133Y-108353333D01*
X147468467Y-108420000D01*
X147435133Y-108520000D01*
X147435133Y-108686666D01*
X147435133Y-107530000D02*
X148135133Y-107530000D01*
X148135133Y-107363334D01*
X148101800Y-107263334D01*
X148035133Y-107196667D01*
X147968467Y-107163334D01*
X147835133Y-107130000D01*
X147735133Y-107130000D01*
X147601800Y-107163334D01*
X147535133Y-107196667D01*
X147468467Y-107263334D01*
X147435133Y-107363334D01*
X147435133Y-107530000D01*
X147435133Y-106463334D02*
X147435133Y-106863334D01*
X147435133Y-106663334D02*
X148135133Y-106663334D01*
X148035133Y-106730000D01*
X147968467Y-106796667D01*
X147935133Y-106863334D01*
X148135133Y-106230000D02*
X148135133Y-105796667D01*
X147868467Y-106030000D01*
X147868467Y-105930000D01*
X147835133Y-105863333D01*
X147801800Y-105830000D01*
X147735133Y-105796667D01*
X147568467Y-105796667D01*
X147501800Y-105830000D01*
X147468467Y-105863333D01*
X147435133Y-105930000D01*
X147435133Y-106130000D01*
X147468467Y-106196667D01*
X147501800Y-106230000D01*
X147435133Y-104990000D02*
X148135133Y-104990000D01*
X148135133Y-104823334D01*
X148101800Y-104723334D01*
X148035133Y-104656667D01*
X147968467Y-104623334D01*
X147835133Y-104590000D01*
X147735133Y-104590000D01*
X147601800Y-104623334D01*
X147535133Y-104656667D01*
X147468467Y-104723334D01*
X147435133Y-104823334D01*
X147435133Y-104990000D01*
X147435133Y-103923334D02*
X147435133Y-104323334D01*
X147435133Y-104123334D02*
X148135133Y-104123334D01*
X148035133Y-104190000D01*
X147968467Y-104256667D01*
X147935133Y-104323334D01*
X148068467Y-103656667D02*
X148101800Y-103623333D01*
X148135133Y-103556667D01*
X148135133Y-103390000D01*
X148101800Y-103323333D01*
X148068467Y-103290000D01*
X148001800Y-103256667D01*
X147935133Y-103256667D01*
X147835133Y-103290000D01*
X147435133Y-103690000D01*
X147435133Y-103256667D01*
X147435133Y-102450000D02*
X148135133Y-102450000D01*
X148135133Y-102283334D01*
X148101800Y-102183334D01*
X148035133Y-102116667D01*
X147968467Y-102083334D01*
X147835133Y-102050000D01*
X147735133Y-102050000D01*
X147601800Y-102083334D01*
X147535133Y-102116667D01*
X147468467Y-102183334D01*
X147435133Y-102283334D01*
X147435133Y-102450000D01*
X147435133Y-101383334D02*
X147435133Y-101783334D01*
X147435133Y-101583334D02*
X148135133Y-101583334D01*
X148035133Y-101650000D01*
X147968467Y-101716667D01*
X147935133Y-101783334D01*
X147901800Y-100783333D02*
X147435133Y-100783333D01*
X148168467Y-100950000D02*
X147668467Y-101116667D01*
X147668467Y-100683333D01*
X147435133Y-97370000D02*
X148135133Y-97370000D01*
X148135133Y-97203334D01*
X148101800Y-97103334D01*
X148035133Y-97036667D01*
X147968467Y-97003334D01*
X147835133Y-96970000D01*
X147735133Y-96970000D01*
X147601800Y-97003334D01*
X147535133Y-97036667D01*
X147468467Y-97103334D01*
X147435133Y-97203334D01*
X147435133Y-97370000D01*
X148068467Y-96703334D02*
X148101800Y-96670000D01*
X148135133Y-96603334D01*
X148135133Y-96436667D01*
X148101800Y-96370000D01*
X148068467Y-96336667D01*
X148001800Y-96303334D01*
X147935133Y-96303334D01*
X147835133Y-96336667D01*
X147435133Y-96736667D01*
X147435133Y-96303334D01*
X148135133Y-95703333D02*
X148135133Y-95836667D01*
X148101800Y-95903333D01*
X148068467Y-95936667D01*
X147968467Y-96003333D01*
X147835133Y-96036667D01*
X147568467Y-96036667D01*
X147501800Y-96003333D01*
X147468467Y-95970000D01*
X147435133Y-95903333D01*
X147435133Y-95770000D01*
X147468467Y-95703333D01*
X147501800Y-95670000D01*
X147568467Y-95636667D01*
X147735133Y-95636667D01*
X147801800Y-95670000D01*
X147835133Y-95703333D01*
X147868467Y-95770000D01*
X147868467Y-95903333D01*
X147835133Y-95970000D01*
X147801800Y-96003333D01*
X147735133Y-96036667D01*
X147435133Y-94830000D02*
X148135133Y-94830000D01*
X148135133Y-94663334D01*
X148101800Y-94563334D01*
X148035133Y-94496667D01*
X147968467Y-94463334D01*
X147835133Y-94430000D01*
X147735133Y-94430000D01*
X147601800Y-94463334D01*
X147535133Y-94496667D01*
X147468467Y-94563334D01*
X147435133Y-94663334D01*
X147435133Y-94830000D01*
X148068467Y-94163334D02*
X148101800Y-94130000D01*
X148135133Y-94063334D01*
X148135133Y-93896667D01*
X148101800Y-93830000D01*
X148068467Y-93796667D01*
X148001800Y-93763334D01*
X147935133Y-93763334D01*
X147835133Y-93796667D01*
X147435133Y-94196667D01*
X147435133Y-93763334D01*
X148135133Y-93130000D02*
X148135133Y-93463333D01*
X147801800Y-93496667D01*
X147835133Y-93463333D01*
X147868467Y-93396667D01*
X147868467Y-93230000D01*
X147835133Y-93163333D01*
X147801800Y-93130000D01*
X147735133Y-93096667D01*
X147568467Y-93096667D01*
X147501800Y-93130000D01*
X147468467Y-93163333D01*
X147435133Y-93230000D01*
X147435133Y-93396667D01*
X147468467Y-93463333D01*
X147501800Y-93496667D01*
X147435133Y-92290000D02*
X148135133Y-92290000D01*
X148135133Y-92123334D01*
X148101800Y-92023334D01*
X148035133Y-91956667D01*
X147968467Y-91923334D01*
X147835133Y-91890000D01*
X147735133Y-91890000D01*
X147601800Y-91923334D01*
X147535133Y-91956667D01*
X147468467Y-92023334D01*
X147435133Y-92123334D01*
X147435133Y-92290000D01*
X148135133Y-91656667D02*
X148135133Y-91223334D01*
X147868467Y-91456667D01*
X147868467Y-91356667D01*
X147835133Y-91290000D01*
X147801800Y-91256667D01*
X147735133Y-91223334D01*
X147568467Y-91223334D01*
X147501800Y-91256667D01*
X147468467Y-91290000D01*
X147435133Y-91356667D01*
X147435133Y-91556667D01*
X147468467Y-91623334D01*
X147501800Y-91656667D01*
X148135133Y-90990000D02*
X148135133Y-90556667D01*
X147868467Y-90790000D01*
X147868467Y-90690000D01*
X147835133Y-90623333D01*
X147801800Y-90590000D01*
X147735133Y-90556667D01*
X147568467Y-90556667D01*
X147501800Y-90590000D01*
X147468467Y-90623333D01*
X147435133Y-90690000D01*
X147435133Y-90890000D01*
X147468467Y-90956667D01*
X147501800Y-90990000D01*
X147435133Y-89750000D02*
X148135133Y-89750000D01*
X148135133Y-89583334D01*
X148101800Y-89483334D01*
X148035133Y-89416667D01*
X147968467Y-89383334D01*
X147835133Y-89350000D01*
X147735133Y-89350000D01*
X147601800Y-89383334D01*
X147535133Y-89416667D01*
X147468467Y-89483334D01*
X147435133Y-89583334D01*
X147435133Y-89750000D01*
X148135133Y-89116667D02*
X148135133Y-88683334D01*
X147868467Y-88916667D01*
X147868467Y-88816667D01*
X147835133Y-88750000D01*
X147801800Y-88716667D01*
X147735133Y-88683334D01*
X147568467Y-88683334D01*
X147501800Y-88716667D01*
X147468467Y-88750000D01*
X147435133Y-88816667D01*
X147435133Y-89016667D01*
X147468467Y-89083334D01*
X147501800Y-89116667D01*
X148068467Y-88416667D02*
X148101800Y-88383333D01*
X148135133Y-88316667D01*
X148135133Y-88150000D01*
X148101800Y-88083333D01*
X148068467Y-88050000D01*
X148001800Y-88016667D01*
X147935133Y-88016667D01*
X147835133Y-88050000D01*
X147435133Y-88450000D01*
X147435133Y-88016667D01*
X147435133Y-87210000D02*
X148135133Y-87210000D01*
X148135133Y-87043334D01*
X148101800Y-86943334D01*
X148035133Y-86876667D01*
X147968467Y-86843334D01*
X147835133Y-86810000D01*
X147735133Y-86810000D01*
X147601800Y-86843334D01*
X147535133Y-86876667D01*
X147468467Y-86943334D01*
X147435133Y-87043334D01*
X147435133Y-87210000D01*
X148135133Y-86576667D02*
X148135133Y-86143334D01*
X147868467Y-86376667D01*
X147868467Y-86276667D01*
X147835133Y-86210000D01*
X147801800Y-86176667D01*
X147735133Y-86143334D01*
X147568467Y-86143334D01*
X147501800Y-86176667D01*
X147468467Y-86210000D01*
X147435133Y-86276667D01*
X147435133Y-86476667D01*
X147468467Y-86543334D01*
X147501800Y-86576667D01*
X148135133Y-85510000D02*
X148135133Y-85843333D01*
X147801800Y-85876667D01*
X147835133Y-85843333D01*
X147868467Y-85776667D01*
X147868467Y-85610000D01*
X147835133Y-85543333D01*
X147801800Y-85510000D01*
X147735133Y-85476667D01*
X147568467Y-85476667D01*
X147501800Y-85510000D01*
X147468467Y-85543333D01*
X147435133Y-85610000D01*
X147435133Y-85776667D01*
X147468467Y-85843333D01*
X147501800Y-85876667D01*
X147435133Y-84670000D02*
X148135133Y-84670000D01*
X148135133Y-84503334D01*
X148101800Y-84403334D01*
X148035133Y-84336667D01*
X147968467Y-84303334D01*
X147835133Y-84270000D01*
X147735133Y-84270000D01*
X147601800Y-84303334D01*
X147535133Y-84336667D01*
X147468467Y-84403334D01*
X147435133Y-84503334D01*
X147435133Y-84670000D01*
X148135133Y-84036667D02*
X148135133Y-83603334D01*
X147868467Y-83836667D01*
X147868467Y-83736667D01*
X147835133Y-83670000D01*
X147801800Y-83636667D01*
X147735133Y-83603334D01*
X147568467Y-83603334D01*
X147501800Y-83636667D01*
X147468467Y-83670000D01*
X147435133Y-83736667D01*
X147435133Y-83936667D01*
X147468467Y-84003334D01*
X147501800Y-84036667D01*
X147901800Y-83003333D02*
X147435133Y-83003333D01*
X148168467Y-83170000D02*
X147668467Y-83336667D01*
X147668467Y-82903333D01*
X147468467Y-82146667D02*
X147435133Y-82046667D01*
X147435133Y-81880000D01*
X147468467Y-81813333D01*
X147501800Y-81780000D01*
X147568467Y-81746667D01*
X147635133Y-81746667D01*
X147701800Y-81780000D01*
X147735133Y-81813333D01*
X147768467Y-81880000D01*
X147801800Y-82013333D01*
X147835133Y-82080000D01*
X147868467Y-82113333D01*
X147935133Y-82146667D01*
X148001800Y-82146667D01*
X148068467Y-82113333D01*
X148101800Y-82080000D01*
X148135133Y-82013333D01*
X148135133Y-81846667D01*
X148101800Y-81746667D01*
X148135133Y-81546666D02*
X147435133Y-81313333D01*
X148135133Y-81080000D01*
X147435133Y-80846666D02*
X148135133Y-80846666D01*
X147435133Y-80446666D01*
X148135133Y-80446666D01*
X147468467Y-79590000D02*
X147435133Y-79490000D01*
X147435133Y-79323333D01*
X147468467Y-79256666D01*
X147501800Y-79223333D01*
X147568467Y-79190000D01*
X147635133Y-79190000D01*
X147701800Y-79223333D01*
X147735133Y-79256666D01*
X147768467Y-79323333D01*
X147801800Y-79456666D01*
X147835133Y-79523333D01*
X147868467Y-79556666D01*
X147935133Y-79590000D01*
X148001800Y-79590000D01*
X148068467Y-79556666D01*
X148101800Y-79523333D01*
X148135133Y-79456666D01*
X148135133Y-79290000D01*
X148101800Y-79190000D01*
X148135133Y-78989999D02*
X147435133Y-78756666D01*
X148135133Y-78523333D01*
X147435133Y-78289999D02*
X148135133Y-78289999D01*
X148135133Y-78023333D01*
X148101800Y-77956666D01*
X148068467Y-77923333D01*
X148001800Y-77889999D01*
X147901800Y-77889999D01*
X147835133Y-77923333D01*
X147801800Y-77956666D01*
X147768467Y-78023333D01*
X147768467Y-78289999D01*
X147776400Y-76716666D02*
X147776400Y-76483333D01*
X147409733Y-76383333D02*
X147409733Y-76716666D01*
X148109733Y-76716666D01*
X148109733Y-76383333D01*
X147409733Y-76083333D02*
X148109733Y-76083333D01*
X147409733Y-75683333D01*
X148109733Y-75683333D01*
X148135133Y-74526667D02*
X148135133Y-74093334D01*
X147868467Y-74326667D01*
X147868467Y-74226667D01*
X147835133Y-74160000D01*
X147801800Y-74126667D01*
X147735133Y-74093334D01*
X147568467Y-74093334D01*
X147501800Y-74126667D01*
X147468467Y-74160000D01*
X147435133Y-74226667D01*
X147435133Y-74426667D01*
X147468467Y-74493334D01*
X147501800Y-74526667D01*
X148135133Y-73893333D02*
X147435133Y-73660000D01*
X148135133Y-73426667D01*
X148135133Y-73260000D02*
X148135133Y-72826667D01*
X147868467Y-73060000D01*
X147868467Y-72960000D01*
X147835133Y-72893333D01*
X147801800Y-72860000D01*
X147735133Y-72826667D01*
X147568467Y-72826667D01*
X147501800Y-72860000D01*
X147468467Y-72893333D01*
X147435133Y-72960000D01*
X147435133Y-73160000D01*
X147468467Y-73226667D01*
X147501800Y-73260000D01*
X148101800Y-71653333D02*
X148135133Y-71719999D01*
X148135133Y-71819999D01*
X148101800Y-71919999D01*
X148035133Y-71986666D01*
X147968467Y-72019999D01*
X147835133Y-72053333D01*
X147735133Y-72053333D01*
X147601800Y-72019999D01*
X147535133Y-71986666D01*
X147468467Y-71919999D01*
X147435133Y-71819999D01*
X147435133Y-71753333D01*
X147468467Y-71653333D01*
X147501800Y-71619999D01*
X147735133Y-71619999D01*
X147735133Y-71753333D01*
X147435133Y-71319999D02*
X148135133Y-71319999D01*
X147435133Y-70919999D01*
X148135133Y-70919999D01*
X147435133Y-70586666D02*
X148135133Y-70586666D01*
X148135133Y-70420000D01*
X148101800Y-70320000D01*
X148035133Y-70253333D01*
X147968467Y-70220000D01*
X147835133Y-70186666D01*
X147735133Y-70186666D01*
X147601800Y-70220000D01*
X147535133Y-70253333D01*
X147468467Y-70320000D01*
X147435133Y-70420000D01*
X147435133Y-70586666D01*
D13*
G36*
X192777075Y-69257517D02*
X192764930Y-69322571D01*
X192753465Y-69380876D01*
X192743473Y-69428636D01*
X192735745Y-69462052D01*
X192731221Y-69477061D01*
X192717726Y-69487872D01*
X192688066Y-69503889D01*
X192646873Y-69523229D01*
X192598782Y-69544006D01*
X192548427Y-69564338D01*
X192500441Y-69582341D01*
X192459458Y-69596129D01*
X192430112Y-69603821D01*
X192418172Y-69604335D01*
X192404186Y-69596298D01*
X192375309Y-69577808D01*
X192334793Y-69551012D01*
X192285888Y-69518055D01*
X192238697Y-69485803D01*
X192185221Y-69449266D01*
X192137398Y-69417044D01*
X192098447Y-69391271D01*
X192071588Y-69374081D01*
X192060512Y-69367747D01*
X192048369Y-69373389D01*
X192024094Y-69392335D01*
X191990595Y-69421710D01*
X191950779Y-69458643D01*
X191907552Y-69500260D01*
X191863823Y-69543688D01*
X191822498Y-69586055D01*
X191786485Y-69624486D01*
X191758691Y-69656110D01*
X191742022Y-69678053D01*
X191738526Y-69685944D01*
X191744520Y-69700221D01*
X191761183Y-69729413D01*
X191786538Y-69770330D01*
X191818610Y-69819778D01*
X191854482Y-69873191D01*
X191891145Y-69927618D01*
X191923040Y-69976324D01*
X191948198Y-70016191D01*
X191964653Y-70044104D01*
X191970439Y-70056873D01*
X191966189Y-70071836D01*
X191954753Y-70102288D01*
X191938108Y-70143616D01*
X191918225Y-70191211D01*
X191897081Y-70240461D01*
X191876647Y-70286756D01*
X191858900Y-70325485D01*
X191845812Y-70352038D01*
X191840071Y-70361368D01*
X191828021Y-70365141D01*
X191798341Y-70372165D01*
X191755109Y-70381622D01*
X191702403Y-70392692D01*
X191644303Y-70404556D01*
X191584885Y-70416396D01*
X191528229Y-70427393D01*
X191478412Y-70436728D01*
X191439515Y-70443582D01*
X191415613Y-70447136D01*
X191411299Y-70447452D01*
X191408985Y-70457828D01*
X191407436Y-70486322D01*
X191406590Y-70528978D01*
X191406388Y-70581841D01*
X191406770Y-70640958D01*
X191407677Y-70702373D01*
X191409048Y-70762131D01*
X191410825Y-70816278D01*
X191412947Y-70860859D01*
X191415355Y-70891920D01*
X191417988Y-70905506D01*
X191418220Y-70905729D01*
X191432185Y-70909879D01*
X191464173Y-70917211D01*
X191510478Y-70926944D01*
X191567394Y-70938295D01*
X191623345Y-70949008D01*
X191687824Y-70961813D01*
X191744623Y-70974401D01*
X191790060Y-70985855D01*
X191820456Y-70995259D01*
X191831613Y-71000840D01*
X191840649Y-71016396D01*
X191855382Y-71047866D01*
X191873917Y-71090556D01*
X191894364Y-71139771D01*
X191914828Y-71190813D01*
X191933418Y-71238988D01*
X191948241Y-71279601D01*
X191957404Y-71307954D01*
X191959437Y-71317971D01*
X191953405Y-71331453D01*
X191936699Y-71359762D01*
X191911365Y-71399666D01*
X191879444Y-71447933D01*
X191848961Y-71492683D01*
X191813017Y-71545802D01*
X191781965Y-71593645D01*
X191757860Y-71632885D01*
X191742755Y-71660197D01*
X191738526Y-71671443D01*
X191745971Y-71683840D01*
X191766365Y-71708561D01*
X191796800Y-71742616D01*
X191834364Y-71783011D01*
X191876149Y-71826755D01*
X191919245Y-71870856D01*
X191960741Y-71912322D01*
X191997728Y-71948160D01*
X192027297Y-71975378D01*
X192046537Y-71990985D01*
X192051765Y-71993539D01*
X192063518Y-71987579D01*
X192090211Y-71971076D01*
X192128651Y-71946096D01*
X192175645Y-71914706D01*
X192214407Y-71888320D01*
X192266516Y-71852882D01*
X192313216Y-71821699D01*
X192351079Y-71797016D01*
X192376677Y-71781075D01*
X192385560Y-71776283D01*
X192403755Y-71777541D01*
X192435231Y-71787297D01*
X192473813Y-71803590D01*
X192478439Y-71805800D01*
X192516626Y-71822609D01*
X192548346Y-71833558D01*
X192567501Y-71836593D01*
X192568885Y-71836250D01*
X192575510Y-71825514D01*
X192589352Y-71797204D01*
X192609195Y-71754158D01*
X192633823Y-71699215D01*
X192662022Y-71635216D01*
X192692574Y-71564999D01*
X192724265Y-71491404D01*
X192755879Y-71417269D01*
X192786200Y-71345435D01*
X192814013Y-71278740D01*
X192838102Y-71220024D01*
X192857251Y-71172125D01*
X192870245Y-71137884D01*
X192875869Y-71120139D01*
X192876004Y-71118935D01*
X192867731Y-71109750D01*
X192845640Y-71091033D01*
X192813823Y-71066180D01*
X192799127Y-71055160D01*
X192722163Y-70986035D01*
X192663576Y-70907968D01*
X192623546Y-70823451D01*
X192602253Y-70734975D01*
X192599877Y-70645032D01*
X192616596Y-70556113D01*
X192652592Y-70470709D01*
X192708042Y-70391313D01*
X192748279Y-70349832D01*
X192824440Y-70293186D01*
X192906252Y-70255995D01*
X192991252Y-70237172D01*
X193076974Y-70235629D01*
X193160956Y-70250278D01*
X193240733Y-70280033D01*
X193313841Y-70323806D01*
X193377816Y-70380510D01*
X193430194Y-70449057D01*
X193468511Y-70528361D01*
X193490302Y-70617334D01*
X193494439Y-70679089D01*
X193483999Y-70778012D01*
X193452893Y-70869444D01*
X193401441Y-70952783D01*
X193329963Y-71027424D01*
X193295229Y-71055160D01*
X193260641Y-71081531D01*
X193234124Y-71103138D01*
X193219771Y-71116586D01*
X193218352Y-71118935D01*
X193222554Y-71133553D01*
X193234347Y-71165158D01*
X193252517Y-71210911D01*
X193275845Y-71267972D01*
X193303115Y-71333502D01*
X193333111Y-71404662D01*
X193364615Y-71478612D01*
X193396412Y-71552514D01*
X193427284Y-71623527D01*
X193456015Y-71688812D01*
X193481389Y-71745531D01*
X193502187Y-71790843D01*
X193517195Y-71821909D01*
X193525195Y-71835891D01*
X193525776Y-71836367D01*
X193542523Y-71834562D01*
X193572857Y-71824381D01*
X193610896Y-71807880D01*
X193620080Y-71803425D01*
X193698743Y-71764481D01*
X193866146Y-71879010D01*
X193919823Y-71915397D01*
X193967403Y-71947015D01*
X194005842Y-71971892D01*
X194032091Y-71988054D01*
X194042990Y-71993539D01*
X194053364Y-71986068D01*
X194076689Y-71965254D01*
X194110424Y-71933494D01*
X194152026Y-71893187D01*
X194198953Y-71846730D01*
X194204130Y-71841548D01*
X194251154Y-71793523D01*
X194292247Y-71749816D01*
X194324991Y-71713140D01*
X194346971Y-71686212D01*
X194355768Y-71671745D01*
X194355830Y-71671152D01*
X194349791Y-71656409D01*
X194333042Y-71626960D01*
X194307638Y-71586122D01*
X194275633Y-71537215D01*
X194245395Y-71492683D01*
X194209514Y-71439882D01*
X194178498Y-71392722D01*
X194154391Y-71354435D01*
X194139236Y-71328254D01*
X194134920Y-71317971D01*
X194139018Y-71300938D01*
X194150096Y-71268373D01*
X194166260Y-71224973D01*
X194185618Y-71175433D01*
X194206277Y-71124449D01*
X194226344Y-71076716D01*
X194243927Y-71036930D01*
X194257134Y-71009786D01*
X194262743Y-71000840D01*
X194277903Y-70993826D01*
X194311152Y-70984003D01*
X194358809Y-70972288D01*
X194417193Y-70959598D01*
X194471011Y-70949008D01*
X194534203Y-70936879D01*
X194590045Y-70925679D01*
X194634834Y-70916193D01*
X194664862Y-70909200D01*
X194676136Y-70905729D01*
X194678786Y-70893811D01*
X194681215Y-70864082D01*
X194683363Y-70820496D01*
X194685172Y-70767009D01*
X194686580Y-70707574D01*
X194687529Y-70646146D01*
X194687958Y-70586681D01*
X194687808Y-70533132D01*
X194687019Y-70489454D01*
X194685531Y-70459602D01*
X194683285Y-70447531D01*
X194683058Y-70447452D01*
X194665957Y-70445373D01*
X194632303Y-70439682D01*
X194586173Y-70431197D01*
X194531647Y-70420738D01*
X194472802Y-70409123D01*
X194413717Y-70397172D01*
X194358471Y-70385702D01*
X194311141Y-70375533D01*
X194275806Y-70367483D01*
X194256545Y-70362372D01*
X194254285Y-70361368D01*
X194246264Y-70347670D01*
X194232027Y-70318159D01*
X194213547Y-70277446D01*
X194192799Y-70230142D01*
X194171756Y-70180857D01*
X194152394Y-70134203D01*
X194136685Y-70094789D01*
X194126604Y-70067227D01*
X194123917Y-70056873D01*
X194129892Y-70043759D01*
X194146506Y-70015625D01*
X194171790Y-69975588D01*
X194203779Y-69926763D01*
X194239874Y-69873191D01*
X194276592Y-69818496D01*
X194308524Y-69769218D01*
X194333691Y-69728549D01*
X194350118Y-69699682D01*
X194355830Y-69685944D01*
X194348317Y-69672161D01*
X194327715Y-69646758D01*
X194296931Y-69612608D01*
X194258874Y-69572583D01*
X194216449Y-69529556D01*
X194172564Y-69486402D01*
X194130127Y-69445991D01*
X194092044Y-69411199D01*
X194061223Y-69384897D01*
X194040571Y-69369958D01*
X194033844Y-69367747D01*
X194020291Y-69375620D01*
X193991811Y-69393952D01*
X193951626Y-69420611D01*
X193902955Y-69453463D01*
X193855660Y-69485803D01*
X193802075Y-69522392D01*
X193754032Y-69554703D01*
X193714779Y-69580589D01*
X193687568Y-69597902D01*
X193676184Y-69604335D01*
X193659379Y-69602828D01*
X193627258Y-69593727D01*
X193584454Y-69578916D01*
X193535601Y-69560280D01*
X193485333Y-69539702D01*
X193438284Y-69519067D01*
X193399087Y-69500257D01*
X193372377Y-69485158D01*
X193363135Y-69477061D01*
X193358300Y-69460818D01*
X193350444Y-69426618D01*
X193340362Y-69378258D01*
X193328845Y-69319537D01*
X193317281Y-69257517D01*
X193280612Y-69055974D01*
X192813744Y-69055974D01*
X192777075Y-69257517D01*
X192777075Y-69257517D01*
G37*
X192777075Y-69257517D02*
X192764930Y-69322571D01*
X192753465Y-69380876D01*
X192743473Y-69428636D01*
X192735745Y-69462052D01*
X192731221Y-69477061D01*
X192717726Y-69487872D01*
X192688066Y-69503889D01*
X192646873Y-69523229D01*
X192598782Y-69544006D01*
X192548427Y-69564338D01*
X192500441Y-69582341D01*
X192459458Y-69596129D01*
X192430112Y-69603821D01*
X192418172Y-69604335D01*
X192404186Y-69596298D01*
X192375309Y-69577808D01*
X192334793Y-69551012D01*
X192285888Y-69518055D01*
X192238697Y-69485803D01*
X192185221Y-69449266D01*
X192137398Y-69417044D01*
X192098447Y-69391271D01*
X192071588Y-69374081D01*
X192060512Y-69367747D01*
X192048369Y-69373389D01*
X192024094Y-69392335D01*
X191990595Y-69421710D01*
X191950779Y-69458643D01*
X191907552Y-69500260D01*
X191863823Y-69543688D01*
X191822498Y-69586055D01*
X191786485Y-69624486D01*
X191758691Y-69656110D01*
X191742022Y-69678053D01*
X191738526Y-69685944D01*
X191744520Y-69700221D01*
X191761183Y-69729413D01*
X191786538Y-69770330D01*
X191818610Y-69819778D01*
X191854482Y-69873191D01*
X191891145Y-69927618D01*
X191923040Y-69976324D01*
X191948198Y-70016191D01*
X191964653Y-70044104D01*
X191970439Y-70056873D01*
X191966189Y-70071836D01*
X191954753Y-70102288D01*
X191938108Y-70143616D01*
X191918225Y-70191211D01*
X191897081Y-70240461D01*
X191876647Y-70286756D01*
X191858900Y-70325485D01*
X191845812Y-70352038D01*
X191840071Y-70361368D01*
X191828021Y-70365141D01*
X191798341Y-70372165D01*
X191755109Y-70381622D01*
X191702403Y-70392692D01*
X191644303Y-70404556D01*
X191584885Y-70416396D01*
X191528229Y-70427393D01*
X191478412Y-70436728D01*
X191439515Y-70443582D01*
X191415613Y-70447136D01*
X191411299Y-70447452D01*
X191408985Y-70457828D01*
X191407436Y-70486322D01*
X191406590Y-70528978D01*
X191406388Y-70581841D01*
X191406770Y-70640958D01*
X191407677Y-70702373D01*
X191409048Y-70762131D01*
X191410825Y-70816278D01*
X191412947Y-70860859D01*
X191415355Y-70891920D01*
X191417988Y-70905506D01*
X191418220Y-70905729D01*
X191432185Y-70909879D01*
X191464173Y-70917211D01*
X191510478Y-70926944D01*
X191567394Y-70938295D01*
X191623345Y-70949008D01*
X191687824Y-70961813D01*
X191744623Y-70974401D01*
X191790060Y-70985855D01*
X191820456Y-70995259D01*
X191831613Y-71000840D01*
X191840649Y-71016396D01*
X191855382Y-71047866D01*
X191873917Y-71090556D01*
X191894364Y-71139771D01*
X191914828Y-71190813D01*
X191933418Y-71238988D01*
X191948241Y-71279601D01*
X191957404Y-71307954D01*
X191959437Y-71317971D01*
X191953405Y-71331453D01*
X191936699Y-71359762D01*
X191911365Y-71399666D01*
X191879444Y-71447933D01*
X191848961Y-71492683D01*
X191813017Y-71545802D01*
X191781965Y-71593645D01*
X191757860Y-71632885D01*
X191742755Y-71660197D01*
X191738526Y-71671443D01*
X191745971Y-71683840D01*
X191766365Y-71708561D01*
X191796800Y-71742616D01*
X191834364Y-71783011D01*
X191876149Y-71826755D01*
X191919245Y-71870856D01*
X191960741Y-71912322D01*
X191997728Y-71948160D01*
X192027297Y-71975378D01*
X192046537Y-71990985D01*
X192051765Y-71993539D01*
X192063518Y-71987579D01*
X192090211Y-71971076D01*
X192128651Y-71946096D01*
X192175645Y-71914706D01*
X192214407Y-71888320D01*
X192266516Y-71852882D01*
X192313216Y-71821699D01*
X192351079Y-71797016D01*
X192376677Y-71781075D01*
X192385560Y-71776283D01*
X192403755Y-71777541D01*
X192435231Y-71787297D01*
X192473813Y-71803590D01*
X192478439Y-71805800D01*
X192516626Y-71822609D01*
X192548346Y-71833558D01*
X192567501Y-71836593D01*
X192568885Y-71836250D01*
X192575510Y-71825514D01*
X192589352Y-71797204D01*
X192609195Y-71754158D01*
X192633823Y-71699215D01*
X192662022Y-71635216D01*
X192692574Y-71564999D01*
X192724265Y-71491404D01*
X192755879Y-71417269D01*
X192786200Y-71345435D01*
X192814013Y-71278740D01*
X192838102Y-71220024D01*
X192857251Y-71172125D01*
X192870245Y-71137884D01*
X192875869Y-71120139D01*
X192876004Y-71118935D01*
X192867731Y-71109750D01*
X192845640Y-71091033D01*
X192813823Y-71066180D01*
X192799127Y-71055160D01*
X192722163Y-70986035D01*
X192663576Y-70907968D01*
X192623546Y-70823451D01*
X192602253Y-70734975D01*
X192599877Y-70645032D01*
X192616596Y-70556113D01*
X192652592Y-70470709D01*
X192708042Y-70391313D01*
X192748279Y-70349832D01*
X192824440Y-70293186D01*
X192906252Y-70255995D01*
X192991252Y-70237172D01*
X193076974Y-70235629D01*
X193160956Y-70250278D01*
X193240733Y-70280033D01*
X193313841Y-70323806D01*
X193377816Y-70380510D01*
X193430194Y-70449057D01*
X193468511Y-70528361D01*
X193490302Y-70617334D01*
X193494439Y-70679089D01*
X193483999Y-70778012D01*
X193452893Y-70869444D01*
X193401441Y-70952783D01*
X193329963Y-71027424D01*
X193295229Y-71055160D01*
X193260641Y-71081531D01*
X193234124Y-71103138D01*
X193219771Y-71116586D01*
X193218352Y-71118935D01*
X193222554Y-71133553D01*
X193234347Y-71165158D01*
X193252517Y-71210911D01*
X193275845Y-71267972D01*
X193303115Y-71333502D01*
X193333111Y-71404662D01*
X193364615Y-71478612D01*
X193396412Y-71552514D01*
X193427284Y-71623527D01*
X193456015Y-71688812D01*
X193481389Y-71745531D01*
X193502187Y-71790843D01*
X193517195Y-71821909D01*
X193525195Y-71835891D01*
X193525776Y-71836367D01*
X193542523Y-71834562D01*
X193572857Y-71824381D01*
X193610896Y-71807880D01*
X193620080Y-71803425D01*
X193698743Y-71764481D01*
X193866146Y-71879010D01*
X193919823Y-71915397D01*
X193967403Y-71947015D01*
X194005842Y-71971892D01*
X194032091Y-71988054D01*
X194042990Y-71993539D01*
X194053364Y-71986068D01*
X194076689Y-71965254D01*
X194110424Y-71933494D01*
X194152026Y-71893187D01*
X194198953Y-71846730D01*
X194204130Y-71841548D01*
X194251154Y-71793523D01*
X194292247Y-71749816D01*
X194324991Y-71713140D01*
X194346971Y-71686212D01*
X194355768Y-71671745D01*
X194355830Y-71671152D01*
X194349791Y-71656409D01*
X194333042Y-71626960D01*
X194307638Y-71586122D01*
X194275633Y-71537215D01*
X194245395Y-71492683D01*
X194209514Y-71439882D01*
X194178498Y-71392722D01*
X194154391Y-71354435D01*
X194139236Y-71328254D01*
X194134920Y-71317971D01*
X194139018Y-71300938D01*
X194150096Y-71268373D01*
X194166260Y-71224973D01*
X194185618Y-71175433D01*
X194206277Y-71124449D01*
X194226344Y-71076716D01*
X194243927Y-71036930D01*
X194257134Y-71009786D01*
X194262743Y-71000840D01*
X194277903Y-70993826D01*
X194311152Y-70984003D01*
X194358809Y-70972288D01*
X194417193Y-70959598D01*
X194471011Y-70949008D01*
X194534203Y-70936879D01*
X194590045Y-70925679D01*
X194634834Y-70916193D01*
X194664862Y-70909200D01*
X194676136Y-70905729D01*
X194678786Y-70893811D01*
X194681215Y-70864082D01*
X194683363Y-70820496D01*
X194685172Y-70767009D01*
X194686580Y-70707574D01*
X194687529Y-70646146D01*
X194687958Y-70586681D01*
X194687808Y-70533132D01*
X194687019Y-70489454D01*
X194685531Y-70459602D01*
X194683285Y-70447531D01*
X194683058Y-70447452D01*
X194665957Y-70445373D01*
X194632303Y-70439682D01*
X194586173Y-70431197D01*
X194531647Y-70420738D01*
X194472802Y-70409123D01*
X194413717Y-70397172D01*
X194358471Y-70385702D01*
X194311141Y-70375533D01*
X194275806Y-70367483D01*
X194256545Y-70362372D01*
X194254285Y-70361368D01*
X194246264Y-70347670D01*
X194232027Y-70318159D01*
X194213547Y-70277446D01*
X194192799Y-70230142D01*
X194171756Y-70180857D01*
X194152394Y-70134203D01*
X194136685Y-70094789D01*
X194126604Y-70067227D01*
X194123917Y-70056873D01*
X194129892Y-70043759D01*
X194146506Y-70015625D01*
X194171790Y-69975588D01*
X194203779Y-69926763D01*
X194239874Y-69873191D01*
X194276592Y-69818496D01*
X194308524Y-69769218D01*
X194333691Y-69728549D01*
X194350118Y-69699682D01*
X194355830Y-69685944D01*
X194348317Y-69672161D01*
X194327715Y-69646758D01*
X194296931Y-69612608D01*
X194258874Y-69572583D01*
X194216449Y-69529556D01*
X194172564Y-69486402D01*
X194130127Y-69445991D01*
X194092044Y-69411199D01*
X194061223Y-69384897D01*
X194040571Y-69369958D01*
X194033844Y-69367747D01*
X194020291Y-69375620D01*
X193991811Y-69393952D01*
X193951626Y-69420611D01*
X193902955Y-69453463D01*
X193855660Y-69485803D01*
X193802075Y-69522392D01*
X193754032Y-69554703D01*
X193714779Y-69580589D01*
X193687568Y-69597902D01*
X193676184Y-69604335D01*
X193659379Y-69602828D01*
X193627258Y-69593727D01*
X193584454Y-69578916D01*
X193535601Y-69560280D01*
X193485333Y-69539702D01*
X193438284Y-69519067D01*
X193399087Y-69500257D01*
X193372377Y-69485158D01*
X193363135Y-69477061D01*
X193358300Y-69460818D01*
X193350444Y-69426618D01*
X193340362Y-69378258D01*
X193328845Y-69319537D01*
X193317281Y-69257517D01*
X193280612Y-69055974D01*
X192813744Y-69055974D01*
X192777075Y-69257517D01*
%LPC*%
D14*
X149860000Y-71120000D03*
D15*
X149860000Y-73660000D03*
X149860000Y-76200000D03*
X149860000Y-78740000D03*
X149860000Y-81280000D03*
X149860000Y-83820000D03*
X149860000Y-86360000D03*
X149860000Y-88900000D03*
X149860000Y-91440000D03*
X149860000Y-93980000D03*
X149860000Y-96520000D03*
X149860000Y-99060000D03*
X149860000Y-101600000D03*
X149860000Y-104140000D03*
X149860000Y-106680000D03*
X149860000Y-109220000D03*
X149860000Y-111760000D03*
X193040000Y-73660000D03*
X193040000Y-76200000D03*
X193040000Y-78740000D03*
X193040000Y-81280000D03*
X193040000Y-83820000D03*
X193040000Y-86360000D03*
X193040000Y-88900000D03*
X193040000Y-91440000D03*
X193040000Y-93980000D03*
X193040000Y-96520000D03*
X193040000Y-99060000D03*
X193040000Y-101600000D03*
X193040000Y-104140000D03*
X193040000Y-106680000D03*
X193040000Y-109220000D03*
X193040000Y-111760000D03*
M02*
