G04 #@! TF.FileFunction,Legend,Bot*
%FSLAX46Y46*%
G04 Gerber Fmt 4.6, Leading zero omitted, Abs format (unit mm)*
G04 Created by KiCad (PCBNEW 4.0.6-e0-6349~52~ubuntu16.10.1) date Thu Apr 20 23:51:54 2017*
%MOMM*%
%LPD*%
G01*
G04 APERTURE LIST*
%ADD10C,0.100000*%
%ADD11C,0.175000*%
%ADD12R,2.100000X2.100000*%
%ADD13O,2.100000X2.100000*%
G04 APERTURE END LIST*
D10*
D11*
X195261667Y-81226834D02*
X194928333Y-80993500D01*
X195261667Y-80826834D02*
X194561667Y-80826834D01*
X194561667Y-81093500D01*
X194595000Y-81160167D01*
X194628333Y-81193500D01*
X194695000Y-81226834D01*
X194795000Y-81226834D01*
X194861667Y-81193500D01*
X194895000Y-81160167D01*
X194928333Y-81093500D01*
X194928333Y-80826834D01*
X194561667Y-81460167D02*
X195261667Y-81926834D01*
X194561667Y-81926834D02*
X195261667Y-81460167D01*
X147638333Y-99910000D02*
X148338333Y-99910000D01*
X148338333Y-99743334D01*
X148305000Y-99643334D01*
X148238333Y-99576667D01*
X148171667Y-99543334D01*
X148038333Y-99510000D01*
X147938333Y-99510000D01*
X147805000Y-99543334D01*
X147738333Y-99576667D01*
X147671667Y-99643334D01*
X147638333Y-99743334D01*
X147638333Y-99910000D01*
X148271667Y-99243334D02*
X148305000Y-99210000D01*
X148338333Y-99143334D01*
X148338333Y-98976667D01*
X148305000Y-98910000D01*
X148271667Y-98876667D01*
X148205000Y-98843334D01*
X148138333Y-98843334D01*
X148038333Y-98876667D01*
X147638333Y-99276667D01*
X147638333Y-98843334D01*
X148338333Y-98610000D02*
X148338333Y-98143333D01*
X147638333Y-98443333D01*
X194595000Y-111226667D02*
X194561667Y-111160001D01*
X194561667Y-111060001D01*
X194595000Y-110960001D01*
X194661667Y-110893334D01*
X194728333Y-110860001D01*
X194861667Y-110826667D01*
X194961667Y-110826667D01*
X195095000Y-110860001D01*
X195161667Y-110893334D01*
X195228333Y-110960001D01*
X195261667Y-111060001D01*
X195261667Y-111126667D01*
X195228333Y-111226667D01*
X195195000Y-111260001D01*
X194961667Y-111260001D01*
X194961667Y-111126667D01*
X195261667Y-111560001D02*
X194561667Y-111560001D01*
X195261667Y-111960001D01*
X194561667Y-111960001D01*
X195261667Y-112293334D02*
X194561667Y-112293334D01*
X194561667Y-112460000D01*
X194595000Y-112560000D01*
X194661667Y-112626667D01*
X194728333Y-112660000D01*
X194861667Y-112693334D01*
X194961667Y-112693334D01*
X195095000Y-112660000D01*
X195161667Y-112626667D01*
X195228333Y-112560000D01*
X195261667Y-112460000D01*
X195261667Y-112293334D01*
X195261667Y-72810000D02*
X194561667Y-72810000D01*
X194561667Y-72976666D01*
X194595000Y-73076666D01*
X194661667Y-73143333D01*
X194728333Y-73176666D01*
X194861667Y-73210000D01*
X194961667Y-73210000D01*
X195095000Y-73176666D01*
X195161667Y-73143333D01*
X195228333Y-73076666D01*
X195261667Y-72976666D01*
X195261667Y-72810000D01*
X194628333Y-73476666D02*
X194595000Y-73510000D01*
X194561667Y-73576666D01*
X194561667Y-73743333D01*
X194595000Y-73810000D01*
X194628333Y-73843333D01*
X194695000Y-73876666D01*
X194761667Y-73876666D01*
X194861667Y-73843333D01*
X195261667Y-73443333D01*
X195261667Y-73876666D01*
X194561667Y-74110000D02*
X194561667Y-74543333D01*
X194828333Y-74310000D01*
X194828333Y-74410000D01*
X194861667Y-74476667D01*
X194895000Y-74510000D01*
X194961667Y-74543333D01*
X195128333Y-74543333D01*
X195195000Y-74510000D01*
X195228333Y-74476667D01*
X195261667Y-74410000D01*
X195261667Y-74210000D01*
X195228333Y-74143333D01*
X195195000Y-74110000D01*
X195261667Y-75350000D02*
X194561667Y-75350000D01*
X194561667Y-75516666D01*
X194595000Y-75616666D01*
X194661667Y-75683333D01*
X194728333Y-75716666D01*
X194861667Y-75750000D01*
X194961667Y-75750000D01*
X195095000Y-75716666D01*
X195161667Y-75683333D01*
X195228333Y-75616666D01*
X195261667Y-75516666D01*
X195261667Y-75350000D01*
X194628333Y-76016666D02*
X194595000Y-76050000D01*
X194561667Y-76116666D01*
X194561667Y-76283333D01*
X194595000Y-76350000D01*
X194628333Y-76383333D01*
X194695000Y-76416666D01*
X194761667Y-76416666D01*
X194861667Y-76383333D01*
X195261667Y-75983333D01*
X195261667Y-76416666D01*
X194628333Y-76683333D02*
X194595000Y-76716667D01*
X194561667Y-76783333D01*
X194561667Y-76950000D01*
X194595000Y-77016667D01*
X194628333Y-77050000D01*
X194695000Y-77083333D01*
X194761667Y-77083333D01*
X194861667Y-77050000D01*
X195261667Y-76650000D01*
X195261667Y-77083333D01*
X195261667Y-82970000D02*
X194561667Y-82970000D01*
X194561667Y-83136666D01*
X194595000Y-83236666D01*
X194661667Y-83303333D01*
X194728333Y-83336666D01*
X194861667Y-83370000D01*
X194961667Y-83370000D01*
X195095000Y-83336666D01*
X195161667Y-83303333D01*
X195228333Y-83236666D01*
X195261667Y-83136666D01*
X195261667Y-82970000D01*
X194628333Y-83636666D02*
X194595000Y-83670000D01*
X194561667Y-83736666D01*
X194561667Y-83903333D01*
X194595000Y-83970000D01*
X194628333Y-84003333D01*
X194695000Y-84036666D01*
X194761667Y-84036666D01*
X194861667Y-84003333D01*
X195261667Y-83603333D01*
X195261667Y-84036666D01*
X195261667Y-84703333D02*
X195261667Y-84303333D01*
X195261667Y-84503333D02*
X194561667Y-84503333D01*
X194661667Y-84436667D01*
X194728333Y-84370000D01*
X194761667Y-84303333D01*
X195261667Y-85510000D02*
X194561667Y-85510000D01*
X194561667Y-85676666D01*
X194595000Y-85776666D01*
X194661667Y-85843333D01*
X194728333Y-85876666D01*
X194861667Y-85910000D01*
X194961667Y-85910000D01*
X195095000Y-85876666D01*
X195161667Y-85843333D01*
X195228333Y-85776666D01*
X195261667Y-85676666D01*
X195261667Y-85510000D01*
X195261667Y-86576666D02*
X195261667Y-86176666D01*
X195261667Y-86376666D02*
X194561667Y-86376666D01*
X194661667Y-86310000D01*
X194728333Y-86243333D01*
X194761667Y-86176666D01*
X195261667Y-86910000D02*
X195261667Y-87043333D01*
X195228333Y-87110000D01*
X195195000Y-87143333D01*
X195095000Y-87210000D01*
X194961667Y-87243333D01*
X194695000Y-87243333D01*
X194628333Y-87210000D01*
X194595000Y-87176667D01*
X194561667Y-87110000D01*
X194561667Y-86976667D01*
X194595000Y-86910000D01*
X194628333Y-86876667D01*
X194695000Y-86843333D01*
X194861667Y-86843333D01*
X194928333Y-86876667D01*
X194961667Y-86910000D01*
X194995000Y-86976667D01*
X194995000Y-87110000D01*
X194961667Y-87176667D01*
X194928333Y-87210000D01*
X194861667Y-87243333D01*
X195261667Y-88050000D02*
X194561667Y-88050000D01*
X194561667Y-88216666D01*
X194595000Y-88316666D01*
X194661667Y-88383333D01*
X194728333Y-88416666D01*
X194861667Y-88450000D01*
X194961667Y-88450000D01*
X195095000Y-88416666D01*
X195161667Y-88383333D01*
X195228333Y-88316666D01*
X195261667Y-88216666D01*
X195261667Y-88050000D01*
X195261667Y-89116666D02*
X195261667Y-88716666D01*
X195261667Y-88916666D02*
X194561667Y-88916666D01*
X194661667Y-88850000D01*
X194728333Y-88783333D01*
X194761667Y-88716666D01*
X194861667Y-89516667D02*
X194828333Y-89450000D01*
X194795000Y-89416667D01*
X194728333Y-89383333D01*
X194695000Y-89383333D01*
X194628333Y-89416667D01*
X194595000Y-89450000D01*
X194561667Y-89516667D01*
X194561667Y-89650000D01*
X194595000Y-89716667D01*
X194628333Y-89750000D01*
X194695000Y-89783333D01*
X194728333Y-89783333D01*
X194795000Y-89750000D01*
X194828333Y-89716667D01*
X194861667Y-89650000D01*
X194861667Y-89516667D01*
X194895000Y-89450000D01*
X194928333Y-89416667D01*
X194995000Y-89383333D01*
X195128333Y-89383333D01*
X195195000Y-89416667D01*
X195228333Y-89450000D01*
X195261667Y-89516667D01*
X195261667Y-89650000D01*
X195228333Y-89716667D01*
X195195000Y-89750000D01*
X195128333Y-89783333D01*
X194995000Y-89783333D01*
X194928333Y-89750000D01*
X194895000Y-89716667D01*
X194861667Y-89650000D01*
X195261667Y-90590000D02*
X194561667Y-90590000D01*
X194561667Y-90756666D01*
X194595000Y-90856666D01*
X194661667Y-90923333D01*
X194728333Y-90956666D01*
X194861667Y-90990000D01*
X194961667Y-90990000D01*
X195095000Y-90956666D01*
X195161667Y-90923333D01*
X195228333Y-90856666D01*
X195261667Y-90756666D01*
X195261667Y-90590000D01*
X194561667Y-91423333D02*
X194561667Y-91490000D01*
X194595000Y-91556666D01*
X194628333Y-91590000D01*
X194695000Y-91623333D01*
X194828333Y-91656666D01*
X194995000Y-91656666D01*
X195128333Y-91623333D01*
X195195000Y-91590000D01*
X195228333Y-91556666D01*
X195261667Y-91490000D01*
X195261667Y-91423333D01*
X195228333Y-91356666D01*
X195195000Y-91323333D01*
X195128333Y-91290000D01*
X194995000Y-91256666D01*
X194828333Y-91256666D01*
X194695000Y-91290000D01*
X194628333Y-91323333D01*
X194595000Y-91356666D01*
X194561667Y-91423333D01*
X194561667Y-92290000D02*
X194561667Y-91956667D01*
X194895000Y-91923333D01*
X194861667Y-91956667D01*
X194828333Y-92023333D01*
X194828333Y-92190000D01*
X194861667Y-92256667D01*
X194895000Y-92290000D01*
X194961667Y-92323333D01*
X195128333Y-92323333D01*
X195195000Y-92290000D01*
X195228333Y-92256667D01*
X195261667Y-92190000D01*
X195261667Y-92023333D01*
X195228333Y-91956667D01*
X195195000Y-91923333D01*
X195261667Y-93130000D02*
X194561667Y-93130000D01*
X194561667Y-93296666D01*
X194595000Y-93396666D01*
X194661667Y-93463333D01*
X194728333Y-93496666D01*
X194861667Y-93530000D01*
X194961667Y-93530000D01*
X195095000Y-93496666D01*
X195161667Y-93463333D01*
X195228333Y-93396666D01*
X195261667Y-93296666D01*
X195261667Y-93130000D01*
X195261667Y-94196666D02*
X195261667Y-93796666D01*
X195261667Y-93996666D02*
X194561667Y-93996666D01*
X194661667Y-93930000D01*
X194728333Y-93863333D01*
X194761667Y-93796666D01*
X194561667Y-94430000D02*
X194561667Y-94896667D01*
X195261667Y-94596667D01*
X195261667Y-95670000D02*
X194561667Y-95670000D01*
X194561667Y-95836666D01*
X194595000Y-95936666D01*
X194661667Y-96003333D01*
X194728333Y-96036666D01*
X194861667Y-96070000D01*
X194961667Y-96070000D01*
X195095000Y-96036666D01*
X195161667Y-96003333D01*
X195228333Y-95936666D01*
X195261667Y-95836666D01*
X195261667Y-95670000D01*
X195261667Y-96736666D02*
X195261667Y-96336666D01*
X195261667Y-96536666D02*
X194561667Y-96536666D01*
X194661667Y-96470000D01*
X194728333Y-96403333D01*
X194761667Y-96336666D01*
X194561667Y-97336667D02*
X194561667Y-97203333D01*
X194595000Y-97136667D01*
X194628333Y-97103333D01*
X194728333Y-97036667D01*
X194861667Y-97003333D01*
X195128333Y-97003333D01*
X195195000Y-97036667D01*
X195228333Y-97070000D01*
X195261667Y-97136667D01*
X195261667Y-97270000D01*
X195228333Y-97336667D01*
X195195000Y-97370000D01*
X195128333Y-97403333D01*
X194961667Y-97403333D01*
X194895000Y-97370000D01*
X194861667Y-97336667D01*
X194828333Y-97270000D01*
X194828333Y-97136667D01*
X194861667Y-97070000D01*
X194895000Y-97036667D01*
X194961667Y-97003333D01*
X195261667Y-98210000D02*
X194561667Y-98210000D01*
X194561667Y-98376666D01*
X194595000Y-98476666D01*
X194661667Y-98543333D01*
X194728333Y-98576666D01*
X194861667Y-98610000D01*
X194961667Y-98610000D01*
X195095000Y-98576666D01*
X195161667Y-98543333D01*
X195228333Y-98476666D01*
X195261667Y-98376666D01*
X195261667Y-98210000D01*
X194561667Y-99043333D02*
X194561667Y-99110000D01*
X194595000Y-99176666D01*
X194628333Y-99210000D01*
X194695000Y-99243333D01*
X194828333Y-99276666D01*
X194995000Y-99276666D01*
X195128333Y-99243333D01*
X195195000Y-99210000D01*
X195228333Y-99176666D01*
X195261667Y-99110000D01*
X195261667Y-99043333D01*
X195228333Y-98976666D01*
X195195000Y-98943333D01*
X195128333Y-98910000D01*
X194995000Y-98876666D01*
X194828333Y-98876666D01*
X194695000Y-98910000D01*
X194628333Y-98943333D01*
X194595000Y-98976666D01*
X194561667Y-99043333D01*
X194795000Y-99876667D02*
X195261667Y-99876667D01*
X194528333Y-99710000D02*
X195028333Y-99543333D01*
X195028333Y-99976667D01*
X195261667Y-100750000D02*
X194561667Y-100750000D01*
X194561667Y-100916666D01*
X194595000Y-101016666D01*
X194661667Y-101083333D01*
X194728333Y-101116666D01*
X194861667Y-101150000D01*
X194961667Y-101150000D01*
X195095000Y-101116666D01*
X195161667Y-101083333D01*
X195228333Y-101016666D01*
X195261667Y-100916666D01*
X195261667Y-100750000D01*
X194561667Y-101583333D02*
X194561667Y-101650000D01*
X194595000Y-101716666D01*
X194628333Y-101750000D01*
X194695000Y-101783333D01*
X194828333Y-101816666D01*
X194995000Y-101816666D01*
X195128333Y-101783333D01*
X195195000Y-101750000D01*
X195228333Y-101716666D01*
X195261667Y-101650000D01*
X195261667Y-101583333D01*
X195228333Y-101516666D01*
X195195000Y-101483333D01*
X195128333Y-101450000D01*
X194995000Y-101416666D01*
X194828333Y-101416666D01*
X194695000Y-101450000D01*
X194628333Y-101483333D01*
X194595000Y-101516666D01*
X194561667Y-101583333D01*
X194561667Y-102250000D02*
X194561667Y-102316667D01*
X194595000Y-102383333D01*
X194628333Y-102416667D01*
X194695000Y-102450000D01*
X194828333Y-102483333D01*
X194995000Y-102483333D01*
X195128333Y-102450000D01*
X195195000Y-102416667D01*
X195228333Y-102383333D01*
X195261667Y-102316667D01*
X195261667Y-102250000D01*
X195228333Y-102183333D01*
X195195000Y-102150000D01*
X195128333Y-102116667D01*
X194995000Y-102083333D01*
X194828333Y-102083333D01*
X194695000Y-102116667D01*
X194628333Y-102150000D01*
X194595000Y-102183333D01*
X194561667Y-102250000D01*
X195261667Y-103290000D02*
X194561667Y-103290000D01*
X194561667Y-103456666D01*
X194595000Y-103556666D01*
X194661667Y-103623333D01*
X194728333Y-103656666D01*
X194861667Y-103690000D01*
X194961667Y-103690000D01*
X195095000Y-103656666D01*
X195161667Y-103623333D01*
X195228333Y-103556666D01*
X195261667Y-103456666D01*
X195261667Y-103290000D01*
X194561667Y-104123333D02*
X194561667Y-104190000D01*
X194595000Y-104256666D01*
X194628333Y-104290000D01*
X194695000Y-104323333D01*
X194828333Y-104356666D01*
X194995000Y-104356666D01*
X195128333Y-104323333D01*
X195195000Y-104290000D01*
X195228333Y-104256666D01*
X195261667Y-104190000D01*
X195261667Y-104123333D01*
X195228333Y-104056666D01*
X195195000Y-104023333D01*
X195128333Y-103990000D01*
X194995000Y-103956666D01*
X194828333Y-103956666D01*
X194695000Y-103990000D01*
X194628333Y-104023333D01*
X194595000Y-104056666D01*
X194561667Y-104123333D01*
X194628333Y-104623333D02*
X194595000Y-104656667D01*
X194561667Y-104723333D01*
X194561667Y-104890000D01*
X194595000Y-104956667D01*
X194628333Y-104990000D01*
X194695000Y-105023333D01*
X194761667Y-105023333D01*
X194861667Y-104990000D01*
X195261667Y-104590000D01*
X195261667Y-105023333D01*
X194561667Y-78143167D02*
X194561667Y-78543167D01*
X195261667Y-78343167D02*
X194561667Y-78343167D01*
X194561667Y-78709833D02*
X195261667Y-79176500D01*
X194561667Y-79176500D02*
X195261667Y-78709833D01*
X195261667Y-105830000D02*
X194561667Y-105830000D01*
X194561667Y-105996666D01*
X194595000Y-106096666D01*
X194661667Y-106163333D01*
X194728333Y-106196666D01*
X194861667Y-106230000D01*
X194961667Y-106230000D01*
X195095000Y-106196666D01*
X195161667Y-106163333D01*
X195228333Y-106096666D01*
X195261667Y-105996666D01*
X195261667Y-105830000D01*
X195261667Y-106896666D02*
X195261667Y-106496666D01*
X195261667Y-106696666D02*
X194561667Y-106696666D01*
X194661667Y-106630000D01*
X194728333Y-106563333D01*
X194761667Y-106496666D01*
X194561667Y-107530000D02*
X194561667Y-107196667D01*
X194895000Y-107163333D01*
X194861667Y-107196667D01*
X194828333Y-107263333D01*
X194828333Y-107430000D01*
X194861667Y-107496667D01*
X194895000Y-107530000D01*
X194961667Y-107563333D01*
X195128333Y-107563333D01*
X195195000Y-107530000D01*
X195228333Y-107496667D01*
X195261667Y-107430000D01*
X195261667Y-107263333D01*
X195228333Y-107196667D01*
X195195000Y-107163333D01*
X194561667Y-108353333D02*
X194561667Y-108786666D01*
X194828333Y-108553333D01*
X194828333Y-108653333D01*
X194861667Y-108720000D01*
X194895000Y-108753333D01*
X194961667Y-108786666D01*
X195128333Y-108786666D01*
X195195000Y-108753333D01*
X195228333Y-108720000D01*
X195261667Y-108653333D01*
X195261667Y-108453333D01*
X195228333Y-108386666D01*
X195195000Y-108353333D01*
X194561667Y-108986667D02*
X195261667Y-109220000D01*
X194561667Y-109453333D01*
X194561667Y-109620000D02*
X194561667Y-110053333D01*
X194828333Y-109820000D01*
X194828333Y-109920000D01*
X194861667Y-109986667D01*
X194895000Y-110020000D01*
X194961667Y-110053333D01*
X195128333Y-110053333D01*
X195195000Y-110020000D01*
X195228333Y-109986667D01*
X195261667Y-109920000D01*
X195261667Y-109720000D01*
X195228333Y-109653333D01*
X195195000Y-109620000D01*
X148338333Y-112526666D02*
X147638333Y-112293333D01*
X148338333Y-112060000D01*
X147638333Y-111826666D02*
X148338333Y-111826666D01*
X147638333Y-111493333D02*
X148338333Y-111493333D01*
X147638333Y-111093333D01*
X148338333Y-111093333D01*
X148305000Y-109753333D02*
X148338333Y-109819999D01*
X148338333Y-109919999D01*
X148305000Y-110019999D01*
X148238333Y-110086666D01*
X148171667Y-110119999D01*
X148038333Y-110153333D01*
X147938333Y-110153333D01*
X147805000Y-110119999D01*
X147738333Y-110086666D01*
X147671667Y-110019999D01*
X147638333Y-109919999D01*
X147638333Y-109853333D01*
X147671667Y-109753333D01*
X147705000Y-109719999D01*
X147938333Y-109719999D01*
X147938333Y-109853333D01*
X147638333Y-109419999D02*
X148338333Y-109419999D01*
X147638333Y-109019999D01*
X148338333Y-109019999D01*
X147638333Y-108686666D02*
X148338333Y-108686666D01*
X148338333Y-108520000D01*
X148305000Y-108420000D01*
X148238333Y-108353333D01*
X148171667Y-108320000D01*
X148038333Y-108286666D01*
X147938333Y-108286666D01*
X147805000Y-108320000D01*
X147738333Y-108353333D01*
X147671667Y-108420000D01*
X147638333Y-108520000D01*
X147638333Y-108686666D01*
X147638333Y-107530000D02*
X148338333Y-107530000D01*
X148338333Y-107363334D01*
X148305000Y-107263334D01*
X148238333Y-107196667D01*
X148171667Y-107163334D01*
X148038333Y-107130000D01*
X147938333Y-107130000D01*
X147805000Y-107163334D01*
X147738333Y-107196667D01*
X147671667Y-107263334D01*
X147638333Y-107363334D01*
X147638333Y-107530000D01*
X147638333Y-106463334D02*
X147638333Y-106863334D01*
X147638333Y-106663334D02*
X148338333Y-106663334D01*
X148238333Y-106730000D01*
X148171667Y-106796667D01*
X148138333Y-106863334D01*
X148338333Y-106230000D02*
X148338333Y-105796667D01*
X148071667Y-106030000D01*
X148071667Y-105930000D01*
X148038333Y-105863333D01*
X148005000Y-105830000D01*
X147938333Y-105796667D01*
X147771667Y-105796667D01*
X147705000Y-105830000D01*
X147671667Y-105863333D01*
X147638333Y-105930000D01*
X147638333Y-106130000D01*
X147671667Y-106196667D01*
X147705000Y-106230000D01*
X147638333Y-104990000D02*
X148338333Y-104990000D01*
X148338333Y-104823334D01*
X148305000Y-104723334D01*
X148238333Y-104656667D01*
X148171667Y-104623334D01*
X148038333Y-104590000D01*
X147938333Y-104590000D01*
X147805000Y-104623334D01*
X147738333Y-104656667D01*
X147671667Y-104723334D01*
X147638333Y-104823334D01*
X147638333Y-104990000D01*
X147638333Y-103923334D02*
X147638333Y-104323334D01*
X147638333Y-104123334D02*
X148338333Y-104123334D01*
X148238333Y-104190000D01*
X148171667Y-104256667D01*
X148138333Y-104323334D01*
X148271667Y-103656667D02*
X148305000Y-103623333D01*
X148338333Y-103556667D01*
X148338333Y-103390000D01*
X148305000Y-103323333D01*
X148271667Y-103290000D01*
X148205000Y-103256667D01*
X148138333Y-103256667D01*
X148038333Y-103290000D01*
X147638333Y-103690000D01*
X147638333Y-103256667D01*
X147638333Y-102450000D02*
X148338333Y-102450000D01*
X148338333Y-102283334D01*
X148305000Y-102183334D01*
X148238333Y-102116667D01*
X148171667Y-102083334D01*
X148038333Y-102050000D01*
X147938333Y-102050000D01*
X147805000Y-102083334D01*
X147738333Y-102116667D01*
X147671667Y-102183334D01*
X147638333Y-102283334D01*
X147638333Y-102450000D01*
X147638333Y-101383334D02*
X147638333Y-101783334D01*
X147638333Y-101583334D02*
X148338333Y-101583334D01*
X148238333Y-101650000D01*
X148171667Y-101716667D01*
X148138333Y-101783334D01*
X148105000Y-100783333D02*
X147638333Y-100783333D01*
X148371667Y-100950000D02*
X147871667Y-101116667D01*
X147871667Y-100683333D01*
X147638333Y-97370000D02*
X148338333Y-97370000D01*
X148338333Y-97203334D01*
X148305000Y-97103334D01*
X148238333Y-97036667D01*
X148171667Y-97003334D01*
X148038333Y-96970000D01*
X147938333Y-96970000D01*
X147805000Y-97003334D01*
X147738333Y-97036667D01*
X147671667Y-97103334D01*
X147638333Y-97203334D01*
X147638333Y-97370000D01*
X148271667Y-96703334D02*
X148305000Y-96670000D01*
X148338333Y-96603334D01*
X148338333Y-96436667D01*
X148305000Y-96370000D01*
X148271667Y-96336667D01*
X148205000Y-96303334D01*
X148138333Y-96303334D01*
X148038333Y-96336667D01*
X147638333Y-96736667D01*
X147638333Y-96303334D01*
X148338333Y-95703333D02*
X148338333Y-95836667D01*
X148305000Y-95903333D01*
X148271667Y-95936667D01*
X148171667Y-96003333D01*
X148038333Y-96036667D01*
X147771667Y-96036667D01*
X147705000Y-96003333D01*
X147671667Y-95970000D01*
X147638333Y-95903333D01*
X147638333Y-95770000D01*
X147671667Y-95703333D01*
X147705000Y-95670000D01*
X147771667Y-95636667D01*
X147938333Y-95636667D01*
X148005000Y-95670000D01*
X148038333Y-95703333D01*
X148071667Y-95770000D01*
X148071667Y-95903333D01*
X148038333Y-95970000D01*
X148005000Y-96003333D01*
X147938333Y-96036667D01*
X147638333Y-94830000D02*
X148338333Y-94830000D01*
X148338333Y-94663334D01*
X148305000Y-94563334D01*
X148238333Y-94496667D01*
X148171667Y-94463334D01*
X148038333Y-94430000D01*
X147938333Y-94430000D01*
X147805000Y-94463334D01*
X147738333Y-94496667D01*
X147671667Y-94563334D01*
X147638333Y-94663334D01*
X147638333Y-94830000D01*
X148271667Y-94163334D02*
X148305000Y-94130000D01*
X148338333Y-94063334D01*
X148338333Y-93896667D01*
X148305000Y-93830000D01*
X148271667Y-93796667D01*
X148205000Y-93763334D01*
X148138333Y-93763334D01*
X148038333Y-93796667D01*
X147638333Y-94196667D01*
X147638333Y-93763334D01*
X148338333Y-93130000D02*
X148338333Y-93463333D01*
X148005000Y-93496667D01*
X148038333Y-93463333D01*
X148071667Y-93396667D01*
X148071667Y-93230000D01*
X148038333Y-93163333D01*
X148005000Y-93130000D01*
X147938333Y-93096667D01*
X147771667Y-93096667D01*
X147705000Y-93130000D01*
X147671667Y-93163333D01*
X147638333Y-93230000D01*
X147638333Y-93396667D01*
X147671667Y-93463333D01*
X147705000Y-93496667D01*
X147638333Y-92290000D02*
X148338333Y-92290000D01*
X148338333Y-92123334D01*
X148305000Y-92023334D01*
X148238333Y-91956667D01*
X148171667Y-91923334D01*
X148038333Y-91890000D01*
X147938333Y-91890000D01*
X147805000Y-91923334D01*
X147738333Y-91956667D01*
X147671667Y-92023334D01*
X147638333Y-92123334D01*
X147638333Y-92290000D01*
X148338333Y-91656667D02*
X148338333Y-91223334D01*
X148071667Y-91456667D01*
X148071667Y-91356667D01*
X148038333Y-91290000D01*
X148005000Y-91256667D01*
X147938333Y-91223334D01*
X147771667Y-91223334D01*
X147705000Y-91256667D01*
X147671667Y-91290000D01*
X147638333Y-91356667D01*
X147638333Y-91556667D01*
X147671667Y-91623334D01*
X147705000Y-91656667D01*
X148338333Y-90990000D02*
X148338333Y-90556667D01*
X148071667Y-90790000D01*
X148071667Y-90690000D01*
X148038333Y-90623333D01*
X148005000Y-90590000D01*
X147938333Y-90556667D01*
X147771667Y-90556667D01*
X147705000Y-90590000D01*
X147671667Y-90623333D01*
X147638333Y-90690000D01*
X147638333Y-90890000D01*
X147671667Y-90956667D01*
X147705000Y-90990000D01*
X147638333Y-89750000D02*
X148338333Y-89750000D01*
X148338333Y-89583334D01*
X148305000Y-89483334D01*
X148238333Y-89416667D01*
X148171667Y-89383334D01*
X148038333Y-89350000D01*
X147938333Y-89350000D01*
X147805000Y-89383334D01*
X147738333Y-89416667D01*
X147671667Y-89483334D01*
X147638333Y-89583334D01*
X147638333Y-89750000D01*
X148338333Y-89116667D02*
X148338333Y-88683334D01*
X148071667Y-88916667D01*
X148071667Y-88816667D01*
X148038333Y-88750000D01*
X148005000Y-88716667D01*
X147938333Y-88683334D01*
X147771667Y-88683334D01*
X147705000Y-88716667D01*
X147671667Y-88750000D01*
X147638333Y-88816667D01*
X147638333Y-89016667D01*
X147671667Y-89083334D01*
X147705000Y-89116667D01*
X148271667Y-88416667D02*
X148305000Y-88383333D01*
X148338333Y-88316667D01*
X148338333Y-88150000D01*
X148305000Y-88083333D01*
X148271667Y-88050000D01*
X148205000Y-88016667D01*
X148138333Y-88016667D01*
X148038333Y-88050000D01*
X147638333Y-88450000D01*
X147638333Y-88016667D01*
X147638333Y-87210000D02*
X148338333Y-87210000D01*
X148338333Y-87043334D01*
X148305000Y-86943334D01*
X148238333Y-86876667D01*
X148171667Y-86843334D01*
X148038333Y-86810000D01*
X147938333Y-86810000D01*
X147805000Y-86843334D01*
X147738333Y-86876667D01*
X147671667Y-86943334D01*
X147638333Y-87043334D01*
X147638333Y-87210000D01*
X148338333Y-86576667D02*
X148338333Y-86143334D01*
X148071667Y-86376667D01*
X148071667Y-86276667D01*
X148038333Y-86210000D01*
X148005000Y-86176667D01*
X147938333Y-86143334D01*
X147771667Y-86143334D01*
X147705000Y-86176667D01*
X147671667Y-86210000D01*
X147638333Y-86276667D01*
X147638333Y-86476667D01*
X147671667Y-86543334D01*
X147705000Y-86576667D01*
X148338333Y-85510000D02*
X148338333Y-85843333D01*
X148005000Y-85876667D01*
X148038333Y-85843333D01*
X148071667Y-85776667D01*
X148071667Y-85610000D01*
X148038333Y-85543333D01*
X148005000Y-85510000D01*
X147938333Y-85476667D01*
X147771667Y-85476667D01*
X147705000Y-85510000D01*
X147671667Y-85543333D01*
X147638333Y-85610000D01*
X147638333Y-85776667D01*
X147671667Y-85843333D01*
X147705000Y-85876667D01*
X147638333Y-84670000D02*
X148338333Y-84670000D01*
X148338333Y-84503334D01*
X148305000Y-84403334D01*
X148238333Y-84336667D01*
X148171667Y-84303334D01*
X148038333Y-84270000D01*
X147938333Y-84270000D01*
X147805000Y-84303334D01*
X147738333Y-84336667D01*
X147671667Y-84403334D01*
X147638333Y-84503334D01*
X147638333Y-84670000D01*
X148338333Y-84036667D02*
X148338333Y-83603334D01*
X148071667Y-83836667D01*
X148071667Y-83736667D01*
X148038333Y-83670000D01*
X148005000Y-83636667D01*
X147938333Y-83603334D01*
X147771667Y-83603334D01*
X147705000Y-83636667D01*
X147671667Y-83670000D01*
X147638333Y-83736667D01*
X147638333Y-83936667D01*
X147671667Y-84003334D01*
X147705000Y-84036667D01*
X148105000Y-83003333D02*
X147638333Y-83003333D01*
X148371667Y-83170000D02*
X147871667Y-83336667D01*
X147871667Y-82903333D01*
X147671667Y-82146667D02*
X147638333Y-82046667D01*
X147638333Y-81880000D01*
X147671667Y-81813333D01*
X147705000Y-81780000D01*
X147771667Y-81746667D01*
X147838333Y-81746667D01*
X147905000Y-81780000D01*
X147938333Y-81813333D01*
X147971667Y-81880000D01*
X148005000Y-82013333D01*
X148038333Y-82080000D01*
X148071667Y-82113333D01*
X148138333Y-82146667D01*
X148205000Y-82146667D01*
X148271667Y-82113333D01*
X148305000Y-82080000D01*
X148338333Y-82013333D01*
X148338333Y-81846667D01*
X148305000Y-81746667D01*
X148338333Y-81546666D02*
X147638333Y-81313333D01*
X148338333Y-81080000D01*
X147638333Y-80846666D02*
X148338333Y-80846666D01*
X147638333Y-80446666D01*
X148338333Y-80446666D01*
X147671667Y-79590000D02*
X147638333Y-79490000D01*
X147638333Y-79323333D01*
X147671667Y-79256666D01*
X147705000Y-79223333D01*
X147771667Y-79190000D01*
X147838333Y-79190000D01*
X147905000Y-79223333D01*
X147938333Y-79256666D01*
X147971667Y-79323333D01*
X148005000Y-79456666D01*
X148038333Y-79523333D01*
X148071667Y-79556666D01*
X148138333Y-79590000D01*
X148205000Y-79590000D01*
X148271667Y-79556666D01*
X148305000Y-79523333D01*
X148338333Y-79456666D01*
X148338333Y-79290000D01*
X148305000Y-79190000D01*
X148338333Y-78989999D02*
X147638333Y-78756666D01*
X148338333Y-78523333D01*
X147638333Y-78289999D02*
X148338333Y-78289999D01*
X148338333Y-78023333D01*
X148305000Y-77956666D01*
X148271667Y-77923333D01*
X148205000Y-77889999D01*
X148105000Y-77889999D01*
X148038333Y-77923333D01*
X148005000Y-77956666D01*
X147971667Y-78023333D01*
X147971667Y-78289999D01*
X148005000Y-76716666D02*
X148005000Y-76483333D01*
X147638333Y-76383333D02*
X147638333Y-76716666D01*
X148338333Y-76716666D01*
X148338333Y-76383333D01*
X147638333Y-76083333D02*
X148338333Y-76083333D01*
X147638333Y-75683333D01*
X148338333Y-75683333D01*
X148338333Y-74526667D02*
X148338333Y-74093334D01*
X148071667Y-74326667D01*
X148071667Y-74226667D01*
X148038333Y-74160000D01*
X148005000Y-74126667D01*
X147938333Y-74093334D01*
X147771667Y-74093334D01*
X147705000Y-74126667D01*
X147671667Y-74160000D01*
X147638333Y-74226667D01*
X147638333Y-74426667D01*
X147671667Y-74493334D01*
X147705000Y-74526667D01*
X148338333Y-73893333D02*
X147638333Y-73660000D01*
X148338333Y-73426667D01*
X148338333Y-73260000D02*
X148338333Y-72826667D01*
X148071667Y-73060000D01*
X148071667Y-72960000D01*
X148038333Y-72893333D01*
X148005000Y-72860000D01*
X147938333Y-72826667D01*
X147771667Y-72826667D01*
X147705000Y-72860000D01*
X147671667Y-72893333D01*
X147638333Y-72960000D01*
X147638333Y-73160000D01*
X147671667Y-73226667D01*
X147705000Y-73260000D01*
X148305000Y-71653333D02*
X148338333Y-71719999D01*
X148338333Y-71819999D01*
X148305000Y-71919999D01*
X148238333Y-71986666D01*
X148171667Y-72019999D01*
X148038333Y-72053333D01*
X147938333Y-72053333D01*
X147805000Y-72019999D01*
X147738333Y-71986666D01*
X147671667Y-71919999D01*
X147638333Y-71819999D01*
X147638333Y-71753333D01*
X147671667Y-71653333D01*
X147705000Y-71619999D01*
X147938333Y-71619999D01*
X147938333Y-71753333D01*
X147638333Y-71319999D02*
X148338333Y-71319999D01*
X147638333Y-70919999D01*
X148338333Y-70919999D01*
X147638333Y-70586666D02*
X148338333Y-70586666D01*
X148338333Y-70420000D01*
X148305000Y-70320000D01*
X148238333Y-70253333D01*
X148171667Y-70220000D01*
X148038333Y-70186666D01*
X147938333Y-70186666D01*
X147805000Y-70220000D01*
X147738333Y-70253333D01*
X147671667Y-70320000D01*
X147638333Y-70420000D01*
X147638333Y-70586666D01*
%LPC*%
D12*
X149860000Y-71120000D03*
D13*
X149860000Y-73660000D03*
X149860000Y-76200000D03*
X149860000Y-78740000D03*
X149860000Y-81280000D03*
X149860000Y-83820000D03*
X149860000Y-86360000D03*
X149860000Y-88900000D03*
X149860000Y-91440000D03*
X149860000Y-93980000D03*
X149860000Y-96520000D03*
X149860000Y-99060000D03*
X149860000Y-101600000D03*
X149860000Y-104140000D03*
X149860000Y-106680000D03*
X149860000Y-109220000D03*
X149860000Y-111760000D03*
X192976500Y-73660000D03*
X192976500Y-76200000D03*
X192976500Y-78740000D03*
X192976500Y-81280000D03*
X192976500Y-83820000D03*
X192976500Y-86360000D03*
X192976500Y-88900000D03*
X192976500Y-91440000D03*
X192976500Y-93980000D03*
X192976500Y-96520000D03*
X192976500Y-99060000D03*
X192976500Y-101600000D03*
X192976500Y-104140000D03*
X192976500Y-106680000D03*
X192976500Y-109220000D03*
X192976500Y-111760000D03*
M02*
